<svg width="210" height="54" viewBox="0 0 210 54" fill="none" xmlns="http://www.w3.org/2000/svg">
<g filter="url(#filter0_d)">
<rect x="5" y="6.27612" width="200" height="37.2385" rx="18.6192" fill="white"/>
<path d="M78.9932 31.8867C78.9932 31.9909 78.9542 32.0625 78.876 32.1016C78.8109 32.1406 78.7979 32.2318 78.837 32.375C78.7328 32.388 78.6417 32.4401 78.5635 32.5312C78.4854 32.6224 78.3943 32.668 78.2901 32.668C78.225 32.668 78.1729 32.6354 78.1338 32.5703C78.1078 32.6615 78.0557 32.7266 77.9776 32.7656C77.9125 32.8047 77.8409 32.8372 77.7627 32.8633C77.6846 32.8893 77.6065 32.9219 77.5284 32.9609C77.4502 33 77.3982 33.0586 77.3721 33.1367H77.2745C77.1182 33.1367 76.9945 33.2018 76.9034 33.332C76.8252 33.4622 76.7276 33.5273 76.6104 33.5273C76.5713 33.5273 76.5453 33.5208 76.5323 33.5078C76.4672 33.5208 76.4411 33.5599 76.4542 33.625C76.4672 33.7031 76.4476 33.7552 76.3956 33.7812H76.2979C75.9594 33.7812 75.6143 33.8529 75.2627 33.9961C74.9112 34.1393 74.5531 34.3021 74.1885 34.4844C73.837 34.6667 73.4724 34.8359 73.0948 34.9922C72.7302 35.1615 72.3591 35.2721 71.9815 35.3242C71.9034 35.4023 71.8057 35.4609 71.6885 35.5C71.5844 35.5521 71.4672 35.5911 71.337 35.6172C71.2068 35.6432 71.0766 35.6693 70.9463 35.6953C70.8292 35.7344 70.725 35.793 70.6338 35.8711C70.3083 35.8971 69.9828 35.9557 69.6573 36.0469C69.3318 36.138 69.0062 36.2227 68.6807 36.3008C68.3682 36.3919 68.0427 36.4635 67.7042 36.5156C67.3786 36.5807 67.0466 36.6003 66.7081 36.5742C66.6039 36.6523 66.4867 36.7109 66.3565 36.75C66.2393 36.8021 66.1286 36.8672 66.0245 36.9453C65.4906 36.8672 64.9568 36.8086 64.4229 36.7695C63.9021 36.7305 63.3877 36.6393 62.8799 36.4961C62.8799 36.457 62.8669 36.431 62.8409 36.418C62.8148 36.4049 62.7823 36.3919 62.7432 36.3789C62.7172 36.3789 62.6911 36.3659 62.6651 36.3398C62.6391 36.3268 62.6391 36.2943 62.6651 36.2422C62.5479 36.2812 62.4437 36.3008 62.3526 36.3008C62.2224 36.3008 62.0922 36.2682 61.962 36.2031C61.8448 36.138 61.7146 36.0664 61.5713 35.9883C61.4411 35.9102 61.3044 35.832 61.1612 35.7539C61.018 35.6888 60.8617 35.6562 60.6924 35.6562C60.5883 35.5521 60.4906 35.4479 60.3995 35.3438C60.3213 35.2396 60.2627 35.1094 60.2237 34.9531C60.1716 34.9401 60.113 34.9401 60.0479 34.9531C59.9958 34.9661 59.9502 34.9727 59.9112 34.9727C59.8331 34.9727 59.794 34.9466 59.794 34.8945C59.5206 34.6992 59.3252 34.4909 59.2081 34.2695C59.0909 34.0482 58.9607 33.7943 58.8174 33.5078C58.7784 33.4167 58.7263 33.3385 58.6612 33.2734C58.6091 33.2214 58.57 33.1562 58.544 33.0781C58.4919 32.9479 58.4594 32.8112 58.4463 32.668C58.4333 32.5247 58.4203 32.388 58.4073 32.2578C58.4073 32.1146 58.3877 31.9779 58.3487 31.8477C58.3226 31.7044 58.2641 31.5742 58.1729 31.457C58.1989 30.9622 58.251 30.4674 58.3292 29.9727C58.4203 29.4779 58.531 28.9831 58.6612 28.4883C58.7133 28.2669 58.7719 28.0521 58.837 27.8438C58.9021 27.6354 58.9607 27.4206 59.0127 27.1992C59.0258 27.1211 59.0453 27.069 59.0713 27.043C59.1104 27.0039 59.143 26.9779 59.169 26.9648L59.2471 26.9062C59.2732 26.8802 59.2927 26.8411 59.3057 26.7891L59.462 26.125C59.5661 25.6953 59.7029 25.2786 59.8721 24.875C60.0414 24.4714 60.2693 24.1003 60.5557 23.7617C60.5818 23.4362 60.6534 23.1302 60.7706 22.8438C60.9008 22.5443 61.044 22.2578 61.2002 21.9844C61.3565 21.6979 61.5127 21.418 61.669 21.1445C61.8252 20.8711 61.9489 20.5781 62.0401 20.2656L62.0206 20.2266C62.0206 20.1745 62.0466 20.1484 62.0987 20.1484C62.1638 20.1354 62.2094 20.1289 62.2354 20.1289C62.2484 19.9206 62.294 19.7448 62.3721 19.6016C62.4633 19.4453 62.5544 19.3021 62.6456 19.1719C62.7497 19.0417 62.8409 18.9049 62.919 18.7617C63.0101 18.6055 63.0622 18.4232 63.0752 18.2148C63.3226 18.0716 63.531 17.8958 63.7002 17.6875C63.8825 17.4661 64.0518 17.2448 64.2081 17.0234C64.3773 16.7891 64.5531 16.5677 64.7354 16.3594C64.9177 16.138 65.1391 15.9622 65.3995 15.832C65.4646 15.7539 65.4841 15.6432 65.4581 15.5C65.8617 15.2005 66.2784 14.9336 66.7081 14.6992C67.1377 14.4648 67.5414 14.1914 67.919 13.8789H68.6221C68.7914 13.7487 68.9802 13.6836 69.1885 13.6836C69.3448 13.6836 69.4945 13.7161 69.6377 13.7812C69.794 13.8464 69.9372 13.9245 70.0674 14.0156C70.2107 14.0938 70.3539 14.1784 70.4971 14.2695C70.6404 14.3477 70.7836 14.4062 70.9268 14.4453C71.07 14.6406 71.1677 14.8685 71.2198 15.1289C71.2849 15.3763 71.35 15.6107 71.4151 15.832C71.2979 16.1836 71.2263 16.5482 71.2002 16.9258C71.1742 17.2904 71.1286 17.6549 71.0635 18.0195C70.9724 18.1237 70.8943 18.2409 70.8292 18.3711C70.7641 18.4883 70.6924 18.612 70.6143 18.7422C70.5492 18.8594 70.4776 18.9766 70.3995 19.0938C70.3213 19.1979 70.2172 19.2826 70.087 19.3477C69.9828 19.7253 69.82 20.0247 69.5987 20.2461C69.3773 20.4674 69.1625 20.7279 68.9542 21.0273C68.7588 21.1576 68.5505 21.2227 68.3292 21.2227C68.1469 21.2227 67.9841 21.1836 67.8409 21.1055C67.6976 21.0143 67.5674 20.9036 67.4502 20.7734C67.3331 20.6302 67.2354 20.4805 67.1573 20.3242C67.0922 20.1549 67.0401 19.9922 67.001 19.8359C67.0922 19.5625 67.2354 19.3281 67.4307 19.1328C67.6391 18.9375 67.8474 18.7422 68.0557 18.5469C68.2641 18.3516 68.4463 18.1432 68.6026 17.9219C68.7588 17.7005 68.837 17.4336 68.837 17.1211C68.837 17.0951 68.8305 17.069 68.8174 17.043C68.8174 17.0169 68.8174 16.9909 68.8174 16.9648C68.8174 16.9128 68.837 16.8672 68.876 16.8281C68.9151 16.7891 68.9542 16.7565 68.9932 16.7305L69.1104 16.6328C69.1495 16.5938 69.169 16.5482 69.169 16.4961C69.169 16.444 69.143 16.3919 69.0909 16.3398C68.5961 16.3789 68.2185 16.4635 67.9581 16.5938C67.7107 16.724 67.5154 16.8672 67.3721 17.0234C67.2289 17.1797 67.0987 17.3359 66.9815 17.4922C66.8773 17.6354 66.7211 17.7396 66.5127 17.8047C66.4737 17.9089 66.4151 18 66.337 18.0781C66.2719 18.1432 66.2002 18.2148 66.1221 18.293C66.044 18.3581 65.9724 18.4362 65.9073 18.5273C65.8552 18.6185 65.8226 18.7292 65.8096 18.8594H65.4581C65.406 18.9766 65.3279 19.0938 65.2237 19.2109C65.1325 19.3151 65.0349 19.4193 64.9307 19.5234C64.8396 19.6276 64.7549 19.7448 64.6768 19.875C64.6117 19.9922 64.5922 20.1224 64.6182 20.2656C64.475 20.3177 64.3643 20.4023 64.2862 20.5195C64.2211 20.6367 64.1234 20.7344 63.9932 20.8125V20.9297C63.9932 21.0339 63.9737 21.1315 63.9346 21.2227C63.8956 21.3138 63.8891 21.4115 63.9151 21.5156C63.7588 21.6589 63.6417 21.8411 63.5635 22.0625C63.4984 22.2708 63.4268 22.4661 63.3487 22.6484C63.1664 22.7396 63.0427 22.8633 62.9776 23.0195C62.9125 23.1758 62.8799 23.3581 62.8799 23.5664C62.6846 23.7617 62.5088 23.9896 62.3526 24.25C62.1963 24.5104 62.0531 24.7773 61.9229 25.0508C61.8057 25.3242 61.695 25.6042 61.5909 25.8906C61.4867 26.1771 61.376 26.444 61.2588 26.6914V27.2578C61.0766 27.4661 60.9463 27.7135 60.8682 28C60.8031 28.2734 60.6989 28.5208 60.5557 28.7422C60.5297 28.8854 60.5167 29.0286 60.5167 29.1719C60.5297 29.3151 60.5362 29.4583 60.5362 29.6016C60.5362 29.7578 60.5232 29.9206 60.4971 30.0898C60.4711 30.2591 60.4255 30.4154 60.3604 30.5586C60.4125 30.7539 60.4516 30.9883 60.4776 31.2617C60.5036 31.5221 60.5492 31.7891 60.6143 32.0625C60.6794 32.3229 60.7706 32.5638 60.8877 32.7852C61.0049 32.9935 61.1742 33.1367 61.3956 33.2148C61.4476 33.5013 61.5713 33.7161 61.7667 33.8594C61.975 34.0156 62.2094 34.1393 62.4698 34.2305C62.7302 34.3216 62.9971 34.3997 63.2706 34.4648C63.544 34.543 63.7849 34.6406 63.9932 34.7578C64.0713 34.7188 64.1625 34.6992 64.2667 34.6992C64.3708 34.6992 64.462 34.7122 64.5401 34.7383C64.6312 34.7643 64.7289 34.7904 64.8331 34.8164C65.0154 34.7904 65.2367 34.7773 65.4971 34.7773C65.7706 34.7773 66.044 34.7643 66.3174 34.7383C66.5909 34.7253 66.8448 34.6927 67.0792 34.6406C67.3135 34.5885 67.5023 34.4909 67.6456 34.3477C67.7367 34.3477 67.7953 34.3737 67.8213 34.4258C67.8604 34.4779 67.9255 34.5039 68.0167 34.5039C68.1078 34.5039 68.2445 34.4779 68.4268 34.4258C68.6091 34.3867 68.7979 34.3346 68.9932 34.2695C69.1885 34.2174 69.3708 34.1589 69.5401 34.0938C69.7224 34.0286 69.8526 33.9701 69.9307 33.918C69.9698 33.931 70.0088 33.9375 70.0479 33.9375H70.1846C70.3669 33.9375 70.5362 33.9049 70.6924 33.8398C70.8487 33.7747 71.018 33.7552 71.2002 33.7812C71.7992 33.4818 72.4047 33.2214 73.0167 33C73.6417 32.7917 74.2732 32.6029 74.9112 32.4336C74.9893 32.3164 75.0805 32.2318 75.1846 32.1797C75.3018 32.1276 75.4255 32.0885 75.5557 32.0625C75.6859 32.0234 75.8161 31.9974 75.9463 31.9844C76.0766 31.9583 76.2002 31.9258 76.3174 31.8867C76.3956 31.8477 76.4607 31.8021 76.5127 31.75C76.5779 31.6849 76.656 31.6328 76.7471 31.5938C76.8383 31.5547 76.9359 31.5286 77.0401 31.5156C77.1573 31.5026 77.268 31.4896 77.3721 31.4766C77.4893 31.4505 77.5935 31.418 77.6846 31.3789C77.7888 31.3398 77.8734 31.2747 77.9385 31.1836C78.1208 31.2617 78.3031 31.3464 78.4854 31.4375C78.6807 31.5286 78.8435 31.6589 78.9737 31.8281L78.9932 31.8867ZM101.024 29.6016C100.998 29.7969 100.927 29.9466 100.81 30.0508C100.705 30.1549 100.582 30.2526 100.439 30.3438C100.373 30.3307 100.308 30.3242 100.243 30.3242C100.191 30.3112 100.133 30.3047 100.067 30.3047C99.6638 30.2917 99.2797 30.3438 98.9151 30.4609C98.5635 30.5781 98.1989 30.6628 97.8213 30.7148C97.6911 30.7409 97.5674 30.7539 97.4502 30.7539C97.3461 30.7409 97.2354 30.7474 97.1182 30.7734C96.7016 30.8385 96.2588 30.8906 95.7901 30.9297C95.3213 30.9688 94.8526 31.0208 94.3838 31.0859C93.9151 31.138 93.4529 31.2096 92.9971 31.3008C92.5544 31.3789 92.1377 31.4961 91.7471 31.6523C91.7081 31.6263 91.669 31.6003 91.6299 31.5742C91.5909 31.5352 91.5453 31.5156 91.4932 31.5156C91.363 31.5156 91.2393 31.5352 91.1221 31.5742C91.0049 31.6133 90.8877 31.6263 90.7706 31.6133C90.6404 31.6914 90.4971 31.75 90.3409 31.7891C90.1976 31.8151 90.0479 31.8411 89.8917 31.8672C89.7484 31.8802 89.6052 31.9062 89.462 31.9453C89.3187 31.9844 89.182 32.056 89.0518 32.1602C88.9476 32.1081 88.8174 32.082 88.6612 32.082C88.518 32.069 88.4203 32.0169 88.3682 31.9258C88.0687 32.069 87.7497 32.1602 87.4112 32.1992C87.0857 32.2383 86.7536 32.2513 86.4151 32.2383C86.1937 32.2253 85.9398 32.1927 85.6534 32.1406C85.3669 32.0885 85.0805 32.0169 84.794 31.9258C84.5075 31.8216 84.2406 31.7044 83.9932 31.5742C83.7458 31.431 83.557 31.2617 83.4268 31.0664C83.3357 30.9362 83.2706 30.793 83.2315 30.6367C83.1924 30.4805 83.1013 30.3633 82.9581 30.2852C82.9971 29.9857 83.0427 29.6927 83.0948 29.4062C83.1469 29.1198 83.1989 28.8268 83.251 28.5273C83.5114 28.306 83.7588 28.0716 83.9932 27.8242C84.2276 27.5768 84.4489 27.3164 84.6573 27.043C84.9047 26.9258 85.1325 26.7826 85.3409 26.6133C85.5622 26.444 85.7771 26.2747 85.9854 26.1055C86.2068 25.9232 86.4216 25.7474 86.6299 25.5781C86.8513 25.4089 87.0857 25.2591 87.3331 25.1289C87.3721 25.0378 87.4242 24.9661 87.4893 24.9141C87.5674 24.849 87.6456 24.7904 87.7237 24.7383C87.8018 24.6732 87.8734 24.6081 87.9385 24.543C88.0036 24.4648 88.0492 24.3737 88.0752 24.2695C88.531 23.9961 88.9281 23.651 89.2667 23.2344C89.6052 22.8177 89.8266 22.349 89.9307 21.8281C89.7094 21.6458 89.4555 21.5286 89.169 21.4766C88.8956 21.4115 88.6091 21.3659 88.3096 21.3398C88.0492 21.3268 87.7758 21.3268 87.4893 21.3398C87.2159 21.3529 86.9359 21.3464 86.6495 21.3203C86.363 21.4115 86.0635 21.4701 85.751 21.4961C85.4516 21.5221 85.1521 21.5482 84.8526 21.5742C84.5531 21.5872 84.2536 21.6263 83.9542 21.6914C83.6677 21.7435 83.3877 21.8477 83.1143 22.0039C83.0622 22.0039 83.0101 21.9974 82.9581 21.9844C82.919 21.9714 82.8734 21.9648 82.8213 21.9648C82.4047 21.9518 82.0141 22.0365 81.6495 22.2188C81.2849 22.388 80.9268 22.5573 80.5752 22.7266C80.5492 22.7786 80.5362 22.8177 80.5362 22.8438C80.5362 22.9219 80.5492 23 80.5752 23.0781C80.6143 23.1432 80.6338 23.2148 80.6338 23.293C80.6208 23.306 80.6143 23.319 80.6143 23.332C80.6143 23.3451 80.6078 23.3581 80.5948 23.3711C80.5818 23.4362 80.5622 23.4948 80.5362 23.5469C80.5232 23.599 80.5036 23.6576 80.4776 23.7227C80.3344 24.1393 80.2562 24.5495 80.2432 24.9531C80.2302 25.2917 80.2302 25.6237 80.2432 25.9492C80.2562 26.2747 80.2562 26.6068 80.2432 26.9453C80.2172 27.362 80.1521 27.7526 80.0479 28.1172C80.113 28.4297 80.1716 28.7617 80.2237 29.1133C80.2758 29.4518 80.3409 29.7904 80.419 30.1289C80.4971 30.4674 80.5883 30.7995 80.6924 31.125C80.8096 31.4375 80.9594 31.737 81.1417 32.0234C81.1286 32.0495 81.1351 32.069 81.1612 32.082C81.1872 32.0951 81.2133 32.1016 81.2393 32.1016H81.3956C81.4607 32.1016 81.4867 32.1276 81.4737 32.1797C81.4997 32.2188 81.5193 32.2578 81.5323 32.2969C81.5453 32.3229 81.5713 32.349 81.6104 32.375C81.6364 32.4141 81.6364 32.4661 81.6104 32.5312C81.5974 32.7917 81.5323 33.0326 81.4151 33.2539C81.2979 33.4753 81.2263 33.7161 81.2002 33.9766C81.044 34.0156 80.9008 34.0352 80.7706 34.0352C80.5492 34.0221 80.3539 33.957 80.1846 33.8398C80.0154 33.7357 79.8591 33.6055 79.7159 33.4492C79.5726 33.293 79.4359 33.1367 79.3057 32.9805C79.1755 32.8112 79.0323 32.668 78.876 32.5508C78.7849 32.1862 78.6937 31.7826 78.6026 31.3398C78.5245 30.8971 78.3877 30.5195 78.1924 30.207C78.2445 30.0898 78.2706 29.9466 78.2706 29.7773C78.2836 29.5169 78.2575 29.263 78.1924 29.0156C78.1404 28.7552 78.1273 28.4948 78.1534 28.2344C78.1534 28.0911 78.1664 27.9479 78.1924 27.8047C78.2315 27.6615 78.2575 27.5182 78.2706 27.375C78.2836 27.1536 78.2575 26.9388 78.1924 26.7305C78.1404 26.5221 78.1208 26.3073 78.1338 26.0859C78.1469 25.9818 78.1664 25.8841 78.1924 25.793C78.2315 25.6888 78.2836 25.5977 78.3487 25.5195C78.2836 25.3633 78.2641 25.2135 78.2901 25.0703C78.3031 24.849 78.3292 24.6406 78.3682 24.4453C78.4073 24.25 78.4333 24.0547 78.4463 23.8594C78.4463 23.7552 78.4398 23.6576 78.4268 23.5664C78.4138 23.4622 78.3943 23.3646 78.3682 23.2734L78.1924 23.2148C78.1143 23.2148 78.0362 23.2344 77.9581 23.2734C77.893 23.3125 77.8344 23.3581 77.7823 23.4102C77.7302 23.4622 77.6846 23.5078 77.6456 23.5469C77.6065 23.5729 77.5674 23.5859 77.5284 23.5859C77.5023 23.5859 77.4698 23.5859 77.4307 23.5859C77.4047 23.5729 77.3786 23.5664 77.3526 23.5664C77.3266 23.5664 77.2745 23.5924 77.1963 23.6445C77.1312 23.6966 77.0466 23.7552 76.9424 23.8203C76.8513 23.8724 76.7601 23.931 76.669 23.9961C76.5779 24.0482 76.5062 24.0807 76.4542 24.0938C76.3109 24.0677 76.1937 24.0221 76.1026 23.957C76.0245 23.8789 75.9463 23.8073 75.8682 23.7422C75.8031 23.6641 75.7315 23.599 75.6534 23.5469C75.5752 23.4818 75.4776 23.4557 75.3604 23.4688C75.3213 23.3906 75.3018 23.306 75.3018 23.2148C75.2888 23.1237 75.2888 23.0326 75.3018 22.9414V22.6289C75.393 22.4596 75.5167 22.3229 75.6729 22.2188C75.8161 22.1016 75.9724 22.0039 76.1417 21.9258L76.6495 21.6914C76.8187 21.6133 76.975 21.5156 77.1182 21.3984H77.294C77.5284 21.4115 77.7302 21.3659 77.8995 21.2617C78.0818 21.1576 78.251 21.0404 78.4073 20.9102C78.5635 20.7669 78.7198 20.6237 78.876 20.4805C79.0453 20.3372 79.2276 20.2266 79.4229 20.1484C79.5661 20.2135 79.7159 20.2721 79.8721 20.3242C80.0284 20.3633 80.1911 20.3893 80.3604 20.4023C80.5297 20.4023 80.7055 20.3763 80.8877 20.3242C81.07 20.2721 81.2133 20.1745 81.3174 20.0312C81.3825 20.0573 81.4346 20.0768 81.4737 20.0898C81.5258 20.0898 81.5844 20.0898 81.6495 20.0898C81.8448 20.1029 82.0401 20.0768 82.2354 20.0117C82.4307 19.9336 82.6195 19.8424 82.8018 19.7383C83.0622 19.7513 83.3161 19.7383 83.5635 19.6992C83.8239 19.6471 84.0779 19.5951 84.3252 19.543C84.5857 19.4909 84.8396 19.4453 85.087 19.4062C85.3474 19.3542 85.6078 19.3346 85.8682 19.3477C86.2979 19.3607 86.7211 19.3216 87.1377 19.2305C87.5544 19.1393 87.9776 19.1068 88.4073 19.1328C88.7068 19.1458 88.9997 19.1719 89.2862 19.2109C89.5857 19.237 89.8851 19.2435 90.1846 19.2305C90.3539 19.3086 90.5036 19.3802 90.6338 19.4453C90.7771 19.4974 90.9529 19.5104 91.1612 19.4844C91.5779 19.8359 91.9555 20.2461 92.294 20.7148V21.0469C92.281 21.3464 92.2289 21.6393 92.1377 21.9258C92.0466 22.2122 91.9359 22.4987 91.8057 22.7852C91.6885 23.0586 91.5583 23.332 91.4151 23.6055C91.2719 23.8659 91.1351 24.1263 91.0049 24.3867C90.1586 25.1549 89.3122 25.9167 88.4659 26.6719C87.6195 27.4271 86.7471 28.1562 85.8487 28.8594C85.8226 28.9896 85.7836 29.1068 85.7315 29.2109C85.6924 29.3151 85.6664 29.4258 85.6534 29.543C85.6534 29.6081 85.6599 29.6602 85.6729 29.6992C85.7641 29.7253 85.8422 29.7773 85.9073 29.8555C85.9854 29.9206 86.0114 30.0117 85.9854 30.1289H86.1612C86.2263 30.1289 86.2588 30.1549 86.2588 30.207L86.5713 30.2266C87.0661 30.2526 87.5609 30.2396 88.0557 30.1875C88.5505 30.1354 89.0453 30.0768 89.5401 30.0117C90.0479 29.9466 90.5492 29.888 91.044 29.8359C91.5388 29.7708 92.0336 29.7318 92.5284 29.7188C92.6456 29.6797 92.7693 29.6471 92.8995 29.6211C93.0297 29.5951 93.1469 29.543 93.251 29.4648H93.3096C93.4008 29.4648 93.4659 29.4909 93.5049 29.543C93.557 29.5951 93.6286 29.6276 93.7198 29.6406C93.7849 29.6406 93.85 29.6276 93.9151 29.6016C93.9932 29.5755 94.0713 29.556 94.1495 29.543C94.3318 29.4909 94.5206 29.4583 94.7159 29.4453C94.9242 29.4323 95.126 29.4128 95.3213 29.3867C96.0766 29.3216 96.8252 29.2826 97.5674 29.2695C98.3096 29.2435 99.0518 29.1458 99.794 28.9766C99.8591 29.0677 99.9502 29.1328 100.067 29.1719C100.185 29.1979 100.308 29.2305 100.439 29.2695C100.569 29.2956 100.686 29.3281 100.79 29.3672C100.907 29.4062 100.985 29.4844 101.024 29.6016ZM107.841 20.5781V20.6562C107.75 20.6823 107.704 20.7474 107.704 20.8516C107.561 20.9167 107.411 20.9688 107.255 21.0078C107.099 21.0339 106.949 21.0794 106.806 21.1445C106.662 21.1315 106.513 21.125 106.356 21.125C106.213 21.112 106.07 21.1055 105.927 21.1055C105.536 21.1055 105.146 21.1185 104.755 21.1445C104.364 21.1706 103.974 21.1706 103.583 21.1445C103.401 21.2487 103.199 21.3333 102.978 21.3984C102.769 21.4505 102.567 21.4766 102.372 21.4766C102.216 21.4766 102.079 21.457 101.962 21.418C101.649 21.5742 101.304 21.7044 100.927 21.8086C100.562 21.9128 100.191 22.0169 99.8135 22.1211C99.4359 22.2122 99.0713 22.3229 98.7198 22.4531C98.3812 22.5703 98.0818 22.7396 97.8213 22.9609C97.7953 23.1432 97.7758 23.3255 97.7627 23.5078C97.7497 23.6771 97.7432 23.8464 97.7432 24.0156C97.7432 24.1979 97.7497 24.3672 97.7627 24.5234C97.7888 24.6797 97.8344 24.8359 97.8995 24.9922C97.9646 25.0182 98.0362 25.0378 98.1143 25.0508C98.2055 25.0638 98.2836 25.0703 98.3487 25.0703C98.4138 25.0703 98.4789 25.0638 98.544 25.0508C98.6091 25.0247 98.6547 24.9792 98.6807 24.9141C98.876 24.888 99.0713 24.8815 99.2667 24.8945C99.462 24.8945 99.6573 24.8945 99.8526 24.8945C100.048 24.8945 100.237 24.888 100.419 24.875C100.614 24.862 100.803 24.8294 100.985 24.7773C101.194 24.7253 101.396 24.6927 101.591 24.6797C101.799 24.6667 102.001 24.6536 102.196 24.6406C102.392 24.6276 102.593 24.6081 102.802 24.582C103.01 24.543 103.225 24.4714 103.446 24.3672C103.616 24.4323 103.785 24.4648 103.954 24.4648C104.136 24.4648 104.312 24.4779 104.481 24.5039C104.573 24.569 104.644 24.6406 104.696 24.7188C104.761 24.7969 104.794 24.888 104.794 24.9922C104.794 25.1745 104.729 25.3568 104.599 25.5391C104.468 25.7214 104.364 25.8906 104.286 26.0469H104.071C103.759 26.0469 103.453 26.0924 103.153 26.1836C102.867 26.2617 102.574 26.3594 102.274 26.4766C101.988 26.5807 101.695 26.6784 101.396 26.7695C101.109 26.8477 100.81 26.8867 100.497 26.8867C100.445 26.8867 100.412 26.9193 100.399 26.9844C100.399 27.0365 100.386 27.0755 100.36 27.1016C100.295 27.0885 100.198 27.082 100.067 27.082C99.768 27.082 99.4815 27.1146 99.2081 27.1797C98.9346 27.2448 98.6547 27.2773 98.3682 27.2773C98.2901 27.2773 98.212 27.2773 98.1338 27.2773C98.0557 27.2643 97.9776 27.2513 97.8995 27.2383C97.8344 27.3424 97.7497 27.4141 97.6456 27.4531C97.5414 27.4792 97.4437 27.5312 97.3526 27.6094C97.3135 27.7266 97.2875 27.8698 97.2745 28.0391C97.2745 28.2083 97.268 28.3841 97.2549 28.5664C97.2549 28.7357 97.2419 28.8984 97.2159 29.0547C97.1898 29.2109 97.1377 29.3346 97.0596 29.4258C97.0726 29.4909 97.1247 29.5169 97.2159 29.5039C97.307 29.4779 97.3526 29.5169 97.3526 29.6211C97.3526 29.7383 97.3396 29.862 97.3135 29.9922C97.2875 30.1224 97.2745 30.2526 97.2745 30.3828C97.2745 30.6302 97.3005 30.9036 97.3526 31.2031C97.4177 31.4896 97.5088 31.7565 97.626 32.0039C97.7562 32.2513 97.9255 32.4596 98.1338 32.6289C98.3422 32.7852 98.6026 32.8633 98.9151 32.8633C99.1234 32.8633 99.3187 32.8242 99.501 32.7461C99.6833 32.668 99.8331 32.5378 99.9502 32.3555L100.048 32.3359C100.1 32.3359 100.146 32.3424 100.185 32.3555C100.237 32.3685 100.289 32.375 100.341 32.375C100.419 32.375 100.517 32.3294 100.634 32.2383C100.764 32.1341 100.901 32.0169 101.044 31.8867C101.2 31.7565 101.356 31.6328 101.513 31.5156C101.669 31.3854 101.819 31.2943 101.962 31.2422C102.053 31.0599 102.138 30.8776 102.216 30.6953C102.307 30.513 102.437 30.3698 102.606 30.2656V29.6992C102.737 29.556 102.873 29.4258 103.017 29.3086C103.173 29.1914 103.29 29.0417 103.368 28.8594C103.433 28.8854 103.492 28.9049 103.544 28.918C103.609 28.931 103.674 28.9375 103.739 28.9375C103.804 28.9375 103.87 28.931 103.935 28.918C104.013 28.9049 104.084 28.8854 104.149 28.8594C104.254 29.0026 104.332 29.1654 104.384 29.3477C104.449 29.5169 104.527 29.6797 104.618 29.8359C104.501 30.0703 104.364 30.3503 104.208 30.6758C104.052 31.0013 103.883 31.3268 103.7 31.6523C103.518 31.9779 103.323 32.2904 103.114 32.5898C102.919 32.8763 102.724 33.0977 102.528 33.2539C102.489 33.293 102.405 33.3385 102.274 33.3906C102.131 33.4948 102.001 33.5924 101.884 33.6836C101.767 33.7878 101.656 33.9049 101.552 34.0352C101.174 34.1523 100.81 34.3086 100.458 34.5039C100.12 34.6992 99.781 34.888 99.4424 35.0703C99.2862 35.0312 99.1169 35.0117 98.9346 35.0117C98.7784 35.0117 98.6221 35.0182 98.4659 35.0312C98.3096 35.0573 98.1404 35.0703 97.9581 35.0703C97.906 35.0052 97.8279 34.9596 97.7237 34.9336C97.6325 34.9206 97.6 34.8555 97.626 34.7383C97.1833 34.7122 96.8252 34.5885 96.5518 34.3672C96.2784 34.1589 96.044 33.8984 95.8487 33.5859C95.6664 33.2734 95.5167 32.9349 95.3995 32.5703C95.2823 32.2057 95.1586 31.8542 95.0284 31.5156V31.457C95.0284 31.3919 95.0544 31.3529 95.1065 31.3398C95.1586 31.3268 95.1846 31.2878 95.1846 31.2227C95.1846 31.1966 95.1781 31.1771 95.1651 31.1641C95.126 31.0208 95.0935 30.8971 95.0674 30.793C95.0414 30.6888 95.0284 30.5651 95.0284 30.4219C95.0284 30.2135 95.0414 30.0117 95.0674 29.8164C95.0935 29.6081 95.1065 29.3997 95.1065 29.1914C95.1065 28.9831 95.0805 28.8008 95.0284 28.6445C95.0805 28.5794 95.126 28.4948 95.1651 28.3906C95.1911 28.2734 95.2107 28.1562 95.2237 28.0391C95.2367 27.9219 95.2432 27.8047 95.2432 27.6875C95.2562 27.5703 95.2758 27.4661 95.3018 27.375C95.2497 27.2318 95.2042 27.1081 95.1651 27.0039C95.126 26.8867 95.1065 26.75 95.1065 26.5938V26.457C95.2367 26.2357 95.3474 26.0078 95.4385 25.7734C95.5297 25.5391 95.6273 25.2982 95.7315 25.0508V24.9922C95.7315 24.6146 95.7185 24.237 95.6924 23.8594C95.6664 23.4818 95.6534 23.1042 95.6534 22.7266V22.3555C95.6534 22.2253 95.6599 22.1016 95.6729 21.9844C95.7771 21.9323 95.8552 21.8607 95.9073 21.7695C95.9594 21.6784 96.0375 21.6068 96.1417 21.5547H96.7862L96.9034 21.3594C96.9424 21.2943 96.9685 21.2227 96.9815 21.1445C97.1247 21.1055 97.2614 21.0534 97.3917 20.9883C97.5349 20.9102 97.6651 20.832 97.7823 20.7539C97.9646 20.6497 98.1273 20.5586 98.2706 20.4805C98.4268 20.3893 98.5766 20.3177 98.7198 20.2656C98.876 20.2005 99.0388 20.1484 99.2081 20.1094C99.3773 20.0703 99.5726 20.0378 99.794 20.0117C99.8982 20.0117 99.9633 19.9922 99.9893 19.9531C100.028 19.9141 100.08 19.8685 100.146 19.8164C100.302 19.8424 100.458 19.8685 100.614 19.8945C100.771 19.9076 100.927 19.9141 101.083 19.9141C101.396 19.9141 101.689 19.8555 101.962 19.7383C102.353 19.7383 102.737 19.7318 103.114 19.7188C103.505 19.7057 103.896 19.6992 104.286 19.6992C104.625 19.6992 104.963 19.7122 105.302 19.7383C105.64 19.7643 105.972 19.8099 106.298 19.875C106.415 19.8359 106.545 19.8164 106.689 19.8164C106.845 19.8164 107.001 19.8359 107.157 19.875C107.327 19.901 107.489 19.901 107.646 19.875C107.659 20.0182 107.691 20.1419 107.743 20.2461C107.808 20.3372 107.841 20.4479 107.841 20.5781ZM120.028 23.3711C120.028 23.5013 119.983 23.5859 119.892 23.625C119.801 23.6641 119.755 23.7422 119.755 23.8594C119.755 23.8984 119.768 23.931 119.794 23.957C119.82 23.9831 119.833 24.0221 119.833 24.0742V24.1523C119.677 24.9076 119.449 25.5651 119.149 26.125C118.863 26.6849 118.524 27.1992 118.134 27.668C117.743 28.1367 117.301 28.5794 116.806 28.9961C116.324 29.4128 115.803 29.849 115.243 30.3047C115.087 30.4349 114.924 30.5651 114.755 30.6953C114.599 30.8255 114.449 30.9622 114.306 31.1055L113.876 31.5156C113.863 31.5286 113.791 31.5612 113.661 31.6133C113.531 31.6523 113.453 31.6784 113.427 31.6914C113.245 31.7695 113.049 31.8607 112.841 31.9648C112.646 32.069 112.476 32.1992 112.333 32.3555C112.073 32.3555 111.851 32.3945 111.669 32.4727C111.487 32.5508 111.285 32.6549 111.064 32.7852C110.998 32.7852 110.94 32.7721 110.888 32.7461C110.849 32.7201 110.803 32.694 110.751 32.668C110.699 32.6419 110.64 32.6289 110.575 32.6289C110.523 32.6159 110.452 32.6224 110.36 32.6484C110.204 32.388 110.035 32.1667 109.853 31.9844C109.67 31.8021 109.423 31.6914 109.11 31.6523C109.071 31.431 108.98 31.2617 108.837 31.1445C108.694 31.0143 108.551 30.8776 108.407 30.7344C108.381 30.6562 108.362 30.5651 108.349 30.4609C108.336 30.3568 108.31 30.2591 108.271 30.168C108.231 30.0768 108.179 29.9987 108.114 29.9336C108.049 29.8685 107.958 29.8359 107.841 29.8359C107.828 29.7578 107.86 29.7188 107.939 29.7188C108.017 29.7188 108.056 29.6862 108.056 29.6211C108.056 29.543 108.043 29.4648 108.017 29.3867C107.991 29.3086 107.978 29.224 107.978 29.1328C107.978 29.0677 107.984 29.0091 107.997 28.957C108.01 28.9049 108.03 28.8464 108.056 28.7812C108.017 28.4297 107.997 28.0716 107.997 27.707C107.997 27.0039 108.043 26.3138 108.134 25.6367C108.238 24.9466 108.29 24.25 108.29 23.5469C108.29 23.2344 108.271 22.9219 108.231 22.6094C108.205 22.2969 108.147 21.9909 108.056 21.6914C107.756 21.7565 107.457 21.8346 107.157 21.9258C106.858 22.0039 106.578 22.1146 106.317 22.2578C106.174 22.1667 106.024 22.1146 105.868 22.1016C105.699 22.0755 105.536 22.0365 105.38 21.9844C105.289 21.8021 105.243 21.6133 105.243 21.418C105.243 21.2357 105.276 21.0599 105.341 20.8906L105.536 20.3828C105.849 20.3177 106.161 20.2201 106.474 20.0898C106.773 19.9596 107.079 19.8424 107.392 19.7383C107.496 19.7122 107.626 19.6797 107.782 19.6406C107.952 19.6016 108.069 19.569 108.134 19.543C108.225 19.5039 108.284 19.4323 108.31 19.3281C108.349 19.2109 108.401 19.1133 108.466 19.0352H108.798C108.876 19.0352 108.961 19.0417 109.052 19.0547C109.143 19.0547 109.228 19.0742 109.306 19.1133C109.774 18.9961 110.243 18.9245 110.712 18.8984C111.181 18.8594 111.662 18.8073 112.157 18.7422C112.209 18.7422 112.287 18.7357 112.392 18.7227L112.724 18.6641C112.841 18.638 112.945 18.6185 113.036 18.6055C113.14 18.5794 113.212 18.5664 113.251 18.5664C113.29 18.5664 113.31 18.5859 113.31 18.625H113.642C114.202 18.625 114.748 18.6966 115.282 18.8398L116.884 19.2695C117.105 19.4518 117.327 19.6276 117.548 19.7969C117.769 19.9661 118.017 20.1159 118.29 20.2461C118.355 20.4544 118.453 20.6237 118.583 20.7539C118.726 20.8711 118.883 21.0013 119.052 21.1445C119.117 21.3138 119.202 21.4961 119.306 21.6914C119.423 21.8737 119.534 22.0625 119.638 22.2578C119.742 22.4531 119.833 22.6484 119.911 22.8438C119.989 23.026 120.028 23.2018 120.028 23.3711ZM118.212 23.6641C118.069 23.3646 117.932 23.0521 117.802 22.7266C117.672 22.401 117.509 22.1081 117.314 21.8477C117.079 21.7826 116.838 21.7044 116.591 21.6133C116.356 21.5091 116.194 21.3333 116.103 21.0859C116.077 21.099 116.031 21.1055 115.966 21.1055C115.849 21.1055 115.745 21.0599 115.653 20.9688C115.562 20.8776 115.458 20.819 115.341 20.793C115.237 20.7799 115.093 20.7604 114.911 20.7344C114.742 20.7083 114.56 20.6888 114.364 20.6758C114.169 20.6628 113.974 20.6497 113.778 20.6367C113.596 20.6237 113.453 20.6172 113.349 20.6172C113.245 20.6172 113.134 20.6237 113.017 20.6367C112.912 20.6367 112.802 20.6432 112.685 20.6562C112.58 20.6562 112.515 20.6758 112.489 20.7148C112.463 20.7409 112.411 20.7669 112.333 20.793C112.268 20.7669 112.196 20.7539 112.118 20.7539H111.884C111.61 20.7539 111.337 20.7995 111.064 20.8906C110.803 20.9688 110.543 21.0794 110.282 21.2227V21.3008C110.282 21.4049 110.328 21.4635 110.419 21.4766C110.51 21.4896 110.562 21.5417 110.575 21.6328C110.51 21.6328 110.458 21.6393 110.419 21.6523C110.38 21.6523 110.36 21.6979 110.36 21.7891C110.36 21.9193 110.373 22.0625 110.399 22.2188C110.439 22.375 110.458 22.5312 110.458 22.6875C110.458 22.8047 110.445 22.9414 110.419 23.0977C110.393 23.2539 110.328 23.3776 110.224 23.4688C110.354 23.5859 110.419 23.7422 110.419 23.9375C110.419 24.0677 110.393 24.2044 110.341 24.3477C110.289 24.4909 110.224 24.6146 110.146 24.7188C110.12 25.2656 110.067 25.819 109.989 26.3789C109.911 26.9388 109.872 27.4922 109.872 28.0391C109.872 28.3125 109.885 28.5794 109.911 28.8398C109.95 29.1003 110.009 29.3607 110.087 29.6211C110.23 29.7643 110.38 29.875 110.536 29.9531C110.705 30.0312 110.881 30.1094 111.064 30.1875V30.2461C111.064 30.2852 111.037 30.3242 110.985 30.3633C110.933 30.4023 110.907 30.4544 110.907 30.5195C110.907 30.5716 110.933 30.5977 110.985 30.5977C111.532 30.4414 112.047 30.2526 112.528 30.0312C113.01 29.8099 113.459 29.5104 113.876 29.1328C113.915 29.0938 113.954 29.0742 113.993 29.0742C114.019 29.0742 114.052 29.0807 114.091 29.0938C114.143 29.1068 114.189 29.1198 114.228 29.1328L114.208 29.0547C114.208 28.9766 114.228 28.9049 114.267 28.8398C114.319 28.7747 114.377 28.7161 114.442 28.6641L114.638 28.4883C114.703 28.4232 114.755 28.3581 114.794 28.293C114.898 28.2669 114.97 28.2148 115.009 28.1367C115.061 28.0586 115.146 28.0195 115.263 28.0195C115.289 27.8763 115.36 27.7721 115.478 27.707C115.595 27.6289 115.666 27.5182 115.692 27.375C115.953 27.2318 116.181 27.056 116.376 26.8477C116.584 26.6393 116.773 26.418 116.942 26.1836C117.125 25.9492 117.294 25.7083 117.45 25.4609C117.606 25.2005 117.769 24.9531 117.939 24.7188V24.6406C117.939 24.4323 117.971 24.263 118.036 24.1328C118.114 24.0026 118.173 23.8464 118.212 23.6641ZM125.106 30.3242C125.041 30.4284 124.963 30.526 124.872 30.6172C124.781 30.6953 124.696 30.7799 124.618 30.8711C124.527 30.9102 124.423 30.9297 124.306 30.9297C124.202 30.9297 124.097 30.9297 123.993 30.9297C123.902 30.9167 123.811 30.9167 123.72 30.9297C123.642 30.9297 123.577 30.9557 123.524 31.0078C123.42 30.9818 123.342 30.9362 123.29 30.8711C123.238 30.793 123.147 30.7474 123.017 30.7344C122.965 30.7214 122.912 30.7214 122.86 30.7344C122.665 30.513 122.483 30.2786 122.314 30.0312C122.157 29.7839 122.008 29.5495 121.864 29.3281C121.851 28.8464 121.812 28.3581 121.747 27.8633C121.734 27.7461 121.715 27.6289 121.689 27.5117C121.662 27.3945 121.643 27.2839 121.63 27.1797C121.63 27.0495 121.636 26.9258 121.649 26.8086C121.676 26.6784 121.695 26.5612 121.708 26.457C121.76 26.0794 121.819 25.7083 121.884 25.3438C121.949 24.9792 122.008 24.6081 122.06 24.2305C122.112 23.8919 122.138 23.5404 122.138 23.1758C122.138 22.7982 122.079 22.4466 121.962 22.1211L121.942 22.0234C121.968 21.9193 121.995 21.8346 122.021 21.7695C122.06 21.6914 122.086 21.6068 122.099 21.5156C122.125 21.3724 122.092 21.2682 122.001 21.2031C122.04 21.099 122.105 21.0339 122.196 21.0078C122.287 20.9688 122.34 20.8906 122.353 20.7734C122.366 20.7214 122.366 20.6693 122.353 20.6172C122.457 20.5781 122.561 20.5456 122.665 20.5195C122.782 20.4805 122.893 20.474 122.997 20.5C123.166 20.526 123.316 20.5846 123.446 20.6758C123.577 20.7539 123.7 20.8451 123.817 20.9492C124.026 21.5742 124.11 22.2383 124.071 22.9414C124.032 23.6315 123.967 24.3281 123.876 25.0312C123.785 25.7344 123.726 26.4245 123.7 27.1016C123.674 27.7656 123.778 28.3841 124.013 28.957L124.052 28.9766C124.117 28.9896 124.169 28.9701 124.208 28.918C124.247 28.8529 124.299 28.8268 124.364 28.8398C124.416 28.8659 124.449 28.8789 124.462 28.8789C124.514 29.1393 124.599 29.3867 124.716 29.6211C124.833 29.8555 124.963 30.0898 125.106 30.3242ZM143.778 20.4414C143.726 20.6107 143.642 20.7669 143.524 20.9102L143.192 21.3203C143.088 21.4505 142.997 21.5938 142.919 21.75C142.854 21.8932 142.834 22.0625 142.86 22.2578C142.834 22.2578 142.802 22.2578 142.763 22.2578C142.724 22.2448 142.691 22.2383 142.665 22.2383C142.457 22.2383 142.294 22.2904 142.177 22.3945C142.073 22.4857 141.929 22.5638 141.747 22.6289C141.721 22.5508 141.689 22.4792 141.649 22.4141C141.61 22.3359 141.552 22.2839 141.474 22.2578C141.161 22.3229 140.849 22.375 140.536 22.4141C140.224 22.4401 139.911 22.4792 139.599 22.5312C139.455 22.5573 139.312 22.5964 139.169 22.6484C139.026 22.6875 138.876 22.7266 138.72 22.7656C138.642 22.7917 138.557 22.8047 138.466 22.8047C138.375 22.7917 138.284 22.7917 138.192 22.8047C137.88 22.8177 137.541 22.8438 137.177 22.8828C136.812 22.9089 136.487 23.0065 136.2 23.1758C136.07 23.1497 135.933 23.1302 135.79 23.1172C135.647 23.1042 135.504 23.0977 135.36 23.0977C135.048 23.0977 134.703 23.1302 134.325 23.1953C133.961 23.2474 133.635 23.3581 133.349 23.5273C133.284 23.5013 133.212 23.4818 133.134 23.4688C133.069 23.4557 132.991 23.4492 132.899 23.4492C132.873 23.4492 132.854 23.4557 132.841 23.4688C132.828 23.4688 132.808 23.4688 132.782 23.4688C132.769 23.5859 132.782 23.7031 132.821 23.8203C132.873 23.9245 132.958 24.0091 133.075 24.0742C133.023 24.2174 132.997 24.3737 132.997 24.543C132.997 24.7643 133.01 24.9857 133.036 25.207C133.075 25.4284 133.095 25.6497 133.095 25.8711C133.095 26.1185 133.062 26.3138 132.997 26.457C133.127 26.8477 133.192 27.2643 133.192 27.707C133.192 27.8633 133.179 28.0195 133.153 28.1758C133.14 28.319 133.134 28.4753 133.134 28.6445C133.134 28.7878 133.186 28.9049 133.29 28.9961C133.394 29.0742 133.446 29.1849 133.446 29.3281C133.446 29.3802 133.433 29.4323 133.407 29.4844C133.59 29.4453 133.765 29.3932 133.935 29.3281C134.104 29.25 134.28 29.2109 134.462 29.2109C134.566 29.2109 134.664 29.2305 134.755 29.2695C134.859 29.3086 134.95 29.3607 135.028 29.4258C135.015 29.4909 135.002 29.5625 134.989 29.6406C134.989 29.7188 134.989 29.7969 134.989 29.875C134.989 30.0182 134.989 30.1549 134.989 30.2852C135.002 30.4023 135.015 30.5326 135.028 30.6758C134.924 30.8581 134.801 31.0208 134.657 31.1641C134.527 31.3073 134.436 31.4896 134.384 31.7109C134.189 31.7109 134.013 31.7565 133.856 31.8477C133.713 31.9258 133.577 32.0169 133.446 32.1211C133.316 32.2122 133.186 32.3034 133.056 32.3945C132.926 32.4727 132.782 32.5117 132.626 32.5117C132.431 32.5117 132.294 32.4857 132.216 32.4336C132.138 32.3685 132.079 32.3034 132.04 32.2383C132.001 32.1732 131.962 32.1146 131.923 32.0625C131.897 32.0104 131.832 31.9909 131.728 32.0039C131.702 31.8346 131.649 31.6784 131.571 31.5352C131.493 31.3789 131.409 31.2292 131.317 31.0859C131.239 30.9427 131.155 30.7995 131.064 30.6562C130.985 30.5 130.927 30.3438 130.888 30.1875C130.81 29.849 130.777 29.4974 130.79 29.1328C130.803 28.7682 130.745 28.4167 130.614 28.0781C130.64 27.8958 130.66 27.7135 130.673 27.5312C130.686 27.3359 130.692 27.1471 130.692 26.9648C130.692 26.6003 130.679 26.2422 130.653 25.8906C130.64 25.526 130.627 25.1549 130.614 24.7773C130.523 24.6602 130.465 24.5299 130.439 24.3867C130.426 24.2305 130.412 24.0807 130.399 23.9375C130.36 23.8984 130.315 23.8594 130.263 23.8203C130.224 23.7812 130.198 23.7292 130.185 23.6641C130.08 23.638 130.002 23.625 129.95 23.625C129.768 23.625 129.612 23.6706 129.481 23.7617C129.364 23.8398 129.254 23.8789 129.149 23.8789C129.045 23.8789 128.948 23.8659 128.856 23.8398C128.765 23.8138 128.674 23.8008 128.583 23.8008C128.505 23.8008 128.459 23.8203 128.446 23.8594C128.446 23.8854 128.42 23.9115 128.368 23.9375C128.329 23.9635 128.238 23.9896 128.095 24.0156C127.952 24.0417 127.789 24.0677 127.606 24.0938C127.437 24.1068 127.268 24.1198 127.099 24.1328C126.942 24.1458 126.838 24.1523 126.786 24.1523C126.578 24.1523 126.422 24.1133 126.317 24.0352C126.2 23.944 126.064 23.8464 125.907 23.7422C125.933 23.6641 125.946 23.612 125.946 23.5859C125.946 23.4557 125.907 23.3516 125.829 23.2734C125.751 23.1823 125.712 23.1042 125.712 23.0391C125.712 22.8958 125.771 22.7852 125.888 22.707C125.992 22.6289 126.051 22.5052 126.064 22.3359C126.363 22.2057 126.669 22.1081 126.981 22.043C127.294 21.9779 127.613 21.9258 127.939 21.8867C128.264 21.8477 128.583 21.8021 128.896 21.75C129.221 21.6979 129.54 21.6133 129.853 21.4961C129.944 21.5091 130.028 21.5221 130.106 21.5352C130.198 21.5352 130.289 21.5352 130.38 21.5352C130.771 21.5352 131.155 21.4961 131.532 21.418C131.923 21.3268 132.32 21.2812 132.724 21.2812C132.828 21.2812 132.932 21.2878 133.036 21.3008C133.14 21.3138 133.245 21.3333 133.349 21.3594C133.87 21.2812 134.384 21.1966 134.892 21.1055C135.412 21.0143 135.946 20.9362 136.493 20.8711C136.754 20.8451 137.008 20.8255 137.255 20.8125C137.515 20.7865 137.776 20.7539 138.036 20.7148C138.127 20.7018 138.192 20.6823 138.231 20.6562C138.284 20.6172 138.31 20.5456 138.31 20.4414C138.427 20.4935 138.557 20.5195 138.7 20.5195C138.922 20.5195 139.136 20.4805 139.345 20.4023C139.553 20.3242 139.768 20.2852 139.989 20.2852C140.041 20.2852 140.087 20.2917 140.126 20.3047C140.165 20.3047 140.204 20.3047 140.243 20.3047C140.334 20.3047 140.38 20.2656 140.38 20.1875C140.393 20.0964 140.458 20.0378 140.575 20.0117C140.666 19.9857 140.797 19.9661 140.966 19.9531C141.135 19.9401 141.311 19.9271 141.493 19.9141C141.689 19.888 141.864 19.862 142.021 19.8359C142.19 19.7969 142.314 19.7448 142.392 19.6797L142.528 19.4648C142.763 19.4779 142.932 19.582 143.036 19.7773C143.153 19.9596 143.218 20.1615 143.231 20.3828C143.284 20.4349 143.355 20.4609 143.446 20.4609C143.551 20.4479 143.642 20.4414 143.72 20.4414H143.778ZM151.376 30.5391C151.376 30.7604 151.317 30.9557 151.2 31.125C151.096 31.2812 151.057 31.4766 151.083 31.7109C150.901 31.8151 150.751 31.9518 150.634 32.1211C150.517 32.2904 150.406 32.4661 150.302 32.6484C149.442 33.2083 148.518 33.6576 147.528 33.9961C146.552 34.3477 145.543 34.5234 144.501 34.5234C144.436 34.5234 144.377 34.4909 144.325 34.4258C144.273 34.3737 144.221 34.3151 144.169 34.25C144.117 34.1849 144.058 34.1198 143.993 34.0547C143.941 34.0026 143.876 33.9766 143.798 33.9766C143.707 33.9766 143.635 33.9961 143.583 34.0352C143.583 34.0091 143.583 33.9831 143.583 33.957C143.596 33.944 143.603 33.9245 143.603 33.8984C143.603 33.7422 143.583 33.5794 143.544 33.4102C143.505 33.2539 143.485 33.0977 143.485 32.9414C143.485 32.7591 143.518 32.6094 143.583 32.4922H143.817C143.948 32.4922 144.071 32.4857 144.189 32.4727C144.319 32.4466 144.455 32.4336 144.599 32.4336C144.742 32.4336 144.872 32.4727 144.989 32.5508C145.705 32.5247 146.383 32.3945 147.021 32.1602C147.672 31.9128 148.329 31.6719 148.993 31.4375C149.097 31.2943 149.156 31.138 149.169 30.9688C149.195 30.7865 149.247 30.6172 149.325 30.4609C148.987 30.1745 148.642 29.9531 148.29 29.7969C147.952 29.6276 147.554 29.569 147.099 29.6211C146.825 29.4518 146.532 29.3542 146.22 29.3281C145.92 29.3021 145.614 29.263 145.302 29.2109C145.224 29.1979 145.139 29.1849 145.048 29.1719C144.97 29.1458 144.885 29.1328 144.794 29.1328C144.729 29.1328 144.664 29.1523 144.599 29.1914C144.547 29.2174 144.534 29.263 144.56 29.3281C144.495 29.224 144.403 29.1654 144.286 29.1523C144.182 29.1263 144.091 29.0742 144.013 28.9961C143.596 28.9701 143.231 28.8984 142.919 28.7812C142.606 28.651 142.261 28.5078 141.884 28.3516C141.78 28.3125 141.676 28.2865 141.571 28.2734C141.48 28.2474 141.389 28.2083 141.298 28.1562C141.064 28.0391 140.875 27.8828 140.731 27.6875C140.588 27.4922 140.478 27.2773 140.399 27.043C140.308 26.7956 140.243 26.5417 140.204 26.2812C140.165 26.0208 140.126 25.7799 140.087 25.5586C140.204 25.3503 140.315 25.1354 140.419 24.9141C140.51 24.6927 140.588 24.4583 140.653 24.2109C140.731 24.1719 140.81 24.1393 140.888 24.1133C140.966 24.0872 141.051 24.0547 141.142 24.0156C141.129 23.9896 141.122 23.957 141.122 23.918C141.122 23.8529 141.142 23.7878 141.181 23.7227C141.233 23.6576 141.246 23.5924 141.22 23.5273C141.506 23.2669 141.78 23 142.04 22.7266C142.314 22.4401 142.548 22.1276 142.743 21.7891C142.939 21.724 143.095 21.6263 143.212 21.4961C143.329 21.3659 143.446 21.2357 143.564 21.1055C143.681 20.9622 143.811 20.8385 143.954 20.7344C144.097 20.6172 144.28 20.5456 144.501 20.5195C144.553 20.4284 144.625 20.3568 144.716 20.3047C144.807 20.2396 144.898 20.181 144.989 20.1289C145.08 20.0768 145.165 20.0182 145.243 19.9531C145.321 19.888 145.38 19.7969 145.419 19.6797C145.627 19.6797 145.816 19.6406 145.985 19.5625C146.168 19.4844 146.343 19.3997 146.513 19.3086C146.682 19.2174 146.851 19.1328 147.021 19.0547C147.203 18.9766 147.398 18.9375 147.606 18.9375C147.659 18.9375 147.711 18.944 147.763 18.957C147.815 18.957 147.873 18.9635 147.939 18.9766C148.03 19.0677 148.088 19.1784 148.114 19.3086C148.153 19.4258 148.179 19.556 148.192 19.6992C148.205 19.8424 148.212 19.9857 148.212 20.1289C148.225 20.2721 148.251 20.4023 148.29 20.5195C148.173 20.7409 148.043 20.9622 147.899 21.1836C147.769 21.4049 147.593 21.5742 147.372 21.6914H147.333C147.242 21.7044 147.157 21.6849 147.079 21.6328C147.001 21.5807 146.91 21.5547 146.806 21.5547C146.741 21.5547 146.689 21.5742 146.649 21.6133L146.552 21.7109C146.526 21.737 146.487 21.763 146.435 21.7891C146.396 21.8151 146.337 21.8151 146.259 21.7891C146.077 21.8542 146.005 21.9648 146.044 22.1211C145.797 22.1471 145.588 22.2253 145.419 22.3555C145.25 22.4727 145.093 22.6094 144.95 22.7656C144.807 22.9089 144.664 23.0456 144.521 23.1758C144.377 23.293 144.208 23.3581 144.013 23.3711C143.791 23.7617 143.518 24.1068 143.192 24.4062C142.88 24.7057 142.62 25.0443 142.411 25.4219C142.45 25.526 142.476 25.6367 142.489 25.7539C142.502 25.8711 142.522 25.9948 142.548 26.125C142.665 26.2812 142.802 26.418 142.958 26.5352C143.127 26.6523 143.29 26.7695 143.446 26.8867H143.505C143.765 26.8867 144.006 26.9388 144.228 27.043C144.449 27.1341 144.683 27.1797 144.931 27.1797C145.061 27.1797 145.172 27.1536 145.263 27.1016C145.601 27.1797 145.933 27.2448 146.259 27.2969C146.597 27.349 146.936 27.388 147.274 27.4141C147.444 27.4401 147.613 27.4531 147.782 27.4531C147.965 27.4531 148.134 27.4727 148.29 27.5117C148.433 27.5508 148.577 27.6029 148.72 27.668C148.863 27.7201 149.006 27.7786 149.149 27.8438C149.449 27.974 149.729 28.1172 149.989 28.2734C150.263 28.4297 150.504 28.6185 150.712 28.8398C150.92 29.0482 151.083 29.2956 151.2 29.582C151.317 29.8555 151.376 30.1745 151.376 30.5391Z" fill="#FF5C00"/>
</g>
<defs>
<filter id="filter0_d" x="0" y="0" width="210" height="60" filterUnits="userSpaceOnUse" color-interpolation-filters="sRGB">
<feFlood flood-opacity="0" result="BackgroundImageFix"/>
<feColorMatrix in="SourceAlpha" type="matrix" values="0 0 0 0 0 0 0 0 0 0 0 0 0 0 0 0 0 0 127 0"/>
<feOffset dy="5"/>
<feGaussianBlur stdDeviation="2.5"/>
<feColorMatrix type="matrix" values="0 0 0 0 0 0 0 0 0 0 0 0 0 0 0 0 0 0 0.25 0"/>
<feBlend mode="normal" in2="BackgroundImageFix" result="effect1_dropShadow"/>
<feBlend mode="normal" in="SourceGraphic" in2="effect1_dropShadow" result="shape"/>
</filter>
</defs>
</svg>
