<svg width="793" height="178" viewBox="0 0 793 178" fill="none" xmlns="http://www.w3.org/2000/svg">
<rect width="793" height="178" fill="white"/>
<path d="M279.656 103.93C278.602 112.953 275.262 119.926 269.637 124.848C264.051 129.73 256.609 132.172 247.312 132.172C237.234 132.172 229.148 128.559 223.055 121.332C217 114.105 213.973 104.438 213.973 92.3281V84.125C213.973 76.1953 215.379 69.2227 218.191 63.207C221.043 57.1914 225.066 52.582 230.262 49.3789C235.457 46.1367 241.473 44.5156 248.309 44.5156C257.371 44.5156 264.637 47.0547 270.105 52.1328C275.574 57.1719 278.758 64.1641 279.656 73.1094H268.348C267.371 66.3125 265.242 61.3906 261.961 58.3438C258.719 55.2969 254.168 53.7734 248.309 53.7734C241.121 53.7734 235.477 56.4297 231.375 61.7422C227.312 67.0547 225.281 74.6133 225.281 84.418V92.6797C225.281 101.938 227.215 109.301 231.082 114.77C234.949 120.238 240.359 122.973 247.312 122.973C253.562 122.973 258.348 121.566 261.668 118.754C265.027 115.902 267.254 110.961 268.348 103.93H279.656ZM324.012 77.3281C322.371 77.0547 320.594 76.918 318.68 76.918C311.57 76.918 306.746 79.9453 304.207 86V131H293.367V67.6016H303.914L304.09 74.9258C307.645 69.2617 312.684 66.4297 319.207 66.4297C321.316 66.4297 322.918 66.7031 324.012 67.25V77.3281ZM359.168 132.172C350.574 132.172 343.582 129.359 338.191 123.734C332.801 118.07 330.105 110.512 330.105 101.059V99.0664C330.105 92.7773 331.297 87.1719 333.68 82.25C336.102 77.2891 339.461 73.4219 343.758 70.6484C348.094 67.8359 352.781 66.4297 357.82 66.4297C366.062 66.4297 372.469 69.1445 377.039 74.5742C381.609 80.0039 383.895 87.7773 383.895 97.8945V102.406H340.945C341.102 108.656 342.918 113.715 346.395 117.582C349.91 121.41 354.363 123.324 359.754 123.324C363.582 123.324 366.824 122.543 369.48 120.98C372.137 119.418 374.461 117.348 376.453 114.77L383.074 119.926C377.762 128.09 369.793 132.172 359.168 132.172ZM357.82 75.3359C353.445 75.3359 349.773 76.9375 346.805 80.1406C343.836 83.3047 342 87.7578 341.297 93.5H373.055V92.6797C372.742 87.1719 371.258 82.9141 368.602 79.9062C365.945 76.8594 362.352 75.3359 357.82 75.3359ZM393.855 98.7734C393.855 89.0469 396.16 81.2344 400.77 75.3359C405.379 69.3984 411.414 66.4297 418.875 66.4297C426.297 66.4297 432.176 68.9688 436.512 74.0469V41H447.352V131H437.391L436.863 124.203C432.527 129.516 426.492 132.172 418.758 132.172C411.414 132.172 405.418 129.164 400.77 123.148C396.16 117.133 393.855 109.281 393.855 99.5938V98.7734ZM404.695 100.004C404.695 107.191 406.18 112.816 409.148 116.879C412.117 120.941 416.219 122.973 421.453 122.973C428.328 122.973 433.348 119.887 436.512 113.715V84.5938C433.27 78.6172 428.289 75.6289 421.57 75.6289C416.258 75.6289 412.117 77.6797 409.148 81.7812C406.18 85.8828 404.695 91.957 404.695 100.004ZM476.004 131H465.164V67.6016H476.004V131ZM464.285 50.7852C464.285 49.0273 464.812 47.543 465.867 46.332C466.961 45.1211 468.562 44.5156 470.672 44.5156C472.781 44.5156 474.383 45.1211 475.477 46.332C476.57 47.543 477.117 49.0273 477.117 50.7852C477.117 52.543 476.57 54.0078 475.477 55.1797C474.383 56.3516 472.781 56.9375 470.672 56.9375C468.562 56.9375 466.961 56.3516 465.867 55.1797C464.812 54.0078 464.285 52.543 464.285 50.7852ZM508.113 52.25V67.6016H519.949V75.9805H508.113V115.297C508.113 117.836 508.641 119.75 509.695 121.039C510.75 122.289 512.547 122.914 515.086 122.914C516.336 122.914 518.055 122.68 520.242 122.211V131C517.391 131.781 514.617 132.172 511.922 132.172C507.078 132.172 503.426 130.707 500.965 127.777C498.504 124.848 497.273 120.688 497.273 115.297V75.9805H485.73V67.6016H497.273V52.25H508.113ZM569.578 114.184C569.578 111.254 568.465 108.988 566.238 107.387C564.051 105.746 560.203 104.34 554.695 103.168C549.227 101.996 544.871 100.59 541.629 98.9492C538.426 97.3086 536.043 95.3555 534.48 93.0898C532.957 90.8242 532.195 88.1289 532.195 85.0039C532.195 79.8086 534.383 75.4141 538.758 71.8203C543.172 68.2266 548.797 66.4297 555.633 66.4297C562.82 66.4297 568.641 68.2852 573.094 71.9961C577.586 75.707 579.832 80.4531 579.832 86.2344H568.934C568.934 83.2656 567.664 80.707 565.125 78.5586C562.625 76.4102 559.461 75.3359 555.633 75.3359C551.688 75.3359 548.602 76.1953 546.375 77.9141C544.148 79.6328 543.035 81.8789 543.035 84.6523C543.035 87.2695 544.07 89.2422 546.141 90.5703C548.211 91.8984 551.941 93.168 557.332 94.3789C562.762 95.5898 567.156 97.0352 570.516 98.7148C573.875 100.395 576.355 102.426 577.957 104.809C579.598 107.152 580.418 110.023 580.418 113.422C580.418 119.086 578.152 123.637 573.621 127.074C569.09 130.473 563.211 132.172 555.984 132.172C550.906 132.172 546.414 131.273 542.508 129.477C538.602 127.68 535.535 125.18 533.309 121.977C531.121 118.734 530.027 115.238 530.027 111.488H540.867C541.062 115.121 542.508 118.012 545.203 120.16C547.938 122.27 551.531 123.324 555.984 123.324C560.086 123.324 563.367 122.504 565.828 120.863C568.328 119.184 569.578 116.957 569.578 114.184Z" fill="#FF5C00"/>
</svg>
