<svg width="793" height="178" viewBox="0 0 793 178" fill="none" xmlns="http://www.w3.org/2000/svg">
<rect width="793" height="178" fill="white"/>
<path d="M304.152 97.6016V131H292.902V45.6875H324.367C333.703 45.6875 341.008 48.0703 346.281 52.8359C351.594 57.6016 354.25 63.9102 354.25 71.7617C354.25 80.043 351.652 86.4297 346.457 90.9219C341.301 95.375 333.898 97.6016 324.25 97.6016H304.152ZM304.152 88.4023H324.367C330.383 88.4023 334.992 86.9961 338.195 84.1836C341.398 81.332 343 77.2305 343 71.8789C343 66.8008 341.398 62.7383 338.195 59.6914C334.992 56.6445 330.598 55.0625 325.012 54.9453H304.152V88.4023ZM378.684 131H367.844V41H378.684V131ZM435.227 131C434.602 129.75 434.094 127.523 433.703 124.32C428.664 129.555 422.648 132.172 415.656 132.172C409.406 132.172 404.27 130.414 400.246 126.898C396.262 123.344 394.27 118.852 394.27 113.422C394.27 106.82 396.77 101.703 401.77 98.0703C406.809 94.3984 413.879 92.5625 422.98 92.5625H433.527V87.582C433.527 83.793 432.395 80.7852 430.129 78.5586C427.863 76.293 424.523 75.1602 420.109 75.1602C416.242 75.1602 413 76.1367 410.383 78.0898C407.766 80.043 406.457 82.4062 406.457 85.1797H395.559C395.559 82.0156 396.672 78.9688 398.898 76.0391C401.164 73.0703 404.211 70.7266 408.039 69.0078C411.906 67.2891 416.145 66.4297 420.754 66.4297C428.059 66.4297 433.781 68.2656 437.922 71.9375C442.062 75.5703 444.211 80.5898 444.367 86.9961V116.176C444.367 121.996 445.109 126.625 446.594 130.062V131H435.227ZM417.238 122.738C420.637 122.738 423.859 121.859 426.906 120.102C429.953 118.344 432.16 116.059 433.527 113.246V100.238H425.031C411.75 100.238 405.109 104.125 405.109 111.898C405.109 115.297 406.242 117.953 408.508 119.867C410.773 121.781 413.684 122.738 417.238 122.738ZM481.164 115.121L495.93 67.6016H507.531L482.043 140.785C478.098 151.332 471.828 156.605 463.234 156.605L461.184 156.43L457.141 155.668V146.879L460.07 147.113C463.742 147.113 466.594 146.371 468.625 144.887C470.695 143.402 472.395 140.688 473.723 136.742L476.125 130.297L453.508 67.6016H465.344L481.164 115.121Z" fill="#FF5C00"/>
</svg>
