<svg width="200" height="50" viewBox="0 0 200 50" fill="none" xmlns="http://www.w3.org/2000/svg">
<g filter="url(#filter0_i)">
<rect y="6.27612" width="200" height="37.2385" rx="18.6192" fill="#FF5C00"/>
<path d="M92.7728 15.3242C92.7728 15.7799 92.6881 16.2227 92.5189 16.6523C92.3496 17.069 92.2259 17.4987 92.1478 17.9414C91.8613 18.319 91.5944 18.7096 91.347 19.1133C91.0996 19.5169 90.8457 19.9206 90.5853 20.3242C90.3248 20.7279 90.0514 21.1185 89.7649 21.4961C89.4785 21.8607 89.153 22.1927 88.7884 22.4922C88.8014 22.5052 88.8079 22.5312 88.8079 22.5703C88.8079 22.6484 88.7689 22.7135 88.6907 22.7656C88.6256 22.8047 88.6061 22.8568 88.6321 22.9219C88.3066 23.2604 87.9876 23.5924 87.6751 23.918C87.3626 24.2435 87.0761 24.6081 86.8157 25.0117C86.5293 25.1549 86.2949 25.3893 86.1126 25.7148C86.0345 25.7148 85.9759 25.7344 85.9368 25.7734C85.8978 25.7995 85.8457 25.8255 85.7806 25.8516C85.3639 26.3594 84.9277 26.8411 84.472 27.2969C84.0162 27.7526 83.528 28.1693 83.0071 28.5469C82.8118 28.6901 82.6165 28.8203 82.4212 28.9375C82.2259 29.0547 82.0371 29.1784 81.8548 29.3086C81.7376 29.3867 81.6204 29.4779 81.5032 29.582C81.3991 29.6862 81.2884 29.7839 81.1712 29.875C80.7936 30.2005 80.4225 30.474 80.0579 30.6953C79.6933 30.9036 79.2636 31.0469 78.7689 31.125C78.7298 31.2682 78.7103 31.4245 78.7103 31.5938V32.0625C78.7103 32.2188 78.7037 32.3815 78.6907 32.5508C78.6777 32.707 78.6321 32.8568 78.554 33V33.0586C78.554 33.1888 78.5866 33.3125 78.6517 33.4297C78.7168 33.5599 78.7493 33.6901 78.7493 33.8203C78.7493 33.9115 78.7037 33.9896 78.6126 34.0547H79.1204C79.1204 34.237 79.1725 34.3932 79.2767 34.5234C79.3939 34.6536 79.4524 34.7513 79.4524 34.8164C79.4524 35.0378 79.4264 35.2786 79.3743 35.5391C79.3353 35.8125 79.2051 35.9948 78.9837 36.0859V36.2031C78.9837 36.3333 78.9707 36.457 78.9446 36.5742C78.9186 36.7044 78.86 36.8281 78.7689 36.9453C78.6907 36.9453 78.6126 36.9453 78.5345 36.9453C78.4694 36.9583 78.4043 36.9648 78.3392 36.9648C77.7923 36.9648 77.304 36.8346 76.8743 36.5742C76.7311 36.2357 76.6334 35.8841 76.5814 35.5195C76.5423 35.168 76.5228 34.8099 76.5228 34.4453C76.5228 33.7292 76.5748 33.0195 76.679 32.3164C76.7832 31.6133 76.8678 30.9102 76.9329 30.207L77.2259 29.6406C77.2519 29.276 77.2975 28.9115 77.3626 28.5469C77.4277 28.1693 77.4928 27.7982 77.5579 27.4336C77.623 27.069 77.6751 26.7044 77.7142 26.3398C77.7662 25.9753 77.7858 25.6107 77.7728 25.2461C77.8769 25.0247 77.9485 24.7904 77.9876 24.543C78.0397 24.2956 78.0657 24.0547 78.0657 23.8203C78.0657 23.6901 78.0592 23.5599 78.0462 23.4297C78.0332 23.2995 77.9941 23.1758 77.929 23.0586C78.0071 23.0065 78.0592 22.9414 78.0853 22.8633C78.1113 22.7852 78.1504 22.7135 78.2024 22.6484C78.2415 22.1406 78.2741 21.6393 78.3001 21.1445C78.3261 20.6367 78.3392 20.1354 78.3392 19.6406C78.3392 19.3672 78.3327 19.1003 78.3196 18.8398C78.3066 18.5664 78.2871 18.293 78.261 18.0195C78.248 17.9154 78.222 17.7917 78.1829 17.6484C78.1569 17.5052 78.1439 17.3945 78.1439 17.3164C78.1439 17.2122 78.1504 17.1081 78.1634 17.0039C78.1764 16.8867 78.1829 16.7695 78.1829 16.6523C78.1829 16.5221 78.1699 16.3984 78.1439 16.2812C78.1178 16.151 78.0722 16.0339 78.0071 15.9297C77.3821 16.112 76.8222 16.3594 76.3274 16.6719C75.8327 16.9714 75.3314 17.3099 74.8235 17.6875C74.6152 17.8307 74.3873 18 74.1399 18.1953C73.8926 18.3906 73.6582 18.5404 73.4368 18.6445C73.3978 18.6706 73.3522 18.6901 73.3001 18.7031C73.235 18.7031 73.1829 18.7031 73.1439 18.7031C73.0006 18.7031 72.8704 18.6966 72.7532 18.6836C72.636 18.6576 72.5189 18.6445 72.4017 18.6445C72.2194 18.4622 72.0045 18.319 71.7571 18.2148C71.7181 18.0586 71.6985 17.8893 71.6985 17.707C71.6985 17.5247 71.7181 17.349 71.7571 17.1797C71.7832 17.0104 71.8287 16.8411 71.8939 16.6719C72.0501 16.6198 72.2194 16.5612 72.4017 16.4961C72.5709 16.431 72.7402 16.3594 72.9095 16.2812C73.0657 16.1901 73.209 16.0924 73.3392 15.9883C73.4694 15.8711 73.5735 15.7279 73.6517 15.5586C73.7298 15.5977 73.8014 15.6172 73.8665 15.6172C73.9316 15.6172 73.9902 15.6107 74.0423 15.5977C74.0944 15.5846 74.153 15.5716 74.2181 15.5586C74.4524 15.4154 74.6868 15.2656 74.9212 15.1094C75.1686 14.9531 75.4225 14.8229 75.6829 14.7188C75.761 14.6927 75.8066 14.6602 75.8196 14.6211C75.8327 14.582 75.8327 14.5234 75.8196 14.4453C76.1191 14.3542 76.4316 14.25 76.7571 14.1328C77.0827 14.0026 77.3561 13.8268 77.5774 13.6055H77.929C78.1243 13.4622 78.3327 13.3451 78.554 13.2539C78.7754 13.1628 78.9967 13.0781 79.2181 13C79.4524 12.9089 79.6803 12.8177 79.9017 12.7266C80.123 12.6224 80.3314 12.4922 80.5267 12.3359C80.6048 12.3099 80.6699 12.2969 80.722 12.2969C80.7871 12.2969 80.8587 12.3099 80.9368 12.3359C81.067 12.2708 81.1777 12.1927 81.2689 12.1016L81.5814 11.7891C81.7897 11.7891 81.9785 11.7695 82.1478 11.7305C82.317 11.6914 82.4798 11.6393 82.636 11.5742C82.7923 11.5091 82.942 11.4375 83.0853 11.3594C83.2415 11.2682 83.4108 11.1771 83.5931 11.0859C83.6712 11.112 83.7298 11.1445 83.7689 11.1836C83.8079 11.2096 83.873 11.2227 83.9642 11.2227C84.0944 11.1315 84.2311 11.0664 84.3743 11.0273C84.5306 10.9753 84.6868 10.9362 84.8431 10.9102C84.9993 10.8841 85.1491 10.8516 85.2923 10.8125C85.4485 10.7734 85.5853 10.7018 85.7024 10.5977C86.1191 10.5977 86.5358 10.5911 86.9524 10.5781C87.3821 10.5521 87.8053 10.5391 88.222 10.5391C88.8209 10.5391 89.4264 10.5846 90.0384 10.6758C90.6634 10.7669 91.2233 10.9948 91.7181 11.3594C91.9134 11.8281 92.1933 12.2253 92.5579 12.5508C92.584 12.694 92.61 12.8307 92.636 12.9609C92.6751 13.0781 92.7207 13.1953 92.7728 13.3125C92.6816 13.5078 92.636 13.7227 92.636 13.957C92.636 14.1914 92.6556 14.4258 92.6946 14.6602C92.7467 14.8815 92.7728 15.1029 92.7728 15.3242ZM90.9564 14.8555C90.8912 14.7383 90.8457 14.6081 90.8196 14.4648C90.8066 14.3086 90.8066 14.1589 90.8196 14.0156C90.6504 13.8854 90.5202 13.7161 90.429 13.5078C90.3379 13.2995 90.2077 13.1432 90.0384 13.0391C89.9212 12.974 89.7519 12.9349 89.5306 12.9219C89.3222 12.9089 89.1465 12.8828 89.0032 12.8438C88.834 12.7917 88.7168 12.7396 88.6517 12.6875C88.5996 12.6354 88.4824 12.6094 88.3001 12.6094C88.1439 12.6094 87.9876 12.6289 87.8314 12.668C87.6751 12.694 87.5189 12.707 87.3626 12.707C87.2324 12.707 87.1087 12.681 86.9915 12.6289C86.8743 12.5768 86.7506 12.5508 86.6204 12.5508C86.4772 12.5508 86.3405 12.5964 86.2103 12.6875C86.0931 12.7786 85.9498 12.8047 85.7806 12.7656C85.7024 12.8307 85.6569 12.8828 85.6439 12.9219C85.6439 12.9609 85.6373 12.9935 85.6243 13.0195C85.6113 13.0326 85.5787 13.0391 85.5267 13.0391H85.2532C84.9798 13.0391 84.6998 13.0781 84.4134 13.1562C84.1399 13.2344 83.8926 13.3646 83.6712 13.5469C83.6321 13.5339 83.5931 13.5273 83.554 13.5273C83.528 13.5143 83.4954 13.5078 83.4564 13.5078C83.235 13.5078 83.0202 13.5729 82.8118 13.7031C82.6165 13.8203 82.3952 13.8789 82.1478 13.8789C81.9915 14.0352 81.8027 14.1589 81.5814 14.25C81.36 14.3411 81.1321 14.4323 80.8978 14.5234C80.6764 14.6016 80.4681 14.6992 80.2728 14.8164C80.0774 14.9206 79.9277 15.0768 79.8235 15.2852C79.8105 15.3893 79.8431 15.4544 79.9212 15.4805C79.9993 15.5065 80.0384 15.5716 80.0384 15.6758C80.0384 15.7669 80.0189 15.8776 79.9798 16.0078C79.9537 16.138 79.9407 16.2682 79.9407 16.3984C79.9407 16.6979 79.9733 16.9909 80.0384 17.2773C80.1035 17.5638 80.1686 17.8568 80.2337 18.1562C80.1686 18.1953 80.123 18.2539 80.097 18.332C80.0709 18.4102 80.0254 18.4688 79.9603 18.5078C80.1426 19.0547 80.2337 19.6146 80.2337 20.1875C80.2337 20.6432 80.1816 21.0924 80.0774 21.5352C79.9863 21.9648 79.9212 22.4076 79.8821 22.8633V22.8828C79.8821 22.9609 79.9082 23.013 79.9603 23.0391C80.0123 23.0651 80.0384 23.1107 80.0384 23.1758C80.0384 23.2148 80.0319 23.2474 80.0189 23.2734C79.8756 24.1589 79.7324 25.0443 79.5892 25.9297C79.459 26.8151 79.3483 27.707 79.2571 28.6055H79.4134C79.7519 28.6055 80.0514 28.5078 80.3118 28.3125C80.5853 28.1042 80.8131 27.8763 80.9954 27.6289H81.3079C82.2454 26.8086 83.1439 25.9622 84.0032 25.0898C84.8756 24.2174 85.7024 23.2799 86.4837 22.2773C86.5879 22.2773 86.6595 22.2513 86.6985 22.1992C86.7376 22.1471 86.8027 22.1081 86.8939 22.082C87.1673 21.7044 87.4537 21.3333 87.7532 20.9688C88.0527 20.5911 88.3782 20.2331 88.7298 19.8945C88.7428 19.7643 88.7754 19.6471 88.8274 19.543C88.8926 19.4388 88.9577 19.3411 89.0228 19.25C89.0879 19.1589 89.1465 19.0612 89.1985 18.957C89.2506 18.8529 89.2767 18.7292 89.2767 18.5859C89.3418 18.5599 89.4134 18.5339 89.4915 18.5078C89.5696 18.4688 89.6412 18.4167 89.7064 18.3516C89.7324 18.2214 89.778 18.1042 89.8431 18C89.9082 17.8958 89.9407 17.7786 89.9407 17.6484C89.9407 17.5964 89.9277 17.5312 89.9017 17.4531C90.11 17.362 90.2728 17.2122 90.3899 17.0039C90.5071 16.7956 90.5983 16.5677 90.6634 16.3203C90.7285 16.0599 90.7741 15.7995 90.8001 15.5391C90.8392 15.2786 90.8912 15.0508 90.9564 14.8555ZM102.284 27.9805C102.284 28.1237 102.232 28.2344 102.128 28.3125C102.024 28.3776 101.972 28.4688 101.972 28.5859C101.972 28.638 101.998 28.7031 102.05 28.7812C101.868 28.7812 101.744 28.8398 101.679 28.957C101.614 29.0742 101.549 29.2044 101.484 29.3477H101.23C101.165 29.3477 101.113 29.3607 101.074 29.3867C101.034 29.4128 100.995 29.4518 100.956 29.5039C100.93 29.543 100.891 29.6081 100.839 29.6992C100.592 29.7513 100.351 29.8359 100.117 29.9531C99.8952 30.0573 99.6738 30.1745 99.4524 30.3047C99.2441 30.4219 99.0293 30.5456 98.8079 30.6758C98.5866 30.793 98.3587 30.8906 98.1243 30.9688C98.0071 31.1641 97.8379 31.3203 97.6165 31.4375H97.5579C97.4928 31.4505 97.4342 31.444 97.3821 31.418C97.3431 31.3789 97.291 31.3594 97.2259 31.3594C97.1868 31.3594 97.1608 31.3659 97.1478 31.3789C96.7571 31.6393 96.3209 31.7695 95.8392 31.7695C95.709 31.7695 95.5853 31.763 95.4681 31.75C95.3509 31.724 95.2272 31.7109 95.097 31.7109C95.0579 31.7109 95.0319 31.724 95.0189 31.75L94.9798 31.8281C94.9668 31.8542 94.9472 31.8802 94.9212 31.9062C94.9082 31.9323 94.8626 31.9453 94.7845 31.9453C94.6412 31.9453 94.498 31.9258 94.3548 31.8867C94.2116 31.8477 94.0618 31.8411 93.9056 31.8672C93.6061 31.6979 93.3717 31.5352 93.2024 31.3789C93.0332 31.2227 92.8769 30.9883 92.7337 30.6758C92.6686 30.5326 92.5774 30.3958 92.4603 30.2656C92.3561 30.1354 92.278 29.9922 92.2259 29.8359C92.2129 29.7839 92.1933 29.6927 92.1673 29.5625C92.1412 29.4193 92.1152 29.2695 92.0892 29.1133C92.0631 28.957 92.0371 28.8073 92.011 28.6641C91.998 28.5208 91.9915 28.4232 91.9915 28.3711C91.9915 28.2148 91.998 28.0651 92.011 27.9219C92.0371 27.7656 92.0631 27.6094 92.0892 27.4531C92.1673 26.9583 92.2194 26.4635 92.2454 25.9688C92.2845 25.4609 92.3952 24.9727 92.5774 24.5039C92.5514 24.3607 92.5384 24.224 92.5384 24.0938V23.6641C92.5384 23.4167 92.5058 23.2083 92.4407 23.0391C92.5449 22.8698 92.597 22.681 92.597 22.4727C92.597 22.2383 92.4993 22.1016 92.304 22.0625V22.0039C92.304 21.7305 92.2129 21.5156 92.0306 21.3594C92.0306 20.9036 92.1412 20.5651 92.3626 20.3438C92.597 20.1094 92.903 19.9076 93.2806 19.7383C93.3327 19.6602 93.3522 19.5951 93.3392 19.543C93.4303 19.569 93.5149 19.5951 93.5931 19.6211C93.6712 19.6471 93.7493 19.6602 93.8274 19.6602C93.9577 19.6602 94.0748 19.6406 94.179 19.6016C94.2181 19.7578 94.3157 19.8555 94.472 19.8945C94.6412 19.9206 94.778 19.9596 94.8821 20.0117V20.2656C94.8821 20.6693 94.9798 21.0534 95.1751 21.418C95.123 21.5221 95.0905 21.6328 95.0774 21.75C95.0644 21.8672 95.0579 21.9779 95.0579 22.082C95.0579 22.2383 95.0644 22.3945 95.0774 22.5508C95.0905 22.707 95.097 22.8568 95.097 23C95.097 23.1562 95.0774 23.3125 95.0384 23.4688C95.0123 23.625 94.9407 23.7617 94.8235 23.8789C94.8105 24.0482 94.7975 24.2435 94.7845 24.4648C94.7845 24.6732 94.7715 24.888 94.7454 25.1094C94.7324 25.3307 94.6998 25.5456 94.6478 25.7539C94.5957 25.9622 94.5176 26.1315 94.4134 26.2617C94.4004 26.457 94.3873 26.6589 94.3743 26.8672C94.3743 27.0625 94.3743 27.2513 94.3743 27.4336C94.3743 27.7201 94.3873 28.0586 94.4134 28.4492C94.4524 28.8398 94.5436 29.1654 94.6868 29.4258C94.7519 29.5299 94.8756 29.6081 95.0579 29.6602C95.2532 29.7122 95.4095 29.7383 95.5267 29.7383C95.6699 29.7383 95.8131 29.7188 95.9564 29.6797C96.1126 29.6276 96.2233 29.543 96.2884 29.4258C96.3665 29.4388 96.4186 29.4779 96.4446 29.543C96.4707 29.6081 96.5162 29.6602 96.5814 29.6992C97.3235 29.3867 98.0657 29.0872 98.8079 28.8008C99.5501 28.5143 100.279 28.1823 100.995 27.8047C101.1 27.8568 101.21 27.8828 101.327 27.8828C101.458 27.8828 101.588 27.8698 101.718 27.8438C101.848 27.8177 101.978 27.8047 102.109 27.8047H102.245C102.271 27.8828 102.284 27.9414 102.284 27.9805ZM116.679 31.5742C116.64 31.7565 116.555 31.9062 116.425 32.0234C116.308 32.1276 116.165 32.2122 115.995 32.2773C115.826 32.3424 115.65 32.388 115.468 32.4141C115.299 32.4271 115.143 32.4336 114.999 32.4336C114.934 32.4336 114.869 32.4336 114.804 32.4336C114.752 32.4206 114.693 32.4141 114.628 32.4141C114.563 32.4141 114.531 32.4466 114.531 32.5117C114.531 32.5768 114.498 32.6224 114.433 32.6484C114.368 32.6224 114.303 32.6029 114.238 32.5898C114.172 32.5768 114.107 32.5703 114.042 32.5703C113.951 32.5703 113.86 32.5768 113.769 32.5898C113.691 32.6029 113.613 32.6094 113.534 32.6094C113.43 32.6094 113.352 32.5964 113.3 32.5703C113.261 32.5443 113.222 32.5182 113.183 32.4922C113.157 32.4531 113.124 32.4141 113.085 32.375C113.059 32.3359 113.014 32.3034 112.949 32.2773C112.857 32.2383 112.779 32.2318 112.714 32.2578C112.662 32.2839 112.577 32.2448 112.46 32.1406C112.304 32.0104 112.167 31.8542 112.05 31.6719C111.946 31.4766 111.842 31.2747 111.738 31.0664C111.633 30.8581 111.523 30.6497 111.406 30.4414C111.288 30.2331 111.152 30.0508 110.995 29.8945H110.839C110.605 29.8945 110.442 29.9922 110.351 30.1875C110.286 30.1484 110.221 30.1029 110.156 30.0508C110.09 29.9857 110.019 29.9336 109.941 29.8945C109.641 29.9857 109.329 30.0638 109.003 30.1289C108.678 30.194 108.352 30.2266 108.027 30.2266H107.753C107.675 30.2266 107.59 30.2135 107.499 30.1875C107.369 30.2396 107.252 30.3047 107.148 30.3828C107.044 30.4479 106.926 30.4805 106.796 30.4805C106.718 30.4805 106.627 30.4544 106.523 30.4023C106.445 30.4023 106.406 30.4349 106.406 30.5C106.419 30.5651 106.38 30.5977 106.288 30.5977H106.113C105.93 30.5977 105.748 30.6042 105.566 30.6172C105.396 30.6302 105.221 30.6367 105.038 30.6367C104.791 30.6367 104.537 30.6042 104.277 30.5391C104.212 30.5781 104.14 30.5977 104.062 30.5977C104.01 30.6237 103.971 30.6693 103.945 30.7344C103.919 30.7865 103.893 30.8385 103.867 30.8906C103.84 30.9297 103.801 30.9688 103.749 31.0078C103.71 31.0339 103.652 31.0404 103.574 31.0273C103.547 31.1836 103.482 31.3073 103.378 31.3984C103.274 31.4896 103.222 31.6263 103.222 31.8086C103.079 31.8867 102.962 31.9844 102.87 32.1016C102.779 32.2188 102.688 32.3424 102.597 32.4727C102.506 32.6029 102.408 32.7266 102.304 32.8438C102.213 32.9609 102.096 33.0521 101.952 33.1172C101.887 33.1953 101.868 33.319 101.894 33.4883C101.751 33.6055 101.575 33.7096 101.367 33.8008C101.158 33.8919 100.963 33.9375 100.781 33.9375C100.403 33.9375 100.143 33.7357 99.9993 33.332C99.9993 33.2018 100.012 33.0651 100.038 32.9219C100.051 32.7656 100.077 32.6224 100.117 32.4922C100.156 32.349 100.214 32.2253 100.292 32.1211C100.37 32.0039 100.481 31.9193 100.624 31.8672C100.624 31.75 100.585 31.6719 100.507 31.6328C100.429 31.5807 100.396 31.4961 100.409 31.3789C100.761 31.2096 101.067 30.9883 101.327 30.7148C101.588 30.4414 101.822 30.1549 102.031 29.8555C102.252 29.543 102.473 29.2305 102.695 28.918C102.916 28.6055 103.163 28.3255 103.437 28.0781V27.668C103.827 27.2513 104.081 26.7826 104.199 26.2617C104.342 26.2357 104.433 26.1706 104.472 26.0664C104.524 25.9622 104.55 25.8385 104.55 25.6953C104.615 25.6953 104.654 25.6693 104.667 25.6172C104.693 25.5521 104.752 25.5326 104.843 25.5586C104.96 25.2461 105.09 24.9596 105.234 24.6992C105.377 24.4388 105.52 24.1784 105.663 23.918C105.807 23.6445 105.93 23.3646 106.034 23.0781C106.152 22.7917 106.236 22.4727 106.288 22.1211C106.471 22.1081 106.568 22.0234 106.581 21.8672C106.607 21.6979 106.633 21.5482 106.659 21.418C106.855 21.2357 106.998 21.0208 107.089 20.7734C107.193 20.526 107.284 20.2721 107.363 20.0117C107.441 19.7383 107.525 19.4714 107.617 19.2109C107.721 18.9375 107.864 18.6966 108.046 18.4883V18.4297C108.046 18.3646 108.02 18.3255 107.968 18.3125C107.916 18.2865 107.89 18.2409 107.89 18.1758C107.903 18.1628 107.909 18.1497 107.909 18.1367C108.066 18.0716 108.183 17.9674 108.261 17.8242C108.339 17.668 108.456 17.5573 108.613 17.4922C108.886 17.7135 109.127 17.8503 109.335 17.9023C109.544 17.9414 109.817 17.974 110.156 18C110.325 18.1823 110.416 18.4036 110.429 18.6641C110.455 18.9115 110.501 19.1589 110.566 19.4062C110.67 19.8229 110.781 20.2331 110.898 20.6367C111.028 21.0273 111.126 21.431 111.191 21.8477C111.23 22.0951 111.301 22.3294 111.406 22.5508C111.51 22.7721 111.581 23 111.62 23.2344C111.646 23.4167 111.646 23.625 111.62 23.8594C111.594 24.0807 111.62 24.276 111.699 24.4453L111.835 24.7578C111.9 24.901 111.952 25.0508 111.992 25.207C112.044 25.3633 112.089 25.5195 112.128 25.6758C112.232 26.0664 112.324 26.4896 112.402 26.9453C112.493 27.388 112.63 27.7917 112.812 28.1562C112.877 28.2865 112.975 28.3776 113.105 28.4297C113.248 28.4818 113.404 28.5208 113.574 28.5469C113.743 28.5599 113.906 28.5664 114.062 28.5664C114.231 28.5534 114.374 28.5469 114.492 28.5469H114.687C114.765 28.5469 114.843 28.5599 114.921 28.5859C114.973 28.6901 114.999 28.7812 114.999 28.8594C114.999 29.0156 114.947 29.1393 114.843 29.2305C114.739 29.3216 114.687 29.4258 114.687 29.543C114.687 29.6081 114.713 29.6797 114.765 29.7578C114.713 29.7448 114.635 29.7383 114.531 29.7383C114.231 29.7383 113.938 29.7904 113.652 29.8945C113.756 30.1159 113.893 30.3047 114.062 30.4609C114.244 30.6042 114.433 30.7409 114.628 30.8711C114.758 30.7669 114.895 30.7148 115.038 30.7148C115.195 30.7148 115.338 30.7539 115.468 30.832C115.611 30.8971 115.761 30.9297 115.917 30.9297C116.034 30.9297 116.119 30.9102 116.171 30.8711C116.275 30.9883 116.36 31.112 116.425 31.2422C116.49 31.3594 116.575 31.4701 116.679 31.5742ZM110.566 28.4492C110.54 28.2279 110.494 28.0716 110.429 27.9805C110.377 27.8763 110.331 27.7526 110.292 27.6094C110.24 27.4271 110.201 27.2318 110.175 27.0234C110.162 26.8151 110.136 26.6133 110.097 26.418C110.006 25.9753 109.902 25.5326 109.784 25.0898C109.68 24.6471 109.544 24.2174 109.374 23.8008C109.426 23.7227 109.452 23.651 109.452 23.5859V23.5273C109.335 23.3971 109.251 23.2409 109.199 23.0586C109.146 22.8633 109.094 22.6745 109.042 22.4922C109.003 22.2969 108.945 22.1211 108.867 21.9648C108.801 21.7956 108.691 21.6589 108.534 21.5547C108.495 21.6328 108.476 21.724 108.476 21.8281C108.476 21.9193 108.482 22.0039 108.495 22.082C108.521 22.1602 108.534 22.2448 108.534 22.3359C108.404 22.401 108.307 22.5052 108.242 22.6484C108.189 22.7786 108.098 22.8828 107.968 22.9609C107.864 23.3776 107.714 23.7747 107.519 24.1523C107.324 24.5169 107.115 24.8815 106.894 25.2461C106.686 25.6107 106.484 25.9818 106.288 26.3594C106.093 26.724 105.937 27.1081 105.82 27.5117C105.65 27.6289 105.533 27.7786 105.468 27.9609C105.416 28.1432 105.39 28.3255 105.39 28.5078C105.507 28.5729 105.637 28.612 105.781 28.625C105.937 28.625 106.087 28.625 106.23 28.625C106.373 28.625 106.51 28.638 106.64 28.6641C106.77 28.6901 106.887 28.7552 106.992 28.8594C107.161 28.8073 107.343 28.7747 107.538 28.7617C107.747 28.7357 107.916 28.6771 108.046 28.5859C108.307 28.6771 108.587 28.7227 108.886 28.7227C109.042 28.7227 109.192 28.7096 109.335 28.6836C109.492 28.6576 109.641 28.625 109.784 28.5859C109.902 28.612 109.993 28.6576 110.058 28.7227C110.123 28.7747 110.221 28.7943 110.351 28.7812C110.416 28.7292 110.455 28.6771 110.468 28.625C110.481 28.5599 110.514 28.5013 110.566 28.4492ZM126.855 19.5625C126.855 19.6797 126.803 19.7773 126.699 19.8555C126.607 19.9336 126.562 19.9922 126.562 20.0312C126.562 20.1094 126.575 20.168 126.601 20.207C126.627 20.2331 126.64 20.2656 126.64 20.3047V20.4023C126.51 20.5326 126.412 20.6758 126.347 20.832C126.282 20.9753 126.23 21.1315 126.191 21.3008C126.152 21.457 126.113 21.6198 126.074 21.7891C126.047 21.9583 126.008 22.1211 125.956 22.2773C125.891 22.4336 125.807 22.5703 125.702 22.6875C125.598 22.7917 125.514 22.9154 125.449 23.0586C125.344 23.293 125.266 23.5339 125.214 23.7812C125.162 24.0286 125.051 24.2565 124.882 24.4648V24.5625C124.869 24.6536 124.895 24.7318 124.96 24.7969C124.713 25.1224 124.518 25.513 124.374 25.9688C124.231 26.4115 124.114 26.8802 124.023 27.375C123.932 27.8568 123.853 28.3451 123.788 28.8398C123.723 29.3216 123.645 29.7578 123.554 30.1484C123.619 30.4349 123.717 30.7083 123.847 30.9688C123.99 31.2161 124.127 31.4766 124.257 31.75C124.518 31.8151 124.765 31.9062 124.999 32.0234C125.247 32.1406 125.422 32.3294 125.527 32.5898C125.501 32.8503 125.416 33.0521 125.273 33.1953C125.13 33.3385 124.954 33.4883 124.745 33.6445C124.602 33.5924 124.485 33.5469 124.394 33.5078C124.303 33.4818 124.166 33.4818 123.984 33.5078C123.736 33.3125 123.502 33.1562 123.281 33.0391C123.072 32.9219 122.883 32.7201 122.714 32.4336C122.688 32.3945 122.649 32.375 122.597 32.375H122.421C122.356 32.2188 122.278 32.056 122.187 31.8867C122.096 31.7044 122.005 31.5221 121.913 31.3398C121.822 31.1445 121.744 30.9557 121.679 30.7734C121.614 30.5781 121.581 30.4023 121.581 30.2461C121.581 29.582 121.64 28.9245 121.757 28.2734C121.887 27.6094 121.952 26.9388 121.952 26.2617V26.0664C121.692 26.1315 121.432 26.2227 121.171 26.3398C120.924 26.457 120.67 26.5482 120.409 26.6133C120.318 26.6393 120.266 26.6849 120.253 26.75C120.24 26.8151 120.201 26.8672 120.136 26.9062C120.006 26.9193 119.882 26.9323 119.765 26.9453C119.648 26.9453 119.537 26.9453 119.433 26.9453C119.212 26.9453 118.977 26.9388 118.73 26.9258C118.495 26.8997 118.261 26.8542 118.027 26.7891C117.792 26.724 117.571 26.6328 117.363 26.5156C117.167 26.3984 116.992 26.2487 116.835 26.0664C116.809 26.0794 116.777 26.0924 116.738 26.1055C116.699 26.1185 116.659 26.125 116.62 26.125C116.581 26.125 116.542 26.1185 116.503 26.1055C116.464 26.0924 116.432 26.0794 116.406 26.0664C116.301 25.9232 116.217 25.7669 116.152 25.5977L115.956 25.0898C115.891 24.9206 115.82 24.7578 115.742 24.6016C115.663 24.4453 115.559 24.3021 115.429 24.1719C115.39 23.9375 115.37 23.7096 115.37 23.4883C115.37 23.2539 115.39 23.026 115.429 22.8047C115.455 22.5833 115.501 22.362 115.566 22.1406C115.514 21.9844 115.481 21.8216 115.468 21.6523C115.442 21.4831 115.429 21.3138 115.429 21.1445C115.429 20.9492 115.449 20.7474 115.488 20.5391C115.527 20.3307 115.592 20.1419 115.683 19.9727C115.774 19.7904 115.904 19.6406 116.074 19.5234C116.23 19.4062 116.425 19.3477 116.659 19.3477C116.92 19.3477 117.161 19.4193 117.382 19.5625C117.603 19.6927 117.818 19.8294 118.027 19.9727C118.053 20.1289 118.072 20.2852 118.085 20.4414C118.098 20.5846 118.105 20.7409 118.105 20.9102C118.105 21.2227 118.085 21.5417 118.046 21.8672C118.02 22.1797 118.007 22.4987 118.007 22.8242C118.007 23.1628 118.046 23.4818 118.124 23.7812C118.215 24.0677 118.372 24.3411 118.593 24.6016H118.671C118.775 24.5885 118.867 24.6081 118.945 24.6602C119.023 24.7122 119.114 24.7383 119.218 24.7383C119.309 24.7383 119.381 24.7057 119.433 24.6406C119.485 24.5625 119.55 24.5234 119.628 24.5234C119.706 24.5234 119.765 24.5365 119.804 24.5625C119.843 24.5885 119.876 24.6016 119.902 24.6016C120.045 24.6016 120.208 24.5495 120.39 24.4453C120.572 24.3411 120.689 24.224 120.742 24.0938C120.794 24.1328 120.859 24.1523 120.937 24.1523C121.041 24.1523 121.139 24.1198 121.23 24.0547C121.321 23.9896 121.438 23.957 121.581 23.957C121.659 23.957 121.686 23.9115 121.659 23.8203C121.646 23.7161 121.672 23.651 121.738 23.625C121.894 23.5599 122.063 23.4688 122.245 23.3516C122.441 23.2214 122.597 23.1432 122.714 23.1172C122.779 22.9479 122.857 22.7917 122.949 22.6484C123.053 22.4922 123.157 22.349 123.261 22.2188C123.3 21.9193 123.378 21.6328 123.495 21.3594C123.613 21.0859 123.736 20.8125 123.867 20.5391C123.997 20.2656 124.12 19.9922 124.238 19.7188C124.355 19.4453 124.433 19.1589 124.472 18.8594C124.615 18.7161 124.726 18.5599 124.804 18.3906C124.895 18.2214 124.973 18.0521 125.038 17.8828C125.169 17.8438 125.331 17.8242 125.527 17.8242C125.722 17.8112 125.891 17.8047 126.034 17.8047H126.367C126.406 17.8828 126.458 17.9544 126.523 18.0195L126.718 18.2148C126.601 18.3971 126.542 18.5794 126.542 18.7617C126.542 18.9049 126.575 19.0482 126.64 19.1914C126.705 19.3216 126.777 19.4453 126.855 19.5625Z" fill="white"/>
</g>
<defs>
<filter id="filter0_i" x="0" y="0" width="200" height="53" filterUnits="userSpaceOnUse" color-interpolation-filters="sRGB">
<feFlood flood-opacity="0" result="BackgroundImageFix"/>
<feBlend mode="normal" in="SourceGraphic" in2="BackgroundImageFix" result="shape"/>
<feColorMatrix in="SourceAlpha" type="matrix" values="0 0 0 0 0 0 0 0 0 0 0 0 0 0 0 0 0 0 127 0" result="hardAlpha"/>
<feOffset dy="3"/>
<feGaussianBlur stdDeviation="1.5"/>
<feComposite in2="hardAlpha" operator="arithmetic" k2="-1" k3="1"/>
<feColorMatrix type="matrix" values="0 0 0 0 0 0 0 0 0 0 0 0 0 0 0 0 0 0 0.25 0"/>
<feBlend mode="normal" in2="shape" result="effect1_innerShadow"/>
</filter>
</defs>
</svg>
