<svg width="200" height="50" viewBox="0 0 200 50" fill="none" xmlns="http://www.w3.org/2000/svg">
<g filter="url(#filter0_i)">
<rect y="6.27612" width="200" height="37.2385" rx="18.6192" fill="#FF5C00"/>
<path d="M73.9935 31.8867C73.9935 31.9909 73.9544 32.0625 73.8763 32.1016C73.8112 32.1406 73.7981 32.2318 73.8372 32.375C73.733 32.388 73.6419 32.4401 73.5638 32.5312C73.4856 32.6224 73.3945 32.668 73.2903 32.668C73.2252 32.668 73.1731 32.6354 73.1341 32.5703C73.108 32.6615 73.056 32.7266 72.9778 32.7656C72.9127 32.8047 72.8411 32.8372 72.763 32.8633C72.6849 32.8893 72.6067 32.9219 72.5286 32.9609C72.4505 33 72.3984 33.0586 72.3724 33.1367H72.2747C72.1185 33.1367 71.9948 33.2018 71.9036 33.332C71.8255 33.4622 71.7278 33.5273 71.6106 33.5273C71.5716 33.5273 71.5455 33.5208 71.5325 33.5078C71.4674 33.5208 71.4414 33.5599 71.4544 33.625C71.4674 33.7031 71.4479 33.7552 71.3958 33.7812H71.2981C70.9596 33.7812 70.6146 33.8529 70.263 33.9961C69.9114 34.1393 69.5534 34.3021 69.1888 34.4844C68.8372 34.6667 68.4726 34.8359 68.095 34.9922C67.7304 35.1615 67.3593 35.2721 66.9817 35.3242C66.9036 35.4023 66.806 35.4609 66.6888 35.5C66.5846 35.5521 66.4674 35.5911 66.3372 35.6172C66.207 35.6432 66.0768 35.6693 65.9466 35.6953C65.8294 35.7344 65.7252 35.793 65.6341 35.8711C65.3086 35.8971 64.983 35.9557 64.6575 36.0469C64.332 36.138 64.0065 36.2227 63.681 36.3008C63.3685 36.3919 63.0429 36.4635 62.7044 36.5156C62.3789 36.5807 62.0468 36.6003 61.7083 36.5742C61.6041 36.6523 61.487 36.7109 61.3567 36.75C61.2396 36.8021 61.1289 36.8672 61.0247 36.9453C60.4909 36.8672 59.957 36.8086 59.4231 36.7695C58.9023 36.7305 58.388 36.6393 57.8802 36.4961C57.8802 36.457 57.8672 36.431 57.8411 36.418C57.8151 36.4049 57.7825 36.3919 57.7435 36.3789C57.7174 36.3789 57.6914 36.3659 57.6653 36.3398C57.6393 36.3268 57.6393 36.2943 57.6653 36.2422C57.5481 36.2812 57.444 36.3008 57.3528 36.3008C57.2226 36.3008 57.0924 36.2682 56.9622 36.2031C56.845 36.138 56.7148 36.0664 56.5716 35.9883C56.4414 35.9102 56.3047 35.832 56.1614 35.7539C56.0182 35.6888 55.862 35.6562 55.6927 35.6562C55.5885 35.5521 55.4909 35.4479 55.3997 35.3438C55.3216 35.2396 55.263 35.1094 55.2239 34.9531C55.1718 34.9401 55.1133 34.9401 55.0481 34.9531C54.9961 34.9661 54.9505 34.9727 54.9114 34.9727C54.8333 34.9727 54.7942 34.9466 54.7942 34.8945C54.5208 34.6992 54.3255 34.4909 54.2083 34.2695C54.0911 34.0482 53.9609 33.7943 53.8177 33.5078C53.7786 33.4167 53.7265 33.3385 53.6614 33.2734C53.6093 33.2214 53.5703 33.1562 53.5442 33.0781C53.4922 32.9479 53.4596 32.8112 53.4466 32.668C53.4336 32.5247 53.4205 32.388 53.4075 32.2578C53.4075 32.1146 53.388 31.9779 53.3489 31.8477C53.3229 31.7044 53.2643 31.5742 53.1731 31.457C53.1992 30.9622 53.2513 30.4674 53.3294 29.9727C53.4205 29.4779 53.5312 28.9831 53.6614 28.4883C53.7135 28.2669 53.7721 28.0521 53.8372 27.8438C53.9023 27.6354 53.9609 27.4206 54.013 27.1992C54.026 27.1211 54.0455 27.069 54.0716 27.043C54.1106 27.0039 54.1432 26.9779 54.1692 26.9648L54.2474 26.9062C54.2734 26.8802 54.2929 26.8411 54.306 26.7891L54.4622 26.125C54.5664 25.6953 54.7031 25.2786 54.8724 24.875C55.0416 24.4714 55.2695 24.1003 55.556 23.7617C55.582 23.4362 55.6536 23.1302 55.7708 22.8438C55.901 22.5443 56.0442 22.2578 56.2005 21.9844C56.3567 21.6979 56.513 21.418 56.6692 21.1445C56.8255 20.8711 56.9492 20.5781 57.0403 20.2656L57.0208 20.2266C57.0208 20.1745 57.0468 20.1484 57.0989 20.1484C57.164 20.1354 57.2096 20.1289 57.2356 20.1289C57.2487 19.9206 57.2942 19.7448 57.3724 19.6016C57.4635 19.4453 57.5547 19.3021 57.6458 19.1719C57.75 19.0417 57.8411 18.9049 57.9192 18.7617C58.0104 18.6055 58.0625 18.4232 58.0755 18.2148C58.3229 18.0716 58.5312 17.8958 58.7005 17.6875C58.8828 17.4661 59.0521 17.2448 59.2083 17.0234C59.3776 16.7891 59.5534 16.5677 59.7356 16.3594C59.9179 16.138 60.1393 15.9622 60.3997 15.832C60.4648 15.7539 60.4843 15.6432 60.4583 15.5C60.862 15.2005 61.2786 14.9336 61.7083 14.6992C62.138 14.4648 62.5416 14.1914 62.9192 13.8789H63.6224C63.7916 13.7487 63.9804 13.6836 64.1888 13.6836C64.345 13.6836 64.4948 13.7161 64.638 13.7812C64.7942 13.8464 64.9375 13.9245 65.0677 14.0156C65.2109 14.0938 65.3541 14.1784 65.4974 14.2695C65.6406 14.3477 65.7838 14.4062 65.9271 14.4453C66.0703 14.6406 66.1679 14.8685 66.22 15.1289C66.2851 15.3763 66.3502 15.6107 66.4153 15.832C66.2981 16.1836 66.2265 16.5482 66.2005 16.9258C66.1745 17.2904 66.1289 17.6549 66.0638 18.0195C65.9726 18.1237 65.8945 18.2409 65.8294 18.3711C65.7643 18.4883 65.6927 18.612 65.6146 18.7422C65.5495 18.8594 65.4778 18.9766 65.3997 19.0938C65.3216 19.1979 65.2174 19.2826 65.0872 19.3477C64.983 19.7253 64.8203 20.0247 64.5989 20.2461C64.3776 20.4674 64.1627 20.7279 63.9544 21.0273C63.7591 21.1576 63.5508 21.2227 63.3294 21.2227C63.1471 21.2227 62.9843 21.1836 62.8411 21.1055C62.6979 21.0143 62.5677 20.9036 62.4505 20.7734C62.3333 20.6302 62.2356 20.4805 62.1575 20.3242C62.0924 20.1549 62.0403 19.9922 62.0013 19.8359C62.0924 19.5625 62.2356 19.3281 62.431 19.1328C62.6393 18.9375 62.8476 18.7422 63.056 18.5469C63.2643 18.3516 63.4466 18.1432 63.6028 17.9219C63.7591 17.7005 63.8372 17.4336 63.8372 17.1211C63.8372 17.0951 63.8307 17.069 63.8177 17.043C63.8177 17.0169 63.8177 16.9909 63.8177 16.9648C63.8177 16.9128 63.8372 16.8672 63.8763 16.8281C63.9153 16.7891 63.9544 16.7565 63.9935 16.7305L64.1106 16.6328C64.1497 16.5938 64.1692 16.5482 64.1692 16.4961C64.1692 16.444 64.1432 16.3919 64.0911 16.3398C63.5963 16.3789 63.2187 16.4635 62.9583 16.5938C62.7109 16.724 62.5156 16.8672 62.3724 17.0234C62.2291 17.1797 62.0989 17.3359 61.9817 17.4922C61.8776 17.6354 61.7213 17.7396 61.513 17.8047C61.4739 17.9089 61.4153 18 61.3372 18.0781C61.2721 18.1432 61.2005 18.2148 61.1224 18.293C61.0442 18.3581 60.9726 18.4362 60.9075 18.5273C60.8554 18.6185 60.8229 18.7292 60.8099 18.8594H60.4583C60.4062 18.9766 60.3281 19.0938 60.2239 19.2109C60.1328 19.3151 60.0351 19.4193 59.931 19.5234C59.8398 19.6276 59.7552 19.7448 59.6771 19.875C59.612 19.9922 59.5924 20.1224 59.6185 20.2656C59.4752 20.3177 59.3646 20.4023 59.2864 20.5195C59.2213 20.6367 59.1237 20.7344 58.9935 20.8125V20.9297C58.9935 21.0339 58.9739 21.1315 58.9349 21.2227C58.8958 21.3138 58.8893 21.4115 58.9153 21.5156C58.7591 21.6589 58.6419 21.8411 58.5638 22.0625C58.4987 22.2708 58.4271 22.4661 58.3489 22.6484C58.1666 22.7396 58.0429 22.8633 57.9778 23.0195C57.9127 23.1758 57.8802 23.3581 57.8802 23.5664C57.6849 23.7617 57.5091 23.9896 57.3528 24.25C57.1966 24.5104 57.0534 24.7773 56.9231 25.0508C56.806 25.3242 56.6953 25.6042 56.5911 25.8906C56.487 26.1771 56.3763 26.444 56.2591 26.6914V27.2578C56.0768 27.4661 55.9466 27.7135 55.8685 28C55.8034 28.2734 55.6992 28.5208 55.556 28.7422C55.5299 28.8854 55.5169 29.0286 55.5169 29.1719C55.5299 29.3151 55.5364 29.4583 55.5364 29.6016C55.5364 29.7578 55.5234 29.9206 55.4974 30.0898C55.4713 30.2591 55.4258 30.4154 55.3606 30.5586C55.4127 30.7539 55.4518 30.9883 55.4778 31.2617C55.5039 31.5221 55.5495 31.7891 55.6146 32.0625C55.6797 32.3229 55.7708 32.5638 55.888 32.7852C56.0052 32.9935 56.1745 33.1367 56.3958 33.2148C56.4479 33.5013 56.5716 33.7161 56.7669 33.8594C56.9752 34.0156 57.2096 34.1393 57.47 34.2305C57.7304 34.3216 57.9974 34.3997 58.2708 34.4648C58.5442 34.543 58.7851 34.6406 58.9935 34.7578C59.0716 34.7188 59.1627 34.6992 59.2669 34.6992C59.3711 34.6992 59.4622 34.7122 59.5403 34.7383C59.6315 34.7643 59.7291 34.7904 59.8333 34.8164C60.0156 34.7904 60.237 34.7773 60.4974 34.7773C60.7708 34.7773 61.0442 34.7643 61.3177 34.7383C61.5911 34.7253 61.845 34.6927 62.0794 34.6406C62.3138 34.5885 62.5026 34.4909 62.6458 34.3477C62.737 34.3477 62.7955 34.3737 62.8216 34.4258C62.8606 34.4779 62.9258 34.5039 63.0169 34.5039C63.108 34.5039 63.2448 34.4779 63.4271 34.4258C63.6093 34.3867 63.7981 34.3346 63.9935 34.2695C64.1888 34.2174 64.3711 34.1589 64.5403 34.0938C64.7226 34.0286 64.8528 33.9701 64.931 33.918C64.97 33.931 65.0091 33.9375 65.0481 33.9375H65.1849C65.3672 33.9375 65.5364 33.9049 65.6927 33.8398C65.8489 33.7747 66.0182 33.7552 66.2005 33.7812C66.7995 33.4818 67.4049 33.2214 68.0169 33C68.6419 32.7917 69.2734 32.6029 69.9114 32.4336C69.9896 32.3164 70.0807 32.2318 70.1849 32.1797C70.3021 32.1276 70.4258 32.0885 70.556 32.0625C70.6862 32.0234 70.8164 31.9974 70.9466 31.9844C71.0768 31.9583 71.2005 31.9258 71.3177 31.8867C71.3958 31.8477 71.4609 31.8021 71.513 31.75C71.5781 31.6849 71.6562 31.6328 71.7474 31.5938C71.8385 31.5547 71.9362 31.5286 72.0403 31.5156C72.1575 31.5026 72.2682 31.4896 72.3724 31.4766C72.4896 31.4505 72.5937 31.418 72.6849 31.3789C72.789 31.3398 72.8737 31.2747 72.9388 31.1836C73.1211 31.2617 73.3034 31.3464 73.4856 31.4375C73.681 31.5286 73.8437 31.6589 73.9739 31.8281L73.9935 31.8867ZM96.0247 29.6016C95.9987 29.7969 95.9271 29.9466 95.8099 30.0508C95.7057 30.1549 95.582 30.2526 95.4388 30.3438C95.3737 30.3307 95.3086 30.3242 95.2435 30.3242C95.1914 30.3112 95.1328 30.3047 95.0677 30.3047C94.664 30.2917 94.2799 30.3438 93.9153 30.4609C93.5638 30.5781 93.1992 30.6628 92.8216 30.7148C92.6914 30.7409 92.5677 30.7539 92.4505 30.7539C92.3463 30.7409 92.2356 30.7474 92.1185 30.7734C91.7018 30.8385 91.2591 30.8906 90.7903 30.9297C90.3216 30.9688 89.8528 31.0208 89.3841 31.0859C88.9153 31.138 88.4531 31.2096 87.9974 31.3008C87.5547 31.3789 87.138 31.4961 86.7474 31.6523C86.7083 31.6263 86.6692 31.6003 86.6302 31.5742C86.5911 31.5352 86.5455 31.5156 86.4935 31.5156C86.3633 31.5156 86.2396 31.5352 86.1224 31.5742C86.0052 31.6133 85.888 31.6263 85.7708 31.6133C85.6406 31.6914 85.4974 31.75 85.3411 31.7891C85.1979 31.8151 85.0481 31.8411 84.8919 31.8672C84.7487 31.8802 84.6054 31.9062 84.4622 31.9453C84.319 31.9844 84.1823 32.056 84.0521 32.1602C83.9479 32.1081 83.8177 32.082 83.6614 32.082C83.5182 32.069 83.4205 32.0169 83.3685 31.9258C83.069 32.069 82.75 32.1602 82.4114 32.1992C82.0859 32.2383 81.7539 32.2513 81.4153 32.2383C81.194 32.2253 80.9401 32.1927 80.6536 32.1406C80.3672 32.0885 80.0807 32.0169 79.7942 31.9258C79.5078 31.8216 79.2409 31.7044 78.9935 31.5742C78.7461 31.431 78.5573 31.2617 78.4271 31.0664C78.3359 30.9362 78.2708 30.793 78.2317 30.6367C78.1927 30.4805 78.1015 30.3633 77.9583 30.2852C77.9974 29.9857 78.0429 29.6927 78.095 29.4062C78.1471 29.1198 78.1992 28.8268 78.2513 28.5273C78.5117 28.306 78.7591 28.0716 78.9935 27.8242C79.2278 27.5768 79.4492 27.3164 79.6575 27.043C79.9049 26.9258 80.1328 26.7826 80.3411 26.6133C80.5625 26.444 80.7773 26.2747 80.9856 26.1055C81.207 25.9232 81.4218 25.7474 81.6302 25.5781C81.8515 25.4089 82.0859 25.2591 82.3333 25.1289C82.3724 25.0378 82.4245 24.9661 82.4896 24.9141C82.5677 24.849 82.6458 24.7904 82.7239 24.7383C82.8021 24.6732 82.8737 24.6081 82.9388 24.543C83.0039 24.4648 83.0495 24.3737 83.0755 24.2695C83.5312 23.9961 83.9284 23.651 84.2669 23.2344C84.6054 22.8177 84.8268 22.349 84.931 21.8281C84.7096 21.6458 84.4557 21.5286 84.1692 21.4766C83.8958 21.4115 83.6093 21.3659 83.3099 21.3398C83.0495 21.3268 82.776 21.3268 82.4896 21.3398C82.2161 21.3529 81.9362 21.3464 81.6497 21.3203C81.3633 21.4115 81.0638 21.4701 80.7513 21.4961C80.4518 21.5221 80.1523 21.5482 79.8528 21.5742C79.5534 21.5872 79.2539 21.6263 78.9544 21.6914C78.6679 21.7435 78.388 21.8477 78.1146 22.0039C78.0625 22.0039 78.0104 21.9974 77.9583 21.9844C77.9192 21.9714 77.8737 21.9648 77.8216 21.9648C77.4049 21.9518 77.0143 22.0365 76.6497 22.2188C76.2851 22.388 75.9271 22.5573 75.5755 22.7266C75.5495 22.7786 75.5364 22.8177 75.5364 22.8438C75.5364 22.9219 75.5495 23 75.5755 23.0781C75.6146 23.1432 75.6341 23.2148 75.6341 23.293C75.6211 23.306 75.6146 23.319 75.6146 23.332C75.6146 23.3451 75.608 23.3581 75.595 23.3711C75.582 23.4362 75.5625 23.4948 75.5364 23.5469C75.5234 23.599 75.5039 23.6576 75.4778 23.7227C75.3346 24.1393 75.2565 24.5495 75.2435 24.9531C75.2304 25.2917 75.2304 25.6237 75.2435 25.9492C75.2565 26.2747 75.2565 26.6068 75.2435 26.9453C75.2174 27.362 75.1523 27.7526 75.0481 28.1172C75.1133 28.4297 75.1718 28.7617 75.2239 29.1133C75.276 29.4518 75.3411 29.7904 75.4192 30.1289C75.4974 30.4674 75.5885 30.7995 75.6927 31.125C75.8099 31.4375 75.9596 31.737 76.1419 32.0234C76.1289 32.0495 76.1354 32.069 76.1614 32.082C76.1875 32.0951 76.2135 32.1016 76.2396 32.1016H76.3958C76.4609 32.1016 76.487 32.1276 76.4739 32.1797C76.5 32.2188 76.5195 32.2578 76.5325 32.2969C76.5455 32.3229 76.5716 32.349 76.6106 32.375C76.6367 32.4141 76.6367 32.4661 76.6106 32.5312C76.5976 32.7917 76.5325 33.0326 76.4153 33.2539C76.2981 33.4753 76.2265 33.7161 76.2005 33.9766C76.0442 34.0156 75.901 34.0352 75.7708 34.0352C75.5495 34.0221 75.3541 33.957 75.1849 33.8398C75.0156 33.7357 74.8593 33.6055 74.7161 33.4492C74.5729 33.293 74.4362 33.1367 74.306 32.9805C74.1758 32.8112 74.0325 32.668 73.8763 32.5508C73.7851 32.1862 73.694 31.7826 73.6028 31.3398C73.5247 30.8971 73.388 30.5195 73.1927 30.207C73.2448 30.0898 73.2708 29.9466 73.2708 29.7773C73.2838 29.5169 73.2578 29.263 73.1927 29.0156C73.1406 28.7552 73.1276 28.4948 73.1536 28.2344C73.1536 28.0911 73.1666 27.9479 73.1927 27.8047C73.2317 27.6615 73.2578 27.5182 73.2708 27.375C73.2838 27.1536 73.2578 26.9388 73.1927 26.7305C73.1406 26.5221 73.1211 26.3073 73.1341 26.0859C73.1471 25.9818 73.1666 25.8841 73.1927 25.793C73.2317 25.6888 73.2838 25.5977 73.3489 25.5195C73.2838 25.3633 73.2643 25.2135 73.2903 25.0703C73.3034 24.849 73.3294 24.6406 73.3685 24.4453C73.4075 24.25 73.4336 24.0547 73.4466 23.8594C73.4466 23.7552 73.4401 23.6576 73.4271 23.5664C73.414 23.4622 73.3945 23.3646 73.3685 23.2734L73.1927 23.2148C73.1146 23.2148 73.0364 23.2344 72.9583 23.2734C72.8932 23.3125 72.8346 23.3581 72.7825 23.4102C72.7304 23.4622 72.6849 23.5078 72.6458 23.5469C72.6067 23.5729 72.5677 23.5859 72.5286 23.5859C72.5026 23.5859 72.47 23.5859 72.431 23.5859C72.4049 23.5729 72.3789 23.5664 72.3528 23.5664C72.3268 23.5664 72.2747 23.5924 72.1966 23.6445C72.1315 23.6966 72.0468 23.7552 71.9427 23.8203C71.8515 23.8724 71.7604 23.931 71.6692 23.9961C71.5781 24.0482 71.5065 24.0807 71.4544 24.0938C71.3112 24.0677 71.194 24.0221 71.1028 23.957C71.0247 23.8789 70.9466 23.8073 70.8685 23.7422C70.8034 23.6641 70.7317 23.599 70.6536 23.5469C70.5755 23.4818 70.4778 23.4557 70.3606 23.4688C70.3216 23.3906 70.3021 23.306 70.3021 23.2148C70.289 23.1237 70.289 23.0326 70.3021 22.9414V22.6289C70.3932 22.4596 70.5169 22.3229 70.6731 22.2188C70.8164 22.1016 70.9726 22.0039 71.1419 21.9258L71.6497 21.6914C71.819 21.6133 71.9752 21.5156 72.1185 21.3984H72.2942C72.5286 21.4115 72.7304 21.3659 72.8997 21.2617C73.082 21.1576 73.2513 21.0404 73.4075 20.9102C73.5638 20.7669 73.72 20.6237 73.8763 20.4805C74.0455 20.3372 74.2278 20.2266 74.4231 20.1484C74.5664 20.2135 74.7161 20.2721 74.8724 20.3242C75.0286 20.3633 75.1914 20.3893 75.3606 20.4023C75.5299 20.4023 75.7057 20.3763 75.888 20.3242C76.0703 20.2721 76.2135 20.1745 76.3177 20.0312C76.3828 20.0573 76.4349 20.0768 76.4739 20.0898C76.526 20.0898 76.5846 20.0898 76.6497 20.0898C76.845 20.1029 77.0403 20.0768 77.2356 20.0117C77.431 19.9336 77.6198 19.8424 77.8021 19.7383C78.0625 19.7513 78.3164 19.7383 78.5638 19.6992C78.8242 19.6471 79.0781 19.5951 79.3255 19.543C79.5859 19.4909 79.8398 19.4453 80.0872 19.4062C80.3476 19.3542 80.608 19.3346 80.8685 19.3477C81.2981 19.3607 81.7213 19.3216 82.138 19.2305C82.5547 19.1393 82.9778 19.1068 83.4075 19.1328C83.707 19.1458 84 19.1719 84.2864 19.2109C84.5859 19.237 84.8854 19.2435 85.1849 19.2305C85.3541 19.3086 85.5039 19.3802 85.6341 19.4453C85.7773 19.4974 85.9531 19.5104 86.1614 19.4844C86.5781 19.8359 86.9557 20.2461 87.2942 20.7148V21.0469C87.2812 21.3464 87.2291 21.6393 87.138 21.9258C87.0468 22.2122 86.9362 22.4987 86.806 22.7852C86.6888 23.0586 86.5586 23.332 86.4153 23.6055C86.2721 23.8659 86.1354 24.1263 86.0052 24.3867C85.1588 25.1549 84.3125 25.9167 83.4661 26.6719C82.6198 27.4271 81.7474 28.1562 80.8489 28.8594C80.8229 28.9896 80.7838 29.1068 80.7317 29.2109C80.6927 29.3151 80.6666 29.4258 80.6536 29.543C80.6536 29.6081 80.6601 29.6602 80.6731 29.6992C80.7643 29.7253 80.8424 29.7773 80.9075 29.8555C80.9856 29.9206 81.0117 30.0117 80.9856 30.1289H81.1614C81.2265 30.1289 81.2591 30.1549 81.2591 30.207L81.5716 30.2266C82.0664 30.2526 82.5612 30.2396 83.056 30.1875C83.5508 30.1354 84.0455 30.0768 84.5403 30.0117C85.0481 29.9466 85.5495 29.888 86.0442 29.8359C86.539 29.7708 87.0338 29.7318 87.5286 29.7188C87.6458 29.6797 87.7695 29.6471 87.8997 29.6211C88.0299 29.5951 88.1471 29.543 88.2513 29.4648H88.3099C88.401 29.4648 88.4661 29.4909 88.5052 29.543C88.5573 29.5951 88.6289 29.6276 88.72 29.6406C88.7851 29.6406 88.8502 29.6276 88.9153 29.6016C88.9935 29.5755 89.0716 29.556 89.1497 29.543C89.332 29.4909 89.5208 29.4583 89.7161 29.4453C89.9245 29.4323 90.1263 29.4128 90.3216 29.3867C91.0768 29.3216 91.8255 29.2826 92.5677 29.2695C93.3099 29.2435 94.0521 29.1458 94.7942 28.9766C94.8593 29.0677 94.9505 29.1328 95.0677 29.1719C95.1849 29.1979 95.3086 29.2305 95.4388 29.2695C95.569 29.2956 95.6862 29.3281 95.7903 29.3672C95.9075 29.4062 95.9856 29.4844 96.0247 29.6016ZM102.841 20.5781V20.6562C102.75 20.6823 102.704 20.7474 102.704 20.8516C102.561 20.9167 102.411 20.9688 102.255 21.0078C102.099 21.0339 101.949 21.0794 101.806 21.1445C101.663 21.1315 101.513 21.125 101.357 21.125C101.214 21.112 101.07 21.1055 100.927 21.1055C100.536 21.1055 100.146 21.1185 99.7552 21.1445C99.3646 21.1706 98.9739 21.1706 98.5833 21.1445C98.401 21.2487 98.1992 21.3333 97.9778 21.3984C97.7695 21.4505 97.5677 21.4766 97.3724 21.4766C97.2161 21.4766 97.0794 21.457 96.9622 21.418C96.6497 21.5742 96.3047 21.7044 95.9271 21.8086C95.5625 21.9128 95.1914 22.0169 94.8138 22.1211C94.4362 22.2122 94.0716 22.3229 93.72 22.4531C93.3815 22.5703 93.082 22.7396 92.8216 22.9609C92.7955 23.1432 92.776 23.3255 92.763 23.5078C92.75 23.6771 92.7435 23.8464 92.7435 24.0156C92.7435 24.1979 92.75 24.3672 92.763 24.5234C92.789 24.6797 92.8346 24.8359 92.8997 24.9922C92.9648 25.0182 93.0364 25.0378 93.1146 25.0508C93.2057 25.0638 93.2838 25.0703 93.3489 25.0703C93.414 25.0703 93.4791 25.0638 93.5442 25.0508C93.6093 25.0247 93.6549 24.9792 93.681 24.9141C93.8763 24.888 94.0716 24.8815 94.2669 24.8945C94.4622 24.8945 94.6575 24.8945 94.8528 24.8945C95.0481 24.8945 95.237 24.888 95.4192 24.875C95.6146 24.862 95.8034 24.8294 95.9856 24.7773C96.194 24.7253 96.3958 24.6927 96.5911 24.6797C96.7995 24.6667 97.0013 24.6536 97.1966 24.6406C97.3919 24.6276 97.5937 24.6081 97.8021 24.582C98.0104 24.543 98.2252 24.4714 98.4466 24.3672C98.6159 24.4323 98.7851 24.4648 98.9544 24.4648C99.1367 24.4648 99.3125 24.4779 99.4817 24.5039C99.5729 24.569 99.6445 24.6406 99.6966 24.7188C99.7617 24.7969 99.7942 24.888 99.7942 24.9922C99.7942 25.1745 99.7291 25.3568 99.5989 25.5391C99.4687 25.7214 99.3646 25.8906 99.2864 26.0469H99.0716C98.7591 26.0469 98.4531 26.0924 98.1536 26.1836C97.8672 26.2617 97.5742 26.3594 97.2747 26.4766C96.9883 26.5807 96.6953 26.6784 96.3958 26.7695C96.1093 26.8477 95.8099 26.8867 95.4974 26.8867C95.4453 26.8867 95.4127 26.9193 95.3997 26.9844C95.3997 27.0365 95.3867 27.0755 95.3606 27.1016C95.2955 27.0885 95.1979 27.082 95.0677 27.082C94.7682 27.082 94.4817 27.1146 94.2083 27.1797C93.9349 27.2448 93.6549 27.2773 93.3685 27.2773C93.2903 27.2773 93.2122 27.2773 93.1341 27.2773C93.056 27.2643 92.9778 27.2513 92.8997 27.2383C92.8346 27.3424 92.75 27.4141 92.6458 27.4531C92.5416 27.4792 92.444 27.5312 92.3528 27.6094C92.3138 27.7266 92.2877 27.8698 92.2747 28.0391C92.2747 28.2083 92.2682 28.3841 92.2552 28.5664C92.2552 28.7357 92.2422 28.8984 92.2161 29.0547C92.1901 29.2109 92.138 29.3346 92.0599 29.4258C92.0729 29.4909 92.125 29.5169 92.2161 29.5039C92.3073 29.4779 92.3528 29.5169 92.3528 29.6211C92.3528 29.7383 92.3398 29.862 92.3138 29.9922C92.2877 30.1224 92.2747 30.2526 92.2747 30.3828C92.2747 30.6302 92.3008 30.9036 92.3528 31.2031C92.4179 31.4896 92.5091 31.7565 92.6263 32.0039C92.7565 32.2513 92.9258 32.4596 93.1341 32.6289C93.3424 32.7852 93.6028 32.8633 93.9153 32.8633C94.1237 32.8633 94.319 32.8242 94.5013 32.7461C94.6836 32.668 94.8333 32.5378 94.9505 32.3555L95.0481 32.3359C95.1002 32.3359 95.1458 32.3424 95.1849 32.3555C95.237 32.3685 95.289 32.375 95.3411 32.375C95.4192 32.375 95.5169 32.3294 95.6341 32.2383C95.7643 32.1341 95.901 32.0169 96.0442 31.8867C96.2005 31.7565 96.3567 31.6328 96.513 31.5156C96.6692 31.3854 96.819 31.2943 96.9622 31.2422C97.0534 31.0599 97.138 30.8776 97.2161 30.6953C97.3073 30.513 97.4375 30.3698 97.6067 30.2656V29.6992C97.737 29.556 97.8737 29.4258 98.0169 29.3086C98.1731 29.1914 98.2903 29.0417 98.3685 28.8594C98.4336 28.8854 98.4922 28.9049 98.5442 28.918C98.6093 28.931 98.6745 28.9375 98.7396 28.9375C98.8047 28.9375 98.8698 28.931 98.9349 28.918C99.013 28.9049 99.0846 28.8854 99.1497 28.8594C99.2539 29.0026 99.332 29.1654 99.3841 29.3477C99.4492 29.5169 99.5273 29.6797 99.6185 29.8359C99.5013 30.0703 99.3646 30.3503 99.2083 30.6758C99.0521 31.0013 98.8828 31.3268 98.7005 31.6523C98.5182 31.9779 98.3229 32.2904 98.1146 32.5898C97.9192 32.8763 97.7239 33.0977 97.5286 33.2539C97.4896 33.293 97.4049 33.3385 97.2747 33.3906C97.1315 33.4948 97.0013 33.5924 96.8841 33.6836C96.7669 33.7878 96.6562 33.9049 96.5521 34.0352C96.1745 34.1523 95.8099 34.3086 95.4583 34.5039C95.1198 34.6992 94.7812 34.888 94.4427 35.0703C94.2864 35.0312 94.1172 35.0117 93.9349 35.0117C93.7786 35.0117 93.6224 35.0182 93.4661 35.0312C93.3099 35.0573 93.1406 35.0703 92.9583 35.0703C92.9062 35.0052 92.8281 34.9596 92.7239 34.9336C92.6328 34.9206 92.6002 34.8555 92.6263 34.7383C92.1836 34.7122 91.8255 34.5885 91.5521 34.3672C91.2786 34.1589 91.0442 33.8984 90.8489 33.5859C90.6666 33.2734 90.5169 32.9349 90.3997 32.5703C90.2825 32.2057 90.1588 31.8542 90.0286 31.5156V31.457C90.0286 31.3919 90.0547 31.3529 90.1067 31.3398C90.1588 31.3268 90.1849 31.2878 90.1849 31.2227C90.1849 31.1966 90.1784 31.1771 90.1653 31.1641C90.1263 31.0208 90.0937 30.8971 90.0677 30.793C90.0416 30.6888 90.0286 30.5651 90.0286 30.4219C90.0286 30.2135 90.0416 30.0117 90.0677 29.8164C90.0937 29.6081 90.1067 29.3997 90.1067 29.1914C90.1067 28.9831 90.0807 28.8008 90.0286 28.6445C90.0807 28.5794 90.1263 28.4948 90.1653 28.3906C90.1914 28.2734 90.2109 28.1562 90.2239 28.0391C90.237 27.9219 90.2435 27.8047 90.2435 27.6875C90.2565 27.5703 90.276 27.4661 90.3021 27.375C90.25 27.2318 90.2044 27.1081 90.1653 27.0039C90.1263 26.8867 90.1067 26.75 90.1067 26.5938V26.457C90.237 26.2357 90.3476 26.0078 90.4388 25.7734C90.5299 25.5391 90.6276 25.2982 90.7317 25.0508V24.9922C90.7317 24.6146 90.7187 24.237 90.6927 23.8594C90.6666 23.4818 90.6536 23.1042 90.6536 22.7266V22.3555C90.6536 22.2253 90.6601 22.1016 90.6731 21.9844C90.7773 21.9323 90.8554 21.8607 90.9075 21.7695C90.9596 21.6784 91.0377 21.6068 91.1419 21.5547H91.7864L91.9036 21.3594C91.9427 21.2943 91.9687 21.2227 91.9817 21.1445C92.125 21.1055 92.2617 21.0534 92.3919 20.9883C92.5351 20.9102 92.6653 20.832 92.7825 20.7539C92.9648 20.6497 93.1276 20.5586 93.2708 20.4805C93.4271 20.3893 93.5768 20.3177 93.72 20.2656C93.8763 20.2005 94.039 20.1484 94.2083 20.1094C94.3776 20.0703 94.5729 20.0378 94.7942 20.0117C94.8984 20.0117 94.9635 19.9922 94.9896 19.9531C95.0286 19.9141 95.0807 19.8685 95.1458 19.8164C95.3021 19.8424 95.4583 19.8685 95.6146 19.8945C95.7708 19.9076 95.9271 19.9141 96.0833 19.9141C96.3958 19.9141 96.6888 19.8555 96.9622 19.7383C97.3528 19.7383 97.737 19.7318 98.1146 19.7188C98.5052 19.7057 98.8958 19.6992 99.2864 19.6992C99.625 19.6992 99.9635 19.7122 100.302 19.7383C100.641 19.7643 100.973 19.8099 101.298 19.875C101.415 19.8359 101.546 19.8164 101.689 19.8164C101.845 19.8164 102.001 19.8359 102.158 19.875C102.327 19.901 102.49 19.901 102.646 19.875C102.659 20.0182 102.691 20.1419 102.743 20.2461C102.809 20.3372 102.841 20.4479 102.841 20.5781ZM115.029 23.3711C115.029 23.5013 114.983 23.5859 114.892 23.625C114.801 23.6641 114.755 23.7422 114.755 23.8594C114.755 23.8984 114.768 23.931 114.794 23.957C114.82 23.9831 114.833 24.0221 114.833 24.0742V24.1523C114.677 24.9076 114.449 25.5651 114.15 26.125C113.863 26.6849 113.525 27.1992 113.134 27.668C112.743 28.1367 112.301 28.5794 111.806 28.9961C111.324 29.4128 110.803 29.849 110.243 30.3047C110.087 30.4349 109.924 30.5651 109.755 30.6953C109.599 30.8255 109.449 30.9622 109.306 31.1055L108.876 31.5156C108.863 31.5286 108.792 31.5612 108.661 31.6133C108.531 31.6523 108.453 31.6784 108.427 31.6914C108.245 31.7695 108.049 31.8607 107.841 31.9648C107.646 32.069 107.477 32.1992 107.333 32.3555C107.073 32.3555 106.852 32.3945 106.669 32.4727C106.487 32.5508 106.285 32.6549 106.064 32.7852C105.999 32.7852 105.94 32.7721 105.888 32.7461C105.849 32.7201 105.803 32.694 105.751 32.668C105.699 32.6419 105.641 32.6289 105.575 32.6289C105.523 32.6159 105.452 32.6224 105.361 32.6484C105.204 32.388 105.035 32.1667 104.853 31.9844C104.671 31.8021 104.423 31.6914 104.111 31.6523C104.072 31.431 103.98 31.2617 103.837 31.1445C103.694 31.0143 103.551 30.8776 103.408 30.7344C103.381 30.6562 103.362 30.5651 103.349 30.4609C103.336 30.3568 103.31 30.2591 103.271 30.168C103.232 30.0768 103.18 29.9987 103.115 29.9336C103.049 29.8685 102.958 29.8359 102.841 29.8359C102.828 29.7578 102.861 29.7188 102.939 29.7188C103.017 29.7188 103.056 29.6862 103.056 29.6211C103.056 29.543 103.043 29.4648 103.017 29.3867C102.991 29.3086 102.978 29.224 102.978 29.1328C102.978 29.0677 102.984 29.0091 102.997 28.957C103.01 28.9049 103.03 28.8464 103.056 28.7812C103.017 28.4297 102.997 28.0716 102.997 27.707C102.997 27.0039 103.043 26.3138 103.134 25.6367C103.238 24.9466 103.29 24.25 103.29 23.5469C103.29 23.2344 103.271 22.9219 103.232 22.6094C103.206 22.2969 103.147 21.9909 103.056 21.6914C102.756 21.7565 102.457 21.8346 102.158 21.9258C101.858 22.0039 101.578 22.1146 101.318 22.2578C101.174 22.1667 101.025 22.1146 100.868 22.1016C100.699 22.0755 100.536 22.0365 100.38 21.9844C100.289 21.8021 100.243 21.6133 100.243 21.418C100.243 21.2357 100.276 21.0599 100.341 20.8906L100.536 20.3828C100.849 20.3177 101.161 20.2201 101.474 20.0898C101.773 19.9596 102.079 19.8424 102.392 19.7383C102.496 19.7122 102.626 19.6797 102.783 19.6406C102.952 19.6016 103.069 19.569 103.134 19.543C103.225 19.5039 103.284 19.4323 103.31 19.3281C103.349 19.2109 103.401 19.1133 103.466 19.0352H103.798C103.876 19.0352 103.961 19.0417 104.052 19.0547C104.143 19.0547 104.228 19.0742 104.306 19.1133C104.775 18.9961 105.243 18.9245 105.712 18.8984C106.181 18.8594 106.663 18.8073 107.158 18.7422C107.21 18.7422 107.288 18.7357 107.392 18.7227L107.724 18.6641C107.841 18.638 107.945 18.6185 108.036 18.6055C108.141 18.5794 108.212 18.5664 108.251 18.5664C108.29 18.5664 108.31 18.5859 108.31 18.625H108.642C109.202 18.625 109.749 18.6966 110.283 18.8398L111.884 19.2695C112.105 19.4518 112.327 19.6276 112.548 19.7969C112.77 19.9661 113.017 20.1159 113.29 20.2461C113.355 20.4544 113.453 20.6237 113.583 20.7539C113.727 20.8711 113.883 21.0013 114.052 21.1445C114.117 21.3138 114.202 21.4961 114.306 21.6914C114.423 21.8737 114.534 22.0625 114.638 22.2578C114.742 22.4531 114.833 22.6484 114.911 22.8438C114.99 23.026 115.029 23.2018 115.029 23.3711ZM113.212 23.6641C113.069 23.3646 112.932 23.0521 112.802 22.7266C112.672 22.401 112.509 22.1081 112.314 21.8477C112.079 21.7826 111.839 21.7044 111.591 21.6133C111.357 21.5091 111.194 21.3333 111.103 21.0859C111.077 21.099 111.031 21.1055 110.966 21.1055C110.849 21.1055 110.745 21.0599 110.654 20.9688C110.562 20.8776 110.458 20.819 110.341 20.793C110.237 20.7799 110.094 20.7604 109.911 20.7344C109.742 20.7083 109.56 20.6888 109.365 20.6758C109.169 20.6628 108.974 20.6497 108.779 20.6367C108.596 20.6237 108.453 20.6172 108.349 20.6172C108.245 20.6172 108.134 20.6237 108.017 20.6367C107.913 20.6367 107.802 20.6432 107.685 20.6562C107.581 20.6562 107.516 20.6758 107.49 20.7148C107.464 20.7409 107.411 20.7669 107.333 20.793C107.268 20.7669 107.197 20.7539 107.118 20.7539H106.884C106.611 20.7539 106.337 20.7995 106.064 20.8906C105.803 20.9688 105.543 21.0794 105.283 21.2227V21.3008C105.283 21.4049 105.328 21.4635 105.419 21.4766C105.51 21.4896 105.562 21.5417 105.575 21.6328C105.51 21.6328 105.458 21.6393 105.419 21.6523C105.38 21.6523 105.361 21.6979 105.361 21.7891C105.361 21.9193 105.374 22.0625 105.4 22.2188C105.439 22.375 105.458 22.5312 105.458 22.6875C105.458 22.8047 105.445 22.9414 105.419 23.0977C105.393 23.2539 105.328 23.3776 105.224 23.4688C105.354 23.5859 105.419 23.7422 105.419 23.9375C105.419 24.0677 105.393 24.2044 105.341 24.3477C105.289 24.4909 105.224 24.6146 105.146 24.7188C105.12 25.2656 105.068 25.819 104.99 26.3789C104.911 26.9388 104.872 27.4922 104.872 28.0391C104.872 28.3125 104.885 28.5794 104.911 28.8398C104.95 29.1003 105.009 29.3607 105.087 29.6211C105.23 29.7643 105.38 29.875 105.536 29.9531C105.706 30.0312 105.881 30.1094 106.064 30.1875V30.2461C106.064 30.2852 106.038 30.3242 105.986 30.3633C105.934 30.4023 105.908 30.4544 105.908 30.5195C105.908 30.5716 105.934 30.5977 105.986 30.5977C106.533 30.4414 107.047 30.2526 107.529 30.0312C108.01 29.8099 108.46 29.5104 108.876 29.1328C108.915 29.0938 108.954 29.0742 108.993 29.0742C109.02 29.0742 109.052 29.0807 109.091 29.0938C109.143 29.1068 109.189 29.1198 109.228 29.1328L109.208 29.0547C109.208 28.9766 109.228 28.9049 109.267 28.8398C109.319 28.7747 109.378 28.7161 109.443 28.6641L109.638 28.4883C109.703 28.4232 109.755 28.3581 109.794 28.293C109.898 28.2669 109.97 28.2148 110.009 28.1367C110.061 28.0586 110.146 28.0195 110.263 28.0195C110.289 27.8763 110.361 27.7721 110.478 27.707C110.595 27.6289 110.667 27.5182 110.693 27.375C110.953 27.2318 111.181 27.056 111.376 26.8477C111.585 26.6393 111.773 26.418 111.943 26.1836C112.125 25.9492 112.294 25.7083 112.45 25.4609C112.607 25.2005 112.77 24.9531 112.939 24.7188V24.6406C112.939 24.4323 112.971 24.263 113.036 24.1328C113.115 24.0026 113.173 23.8464 113.212 23.6641ZM120.107 30.3242C120.042 30.4284 119.964 30.526 119.872 30.6172C119.781 30.6953 119.697 30.7799 119.618 30.8711C119.527 30.9102 119.423 30.9297 119.306 30.9297C119.202 30.9297 119.098 30.9297 118.993 30.9297C118.902 30.9167 118.811 30.9167 118.72 30.9297C118.642 30.9297 118.577 30.9557 118.525 31.0078C118.421 30.9818 118.342 30.9362 118.29 30.8711C118.238 30.793 118.147 30.7474 118.017 30.7344C117.965 30.7214 117.913 30.7214 117.861 30.7344C117.665 30.513 117.483 30.2786 117.314 30.0312C117.158 29.7839 117.008 29.5495 116.865 29.3281C116.852 28.8464 116.812 28.3581 116.747 27.8633C116.734 27.7461 116.715 27.6289 116.689 27.5117C116.663 27.3945 116.643 27.2839 116.63 27.1797C116.63 27.0495 116.637 26.9258 116.65 26.8086C116.676 26.6784 116.695 26.5612 116.708 26.457C116.76 26.0794 116.819 25.7083 116.884 25.3438C116.949 24.9792 117.008 24.6081 117.06 24.2305C117.112 23.8919 117.138 23.5404 117.138 23.1758C117.138 22.7982 117.079 22.4466 116.962 22.1211L116.943 22.0234C116.969 21.9193 116.995 21.8346 117.021 21.7695C117.06 21.6914 117.086 21.6068 117.099 21.5156C117.125 21.3724 117.092 21.2682 117.001 21.2031C117.04 21.099 117.105 21.0339 117.197 21.0078C117.288 20.9688 117.34 20.8906 117.353 20.7734C117.366 20.7214 117.366 20.6693 117.353 20.6172C117.457 20.5781 117.561 20.5456 117.665 20.5195C117.783 20.4805 117.893 20.474 117.997 20.5C118.167 20.526 118.316 20.5846 118.447 20.6758C118.577 20.7539 118.7 20.8451 118.818 20.9492C119.026 21.5742 119.111 22.2383 119.072 22.9414C119.033 23.6315 118.967 24.3281 118.876 25.0312C118.785 25.7344 118.727 26.4245 118.7 27.1016C118.674 27.7656 118.779 28.3841 119.013 28.957L119.052 28.9766C119.117 28.9896 119.169 28.9701 119.208 28.918C119.247 28.8529 119.299 28.8268 119.365 28.8398C119.417 28.8659 119.449 28.8789 119.462 28.8789C119.514 29.1393 119.599 29.3867 119.716 29.6211C119.833 29.8555 119.964 30.0898 120.107 30.3242ZM138.779 20.4414C138.727 20.6107 138.642 20.7669 138.525 20.9102L138.193 21.3203C138.089 21.4505 137.997 21.5938 137.919 21.75C137.854 21.8932 137.835 22.0625 137.861 22.2578C137.835 22.2578 137.802 22.2578 137.763 22.2578C137.724 22.2448 137.691 22.2383 137.665 22.2383C137.457 22.2383 137.294 22.2904 137.177 22.3945C137.073 22.4857 136.93 22.5638 136.747 22.6289C136.721 22.5508 136.689 22.4792 136.65 22.4141C136.611 22.3359 136.552 22.2839 136.474 22.2578C136.161 22.3229 135.849 22.375 135.536 22.4141C135.224 22.4401 134.911 22.4792 134.599 22.5312C134.456 22.5573 134.312 22.5964 134.169 22.6484C134.026 22.6875 133.876 22.7266 133.72 22.7656C133.642 22.7917 133.557 22.8047 133.466 22.8047C133.375 22.7917 133.284 22.7917 133.193 22.8047C132.88 22.8177 132.542 22.8438 132.177 22.8828C131.812 22.9089 131.487 23.0065 131.2 23.1758C131.07 23.1497 130.934 23.1302 130.79 23.1172C130.647 23.1042 130.504 23.0977 130.361 23.0977C130.048 23.0977 129.703 23.1302 129.325 23.1953C128.961 23.2474 128.635 23.3581 128.349 23.5273C128.284 23.5013 128.212 23.4818 128.134 23.4688C128.069 23.4557 127.991 23.4492 127.9 23.4492C127.874 23.4492 127.854 23.4557 127.841 23.4688C127.828 23.4688 127.809 23.4688 127.783 23.4688C127.77 23.5859 127.783 23.7031 127.822 23.8203C127.874 23.9245 127.958 24.0091 128.075 24.0742C128.023 24.2174 127.997 24.3737 127.997 24.543C127.997 24.7643 128.01 24.9857 128.036 25.207C128.075 25.4284 128.095 25.6497 128.095 25.8711C128.095 26.1185 128.062 26.3138 127.997 26.457C128.128 26.8477 128.193 27.2643 128.193 27.707C128.193 27.8633 128.18 28.0195 128.154 28.1758C128.141 28.319 128.134 28.4753 128.134 28.6445C128.134 28.7878 128.186 28.9049 128.29 28.9961C128.395 29.0742 128.447 29.1849 128.447 29.3281C128.447 29.3802 128.434 29.4323 128.408 29.4844C128.59 29.4453 128.766 29.3932 128.935 29.3281C129.104 29.25 129.28 29.2109 129.462 29.2109C129.566 29.2109 129.664 29.2305 129.755 29.2695C129.859 29.3086 129.95 29.3607 130.029 29.4258C130.016 29.4909 130.003 29.5625 129.99 29.6406C129.99 29.7188 129.99 29.7969 129.99 29.875C129.99 30.0182 129.99 30.1549 129.99 30.2852C130.003 30.4023 130.016 30.5326 130.029 30.6758C129.924 30.8581 129.801 31.0208 129.658 31.1641C129.527 31.3073 129.436 31.4896 129.384 31.7109C129.189 31.7109 129.013 31.7565 128.857 31.8477C128.714 31.9258 128.577 32.0169 128.447 32.1211C128.316 32.2122 128.186 32.3034 128.056 32.3945C127.926 32.4727 127.783 32.5117 127.626 32.5117C127.431 32.5117 127.294 32.4857 127.216 32.4336C127.138 32.3685 127.079 32.3034 127.04 32.2383C127.001 32.1732 126.962 32.1146 126.923 32.0625C126.897 32.0104 126.832 31.9909 126.728 32.0039C126.702 31.8346 126.65 31.6784 126.572 31.5352C126.493 31.3789 126.409 31.2292 126.318 31.0859C126.24 30.9427 126.155 30.7995 126.064 30.6562C125.986 30.5 125.927 30.3438 125.888 30.1875C125.81 29.849 125.777 29.4974 125.79 29.1328C125.803 28.7682 125.745 28.4167 125.615 28.0781C125.641 27.8958 125.66 27.7135 125.673 27.5312C125.686 27.3359 125.693 27.1471 125.693 26.9648C125.693 26.6003 125.68 26.2422 125.654 25.8906C125.641 25.526 125.628 25.1549 125.615 24.7773C125.523 24.6602 125.465 24.5299 125.439 24.3867C125.426 24.2305 125.413 24.0807 125.4 23.9375C125.361 23.8984 125.315 23.8594 125.263 23.8203C125.224 23.7812 125.198 23.7292 125.185 23.6641C125.081 23.638 125.003 23.625 124.95 23.625C124.768 23.625 124.612 23.6706 124.482 23.7617C124.365 23.8398 124.254 23.8789 124.15 23.8789C124.046 23.8789 123.948 23.8659 123.857 23.8398C123.766 23.8138 123.674 23.8008 123.583 23.8008C123.505 23.8008 123.46 23.8203 123.447 23.8594C123.447 23.8854 123.421 23.9115 123.368 23.9375C123.329 23.9635 123.238 23.9896 123.095 24.0156C122.952 24.0417 122.789 24.0677 122.607 24.0938C122.437 24.1068 122.268 24.1198 122.099 24.1328C121.943 24.1458 121.839 24.1523 121.786 24.1523C121.578 24.1523 121.422 24.1133 121.318 24.0352C121.2 23.944 121.064 23.8464 120.908 23.7422C120.934 23.6641 120.947 23.612 120.947 23.5859C120.947 23.4557 120.908 23.3516 120.829 23.2734C120.751 23.1823 120.712 23.1042 120.712 23.0391C120.712 22.8958 120.771 22.7852 120.888 22.707C120.992 22.6289 121.051 22.5052 121.064 22.3359C121.363 22.2057 121.669 22.1081 121.982 22.043C122.294 21.9779 122.613 21.9258 122.939 21.8867C123.264 21.8477 123.583 21.8021 123.896 21.75C124.221 21.6979 124.54 21.6133 124.853 21.4961C124.944 21.5091 125.029 21.5221 125.107 21.5352C125.198 21.5352 125.289 21.5352 125.38 21.5352C125.771 21.5352 126.155 21.4961 126.533 21.418C126.923 21.3268 127.32 21.2812 127.724 21.2812C127.828 21.2812 127.932 21.2878 128.036 21.3008C128.141 21.3138 128.245 21.3333 128.349 21.3594C128.87 21.2812 129.384 21.1966 129.892 21.1055C130.413 21.0143 130.947 20.9362 131.493 20.8711C131.754 20.8451 132.008 20.8255 132.255 20.8125C132.516 20.7865 132.776 20.7539 133.036 20.7148C133.128 20.7018 133.193 20.6823 133.232 20.6562C133.284 20.6172 133.31 20.5456 133.31 20.4414C133.427 20.4935 133.557 20.5195 133.7 20.5195C133.922 20.5195 134.137 20.4805 134.345 20.4023C134.553 20.3242 134.768 20.2852 134.99 20.2852C135.042 20.2852 135.087 20.2917 135.126 20.3047C135.165 20.3047 135.204 20.3047 135.243 20.3047C135.335 20.3047 135.38 20.2656 135.38 20.1875C135.393 20.0964 135.458 20.0378 135.575 20.0117C135.667 19.9857 135.797 19.9661 135.966 19.9531C136.135 19.9401 136.311 19.9271 136.493 19.9141C136.689 19.888 136.865 19.862 137.021 19.8359C137.19 19.7969 137.314 19.7448 137.392 19.6797L137.529 19.4648C137.763 19.4779 137.932 19.582 138.036 19.7773C138.154 19.9596 138.219 20.1615 138.232 20.3828C138.284 20.4349 138.355 20.4609 138.447 20.4609C138.551 20.4479 138.642 20.4414 138.72 20.4414H138.779ZM146.376 30.5391C146.376 30.7604 146.318 30.9557 146.2 31.125C146.096 31.2812 146.057 31.4766 146.083 31.7109C145.901 31.8151 145.751 31.9518 145.634 32.1211C145.517 32.2904 145.406 32.4661 145.302 32.6484C144.443 33.2083 143.518 33.6576 142.529 33.9961C141.552 34.3477 140.543 34.5234 139.501 34.5234C139.436 34.5234 139.378 34.4909 139.325 34.4258C139.273 34.3737 139.221 34.3151 139.169 34.25C139.117 34.1849 139.059 34.1198 138.993 34.0547C138.941 34.0026 138.876 33.9766 138.798 33.9766C138.707 33.9766 138.635 33.9961 138.583 34.0352C138.583 34.0091 138.583 33.9831 138.583 33.957C138.596 33.944 138.603 33.9245 138.603 33.8984C138.603 33.7422 138.583 33.5794 138.544 33.4102C138.505 33.2539 138.486 33.0977 138.486 32.9414C138.486 32.7591 138.518 32.6094 138.583 32.4922H138.818C138.948 32.4922 139.072 32.4857 139.189 32.4727C139.319 32.4466 139.456 32.4336 139.599 32.4336C139.742 32.4336 139.872 32.4727 139.99 32.5508C140.706 32.5247 141.383 32.3945 142.021 32.1602C142.672 31.9128 143.329 31.6719 143.993 31.4375C144.098 31.2943 144.156 31.138 144.169 30.9688C144.195 30.7865 144.247 30.6172 144.325 30.4609C143.987 30.1745 143.642 29.9531 143.29 29.7969C142.952 29.6276 142.555 29.569 142.099 29.6211C141.825 29.4518 141.533 29.3542 141.22 29.3281C140.921 29.3021 140.615 29.263 140.302 29.2109C140.224 29.1979 140.139 29.1849 140.048 29.1719C139.97 29.1458 139.885 29.1328 139.794 29.1328C139.729 29.1328 139.664 29.1523 139.599 29.1914C139.547 29.2174 139.534 29.263 139.56 29.3281C139.495 29.224 139.404 29.1654 139.286 29.1523C139.182 29.1263 139.091 29.0742 139.013 28.9961C138.596 28.9701 138.232 28.8984 137.919 28.7812C137.607 28.651 137.262 28.5078 136.884 28.3516C136.78 28.3125 136.676 28.2865 136.572 28.2734C136.48 28.2474 136.389 28.2083 136.298 28.1562C136.064 28.0391 135.875 27.8828 135.732 27.6875C135.589 27.4922 135.478 27.2773 135.4 27.043C135.309 26.7956 135.243 26.5417 135.204 26.2812C135.165 26.0208 135.126 25.7799 135.087 25.5586C135.204 25.3503 135.315 25.1354 135.419 24.9141C135.51 24.6927 135.589 24.4583 135.654 24.2109C135.732 24.1719 135.81 24.1393 135.888 24.1133C135.966 24.0872 136.051 24.0547 136.142 24.0156C136.129 23.9896 136.122 23.957 136.122 23.918C136.122 23.8529 136.142 23.7878 136.181 23.7227C136.233 23.6576 136.246 23.5924 136.22 23.5273C136.506 23.2669 136.78 23 137.04 22.7266C137.314 22.4401 137.548 22.1276 137.743 21.7891C137.939 21.724 138.095 21.6263 138.212 21.4961C138.329 21.3659 138.447 21.2357 138.564 21.1055C138.681 20.9622 138.811 20.8385 138.954 20.7344C139.098 20.6172 139.28 20.5456 139.501 20.5195C139.553 20.4284 139.625 20.3568 139.716 20.3047C139.807 20.2396 139.898 20.181 139.99 20.1289C140.081 20.0768 140.165 20.0182 140.243 19.9531C140.322 19.888 140.38 19.7969 140.419 19.6797C140.628 19.6797 140.816 19.6406 140.986 19.5625C141.168 19.4844 141.344 19.3997 141.513 19.3086C141.682 19.2174 141.852 19.1328 142.021 19.0547C142.203 18.9766 142.398 18.9375 142.607 18.9375C142.659 18.9375 142.711 18.944 142.763 18.957C142.815 18.957 142.874 18.9635 142.939 18.9766C143.03 19.0677 143.089 19.1784 143.115 19.3086C143.154 19.4258 143.18 19.556 143.193 19.6992C143.206 19.8424 143.212 19.9857 143.212 20.1289C143.225 20.2721 143.251 20.4023 143.29 20.5195C143.173 20.7409 143.043 20.9622 142.9 21.1836C142.77 21.4049 142.594 21.5742 142.372 21.6914H142.333C142.242 21.7044 142.158 21.6849 142.079 21.6328C142.001 21.5807 141.91 21.5547 141.806 21.5547C141.741 21.5547 141.689 21.5742 141.65 21.6133L141.552 21.7109C141.526 21.737 141.487 21.763 141.435 21.7891C141.396 21.8151 141.337 21.8151 141.259 21.7891C141.077 21.8542 141.005 21.9648 141.044 22.1211C140.797 22.1471 140.589 22.2253 140.419 22.3555C140.25 22.4727 140.094 22.6094 139.95 22.7656C139.807 22.9089 139.664 23.0456 139.521 23.1758C139.378 23.293 139.208 23.3581 139.013 23.3711C138.792 23.7617 138.518 24.1068 138.193 24.4062C137.88 24.7057 137.62 25.0443 137.411 25.4219C137.45 25.526 137.477 25.6367 137.49 25.7539C137.503 25.8711 137.522 25.9948 137.548 26.125C137.665 26.2812 137.802 26.418 137.958 26.5352C138.128 26.6523 138.29 26.7695 138.447 26.8867H138.505C138.766 26.8867 139.006 26.9388 139.228 27.043C139.449 27.1341 139.684 27.1797 139.931 27.1797C140.061 27.1797 140.172 27.1536 140.263 27.1016C140.602 27.1797 140.934 27.2448 141.259 27.2969C141.598 27.349 141.936 27.388 142.275 27.4141C142.444 27.4401 142.613 27.4531 142.783 27.4531C142.965 27.4531 143.134 27.4727 143.29 27.5117C143.434 27.5508 143.577 27.6029 143.72 27.668C143.863 27.7201 144.006 27.7786 144.15 27.8438C144.449 27.974 144.729 28.1172 144.99 28.2734C145.263 28.4297 145.504 28.6185 145.712 28.8398C145.921 29.0482 146.083 29.2956 146.2 29.582C146.318 29.8555 146.376 30.1745 146.376 30.5391Z" fill="white"/>
</g>
<defs>
<filter id="filter0_i" x="0" y="0" width="200" height="53" filterUnits="userSpaceOnUse" color-interpolation-filters="sRGB">
<feFlood flood-opacity="0" result="BackgroundImageFix"/>
<feBlend mode="normal" in="SourceGraphic" in2="BackgroundImageFix" result="shape"/>
<feColorMatrix in="SourceAlpha" type="matrix" values="0 0 0 0 0 0 0 0 0 0 0 0 0 0 0 0 0 0 127 0" result="hardAlpha"/>
<feOffset dy="3"/>
<feGaussianBlur stdDeviation="1.5"/>
<feComposite in2="hardAlpha" operator="arithmetic" k2="-1" k3="1"/>
<feColorMatrix type="matrix" values="0 0 0 0 0 0 0 0 0 0 0 0 0 0 0 0 0 0 0.25 0"/>
<feBlend mode="normal" in2="shape" result="effect1_innerShadow"/>
</filter>
</defs>
</svg>
