<svg width="210" height="54" viewBox="0 0 210 54" fill="none" xmlns="http://www.w3.org/2000/svg">
<g filter="url(#filter0_d)">
<rect x="5" y="6.27612" width="200" height="37.2385" rx="18.6192" fill="white"/>
<path d="M62.9492 38.0586C62.9492 38.1758 62.9036 38.2799 62.8125 38.3711C62.7344 38.4622 62.6367 38.5339 62.5195 38.5859C62.4023 38.651 62.2786 38.7096 62.1484 38.7617C62.0312 38.8138 61.9271 38.8594 61.8359 38.8984C61.6927 38.8203 61.543 38.7682 61.3867 38.7422C61.2435 38.7161 61.1133 38.651 60.9961 38.5469H60.8594C60.651 38.5469 60.4883 38.5729 60.3711 38.625C60.1888 38.5599 60.0391 38.4622 59.9219 38.332C59.8047 38.2148 59.694 38.0846 59.5898 37.9414C59.4857 37.8112 59.3815 37.681 59.2773 37.5508C59.1732 37.4206 59.043 37.3099 58.8867 37.2188C58.6523 36.5677 58.444 35.9102 58.2617 35.2461C58.0794 34.582 57.9427 33.9049 57.8516 33.2148C57.8776 33.1497 57.8971 33.0781 57.9102 33C57.9232 32.9219 57.9297 32.8503 57.9297 32.7852C57.9297 32.7331 57.9167 32.681 57.8906 32.6289C57.8776 32.5638 57.8385 32.5247 57.7734 32.5117C57.8385 32.4076 57.8776 32.2904 57.8906 32.1602C57.9167 32.0169 57.9297 31.8867 57.9297 31.7695C57.9297 31.5091 57.9036 31.2943 57.8516 31.125C57.9297 31.0599 57.9622 30.9557 57.9492 30.8125C57.9362 30.6562 57.9688 30.5456 58.0469 30.4805C57.9818 30.2591 57.9492 30.0443 57.9492 29.8359C57.9492 29.5495 57.9818 29.2695 58.0469 28.9961C58.125 28.7227 58.1641 28.4427 58.1641 28.1562C58.1641 28.0911 58.1576 28.026 58.1445 27.9609C58.1445 27.8958 58.138 27.8307 58.125 27.7656C58.1901 27.5573 58.2487 27.349 58.3008 27.1406C58.3659 26.9193 58.3984 26.6979 58.3984 26.4766C58.3984 26.3203 58.3724 26.1901 58.3203 26.0859C58.4896 25.487 58.6068 24.8945 58.6719 24.3086C58.75 23.7096 58.8216 23.1042 58.8867 22.4922C58.8737 22.4661 58.8607 22.4466 58.8477 22.4336C58.8346 22.4206 58.8281 22.401 58.8281 22.375C58.8281 22.3099 58.8607 22.2578 58.9258 22.2188C59.0039 22.1797 59.0365 22.1081 59.0234 22.0039C58.8672 22.1602 58.737 22.3424 58.6328 22.5508C58.5417 22.7591 58.4505 22.9674 58.3594 23.1758C58.2812 23.3841 58.1901 23.5924 58.0859 23.8008C57.9948 23.9961 57.8711 24.1719 57.7148 24.3281C57.7018 24.4714 57.6562 24.6081 57.5781 24.7383C57.513 24.8685 57.4805 25.0117 57.4805 25.168C57.4674 25.168 57.4544 25.168 57.4414 25.168C57.4284 25.1549 57.4089 25.1484 57.3828 25.1484C57.3307 25.1484 57.2917 25.181 57.2656 25.2461C57.2526 25.3112 57.2135 25.3307 57.1484 25.3047C56.849 25.8906 56.5169 26.4635 56.1523 27.0234C55.8008 27.5833 55.3385 28.0326 54.7656 28.3711C54.6615 28.332 54.5638 28.3125 54.4727 28.3125C54.3034 28.3125 54.1341 28.3646 53.9648 28.4688C53.8086 28.5599 53.7044 28.6055 53.6523 28.6055C53.5221 28.6055 53.3594 28.5404 53.1641 28.4102C52.9818 28.2669 52.793 28.1888 52.5977 28.1758C52.3893 28.0326 52.2135 27.8893 52.0703 27.7461C51.9401 27.5898 51.7383 27.4987 51.4648 27.4727C51.2826 27.1992 51.1003 26.9388 50.918 26.6914C50.7487 26.444 50.5794 26.2031 50.4102 25.9688C50.2539 25.7214 50.1107 25.4609 49.9805 25.1875C49.8633 24.9141 49.7721 24.6081 49.707 24.2695C49.7201 24.2435 49.7266 24.2174 49.7266 24.1914C49.7266 24.1133 49.6875 24.0807 49.6094 24.0938C49.5443 24.1068 49.5117 24.0677 49.5117 23.9766V23.8398C49.5117 23.7357 49.4922 23.6445 49.4531 23.5664C49.4271 23.4753 49.4206 23.3776 49.4336 23.2734C49.3424 23.1302 49.2708 22.9805 49.2188 22.8242C49.1667 22.668 49.0755 22.5312 48.9453 22.4141V22.2383C48.9453 22.1602 48.9388 22.0885 48.9258 22.0234C48.9258 21.9453 48.9062 21.8802 48.8672 21.8281C48.8411 21.763 48.7956 21.724 48.7305 21.7109C48.7174 21.2422 48.6198 20.7669 48.4375 20.2852C48.2682 19.7904 48.112 19.3151 47.9688 18.8594C47.8646 19.1979 47.7865 19.543 47.7344 19.8945C47.6823 20.2331 47.6562 20.5781 47.6562 20.9297V21.2617C47.6562 21.3659 47.6693 21.4701 47.6953 21.5742C47.6562 21.6393 47.5977 21.6849 47.5195 21.7109C47.4544 21.737 47.4154 21.7891 47.4023 21.8672C47.3893 21.9323 47.3828 21.9974 47.3828 22.0625C47.3958 22.1276 47.3958 22.1927 47.3828 22.2578C47.3568 22.5703 47.3177 22.8698 47.2656 23.1562C47.1875 23.5859 47.0964 24.0221 46.9922 24.4648C46.888 24.8945 46.8359 25.3372 46.8359 25.793C46.8359 25.819 46.8359 25.8581 46.8359 25.9102C46.849 25.9492 46.8555 25.9818 46.8555 26.0078C46.6471 26.1901 46.5365 26.418 46.5234 26.6914C46.5104 26.9648 46.4779 27.2253 46.4258 27.4727C46.3607 27.8372 46.2826 28.2018 46.1914 28.5664C46.1003 28.918 46.0221 29.2826 45.957 29.6602C45.918 29.8685 45.8854 30.0768 45.8594 30.2852C45.8333 30.4805 45.8073 30.6823 45.7812 30.8906C45.7682 31.0078 45.7227 31.1055 45.6445 31.1836C45.5794 31.2617 45.5339 31.3529 45.5078 31.457C45.4948 31.5482 45.4883 31.6523 45.4883 31.7695C45.5013 31.8737 45.5078 31.9714 45.5078 32.0625C45.5078 32.2188 45.4948 32.3685 45.4688 32.5117C45.4427 32.6419 45.3646 32.7591 45.2344 32.8633C45.2604 33.2018 45.319 33.4883 45.4102 33.7227C45.5013 33.9701 45.6055 34.2435 45.7227 34.543H46.2109V34.6211C46.2109 34.7513 46.2305 34.8685 46.2695 34.9727C46.3216 35.0768 46.4193 35.1224 46.5625 35.1094C46.5495 35.1615 46.543 35.2266 46.543 35.3047C46.543 35.4219 46.5625 35.526 46.6016 35.6172C46.6536 35.7214 46.6927 35.832 46.7188 35.9492C46.4583 36.3789 46.1784 36.6979 45.8789 36.9062C45.5794 37.1146 45.1693 37.2188 44.6484 37.2188H44.3359C44.2708 37.0104 44.1927 36.8086 44.1016 36.6133C44.0104 36.418 43.9193 36.2227 43.8281 36.0273C43.75 35.832 43.6784 35.6302 43.6133 35.4219C43.5612 35.2266 43.5352 35.0182 43.5352 34.7969C43.5352 34.7448 43.5417 34.6927 43.5547 34.6406C43.5677 34.6016 43.5742 34.556 43.5742 34.5039C43.5742 34.4388 43.5482 34.3997 43.4961 34.3867C43.444 34.3737 43.418 34.3086 43.418 34.1914C43.418 34.1003 43.4115 34.0156 43.3984 33.9375C43.3984 33.8594 43.3984 33.7747 43.3984 33.6836C43.3984 33.2539 43.431 32.8307 43.4961 32.4141C43.5612 31.9844 43.6068 31.5547 43.6328 31.125C43.6979 31.0599 43.7305 30.9753 43.7305 30.8711C43.7305 30.7669 43.763 30.6823 43.8281 30.6172V30.4805C43.8281 30.2461 43.8542 30.0117 43.9062 29.7773C43.9583 29.543 44.0169 29.3151 44.082 29.0938C44.1471 28.8724 44.2057 28.6445 44.2578 28.4102C44.3099 28.1758 44.3359 27.9414 44.3359 27.707V27.3945C44.3359 27.3034 44.375 27.2643 44.4531 27.2773C44.5443 27.2773 44.5964 27.2253 44.6094 27.1211C44.6354 26.9388 44.6484 26.763 44.6484 26.5938C44.6615 26.4115 44.681 26.2292 44.707 26.0469C44.7721 25.6953 44.8438 25.3438 44.9219 24.9922C45 24.6276 45.0391 24.263 45.0391 23.8984V23.8398C45.0391 23.8008 45.0716 23.7227 45.1367 23.6055C45.2018 23.4753 45.2344 23.3516 45.2344 23.2344C45.2344 23.1432 45.2148 23.0586 45.1758 22.9805C45.1888 22.9935 45.2148 23 45.2539 23C45.306 23 45.3385 22.987 45.3516 22.9609C45.3776 22.9219 45.4102 22.8893 45.4492 22.8633C45.4102 22.8112 45.3906 22.7591 45.3906 22.707C45.3906 22.6419 45.3971 22.5833 45.4102 22.5312C45.4362 22.4661 45.4492 22.401 45.4492 22.3359C45.4492 22.2448 45.4036 22.1797 45.3125 22.1406C45.4688 21.8542 45.5794 21.5482 45.6445 21.2227C45.7227 20.8971 45.7747 20.5651 45.8008 20.2266C45.8398 19.888 45.8724 19.5495 45.8984 19.2109C45.9245 18.8594 45.9831 18.5273 46.0742 18.2148C46.0482 18.1367 46.0286 18.0521 46.0156 17.9609C46.0156 17.8698 46.0156 17.7852 46.0156 17.707C46.0156 17.6549 46.0091 17.6029 45.9961 17.5508C45.9831 17.4857 45.9896 17.4271 46.0156 17.375C46.0156 17.349 46.0221 17.3164 46.0352 17.2773L46.0742 17.1602C46.1003 17.069 46.1133 16.9779 46.1133 16.8867C46.1263 16.7826 46.1393 16.6784 46.1523 16.5742C46.1784 16.2747 46.1849 15.9688 46.1719 15.6562C46.1719 15.3438 46.1849 15.0312 46.2109 14.7188C46.1719 14.6667 46.1328 14.6276 46.0938 14.6016C46.0547 14.5625 46.0286 14.5104 46.0156 14.4453C46.1198 14.263 46.2305 14.0938 46.3477 13.9375C46.4779 13.7682 46.6471 13.638 46.8555 13.5469C46.8945 13.6901 46.9987 13.7617 47.168 13.7617C47.2461 13.7617 47.3438 13.7422 47.4609 13.7031C47.5781 13.6641 47.6562 13.612 47.6953 13.5469C47.9167 13.625 48.138 13.6641 48.3594 13.6641C48.5938 13.651 48.8086 13.7031 49.0039 13.8203C49.043 14.0156 49.0951 14.2174 49.1602 14.4258C49.2253 14.6341 49.3164 14.8229 49.4336 14.9922C49.4596 15.1615 49.4857 15.3698 49.5117 15.6172C49.5378 15.8516 49.5638 16.099 49.5898 16.3594C49.6159 16.6068 49.6549 16.8477 49.707 17.082C49.7591 17.3034 49.8307 17.4792 49.9219 17.6094C49.9349 17.8438 49.974 18.0781 50.0391 18.3125C50.1042 18.5469 50.1758 18.7747 50.2539 18.9961C50.332 19.2044 50.3971 19.3997 50.4492 19.582C50.5143 19.7643 50.5469 19.9141 50.5469 20.0312C50.5469 20.1354 50.5273 20.207 50.4883 20.2461C50.4622 20.2721 50.4362 20.3242 50.4102 20.4023C50.4622 20.5456 50.5339 20.6693 50.625 20.7734C50.7161 20.8646 50.8138 20.9753 50.918 21.1055C51.1133 21.8477 51.3672 22.5703 51.6797 23.2734C51.9922 23.9766 52.3698 24.6536 52.8125 25.3047C52.9297 25.3177 53.0208 25.3503 53.0859 25.4023C53.1641 25.4544 53.2812 25.4674 53.4375 25.4414V25.5781C53.4375 25.7083 53.4635 25.7995 53.5156 25.8516C53.6328 25.9297 53.7695 25.9688 53.9258 25.9688C54.0951 25.9688 54.2253 25.9232 54.3164 25.832C54.4206 25.7279 54.5182 25.6107 54.6094 25.4805C54.7005 25.3503 54.7917 25.2266 54.8828 25.1094C54.974 24.9922 55.0977 24.9141 55.2539 24.875V24.8359C55.2539 24.7318 55.2734 24.6471 55.3125 24.582C55.3646 24.5039 55.3906 24.4193 55.3906 24.3281C55.5339 24.224 55.6445 24.0938 55.7227 23.9375C55.8008 23.7812 55.8724 23.625 55.9375 23.4688C56.0026 23.2995 56.0742 23.1432 56.1523 23C56.2435 22.8568 56.3607 22.7396 56.5039 22.6484C56.6862 22.0885 56.9076 21.5677 57.168 21.0859C57.4284 20.6042 57.7018 20.1159 57.9883 19.6211C57.9883 19.582 57.9818 19.543 57.9688 19.5039C57.9557 19.4518 57.9492 19.4062 57.9492 19.3672C57.9492 19.3542 57.9622 19.2956 57.9883 19.1914C58.0534 19.0612 58.112 18.9375 58.1641 18.8203C58.2161 18.7031 58.2617 18.5729 58.3008 18.4297C58.431 18.026 58.5482 17.6289 58.6523 17.2383C58.7695 16.8477 58.9388 16.4766 59.1602 16.125V15.6367C59.3945 15.168 59.5573 14.6732 59.6484 14.1523C59.7526 13.6315 59.8763 13.1237 60.0195 12.6289C60.0456 12.4857 60.0911 12.3424 60.1562 12.1992C60.2344 12.043 60.3255 11.9323 60.4297 11.8672C60.3906 11.7891 60.3711 11.7109 60.3711 11.6328C60.3711 11.5286 60.3841 11.4375 60.4102 11.3594C60.4492 11.2682 60.4818 11.1771 60.5078 11.0859C60.4688 10.9948 60.4492 10.8776 60.4492 10.7344C60.4492 10.5521 60.5013 10.3828 60.6055 10.2266C60.7096 10.0573 60.8659 9.94661 61.0742 9.89453C61.2044 9.93359 61.3151 9.9987 61.4062 10.0898C61.4974 10.181 61.582 10.2786 61.6602 10.3828C61.7513 10.474 61.8424 10.5521 61.9336 10.6172C62.0378 10.6693 62.168 10.6823 62.3242 10.6562C62.4284 10.8516 62.5 11.0599 62.5391 11.2812C62.5781 11.4896 62.5977 11.7044 62.5977 11.9258C62.5977 12.2253 62.5716 12.5378 62.5195 12.8633C62.4674 13.1758 62.4479 13.4948 62.4609 13.8203C62.3568 14.0286 62.2786 14.2565 62.2266 14.5039C62.1875 14.7383 62.1484 14.9792 62.1094 15.2266C62.0703 15.474 62.0247 15.7148 61.9727 15.9492C61.9206 16.1836 61.8294 16.4049 61.6992 16.6133C61.6602 17.1992 61.6146 17.7721 61.5625 18.332C61.5234 18.8919 61.4583 19.4518 61.3672 20.0117L61.1914 21.125C61.1654 21.2161 61.1393 21.3203 61.1133 21.4375C61.0872 21.5417 61.0742 21.6328 61.0742 21.7109C61.0742 21.7891 61.0807 21.8737 61.0938 21.9648C61.1068 22.043 61.1458 22.1016 61.2109 22.1406C61.1198 22.2708 61.0547 22.4271 61.0156 22.6094C60.9766 22.7917 60.9375 22.987 60.8984 23.1953L60.8008 23.8008C60.7747 23.9961 60.7227 24.1719 60.6445 24.3281V24.543C60.6445 25.0638 60.5534 25.5977 60.3711 26.1445V26.2422C60.3711 26.3073 60.3646 26.3659 60.3516 26.418C60.3516 26.457 60.3516 26.5091 60.3516 26.5742C60.3516 26.6654 60.3776 26.737 60.4297 26.7891C60.3255 27.1276 60.2279 27.4792 60.1367 27.8438C60.0456 28.1953 59.9805 28.5599 59.9414 28.9375C59.9023 29.4453 59.8958 29.9661 59.9219 30.5C59.9479 31.0208 59.8828 31.5286 59.7266 32.0234C59.8047 32.2578 59.8568 32.5117 59.8828 32.7852L59.9609 33.6055C59.987 33.8789 60.026 34.1393 60.0781 34.3867C60.1432 34.6471 60.2604 34.862 60.4297 35.0312C60.4427 35.0573 60.4492 35.0964 60.4492 35.1484C60.4492 35.2526 60.4232 35.3307 60.3711 35.3828C60.3971 35.513 60.4427 35.6237 60.5078 35.7148C60.5729 35.806 60.638 35.8906 60.7031 35.9688C60.7682 36.0599 60.8203 36.1576 60.8594 36.2617C60.9115 36.3659 60.9375 36.4961 60.9375 36.6523C61.0417 36.7956 61.2044 36.9062 61.4258 36.9844C61.6471 37.0625 61.8685 37.1406 62.0898 37.2188C62.3242 37.2969 62.526 37.3945 62.6953 37.5117C62.8646 37.6419 62.9492 37.8242 62.9492 38.0586ZM78.5352 31.5742C78.4961 31.7565 78.4115 31.9062 78.2812 32.0234C78.1641 32.1276 78.0208 32.2122 77.8516 32.2773C77.6823 32.3424 77.5065 32.388 77.3242 32.4141C77.1549 32.4271 76.9987 32.4336 76.8555 32.4336C76.7904 32.4336 76.7253 32.4336 76.6602 32.4336C76.6081 32.4206 76.5495 32.4141 76.4844 32.4141C76.4193 32.4141 76.3867 32.4466 76.3867 32.5117C76.3867 32.5768 76.3542 32.6224 76.2891 32.6484C76.224 32.6224 76.1589 32.6029 76.0938 32.5898C76.0286 32.5768 75.9635 32.5703 75.8984 32.5703C75.8073 32.5703 75.7161 32.5768 75.625 32.5898C75.5469 32.6029 75.4688 32.6094 75.3906 32.6094C75.2865 32.6094 75.2083 32.5964 75.1562 32.5703C75.1172 32.5443 75.0781 32.5182 75.0391 32.4922C75.013 32.4531 74.9805 32.4141 74.9414 32.375C74.9154 32.3359 74.8698 32.3034 74.8047 32.2773C74.7135 32.2383 74.6354 32.2318 74.5703 32.2578C74.5182 32.2839 74.4336 32.2448 74.3164 32.1406C74.1602 32.0104 74.0234 31.8542 73.9062 31.6719C73.8021 31.4766 73.6979 31.2747 73.5938 31.0664C73.4896 30.8581 73.3789 30.6497 73.2617 30.4414C73.1445 30.2331 73.0078 30.0508 72.8516 29.8945H72.6953C72.4609 29.8945 72.2982 29.9922 72.207 30.1875C72.1419 30.1484 72.0768 30.1029 72.0117 30.0508C71.9466 29.9857 71.875 29.9336 71.7969 29.8945C71.4974 29.9857 71.1849 30.0638 70.8594 30.1289C70.5339 30.194 70.2083 30.2266 69.8828 30.2266H69.6094C69.5312 30.2266 69.4466 30.2135 69.3555 30.1875C69.2253 30.2396 69.1081 30.3047 69.0039 30.3828C68.8997 30.4479 68.7826 30.4805 68.6523 30.4805C68.5742 30.4805 68.4831 30.4544 68.3789 30.4023C68.3008 30.4023 68.2617 30.4349 68.2617 30.5C68.2747 30.5651 68.2357 30.5977 68.1445 30.5977H67.9688C67.7865 30.5977 67.6042 30.6042 67.4219 30.6172C67.2526 30.6302 67.0768 30.6367 66.8945 30.6367C66.6471 30.6367 66.3932 30.6042 66.1328 30.5391C66.0677 30.5781 65.9961 30.5977 65.918 30.5977C65.8659 30.6237 65.8268 30.6693 65.8008 30.7344C65.7747 30.7865 65.7487 30.8385 65.7227 30.8906C65.6966 30.9297 65.6576 30.9688 65.6055 31.0078C65.5664 31.0339 65.5078 31.0404 65.4297 31.0273C65.4036 31.1836 65.3385 31.3073 65.2344 31.3984C65.1302 31.4896 65.0781 31.6263 65.0781 31.8086C64.9349 31.8867 64.8177 31.9844 64.7266 32.1016C64.6354 32.2188 64.5443 32.3424 64.4531 32.4727C64.362 32.6029 64.2643 32.7266 64.1602 32.8438C64.069 32.9609 63.9518 33.0521 63.8086 33.1172C63.7435 33.1953 63.724 33.319 63.75 33.4883C63.6068 33.6055 63.431 33.7096 63.2227 33.8008C63.0143 33.8919 62.819 33.9375 62.6367 33.9375C62.2591 33.9375 61.9987 33.7357 61.8555 33.332C61.8555 33.2018 61.8685 33.0651 61.8945 32.9219C61.9076 32.7656 61.9336 32.6224 61.9727 32.4922C62.0117 32.349 62.0703 32.2253 62.1484 32.1211C62.2266 32.0039 62.3372 31.9193 62.4805 31.8672C62.4805 31.75 62.4414 31.6719 62.3633 31.6328C62.2852 31.5807 62.2526 31.4961 62.2656 31.3789C62.6172 31.2096 62.9232 30.9883 63.1836 30.7148C63.444 30.4414 63.6784 30.1549 63.8867 29.8555C64.1081 29.543 64.3294 29.2305 64.5508 28.918C64.7721 28.6055 65.0195 28.3255 65.293 28.0781V27.668C65.6836 27.2513 65.9375 26.7826 66.0547 26.2617C66.1979 26.2357 66.2891 26.1706 66.3281 26.0664C66.3802 25.9622 66.4062 25.8385 66.4062 25.6953C66.4714 25.6953 66.5104 25.6693 66.5234 25.6172C66.5495 25.5521 66.6081 25.5326 66.6992 25.5586C66.8164 25.2461 66.9466 24.9596 67.0898 24.6992C67.2331 24.4388 67.3763 24.1784 67.5195 23.918C67.6628 23.6445 67.7865 23.3646 67.8906 23.0781C68.0078 22.7917 68.0924 22.4727 68.1445 22.1211C68.3268 22.1081 68.4245 22.0234 68.4375 21.8672C68.4635 21.6979 68.4896 21.5482 68.5156 21.418C68.7109 21.2357 68.8542 21.0208 68.9453 20.7734C69.0495 20.526 69.1406 20.2721 69.2188 20.0117C69.2969 19.7383 69.3815 19.4714 69.4727 19.2109C69.5768 18.9375 69.7201 18.6966 69.9023 18.4883V18.4297C69.9023 18.3646 69.8763 18.3255 69.8242 18.3125C69.7721 18.2865 69.7461 18.2409 69.7461 18.1758C69.7591 18.1628 69.7656 18.1497 69.7656 18.1367C69.9219 18.0716 70.0391 17.9674 70.1172 17.8242C70.1953 17.668 70.3125 17.5573 70.4688 17.4922C70.7422 17.7135 70.9831 17.8503 71.1914 17.9023C71.3997 17.9414 71.6732 17.974 72.0117 18C72.181 18.1823 72.2721 18.4036 72.2852 18.6641C72.3112 18.9115 72.3568 19.1589 72.4219 19.4062C72.526 19.8229 72.6367 20.2331 72.7539 20.6367C72.8841 21.0273 72.9818 21.431 73.0469 21.8477C73.0859 22.0951 73.1576 22.3294 73.2617 22.5508C73.3659 22.7721 73.4375 23 73.4766 23.2344C73.5026 23.4167 73.5026 23.625 73.4766 23.8594C73.4505 24.0807 73.4766 24.276 73.5547 24.4453L73.6914 24.7578C73.7565 24.901 73.8086 25.0508 73.8477 25.207C73.8997 25.3633 73.9453 25.5195 73.9844 25.6758C74.0885 26.0664 74.1797 26.4896 74.2578 26.9453C74.349 27.388 74.4857 27.7917 74.668 28.1562C74.7331 28.2865 74.8307 28.3776 74.9609 28.4297C75.1042 28.4818 75.2604 28.5208 75.4297 28.5469C75.599 28.5599 75.7617 28.5664 75.918 28.5664C76.0872 28.5534 76.2305 28.5469 76.3477 28.5469H76.543C76.6211 28.5469 76.6992 28.5599 76.7773 28.5859C76.8294 28.6901 76.8555 28.7812 76.8555 28.8594C76.8555 29.0156 76.8034 29.1393 76.6992 29.2305C76.5951 29.3216 76.543 29.4258 76.543 29.543C76.543 29.6081 76.569 29.6797 76.6211 29.7578C76.569 29.7448 76.4909 29.7383 76.3867 29.7383C76.0872 29.7383 75.7943 29.7904 75.5078 29.8945C75.612 30.1159 75.7487 30.3047 75.918 30.4609C76.1003 30.6042 76.2891 30.7409 76.4844 30.8711C76.6146 30.7669 76.7513 30.7148 76.8945 30.7148C77.0508 30.7148 77.194 30.7539 77.3242 30.832C77.4674 30.8971 77.6172 30.9297 77.7734 30.9297C77.8906 30.9297 77.9753 30.9102 78.0273 30.8711C78.1315 30.9883 78.2161 31.112 78.2812 31.2422C78.3464 31.3594 78.431 31.4701 78.5352 31.5742ZM72.4219 28.4492C72.3958 28.2279 72.3503 28.0716 72.2852 27.9805C72.2331 27.8763 72.1875 27.7526 72.1484 27.6094C72.0964 27.4271 72.0573 27.2318 72.0312 27.0234C72.0182 26.8151 71.9922 26.6133 71.9531 26.418C71.862 25.9753 71.7578 25.5326 71.6406 25.0898C71.5365 24.6471 71.3997 24.2174 71.2305 23.8008C71.2826 23.7227 71.3086 23.651 71.3086 23.5859V23.5273C71.1914 23.3971 71.1068 23.2409 71.0547 23.0586C71.0026 22.8633 70.9505 22.6745 70.8984 22.4922C70.8594 22.2969 70.8008 22.1211 70.7227 21.9648C70.6576 21.7956 70.5469 21.6589 70.3906 21.5547C70.3516 21.6328 70.332 21.724 70.332 21.8281C70.332 21.9193 70.3385 22.0039 70.3516 22.082C70.3776 22.1602 70.3906 22.2448 70.3906 22.3359C70.2604 22.401 70.1628 22.5052 70.0977 22.6484C70.0456 22.7786 69.9544 22.8828 69.8242 22.9609C69.7201 23.3776 69.5703 23.7747 69.375 24.1523C69.1797 24.5169 68.9714 24.8815 68.75 25.2461C68.5417 25.6107 68.3398 25.9818 68.1445 26.3594C67.9492 26.724 67.793 27.1081 67.6758 27.5117C67.5065 27.6289 67.3893 27.7786 67.3242 27.9609C67.2721 28.1432 67.2461 28.3255 67.2461 28.5078C67.3633 28.5729 67.4935 28.612 67.6367 28.625C67.793 28.625 67.9427 28.625 68.0859 28.625C68.2292 28.625 68.3659 28.638 68.4961 28.6641C68.6263 28.6901 68.7435 28.7552 68.8477 28.8594C69.0169 28.8073 69.1992 28.7747 69.3945 28.7617C69.6029 28.7357 69.7721 28.6771 69.9023 28.5859C70.1628 28.6771 70.4427 28.7227 70.7422 28.7227C70.8984 28.7227 71.0482 28.7096 71.1914 28.6836C71.3477 28.6576 71.4974 28.625 71.6406 28.5859C71.7578 28.612 71.849 28.6576 71.9141 28.7227C71.9792 28.7747 72.0768 28.7943 72.207 28.7812C72.2721 28.7292 72.3112 28.6771 72.3242 28.625C72.3372 28.5599 72.3698 28.5013 72.4219 28.4492ZM82.5977 30.3242C82.5326 30.4284 82.4544 30.526 82.3633 30.6172C82.2721 30.6953 82.1875 30.7799 82.1094 30.8711C82.0182 30.9102 81.9141 30.9297 81.7969 30.9297C81.6927 30.9297 81.5885 30.9297 81.4844 30.9297C81.3932 30.9167 81.3021 30.9167 81.2109 30.9297C81.1328 30.9297 81.0677 30.9557 81.0156 31.0078C80.9115 30.9818 80.8333 30.9362 80.7812 30.8711C80.7292 30.793 80.638 30.7474 80.5078 30.7344C80.4557 30.7214 80.4036 30.7214 80.3516 30.7344C80.1562 30.513 79.974 30.2786 79.8047 30.0312C79.6484 29.7839 79.4987 29.5495 79.3555 29.3281C79.3424 28.8464 79.3034 28.3581 79.2383 27.8633C79.2253 27.7461 79.2057 27.6289 79.1797 27.5117C79.1536 27.3945 79.1341 27.2839 79.1211 27.1797C79.1211 27.0495 79.1276 26.9258 79.1406 26.8086C79.1667 26.6784 79.1862 26.5612 79.1992 26.457C79.2513 26.0794 79.3099 25.7083 79.375 25.3438C79.4401 24.9792 79.4987 24.6081 79.5508 24.2305C79.6029 23.8919 79.6289 23.5404 79.6289 23.1758C79.6289 22.7982 79.5703 22.4466 79.4531 22.1211L79.4336 22.0234C79.4596 21.9193 79.4857 21.8346 79.5117 21.7695C79.5508 21.6914 79.5768 21.6068 79.5898 21.5156C79.6159 21.3724 79.5833 21.2682 79.4922 21.2031C79.5312 21.099 79.5964 21.0339 79.6875 21.0078C79.7786 20.9688 79.8307 20.8906 79.8438 20.7734C79.8568 20.7214 79.8568 20.6693 79.8438 20.6172C79.9479 20.5781 80.0521 20.5456 80.1562 20.5195C80.2734 20.4805 80.3841 20.474 80.4883 20.5C80.6576 20.526 80.8073 20.5846 80.9375 20.6758C81.0677 20.7539 81.1914 20.8451 81.3086 20.9492C81.5169 21.5742 81.6016 22.2383 81.5625 22.9414C81.5234 23.6315 81.4583 24.3281 81.3672 25.0312C81.276 25.7344 81.2174 26.4245 81.1914 27.1016C81.1654 27.7656 81.2695 28.3841 81.5039 28.957L81.543 28.9766C81.6081 28.9896 81.6602 28.9701 81.6992 28.918C81.7383 28.8529 81.7904 28.8268 81.8555 28.8398C81.9076 28.8659 81.9401 28.8789 81.9531 28.8789C82.0052 29.1393 82.0898 29.3867 82.207 29.6211C82.3242 29.8555 82.4544 30.0898 82.5977 30.3242ZM97.3047 20.168C97.2786 20.3242 97.2396 20.4609 97.1875 20.5781C97.1484 20.6823 97.1419 20.8255 97.168 21.0078C97.0378 21.0208 96.9336 21.0664 96.8555 21.1445C96.7904 21.2096 96.7318 21.2878 96.6797 21.3789C96.6406 21.4701 96.5951 21.5677 96.543 21.6719C96.5039 21.763 96.4518 21.8477 96.3867 21.9258C96.4909 22.3945 96.5495 22.8698 96.5625 23.3516C96.5755 23.8333 96.6081 24.3086 96.6602 24.7773C96.7253 25.3763 96.8229 25.9688 96.9531 26.5547C97.0964 27.1276 97.168 27.7135 97.168 28.3125C97.168 28.4948 97.1615 28.6641 97.1484 28.8203C97.1484 28.9766 97.1484 29.1393 97.1484 29.3086C97.1484 29.4128 97.1484 29.5234 97.1484 29.6406C97.1615 29.7448 97.168 29.849 97.168 29.9531C97.168 30.3307 97.1159 30.7083 97.0117 31.0859C96.9206 31.4635 96.849 31.8411 96.7969 32.2188C96.6406 32.362 96.5039 32.5182 96.3867 32.6875C96.2826 32.8568 96.1719 33.013 96.0547 33.1562C95.9375 33.2995 95.8008 33.4232 95.6445 33.5273C95.4883 33.6445 95.293 33.7227 95.0586 33.7617C95.0195 33.8919 94.9414 33.9896 94.8242 34.0547C94.7201 34.1198 94.6289 34.2109 94.5508 34.3281H94.5117C94.1862 34.3281 93.9062 34.2826 93.6719 34.1914C93.4375 34.1003 93.2161 33.9961 93.0078 33.8789C92.8125 33.7617 92.6107 33.638 92.4023 33.5078C92.194 33.3776 91.9531 33.2734 91.6797 33.1953C91.3151 32.8958 90.9831 32.5703 90.6836 32.2188C90.3841 31.8542 90.0456 31.5286 89.668 31.2422C89.5768 30.9818 89.4531 30.7669 89.2969 30.5977C89.1536 30.4284 89.0104 30.2331 88.8672 30.0117C88.8021 29.9206 88.75 29.8359 88.7109 29.7578C88.6849 29.6797 88.6458 29.5885 88.5938 29.4844C88.5547 29.3802 88.4896 29.3086 88.3984 29.2695C88.3203 29.2305 88.2487 29.1849 88.1836 29.1328C88.0794 28.7292 87.9297 28.3581 87.7344 28.0195C87.5391 27.681 87.3112 27.3555 87.0508 27.043C86.9727 27.1862 86.9076 27.3424 86.8555 27.5117C86.8164 27.668 86.7773 27.8307 86.7383 28C86.6992 28.1562 86.6471 28.319 86.582 28.4883C86.5299 28.6445 86.4583 28.7878 86.3672 28.918V28.9766C86.3672 29.0417 86.3932 29.0807 86.4453 29.0938C86.4974 29.1068 86.5234 29.1458 86.5234 29.2109C86.5234 29.224 86.5169 29.237 86.5039 29.25C86.5039 29.263 86.5039 29.276 86.5039 29.2891C86.4388 29.3411 86.3867 29.4062 86.3477 29.4844C86.3216 29.5625 86.2565 29.6081 86.1523 29.6211C86.1654 29.6862 86.1719 29.7513 86.1719 29.8164V29.9922C86.1719 30.3698 86.1263 30.7474 86.0352 31.125C85.957 31.5026 85.918 31.8867 85.918 32.2773V32.5312C85.918 32.6224 85.9245 32.707 85.9375 32.7852C85.9635 32.8633 86.0026 32.9414 86.0547 33.0195C86.1068 33.0977 86.1328 33.1693 86.1328 33.2344C86.1328 33.3255 86.0938 33.4102 86.0156 33.4883C86.1068 33.5534 86.2109 33.625 86.3281 33.7031C86.4453 33.7812 86.5495 33.8659 86.6406 33.957C86.7448 34.0612 86.8294 34.1654 86.8945 34.2695C86.9596 34.3867 86.9922 34.5104 86.9922 34.6406C86.9922 34.862 86.9206 35.0182 86.7773 35.1094C86.6341 35.2005 86.4583 35.2721 86.25 35.3242C86.0547 35.3763 85.8464 35.4219 85.625 35.4609C85.4167 35.513 85.2409 35.5977 85.0977 35.7148H85.0391C84.8828 35.7148 84.7656 35.6693 84.6875 35.5781C84.6094 35.487 84.4922 35.4414 84.3359 35.4414C84.0885 35.0378 83.9193 34.582 83.8281 34.0742C83.737 33.5794 83.6914 33.1042 83.6914 32.6484C83.6914 32.0885 83.7435 31.5286 83.8477 30.9688C83.9388 30.4089 84.056 29.8555 84.1992 29.3086C84.3294 28.7617 84.4727 28.2214 84.6289 27.6875C84.7982 27.1406 84.9544 26.5938 85.0977 26.0469L85.1172 25.9883C85.1172 25.9232 85.0977 25.8776 85.0586 25.8516C85.0326 25.8255 85.0195 25.7865 85.0195 25.7344C85.0195 25.7083 85.026 25.6953 85.0391 25.6953C85.0781 25.5651 85.1172 25.4414 85.1562 25.3242C85.2083 25.207 85.2474 25.0768 85.2734 24.9336C85.3516 24.569 85.4036 24.1979 85.4297 23.8203C85.4688 23.4297 85.4883 23.0456 85.4883 22.668C85.5013 22.2904 85.5143 21.9128 85.5273 21.5352C85.5534 21.1445 85.599 20.7604 85.6641 20.3828C85.7682 20.2786 85.8659 20.168 85.957 20.0508C86.0482 19.9336 86.1654 19.8294 86.3086 19.7383C86.569 19.7513 86.8294 19.7904 87.0898 19.8555C87.3503 19.9206 87.5977 20.0247 87.832 20.168C87.9883 20.7279 88.0924 21.2878 88.1445 21.8477C88.2096 22.4076 88.3138 22.9674 88.457 23.5273V23.5859C88.457 23.651 88.4896 23.6836 88.5547 23.6836C88.6328 23.6706 88.6914 23.6901 88.7305 23.7422C88.7044 23.7812 88.6849 23.8268 88.6719 23.8789C88.6719 23.931 88.6719 23.9831 88.6719 24.0352V24.3672C88.6979 24.4714 88.7305 24.582 88.7695 24.6992C88.8086 24.8164 88.8932 24.888 89.0234 24.9141C89.0885 25.3307 89.1862 25.7148 89.3164 26.0664C89.4466 26.418 89.5964 26.7565 89.7656 27.082C89.9349 27.4076 90.1172 27.7331 90.3125 28.0586C90.5078 28.3711 90.7096 28.7031 90.918 29.0547C91.2435 29.3021 91.5234 29.5885 91.7578 29.9141C91.9922 30.2266 92.2266 30.5326 92.4609 30.832C92.7083 31.1185 92.9818 31.3724 93.2812 31.5938C93.5938 31.8151 93.9974 31.9518 94.4922 32.0039C94.5573 31.9518 94.6029 31.8802 94.6289 31.7891L94.7266 31.5156C94.7656 31.4245 94.8047 31.3464 94.8438 31.2812C94.8958 31.2031 94.9674 31.1445 95.0586 31.1055C95.0846 30.7409 95.1107 30.3698 95.1367 29.9922C95.1758 29.6146 95.2604 29.2565 95.3906 28.918C95.3255 28.8008 95.293 28.6576 95.293 28.4883C95.293 28.3581 95.2995 28.2344 95.3125 28.1172C95.3385 28 95.3516 27.8828 95.3516 27.7656C95.3516 27.5182 95.2995 27.3164 95.1953 27.1602C95.1953 27.069 95.2018 26.9779 95.2148 26.8867C95.2279 26.7826 95.2669 26.6849 95.332 26.5938C95.2279 26.3333 95.1432 26.0599 95.0781 25.7734C95.026 25.487 95 25.194 95 24.8945C95 24.7253 95.0195 24.5495 95.0586 24.3672C94.9805 24.1719 94.9284 23.944 94.9023 23.6836L94.8242 22.8828C94.7982 22.6094 94.7591 22.3555 94.707 22.1211C94.6549 21.8867 94.5573 21.6979 94.4141 21.5547C94.4922 21.4375 94.5312 21.3008 94.5312 21.1445C94.5312 20.8841 94.4922 20.6367 94.4141 20.4023C94.3359 20.168 94.2969 19.9206 94.2969 19.6602C94.2969 19.4779 94.3359 19.2956 94.4141 19.1133C94.7005 19.1263 94.9805 19.1589 95.2539 19.2109C95.5404 19.25 95.8203 19.2695 96.0938 19.2695C96.1719 19.3737 96.263 19.4583 96.3672 19.5234C96.4714 19.5885 96.582 19.6536 96.6992 19.7188C96.8164 19.7708 96.9271 19.8294 97.0312 19.8945C97.1484 19.9596 97.2396 20.0508 97.3047 20.168ZM128.066 38.0586C128.066 38.1758 128.021 38.2799 127.93 38.3711C127.852 38.4622 127.754 38.5339 127.637 38.5859C127.52 38.651 127.396 38.7096 127.266 38.7617C127.148 38.8138 127.044 38.8594 126.953 38.8984C126.81 38.8203 126.66 38.7682 126.504 38.7422C126.361 38.7161 126.23 38.651 126.113 38.5469H125.977C125.768 38.5469 125.605 38.5729 125.488 38.625C125.306 38.5599 125.156 38.4622 125.039 38.332C124.922 38.2148 124.811 38.0846 124.707 37.9414C124.603 37.8112 124.499 37.681 124.395 37.5508C124.29 37.4206 124.16 37.3099 124.004 37.2188C123.77 36.5677 123.561 35.9102 123.379 35.2461C123.197 34.582 123.06 33.9049 122.969 33.2148C122.995 33.1497 123.014 33.0781 123.027 33C123.04 32.9219 123.047 32.8503 123.047 32.7852C123.047 32.7331 123.034 32.681 123.008 32.6289C122.995 32.5638 122.956 32.5247 122.891 32.5117C122.956 32.4076 122.995 32.2904 123.008 32.1602C123.034 32.0169 123.047 31.8867 123.047 31.7695C123.047 31.5091 123.021 31.2943 122.969 31.125C123.047 31.0599 123.079 30.9557 123.066 30.8125C123.053 30.6562 123.086 30.5456 123.164 30.4805C123.099 30.2591 123.066 30.0443 123.066 29.8359C123.066 29.5495 123.099 29.2695 123.164 28.9961C123.242 28.7227 123.281 28.4427 123.281 28.1562C123.281 28.0911 123.275 28.026 123.262 27.9609C123.262 27.8958 123.255 27.8307 123.242 27.7656C123.307 27.5573 123.366 27.349 123.418 27.1406C123.483 26.9193 123.516 26.6979 123.516 26.4766C123.516 26.3203 123.49 26.1901 123.438 26.0859C123.607 25.487 123.724 24.8945 123.789 24.3086C123.867 23.7096 123.939 23.1042 124.004 22.4922C123.991 22.4661 123.978 22.4466 123.965 22.4336C123.952 22.4206 123.945 22.401 123.945 22.375C123.945 22.3099 123.978 22.2578 124.043 22.2188C124.121 22.1797 124.154 22.1081 124.141 22.0039C123.984 22.1602 123.854 22.3424 123.75 22.5508C123.659 22.7591 123.568 22.9674 123.477 23.1758C123.398 23.3841 123.307 23.5924 123.203 23.8008C123.112 23.9961 122.988 24.1719 122.832 24.3281C122.819 24.4714 122.773 24.6081 122.695 24.7383C122.63 24.8685 122.598 25.0117 122.598 25.168C122.585 25.168 122.572 25.168 122.559 25.168C122.546 25.1549 122.526 25.1484 122.5 25.1484C122.448 25.1484 122.409 25.181 122.383 25.2461C122.37 25.3112 122.331 25.3307 122.266 25.3047C121.966 25.8906 121.634 26.4635 121.27 27.0234C120.918 27.5833 120.456 28.0326 119.883 28.3711C119.779 28.332 119.681 28.3125 119.59 28.3125C119.421 28.3125 119.251 28.3646 119.082 28.4688C118.926 28.5599 118.822 28.6055 118.77 28.6055C118.639 28.6055 118.477 28.5404 118.281 28.4102C118.099 28.2669 117.91 28.1888 117.715 28.1758C117.507 28.0326 117.331 27.8893 117.188 27.7461C117.057 27.5898 116.855 27.4987 116.582 27.4727C116.4 27.1992 116.217 26.9388 116.035 26.6914C115.866 26.444 115.697 26.2031 115.527 25.9688C115.371 25.7214 115.228 25.4609 115.098 25.1875C114.98 24.9141 114.889 24.6081 114.824 24.2695C114.837 24.2435 114.844 24.2174 114.844 24.1914C114.844 24.1133 114.805 24.0807 114.727 24.0938C114.661 24.1068 114.629 24.0677 114.629 23.9766V23.8398C114.629 23.7357 114.609 23.6445 114.57 23.5664C114.544 23.4753 114.538 23.3776 114.551 23.2734C114.46 23.1302 114.388 22.9805 114.336 22.8242C114.284 22.668 114.193 22.5312 114.062 22.4141V22.2383C114.062 22.1602 114.056 22.0885 114.043 22.0234C114.043 21.9453 114.023 21.8802 113.984 21.8281C113.958 21.763 113.913 21.724 113.848 21.7109C113.835 21.2422 113.737 20.7669 113.555 20.2852C113.385 19.7904 113.229 19.3151 113.086 18.8594C112.982 19.1979 112.904 19.543 112.852 19.8945C112.799 20.2331 112.773 20.5781 112.773 20.9297V21.2617C112.773 21.3659 112.786 21.4701 112.812 21.5742C112.773 21.6393 112.715 21.6849 112.637 21.7109C112.572 21.737 112.533 21.7891 112.52 21.8672C112.507 21.9323 112.5 21.9974 112.5 22.0625C112.513 22.1276 112.513 22.1927 112.5 22.2578C112.474 22.5703 112.435 22.8698 112.383 23.1562C112.305 23.5859 112.214 24.0221 112.109 24.4648C112.005 24.8945 111.953 25.3372 111.953 25.793C111.953 25.819 111.953 25.8581 111.953 25.9102C111.966 25.9492 111.973 25.9818 111.973 26.0078C111.764 26.1901 111.654 26.418 111.641 26.6914C111.628 26.9648 111.595 27.2253 111.543 27.4727C111.478 27.8372 111.4 28.2018 111.309 28.5664C111.217 28.918 111.139 29.2826 111.074 29.6602C111.035 29.8685 111.003 30.0768 110.977 30.2852C110.951 30.4805 110.924 30.6823 110.898 30.8906C110.885 31.0078 110.84 31.1055 110.762 31.1836C110.697 31.2617 110.651 31.3529 110.625 31.457C110.612 31.5482 110.605 31.6523 110.605 31.7695C110.618 31.8737 110.625 31.9714 110.625 32.0625C110.625 32.2188 110.612 32.3685 110.586 32.5117C110.56 32.6419 110.482 32.7591 110.352 32.8633C110.378 33.2018 110.436 33.4883 110.527 33.7227C110.618 33.9701 110.723 34.2435 110.84 34.543H111.328V34.6211C111.328 34.7513 111.348 34.8685 111.387 34.9727C111.439 35.0768 111.536 35.1224 111.68 35.1094C111.667 35.1615 111.66 35.2266 111.66 35.3047C111.66 35.4219 111.68 35.526 111.719 35.6172C111.771 35.7214 111.81 35.832 111.836 35.9492C111.576 36.3789 111.296 36.6979 110.996 36.9062C110.697 37.1146 110.286 37.2188 109.766 37.2188H109.453C109.388 37.0104 109.31 36.8086 109.219 36.6133C109.128 36.418 109.036 36.2227 108.945 36.0273C108.867 35.832 108.796 35.6302 108.73 35.4219C108.678 35.2266 108.652 35.0182 108.652 34.7969C108.652 34.7448 108.659 34.6927 108.672 34.6406C108.685 34.6016 108.691 34.556 108.691 34.5039C108.691 34.4388 108.665 34.3997 108.613 34.3867C108.561 34.3737 108.535 34.3086 108.535 34.1914C108.535 34.1003 108.529 34.0156 108.516 33.9375C108.516 33.8594 108.516 33.7747 108.516 33.6836C108.516 33.2539 108.548 32.8307 108.613 32.4141C108.678 31.9844 108.724 31.5547 108.75 31.125C108.815 31.0599 108.848 30.9753 108.848 30.8711C108.848 30.7669 108.88 30.6823 108.945 30.6172V30.4805C108.945 30.2461 108.971 30.0117 109.023 29.7773C109.076 29.543 109.134 29.3151 109.199 29.0938C109.264 28.8724 109.323 28.6445 109.375 28.4102C109.427 28.1758 109.453 27.9414 109.453 27.707V27.3945C109.453 27.3034 109.492 27.2643 109.57 27.2773C109.661 27.2773 109.714 27.2253 109.727 27.1211C109.753 26.9388 109.766 26.763 109.766 26.5938C109.779 26.4115 109.798 26.2292 109.824 26.0469C109.889 25.6953 109.961 25.3438 110.039 24.9922C110.117 24.6276 110.156 24.263 110.156 23.8984V23.8398C110.156 23.8008 110.189 23.7227 110.254 23.6055C110.319 23.4753 110.352 23.3516 110.352 23.2344C110.352 23.1432 110.332 23.0586 110.293 22.9805C110.306 22.9935 110.332 23 110.371 23C110.423 23 110.456 22.987 110.469 22.9609C110.495 22.9219 110.527 22.8893 110.566 22.8633C110.527 22.8112 110.508 22.7591 110.508 22.707C110.508 22.6419 110.514 22.5833 110.527 22.5312C110.553 22.4661 110.566 22.401 110.566 22.3359C110.566 22.2448 110.521 22.1797 110.43 22.1406C110.586 21.8542 110.697 21.5482 110.762 21.2227C110.84 20.8971 110.892 20.5651 110.918 20.2266C110.957 19.888 110.99 19.5495 111.016 19.2109C111.042 18.8594 111.1 18.5273 111.191 18.2148C111.165 18.1367 111.146 18.0521 111.133 17.9609C111.133 17.8698 111.133 17.7852 111.133 17.707C111.133 17.6549 111.126 17.6029 111.113 17.5508C111.1 17.4857 111.107 17.4271 111.133 17.375C111.133 17.349 111.139 17.3164 111.152 17.2773L111.191 17.1602C111.217 17.069 111.23 16.9779 111.23 16.8867C111.243 16.7826 111.257 16.6784 111.27 16.5742C111.296 16.2747 111.302 15.9688 111.289 15.6562C111.289 15.3438 111.302 15.0312 111.328 14.7188C111.289 14.6667 111.25 14.6276 111.211 14.6016C111.172 14.5625 111.146 14.5104 111.133 14.4453C111.237 14.263 111.348 14.0938 111.465 13.9375C111.595 13.7682 111.764 13.638 111.973 13.5469C112.012 13.6901 112.116 13.7617 112.285 13.7617C112.363 13.7617 112.461 13.7422 112.578 13.7031C112.695 13.6641 112.773 13.612 112.812 13.5469C113.034 13.625 113.255 13.6641 113.477 13.6641C113.711 13.651 113.926 13.7031 114.121 13.8203C114.16 14.0156 114.212 14.2174 114.277 14.4258C114.342 14.6341 114.434 14.8229 114.551 14.9922C114.577 15.1615 114.603 15.3698 114.629 15.6172C114.655 15.8516 114.681 16.099 114.707 16.3594C114.733 16.6068 114.772 16.8477 114.824 17.082C114.876 17.3034 114.948 17.4792 115.039 17.6094C115.052 17.8438 115.091 18.0781 115.156 18.3125C115.221 18.5469 115.293 18.7747 115.371 18.9961C115.449 19.2044 115.514 19.3997 115.566 19.582C115.632 19.7643 115.664 19.9141 115.664 20.0312C115.664 20.1354 115.645 20.207 115.605 20.2461C115.579 20.2721 115.553 20.3242 115.527 20.4023C115.579 20.5456 115.651 20.6693 115.742 20.7734C115.833 20.8646 115.931 20.9753 116.035 21.1055C116.23 21.8477 116.484 22.5703 116.797 23.2734C117.109 23.9766 117.487 24.6536 117.93 25.3047C118.047 25.3177 118.138 25.3503 118.203 25.4023C118.281 25.4544 118.398 25.4674 118.555 25.4414V25.5781C118.555 25.7083 118.581 25.7995 118.633 25.8516C118.75 25.9297 118.887 25.9688 119.043 25.9688C119.212 25.9688 119.342 25.9232 119.434 25.832C119.538 25.7279 119.635 25.6107 119.727 25.4805C119.818 25.3503 119.909 25.2266 120 25.1094C120.091 24.9922 120.215 24.9141 120.371 24.875V24.8359C120.371 24.7318 120.391 24.6471 120.43 24.582C120.482 24.5039 120.508 24.4193 120.508 24.3281C120.651 24.224 120.762 24.0938 120.84 23.9375C120.918 23.7812 120.99 23.625 121.055 23.4688C121.12 23.2995 121.191 23.1432 121.27 23C121.361 22.8568 121.478 22.7396 121.621 22.6484C121.803 22.0885 122.025 21.5677 122.285 21.0859C122.546 20.6042 122.819 20.1159 123.105 19.6211C123.105 19.582 123.099 19.543 123.086 19.5039C123.073 19.4518 123.066 19.4062 123.066 19.3672C123.066 19.3542 123.079 19.2956 123.105 19.1914C123.171 19.0612 123.229 18.9375 123.281 18.8203C123.333 18.7031 123.379 18.5729 123.418 18.4297C123.548 18.026 123.665 17.6289 123.77 17.2383C123.887 16.8477 124.056 16.4766 124.277 16.125V15.6367C124.512 15.168 124.674 14.6732 124.766 14.1523C124.87 13.6315 124.993 13.1237 125.137 12.6289C125.163 12.4857 125.208 12.3424 125.273 12.1992C125.352 12.043 125.443 11.9323 125.547 11.8672C125.508 11.7891 125.488 11.7109 125.488 11.6328C125.488 11.5286 125.501 11.4375 125.527 11.3594C125.566 11.2682 125.599 11.1771 125.625 11.0859C125.586 10.9948 125.566 10.8776 125.566 10.7344C125.566 10.5521 125.618 10.3828 125.723 10.2266C125.827 10.0573 125.983 9.94661 126.191 9.89453C126.322 9.93359 126.432 9.9987 126.523 10.0898C126.615 10.181 126.699 10.2786 126.777 10.3828C126.868 10.474 126.96 10.5521 127.051 10.6172C127.155 10.6693 127.285 10.6823 127.441 10.6562C127.546 10.8516 127.617 11.0599 127.656 11.2812C127.695 11.4896 127.715 11.7044 127.715 11.9258C127.715 12.2253 127.689 12.5378 127.637 12.8633C127.585 13.1758 127.565 13.4948 127.578 13.8203C127.474 14.0286 127.396 14.2565 127.344 14.5039C127.305 14.7383 127.266 14.9792 127.227 15.2266C127.188 15.474 127.142 15.7148 127.09 15.9492C127.038 16.1836 126.947 16.4049 126.816 16.6133C126.777 17.1992 126.732 17.7721 126.68 18.332C126.641 18.8919 126.576 19.4518 126.484 20.0117L126.309 21.125C126.283 21.2161 126.257 21.3203 126.23 21.4375C126.204 21.5417 126.191 21.6328 126.191 21.7109C126.191 21.7891 126.198 21.8737 126.211 21.9648C126.224 22.043 126.263 22.1016 126.328 22.1406C126.237 22.2708 126.172 22.4271 126.133 22.6094C126.094 22.7917 126.055 22.987 126.016 23.1953L125.918 23.8008C125.892 23.9961 125.84 24.1719 125.762 24.3281V24.543C125.762 25.0638 125.671 25.5977 125.488 26.1445V26.2422C125.488 26.3073 125.482 26.3659 125.469 26.418C125.469 26.457 125.469 26.5091 125.469 26.5742C125.469 26.6654 125.495 26.737 125.547 26.7891C125.443 27.1276 125.345 27.4792 125.254 27.8438C125.163 28.1953 125.098 28.5599 125.059 28.9375C125.02 29.4453 125.013 29.9661 125.039 30.5C125.065 31.0208 125 31.5286 124.844 32.0234C124.922 32.2578 124.974 32.5117 125 32.7852L125.078 33.6055C125.104 33.8789 125.143 34.1393 125.195 34.3867C125.26 34.6471 125.378 34.862 125.547 35.0312C125.56 35.0573 125.566 35.0964 125.566 35.1484C125.566 35.2526 125.54 35.3307 125.488 35.3828C125.514 35.513 125.56 35.6237 125.625 35.7148C125.69 35.806 125.755 35.8906 125.82 35.9688C125.885 36.0599 125.938 36.1576 125.977 36.2617C126.029 36.3659 126.055 36.4961 126.055 36.6523C126.159 36.7956 126.322 36.9062 126.543 36.9844C126.764 37.0625 126.986 37.1406 127.207 37.2188C127.441 37.2969 127.643 37.3945 127.812 37.5117C127.982 37.6419 128.066 37.8242 128.066 38.0586ZM141.484 20.5781V20.6562C141.393 20.6823 141.348 20.7474 141.348 20.8516C141.204 20.9167 141.055 20.9688 140.898 21.0078C140.742 21.0339 140.592 21.0794 140.449 21.1445C140.306 21.1315 140.156 21.125 140 21.125C139.857 21.112 139.714 21.1055 139.57 21.1055C139.18 21.1055 138.789 21.1185 138.398 21.1445C138.008 21.1706 137.617 21.1706 137.227 21.1445C137.044 21.2487 136.842 21.3333 136.621 21.3984C136.413 21.4505 136.211 21.4766 136.016 21.4766C135.859 21.4766 135.723 21.457 135.605 21.418C135.293 21.5742 134.948 21.7044 134.57 21.8086C134.206 21.9128 133.835 22.0169 133.457 22.1211C133.079 22.2122 132.715 22.3229 132.363 22.4531C132.025 22.5703 131.725 22.7396 131.465 22.9609C131.439 23.1432 131.419 23.3255 131.406 23.5078C131.393 23.6771 131.387 23.8464 131.387 24.0156C131.387 24.1979 131.393 24.3672 131.406 24.5234C131.432 24.6797 131.478 24.8359 131.543 24.9922C131.608 25.0182 131.68 25.0378 131.758 25.0508C131.849 25.0638 131.927 25.0703 131.992 25.0703C132.057 25.0703 132.122 25.0638 132.188 25.0508C132.253 25.0247 132.298 24.9792 132.324 24.9141C132.52 24.888 132.715 24.8815 132.91 24.8945C133.105 24.8945 133.301 24.8945 133.496 24.8945C133.691 24.8945 133.88 24.888 134.062 24.875C134.258 24.862 134.447 24.8294 134.629 24.7773C134.837 24.7253 135.039 24.6927 135.234 24.6797C135.443 24.6667 135.645 24.6536 135.84 24.6406C136.035 24.6276 136.237 24.6081 136.445 24.582C136.654 24.543 136.868 24.4714 137.09 24.3672C137.259 24.4323 137.428 24.4648 137.598 24.4648C137.78 24.4648 137.956 24.4779 138.125 24.5039C138.216 24.569 138.288 24.6406 138.34 24.7188C138.405 24.7969 138.438 24.888 138.438 24.9922C138.438 25.1745 138.372 25.3568 138.242 25.5391C138.112 25.7214 138.008 25.8906 137.93 26.0469H137.715C137.402 26.0469 137.096 26.0924 136.797 26.1836C136.51 26.2617 136.217 26.3594 135.918 26.4766C135.632 26.5807 135.339 26.6784 135.039 26.7695C134.753 26.8477 134.453 26.8867 134.141 26.8867C134.089 26.8867 134.056 26.9193 134.043 26.9844C134.043 27.0365 134.03 27.0755 134.004 27.1016C133.939 27.0885 133.841 27.082 133.711 27.082C133.411 27.082 133.125 27.1146 132.852 27.1797C132.578 27.2448 132.298 27.2773 132.012 27.2773C131.934 27.2773 131.855 27.2773 131.777 27.2773C131.699 27.2643 131.621 27.2513 131.543 27.2383C131.478 27.3424 131.393 27.4141 131.289 27.4531C131.185 27.4792 131.087 27.5312 130.996 27.6094C130.957 27.7266 130.931 27.8698 130.918 28.0391C130.918 28.2083 130.911 28.3841 130.898 28.5664C130.898 28.7357 130.885 28.8984 130.859 29.0547C130.833 29.2109 130.781 29.3346 130.703 29.4258C130.716 29.4909 130.768 29.5169 130.859 29.5039C130.951 29.4779 130.996 29.5169 130.996 29.6211C130.996 29.7383 130.983 29.862 130.957 29.9922C130.931 30.1224 130.918 30.2526 130.918 30.3828C130.918 30.6302 130.944 30.9036 130.996 31.2031C131.061 31.4896 131.152 31.7565 131.27 32.0039C131.4 32.2513 131.569 32.4596 131.777 32.6289C131.986 32.7852 132.246 32.8633 132.559 32.8633C132.767 32.8633 132.962 32.8242 133.145 32.7461C133.327 32.668 133.477 32.5378 133.594 32.3555L133.691 32.3359C133.743 32.3359 133.789 32.3424 133.828 32.3555C133.88 32.3685 133.932 32.375 133.984 32.375C134.062 32.375 134.16 32.3294 134.277 32.2383C134.408 32.1341 134.544 32.0169 134.688 31.8867C134.844 31.7565 135 31.6328 135.156 31.5156C135.312 31.3854 135.462 31.2943 135.605 31.2422C135.697 31.0599 135.781 30.8776 135.859 30.6953C135.951 30.513 136.081 30.3698 136.25 30.2656V29.6992C136.38 29.556 136.517 29.4258 136.66 29.3086C136.816 29.1914 136.934 29.0417 137.012 28.8594C137.077 28.8854 137.135 28.9049 137.188 28.918C137.253 28.931 137.318 28.9375 137.383 28.9375C137.448 28.9375 137.513 28.931 137.578 28.918C137.656 28.9049 137.728 28.8854 137.793 28.8594C137.897 29.0026 137.975 29.1654 138.027 29.3477C138.092 29.5169 138.171 29.6797 138.262 29.8359C138.145 30.0703 138.008 30.3503 137.852 30.6758C137.695 31.0013 137.526 31.3268 137.344 31.6523C137.161 31.9779 136.966 32.2904 136.758 32.5898C136.562 32.8763 136.367 33.0977 136.172 33.2539C136.133 33.293 136.048 33.3385 135.918 33.3906C135.775 33.4948 135.645 33.5924 135.527 33.6836C135.41 33.7878 135.299 33.9049 135.195 34.0352C134.818 34.1523 134.453 34.3086 134.102 34.5039C133.763 34.6992 133.424 34.888 133.086 35.0703C132.93 35.0312 132.76 35.0117 132.578 35.0117C132.422 35.0117 132.266 35.0182 132.109 35.0312C131.953 35.0573 131.784 35.0703 131.602 35.0703C131.549 35.0052 131.471 34.9596 131.367 34.9336C131.276 34.9206 131.243 34.8555 131.27 34.7383C130.827 34.7122 130.469 34.5885 130.195 34.3672C129.922 34.1589 129.688 33.8984 129.492 33.5859C129.31 33.2734 129.16 32.9349 129.043 32.5703C128.926 32.2057 128.802 31.8542 128.672 31.5156V31.457C128.672 31.3919 128.698 31.3529 128.75 31.3398C128.802 31.3268 128.828 31.2878 128.828 31.2227C128.828 31.1966 128.822 31.1771 128.809 31.1641C128.77 31.0208 128.737 30.8971 128.711 30.793C128.685 30.6888 128.672 30.5651 128.672 30.4219C128.672 30.2135 128.685 30.0117 128.711 29.8164C128.737 29.6081 128.75 29.3997 128.75 29.1914C128.75 28.9831 128.724 28.8008 128.672 28.6445C128.724 28.5794 128.77 28.4948 128.809 28.3906C128.835 28.2734 128.854 28.1562 128.867 28.0391C128.88 27.9219 128.887 27.8047 128.887 27.6875C128.9 27.5703 128.919 27.4661 128.945 27.375C128.893 27.2318 128.848 27.1081 128.809 27.0039C128.77 26.8867 128.75 26.75 128.75 26.5938V26.457C128.88 26.2357 128.991 26.0078 129.082 25.7734C129.173 25.5391 129.271 25.2982 129.375 25.0508V24.9922C129.375 24.6146 129.362 24.237 129.336 23.8594C129.31 23.4818 129.297 23.1042 129.297 22.7266V22.3555C129.297 22.2253 129.303 22.1016 129.316 21.9844C129.421 21.9323 129.499 21.8607 129.551 21.7695C129.603 21.6784 129.681 21.6068 129.785 21.5547H130.43L130.547 21.3594C130.586 21.2943 130.612 21.2227 130.625 21.1445C130.768 21.1055 130.905 21.0534 131.035 20.9883C131.178 20.9102 131.309 20.832 131.426 20.7539C131.608 20.6497 131.771 20.5586 131.914 20.4805C132.07 20.3893 132.22 20.3177 132.363 20.2656C132.52 20.2005 132.682 20.1484 132.852 20.1094C133.021 20.0703 133.216 20.0378 133.438 20.0117C133.542 20.0117 133.607 19.9922 133.633 19.9531C133.672 19.9141 133.724 19.8685 133.789 19.8164C133.945 19.8424 134.102 19.8685 134.258 19.8945C134.414 19.9076 134.57 19.9141 134.727 19.9141C135.039 19.9141 135.332 19.8555 135.605 19.7383C135.996 19.7383 136.38 19.7318 136.758 19.7188C137.148 19.7057 137.539 19.6992 137.93 19.6992C138.268 19.6992 138.607 19.7122 138.945 19.7383C139.284 19.7643 139.616 19.8099 139.941 19.875C140.059 19.8359 140.189 19.8164 140.332 19.8164C140.488 19.8164 140.645 19.8359 140.801 19.875C140.97 19.901 141.133 19.901 141.289 19.875C141.302 20.0182 141.335 20.1419 141.387 20.2461C141.452 20.3372 141.484 20.4479 141.484 20.5781ZM153.398 20.168C153.372 20.3242 153.333 20.4609 153.281 20.5781C153.242 20.6823 153.236 20.8255 153.262 21.0078C153.132 21.0208 153.027 21.0664 152.949 21.1445C152.884 21.2096 152.826 21.2878 152.773 21.3789C152.734 21.4701 152.689 21.5677 152.637 21.6719C152.598 21.763 152.546 21.8477 152.48 21.9258C152.585 22.3945 152.643 22.8698 152.656 23.3516C152.669 23.8333 152.702 24.3086 152.754 24.7773C152.819 25.3763 152.917 25.9688 153.047 26.5547C153.19 27.1276 153.262 27.7135 153.262 28.3125C153.262 28.4948 153.255 28.6641 153.242 28.8203C153.242 28.9766 153.242 29.1393 153.242 29.3086C153.242 29.4128 153.242 29.5234 153.242 29.6406C153.255 29.7448 153.262 29.849 153.262 29.9531C153.262 30.3307 153.21 30.7083 153.105 31.0859C153.014 31.4635 152.943 31.8411 152.891 32.2188C152.734 32.362 152.598 32.5182 152.48 32.6875C152.376 32.8568 152.266 33.013 152.148 33.1562C152.031 33.2995 151.895 33.4232 151.738 33.5273C151.582 33.6445 151.387 33.7227 151.152 33.7617C151.113 33.8919 151.035 33.9896 150.918 34.0547C150.814 34.1198 150.723 34.2109 150.645 34.3281H150.605C150.28 34.3281 150 34.2826 149.766 34.1914C149.531 34.1003 149.31 33.9961 149.102 33.8789C148.906 33.7617 148.704 33.638 148.496 33.5078C148.288 33.3776 148.047 33.2734 147.773 33.1953C147.409 32.8958 147.077 32.5703 146.777 32.2188C146.478 31.8542 146.139 31.5286 145.762 31.2422C145.671 30.9818 145.547 30.7669 145.391 30.5977C145.247 30.4284 145.104 30.2331 144.961 30.0117C144.896 29.9206 144.844 29.8359 144.805 29.7578C144.779 29.6797 144.74 29.5885 144.688 29.4844C144.648 29.3802 144.583 29.3086 144.492 29.2695C144.414 29.2305 144.342 29.1849 144.277 29.1328C144.173 28.7292 144.023 28.3581 143.828 28.0195C143.633 27.681 143.405 27.3555 143.145 27.043C143.066 27.1862 143.001 27.3424 142.949 27.5117C142.91 27.668 142.871 27.8307 142.832 28C142.793 28.1562 142.741 28.319 142.676 28.4883C142.624 28.6445 142.552 28.7878 142.461 28.918V28.9766C142.461 29.0417 142.487 29.0807 142.539 29.0938C142.591 29.1068 142.617 29.1458 142.617 29.2109C142.617 29.224 142.611 29.237 142.598 29.25C142.598 29.263 142.598 29.276 142.598 29.2891C142.533 29.3411 142.48 29.4062 142.441 29.4844C142.415 29.5625 142.35 29.6081 142.246 29.6211C142.259 29.6862 142.266 29.7513 142.266 29.8164V29.9922C142.266 30.3698 142.22 30.7474 142.129 31.125C142.051 31.5026 142.012 31.8867 142.012 32.2773V32.5312C142.012 32.6224 142.018 32.707 142.031 32.7852C142.057 32.8633 142.096 32.9414 142.148 33.0195C142.201 33.0977 142.227 33.1693 142.227 33.2344C142.227 33.3255 142.188 33.4102 142.109 33.4883C142.201 33.5534 142.305 33.625 142.422 33.7031C142.539 33.7812 142.643 33.8659 142.734 33.957C142.839 34.0612 142.923 34.1654 142.988 34.2695C143.053 34.3867 143.086 34.5104 143.086 34.6406C143.086 34.862 143.014 35.0182 142.871 35.1094C142.728 35.2005 142.552 35.2721 142.344 35.3242C142.148 35.3763 141.94 35.4219 141.719 35.4609C141.51 35.513 141.335 35.5977 141.191 35.7148H141.133C140.977 35.7148 140.859 35.6693 140.781 35.5781C140.703 35.487 140.586 35.4414 140.43 35.4414C140.182 35.0378 140.013 34.582 139.922 34.0742C139.831 33.5794 139.785 33.1042 139.785 32.6484C139.785 32.0885 139.837 31.5286 139.941 30.9688C140.033 30.4089 140.15 29.8555 140.293 29.3086C140.423 28.7617 140.566 28.2214 140.723 27.6875C140.892 27.1406 141.048 26.5938 141.191 26.0469L141.211 25.9883C141.211 25.9232 141.191 25.8776 141.152 25.8516C141.126 25.8255 141.113 25.7865 141.113 25.7344C141.113 25.7083 141.12 25.6953 141.133 25.6953C141.172 25.5651 141.211 25.4414 141.25 25.3242C141.302 25.207 141.341 25.0768 141.367 24.9336C141.445 24.569 141.497 24.1979 141.523 23.8203C141.562 23.4297 141.582 23.0456 141.582 22.668C141.595 22.2904 141.608 21.9128 141.621 21.5352C141.647 21.1445 141.693 20.7604 141.758 20.3828C141.862 20.2786 141.96 20.168 142.051 20.0508C142.142 19.9336 142.259 19.8294 142.402 19.7383C142.663 19.7513 142.923 19.7904 143.184 19.8555C143.444 19.9206 143.691 20.0247 143.926 20.168C144.082 20.7279 144.186 21.2878 144.238 21.8477C144.303 22.4076 144.408 22.9674 144.551 23.5273V23.5859C144.551 23.651 144.583 23.6836 144.648 23.6836C144.727 23.6706 144.785 23.6901 144.824 23.7422C144.798 23.7812 144.779 23.8268 144.766 23.8789C144.766 23.931 144.766 23.9831 144.766 24.0352V24.3672C144.792 24.4714 144.824 24.582 144.863 24.6992C144.902 24.8164 144.987 24.888 145.117 24.9141C145.182 25.3307 145.28 25.7148 145.41 26.0664C145.54 26.418 145.69 26.7565 145.859 27.082C146.029 27.4076 146.211 27.7331 146.406 28.0586C146.602 28.3711 146.803 28.7031 147.012 29.0547C147.337 29.3021 147.617 29.5885 147.852 29.9141C148.086 30.2266 148.32 30.5326 148.555 30.832C148.802 31.1185 149.076 31.3724 149.375 31.5938C149.688 31.8151 150.091 31.9518 150.586 32.0039C150.651 31.9518 150.697 31.8802 150.723 31.7891L150.82 31.5156C150.859 31.4245 150.898 31.3464 150.938 31.2812C150.99 31.2031 151.061 31.1445 151.152 31.1055C151.178 30.7409 151.204 30.3698 151.23 29.9922C151.27 29.6146 151.354 29.2565 151.484 28.918C151.419 28.8008 151.387 28.6576 151.387 28.4883C151.387 28.3581 151.393 28.2344 151.406 28.1172C151.432 28 151.445 27.8828 151.445 27.7656C151.445 27.5182 151.393 27.3164 151.289 27.1602C151.289 27.069 151.296 26.9779 151.309 26.8867C151.322 26.7826 151.361 26.6849 151.426 26.5938C151.322 26.3333 151.237 26.0599 151.172 25.7734C151.12 25.487 151.094 25.194 151.094 24.8945C151.094 24.7253 151.113 24.5495 151.152 24.3672C151.074 24.1719 151.022 23.944 150.996 23.6836L150.918 22.8828C150.892 22.6094 150.853 22.3555 150.801 22.1211C150.749 21.8867 150.651 21.6979 150.508 21.5547C150.586 21.4375 150.625 21.3008 150.625 21.1445C150.625 20.8841 150.586 20.6367 150.508 20.4023C150.43 20.168 150.391 19.9206 150.391 19.6602C150.391 19.4779 150.43 19.2956 150.508 19.1133C150.794 19.1263 151.074 19.1589 151.348 19.2109C151.634 19.25 151.914 19.2695 152.188 19.2695C152.266 19.3737 152.357 19.4583 152.461 19.5234C152.565 19.5885 152.676 19.6536 152.793 19.7188C152.91 19.7708 153.021 19.8294 153.125 19.8945C153.242 19.9596 153.333 20.0508 153.398 20.168ZM167.52 29.8359C167.467 30.0312 167.383 30.194 167.266 30.3242C167.148 30.4544 167.012 30.5716 166.855 30.6758C166.712 30.7799 166.556 30.8776 166.387 30.9688C166.217 31.0469 166.055 31.138 165.898 31.2422H165.645C165.098 31.2422 164.674 31.112 164.375 30.8516C164.089 30.5781 163.867 30.2461 163.711 29.8555C163.555 29.4518 163.438 29.0221 163.359 28.5664C163.294 28.1107 163.21 27.694 163.105 27.3164C162.949 27.4466 162.819 27.6029 162.715 27.7852C162.611 27.9544 162.5 28.1237 162.383 28.293C162.279 28.4622 162.155 28.6185 162.012 28.7617C161.882 28.9049 161.706 29.0026 161.484 29.0547C161.445 29.1458 161.4 29.237 161.348 29.3281C161.309 29.4193 161.283 29.5169 161.27 29.6211C160.983 29.7773 160.723 29.9596 160.488 30.168C160.254 30.3763 160.02 30.5911 159.785 30.8125C159.551 31.0339 159.31 31.2487 159.062 31.457C158.828 31.6523 158.561 31.8151 158.262 31.9453C158.249 31.9323 158.223 31.9258 158.184 31.9258C158.027 31.9258 157.884 31.9648 157.754 32.043C157.624 32.1081 157.48 32.1406 157.324 32.1406C157.22 32.1406 157.122 32.1211 157.031 32.082C156.953 32.043 156.868 31.9974 156.777 31.9453C156.699 31.8932 156.615 31.8542 156.523 31.8281C156.432 31.8021 156.335 31.7956 156.23 31.8086C156.1 31.5742 155.924 31.3594 155.703 31.1641C155.495 30.9557 155.365 30.7214 155.312 30.4609C155.286 30.3438 155.267 30.2266 155.254 30.1094C155.254 29.9792 155.241 29.849 155.215 29.7188C155.176 29.5234 155.124 29.3281 155.059 29.1328C154.993 28.9245 154.941 28.7161 154.902 28.5078C154.967 28.1562 155.033 27.7721 155.098 27.3555C155.15 26.9258 155.215 26.5026 155.293 26.0859C155.384 25.6562 155.501 25.2526 155.645 24.875C155.801 24.4844 155.996 24.1523 156.23 23.8789L156.211 23.7422C156.211 23.5339 156.25 23.3385 156.328 23.1562C156.406 22.974 156.491 22.7982 156.582 22.6289C156.673 22.4596 156.751 22.2904 156.816 22.1211C156.882 21.9518 156.895 21.763 156.855 21.5547C157.012 21.4766 157.174 21.4115 157.344 21.3594C157.513 21.3073 157.689 21.2812 157.871 21.2812C158.04 21.2812 158.197 21.3073 158.34 21.3594C158.314 21.4635 158.359 21.5286 158.477 21.5547V21.6133C158.477 21.8867 158.444 22.1536 158.379 22.4141C158.314 22.6745 158.236 22.9349 158.145 23.1953C158.053 23.4427 157.962 23.6966 157.871 23.957C157.793 24.2044 157.734 24.4583 157.695 24.7188C157.643 24.7318 157.604 24.7578 157.578 24.7969C157.565 24.8359 157.552 24.875 157.539 24.9141C157.526 24.9531 157.507 24.9857 157.48 25.0117C157.454 25.0378 157.415 25.0508 157.363 25.0508C157.285 25.5065 157.201 25.9622 157.109 26.418C157.031 26.8607 156.992 27.3099 156.992 27.7656C156.992 28.0391 157.018 28.319 157.07 28.6055C157.122 28.8919 157.22 29.1654 157.363 29.4258L157.441 29.4062C157.585 29.4062 157.695 29.4388 157.773 29.5039C157.865 29.569 157.982 29.6341 158.125 29.6992C158.229 29.6732 158.327 29.6406 158.418 29.6016C158.509 29.5495 158.548 29.4648 158.535 29.3477C158.704 29.3346 158.848 29.2956 158.965 29.2305C159.082 29.1523 159.186 29.0677 159.277 28.9766L159.57 28.7031C159.674 28.612 159.798 28.5469 159.941 28.5078C159.941 28.4297 159.961 28.3711 160 28.332L160.117 28.2148C160.156 28.1758 160.182 28.1367 160.195 28.0977C160.221 28.0456 160.228 27.974 160.215 27.8828C160.371 27.8698 160.488 27.8307 160.566 27.7656C160.658 27.7005 160.736 27.6289 160.801 27.5508C160.879 27.4596 160.951 27.3685 161.016 27.2773C161.081 27.1862 161.165 27.1081 161.27 27.043C161.361 26.8477 161.484 26.5872 161.641 26.2617C161.81 25.9362 161.973 25.5977 162.129 25.2461C162.298 24.8945 162.441 24.5625 162.559 24.25C162.689 23.9245 162.754 23.6771 162.754 23.5078C162.754 23.4427 162.734 23.3841 162.695 23.332C162.669 23.2799 162.663 23.2214 162.676 23.1562V23.0977C162.78 22.9674 162.871 22.8242 162.949 22.668C163.04 22.5117 163.132 22.362 163.223 22.2188C163.327 22.0755 163.438 21.9453 163.555 21.8281C163.672 21.7109 163.822 21.6198 164.004 21.5547C164.212 21.6198 164.421 21.6654 164.629 21.6914C164.85 21.7174 165.059 21.7695 165.254 21.8477C165.267 22.1732 165.299 22.5508 165.352 22.9805C165.404 23.4102 165.495 23.7747 165.625 24.0742C165.625 24.2435 165.618 24.4062 165.605 24.5625C165.605 24.7188 165.605 24.875 165.605 25.0312C165.605 25.2917 165.612 25.5586 165.625 25.832C165.651 26.1055 165.697 26.3594 165.762 26.5938C165.671 26.7891 165.625 26.9974 165.625 27.2188C165.625 27.5182 165.671 27.8047 165.762 28.0781C165.853 28.3385 165.918 28.6185 165.957 28.918C166.126 29.1523 166.348 29.2695 166.621 29.2695C166.686 29.2695 166.738 29.263 166.777 29.25C166.829 29.237 166.882 29.2174 166.934 29.1914C167.038 29.3086 167.129 29.4258 167.207 29.543C167.298 29.6471 167.402 29.7448 167.52 29.8359Z" fill="#FF5C00"/>
</g>
<defs>
<filter id="filter0_d" x="0" y="0" width="210" height="60" filterUnits="userSpaceOnUse" color-interpolation-filters="sRGB">
<feFlood flood-opacity="0" result="BackgroundImageFix"/>
<feColorMatrix in="SourceAlpha" type="matrix" values="0 0 0 0 0 0 0 0 0 0 0 0 0 0 0 0 0 0 127 0"/>
<feOffset dy="5"/>
<feGaussianBlur stdDeviation="2.5"/>
<feColorMatrix type="matrix" values="0 0 0 0 0 0 0 0 0 0 0 0 0 0 0 0 0 0 0.25 0"/>
<feBlend mode="normal" in2="BackgroundImageFix" result="effect1_dropShadow"/>
<feBlend mode="normal" in="SourceGraphic" in2="effect1_dropShadow" result="shape"/>
</filter>
</defs>
</svg>
