<svg width="200" height="50" viewBox="0 0 200 50" fill="none" xmlns="http://www.w3.org/2000/svg">
<g filter="url(#filter0_i)">
<rect y="6.27612" width="200" height="37.2385" rx="18.6192" fill="#FF5C00"/>
<path d="M57.9492 38.0586C57.9492 38.1758 57.9036 38.2799 57.8125 38.3711C57.7344 38.4622 57.6367 38.5339 57.5195 38.5859C57.4023 38.651 57.2786 38.7096 57.1484 38.7617C57.0312 38.8138 56.9271 38.8594 56.8359 38.8984C56.6927 38.8203 56.543 38.7682 56.3867 38.7422C56.2435 38.7161 56.1133 38.651 55.9961 38.5469H55.8594C55.651 38.5469 55.4883 38.5729 55.3711 38.625C55.1888 38.5599 55.0391 38.4622 54.9219 38.332C54.8047 38.2148 54.694 38.0846 54.5898 37.9414C54.4857 37.8112 54.3815 37.681 54.2773 37.5508C54.1732 37.4206 54.043 37.3099 53.8867 37.2188C53.6523 36.5677 53.444 35.9102 53.2617 35.2461C53.0794 34.582 52.9427 33.9049 52.8516 33.2148C52.8776 33.1497 52.8971 33.0781 52.9102 33C52.9232 32.9219 52.9297 32.8503 52.9297 32.7852C52.9297 32.7331 52.9167 32.681 52.8906 32.6289C52.8776 32.5638 52.8385 32.5247 52.7734 32.5117C52.8385 32.4076 52.8776 32.2904 52.8906 32.1602C52.9167 32.0169 52.9297 31.8867 52.9297 31.7695C52.9297 31.5091 52.9036 31.2943 52.8516 31.125C52.9297 31.0599 52.9622 30.9557 52.9492 30.8125C52.9362 30.6562 52.9688 30.5456 53.0469 30.4805C52.9818 30.2591 52.9492 30.0443 52.9492 29.8359C52.9492 29.5495 52.9818 29.2695 53.0469 28.9961C53.125 28.7227 53.1641 28.4427 53.1641 28.1562C53.1641 28.0911 53.1576 28.026 53.1445 27.9609C53.1445 27.8958 53.138 27.8307 53.125 27.7656C53.1901 27.5573 53.2487 27.349 53.3008 27.1406C53.3659 26.9193 53.3984 26.6979 53.3984 26.4766C53.3984 26.3203 53.3724 26.1901 53.3203 26.0859C53.4896 25.487 53.6068 24.8945 53.6719 24.3086C53.75 23.7096 53.8216 23.1042 53.8867 22.4922C53.8737 22.4661 53.8607 22.4466 53.8477 22.4336C53.8346 22.4206 53.8281 22.401 53.8281 22.375C53.8281 22.3099 53.8607 22.2578 53.9258 22.2188C54.0039 22.1797 54.0365 22.1081 54.0234 22.0039C53.8672 22.1602 53.737 22.3424 53.6328 22.5508C53.5417 22.7591 53.4505 22.9674 53.3594 23.1758C53.2812 23.3841 53.1901 23.5924 53.0859 23.8008C52.9948 23.9961 52.8711 24.1719 52.7148 24.3281C52.7018 24.4714 52.6562 24.6081 52.5781 24.7383C52.513 24.8685 52.4805 25.0117 52.4805 25.168C52.4674 25.168 52.4544 25.168 52.4414 25.168C52.4284 25.1549 52.4089 25.1484 52.3828 25.1484C52.3307 25.1484 52.2917 25.181 52.2656 25.2461C52.2526 25.3112 52.2135 25.3307 52.1484 25.3047C51.849 25.8906 51.5169 26.4635 51.1523 27.0234C50.8008 27.5833 50.3385 28.0326 49.7656 28.3711C49.6615 28.332 49.5638 28.3125 49.4727 28.3125C49.3034 28.3125 49.1341 28.3646 48.9648 28.4688C48.8086 28.5599 48.7044 28.6055 48.6523 28.6055C48.5221 28.6055 48.3594 28.5404 48.1641 28.4102C47.9818 28.2669 47.793 28.1888 47.5977 28.1758C47.3893 28.0326 47.2135 27.8893 47.0703 27.7461C46.9401 27.5898 46.7383 27.4987 46.4648 27.4727C46.2826 27.1992 46.1003 26.9388 45.918 26.6914C45.7487 26.444 45.5794 26.2031 45.4102 25.9688C45.2539 25.7214 45.1107 25.4609 44.9805 25.1875C44.8633 24.9141 44.7721 24.6081 44.707 24.2695C44.7201 24.2435 44.7266 24.2174 44.7266 24.1914C44.7266 24.1133 44.6875 24.0807 44.6094 24.0938C44.5443 24.1068 44.5117 24.0677 44.5117 23.9766V23.8398C44.5117 23.7357 44.4922 23.6445 44.4531 23.5664C44.4271 23.4753 44.4206 23.3776 44.4336 23.2734C44.3424 23.1302 44.2708 22.9805 44.2188 22.8242C44.1667 22.668 44.0755 22.5312 43.9453 22.4141V22.2383C43.9453 22.1602 43.9388 22.0885 43.9258 22.0234C43.9258 21.9453 43.9062 21.8802 43.8672 21.8281C43.8411 21.763 43.7956 21.724 43.7305 21.7109C43.7174 21.2422 43.6198 20.7669 43.4375 20.2852C43.2682 19.7904 43.112 19.3151 42.9688 18.8594C42.8646 19.1979 42.7865 19.543 42.7344 19.8945C42.6823 20.2331 42.6562 20.5781 42.6562 20.9297V21.2617C42.6562 21.3659 42.6693 21.4701 42.6953 21.5742C42.6562 21.6393 42.5977 21.6849 42.5195 21.7109C42.4544 21.737 42.4154 21.7891 42.4023 21.8672C42.3893 21.9323 42.3828 21.9974 42.3828 22.0625C42.3958 22.1276 42.3958 22.1927 42.3828 22.2578C42.3568 22.5703 42.3177 22.8698 42.2656 23.1562C42.1875 23.5859 42.0964 24.0221 41.9922 24.4648C41.888 24.8945 41.8359 25.3372 41.8359 25.793C41.8359 25.819 41.8359 25.8581 41.8359 25.9102C41.849 25.9492 41.8555 25.9818 41.8555 26.0078C41.6471 26.1901 41.5365 26.418 41.5234 26.6914C41.5104 26.9648 41.4779 27.2253 41.4258 27.4727C41.3607 27.8372 41.2826 28.2018 41.1914 28.5664C41.1003 28.918 41.0221 29.2826 40.957 29.6602C40.918 29.8685 40.8854 30.0768 40.8594 30.2852C40.8333 30.4805 40.8073 30.6823 40.7812 30.8906C40.7682 31.0078 40.7227 31.1055 40.6445 31.1836C40.5794 31.2617 40.5339 31.3529 40.5078 31.457C40.4948 31.5482 40.4883 31.6523 40.4883 31.7695C40.5013 31.8737 40.5078 31.9714 40.5078 32.0625C40.5078 32.2188 40.4948 32.3685 40.4688 32.5117C40.4427 32.6419 40.3646 32.7591 40.2344 32.8633C40.2604 33.2018 40.319 33.4883 40.4102 33.7227C40.5013 33.9701 40.6055 34.2435 40.7227 34.543H41.2109V34.6211C41.2109 34.7513 41.2305 34.8685 41.2695 34.9727C41.3216 35.0768 41.4193 35.1224 41.5625 35.1094C41.5495 35.1615 41.543 35.2266 41.543 35.3047C41.543 35.4219 41.5625 35.526 41.6016 35.6172C41.6536 35.7214 41.6927 35.832 41.7188 35.9492C41.4583 36.3789 41.1784 36.6979 40.8789 36.9062C40.5794 37.1146 40.1693 37.2188 39.6484 37.2188H39.3359C39.2708 37.0104 39.1927 36.8086 39.1016 36.6133C39.0104 36.418 38.9193 36.2227 38.8281 36.0273C38.75 35.832 38.6784 35.6302 38.6133 35.4219C38.5612 35.2266 38.5352 35.0182 38.5352 34.7969C38.5352 34.7448 38.5417 34.6927 38.5547 34.6406C38.5677 34.6016 38.5742 34.556 38.5742 34.5039C38.5742 34.4388 38.5482 34.3997 38.4961 34.3867C38.444 34.3737 38.418 34.3086 38.418 34.1914C38.418 34.1003 38.4115 34.0156 38.3984 33.9375C38.3984 33.8594 38.3984 33.7747 38.3984 33.6836C38.3984 33.2539 38.431 32.8307 38.4961 32.4141C38.5612 31.9844 38.6068 31.5547 38.6328 31.125C38.6979 31.0599 38.7305 30.9753 38.7305 30.8711C38.7305 30.7669 38.763 30.6823 38.8281 30.6172V30.4805C38.8281 30.2461 38.8542 30.0117 38.9062 29.7773C38.9583 29.543 39.0169 29.3151 39.082 29.0938C39.1471 28.8724 39.2057 28.6445 39.2578 28.4102C39.3099 28.1758 39.3359 27.9414 39.3359 27.707V27.3945C39.3359 27.3034 39.375 27.2643 39.4531 27.2773C39.5443 27.2773 39.5964 27.2253 39.6094 27.1211C39.6354 26.9388 39.6484 26.763 39.6484 26.5938C39.6615 26.4115 39.681 26.2292 39.707 26.0469C39.7721 25.6953 39.8438 25.3438 39.9219 24.9922C40 24.6276 40.0391 24.263 40.0391 23.8984V23.8398C40.0391 23.8008 40.0716 23.7227 40.1367 23.6055C40.2018 23.4753 40.2344 23.3516 40.2344 23.2344C40.2344 23.1432 40.2148 23.0586 40.1758 22.9805C40.1888 22.9935 40.2148 23 40.2539 23C40.306 23 40.3385 22.987 40.3516 22.9609C40.3776 22.9219 40.4102 22.8893 40.4492 22.8633C40.4102 22.8112 40.3906 22.7591 40.3906 22.707C40.3906 22.6419 40.3971 22.5833 40.4102 22.5312C40.4362 22.4661 40.4492 22.401 40.4492 22.3359C40.4492 22.2448 40.4036 22.1797 40.3125 22.1406C40.4688 21.8542 40.5794 21.5482 40.6445 21.2227C40.7227 20.8971 40.7747 20.5651 40.8008 20.2266C40.8398 19.888 40.8724 19.5495 40.8984 19.2109C40.9245 18.8594 40.9831 18.5273 41.0742 18.2148C41.0482 18.1367 41.0286 18.0521 41.0156 17.9609C41.0156 17.8698 41.0156 17.7852 41.0156 17.707C41.0156 17.6549 41.0091 17.6029 40.9961 17.5508C40.9831 17.4857 40.9896 17.4271 41.0156 17.375C41.0156 17.349 41.0221 17.3164 41.0352 17.2773L41.0742 17.1602C41.1003 17.069 41.1133 16.9779 41.1133 16.8867C41.1263 16.7826 41.1393 16.6784 41.1523 16.5742C41.1784 16.2747 41.1849 15.9688 41.1719 15.6562C41.1719 15.3438 41.1849 15.0312 41.2109 14.7188C41.1719 14.6667 41.1328 14.6276 41.0938 14.6016C41.0547 14.5625 41.0286 14.5104 41.0156 14.4453C41.1198 14.263 41.2305 14.0938 41.3477 13.9375C41.4779 13.7682 41.6471 13.638 41.8555 13.5469C41.8945 13.6901 41.9987 13.7617 42.168 13.7617C42.2461 13.7617 42.3438 13.7422 42.4609 13.7031C42.5781 13.6641 42.6562 13.612 42.6953 13.5469C42.9167 13.625 43.138 13.6641 43.3594 13.6641C43.5938 13.651 43.8086 13.7031 44.0039 13.8203C44.043 14.0156 44.0951 14.2174 44.1602 14.4258C44.2253 14.6341 44.3164 14.8229 44.4336 14.9922C44.4596 15.1615 44.4857 15.3698 44.5117 15.6172C44.5378 15.8516 44.5638 16.099 44.5898 16.3594C44.6159 16.6068 44.6549 16.8477 44.707 17.082C44.7591 17.3034 44.8307 17.4792 44.9219 17.6094C44.9349 17.8438 44.974 18.0781 45.0391 18.3125C45.1042 18.5469 45.1758 18.7747 45.2539 18.9961C45.332 19.2044 45.3971 19.3997 45.4492 19.582C45.5143 19.7643 45.5469 19.9141 45.5469 20.0312C45.5469 20.1354 45.5273 20.207 45.4883 20.2461C45.4622 20.2721 45.4362 20.3242 45.4102 20.4023C45.4622 20.5456 45.5339 20.6693 45.625 20.7734C45.7161 20.8646 45.8138 20.9753 45.918 21.1055C46.1133 21.8477 46.3672 22.5703 46.6797 23.2734C46.9922 23.9766 47.3698 24.6536 47.8125 25.3047C47.9297 25.3177 48.0208 25.3503 48.0859 25.4023C48.1641 25.4544 48.2812 25.4674 48.4375 25.4414V25.5781C48.4375 25.7083 48.4635 25.7995 48.5156 25.8516C48.6328 25.9297 48.7695 25.9688 48.9258 25.9688C49.0951 25.9688 49.2253 25.9232 49.3164 25.832C49.4206 25.7279 49.5182 25.6107 49.6094 25.4805C49.7005 25.3503 49.7917 25.2266 49.8828 25.1094C49.974 24.9922 50.0977 24.9141 50.2539 24.875V24.8359C50.2539 24.7318 50.2734 24.6471 50.3125 24.582C50.3646 24.5039 50.3906 24.4193 50.3906 24.3281C50.5339 24.224 50.6445 24.0938 50.7227 23.9375C50.8008 23.7812 50.8724 23.625 50.9375 23.4688C51.0026 23.2995 51.0742 23.1432 51.1523 23C51.2435 22.8568 51.3607 22.7396 51.5039 22.6484C51.6862 22.0885 51.9076 21.5677 52.168 21.0859C52.4284 20.6042 52.7018 20.1159 52.9883 19.6211C52.9883 19.582 52.9818 19.543 52.9688 19.5039C52.9557 19.4518 52.9492 19.4062 52.9492 19.3672C52.9492 19.3542 52.9622 19.2956 52.9883 19.1914C53.0534 19.0612 53.112 18.9375 53.1641 18.8203C53.2161 18.7031 53.2617 18.5729 53.3008 18.4297C53.431 18.026 53.5482 17.6289 53.6523 17.2383C53.7695 16.8477 53.9388 16.4766 54.1602 16.125V15.6367C54.3945 15.168 54.5573 14.6732 54.6484 14.1523C54.7526 13.6315 54.8763 13.1237 55.0195 12.6289C55.0456 12.4857 55.0911 12.3424 55.1562 12.1992C55.2344 12.043 55.3255 11.9323 55.4297 11.8672C55.3906 11.7891 55.3711 11.7109 55.3711 11.6328C55.3711 11.5286 55.3841 11.4375 55.4102 11.3594C55.4492 11.2682 55.4818 11.1771 55.5078 11.0859C55.4688 10.9948 55.4492 10.8776 55.4492 10.7344C55.4492 10.5521 55.5013 10.3828 55.6055 10.2266C55.7096 10.0573 55.8659 9.94661 56.0742 9.89453C56.2044 9.93359 56.3151 9.9987 56.4062 10.0898C56.4974 10.181 56.582 10.2786 56.6602 10.3828C56.7513 10.474 56.8424 10.5521 56.9336 10.6172C57.0378 10.6693 57.168 10.6823 57.3242 10.6562C57.4284 10.8516 57.5 11.0599 57.5391 11.2812C57.5781 11.4896 57.5977 11.7044 57.5977 11.9258C57.5977 12.2253 57.5716 12.5378 57.5195 12.8633C57.4674 13.1758 57.4479 13.4948 57.4609 13.8203C57.3568 14.0286 57.2786 14.2565 57.2266 14.5039C57.1875 14.7383 57.1484 14.9792 57.1094 15.2266C57.0703 15.474 57.0247 15.7148 56.9727 15.9492C56.9206 16.1836 56.8294 16.4049 56.6992 16.6133C56.6602 17.1992 56.6146 17.7721 56.5625 18.332C56.5234 18.8919 56.4583 19.4518 56.3672 20.0117L56.1914 21.125C56.1654 21.2161 56.1393 21.3203 56.1133 21.4375C56.0872 21.5417 56.0742 21.6328 56.0742 21.7109C56.0742 21.7891 56.0807 21.8737 56.0938 21.9648C56.1068 22.043 56.1458 22.1016 56.2109 22.1406C56.1198 22.2708 56.0547 22.4271 56.0156 22.6094C55.9766 22.7917 55.9375 22.987 55.8984 23.1953L55.8008 23.8008C55.7747 23.9961 55.7227 24.1719 55.6445 24.3281V24.543C55.6445 25.0638 55.5534 25.5977 55.3711 26.1445V26.2422C55.3711 26.3073 55.3646 26.3659 55.3516 26.418C55.3516 26.457 55.3516 26.5091 55.3516 26.5742C55.3516 26.6654 55.3776 26.737 55.4297 26.7891C55.3255 27.1276 55.2279 27.4792 55.1367 27.8438C55.0456 28.1953 54.9805 28.5599 54.9414 28.9375C54.9023 29.4453 54.8958 29.9661 54.9219 30.5C54.9479 31.0208 54.8828 31.5286 54.7266 32.0234C54.8047 32.2578 54.8568 32.5117 54.8828 32.7852L54.9609 33.6055C54.987 33.8789 55.026 34.1393 55.0781 34.3867C55.1432 34.6471 55.2604 34.862 55.4297 35.0312C55.4427 35.0573 55.4492 35.0964 55.4492 35.1484C55.4492 35.2526 55.4232 35.3307 55.3711 35.3828C55.3971 35.513 55.4427 35.6237 55.5078 35.7148C55.5729 35.806 55.638 35.8906 55.7031 35.9688C55.7682 36.0599 55.8203 36.1576 55.8594 36.2617C55.9115 36.3659 55.9375 36.4961 55.9375 36.6523C56.0417 36.7956 56.2044 36.9062 56.4258 36.9844C56.6471 37.0625 56.8685 37.1406 57.0898 37.2188C57.3242 37.2969 57.526 37.3945 57.6953 37.5117C57.8646 37.6419 57.9492 37.8242 57.9492 38.0586ZM73.5352 31.5742C73.4961 31.7565 73.4115 31.9062 73.2812 32.0234C73.1641 32.1276 73.0208 32.2122 72.8516 32.2773C72.6823 32.3424 72.5065 32.388 72.3242 32.4141C72.1549 32.4271 71.9987 32.4336 71.8555 32.4336C71.7904 32.4336 71.7253 32.4336 71.6602 32.4336C71.6081 32.4206 71.5495 32.4141 71.4844 32.4141C71.4193 32.4141 71.3867 32.4466 71.3867 32.5117C71.3867 32.5768 71.3542 32.6224 71.2891 32.6484C71.224 32.6224 71.1589 32.6029 71.0938 32.5898C71.0286 32.5768 70.9635 32.5703 70.8984 32.5703C70.8073 32.5703 70.7161 32.5768 70.625 32.5898C70.5469 32.6029 70.4688 32.6094 70.3906 32.6094C70.2865 32.6094 70.2083 32.5964 70.1562 32.5703C70.1172 32.5443 70.0781 32.5182 70.0391 32.4922C70.013 32.4531 69.9805 32.4141 69.9414 32.375C69.9154 32.3359 69.8698 32.3034 69.8047 32.2773C69.7135 32.2383 69.6354 32.2318 69.5703 32.2578C69.5182 32.2839 69.4336 32.2448 69.3164 32.1406C69.1602 32.0104 69.0234 31.8542 68.9062 31.6719C68.8021 31.4766 68.6979 31.2747 68.5938 31.0664C68.4896 30.8581 68.3789 30.6497 68.2617 30.4414C68.1445 30.2331 68.0078 30.0508 67.8516 29.8945H67.6953C67.4609 29.8945 67.2982 29.9922 67.207 30.1875C67.1419 30.1484 67.0768 30.1029 67.0117 30.0508C66.9466 29.9857 66.875 29.9336 66.7969 29.8945C66.4974 29.9857 66.1849 30.0638 65.8594 30.1289C65.5339 30.194 65.2083 30.2266 64.8828 30.2266H64.6094C64.5312 30.2266 64.4466 30.2135 64.3555 30.1875C64.2253 30.2396 64.1081 30.3047 64.0039 30.3828C63.8997 30.4479 63.7826 30.4805 63.6523 30.4805C63.5742 30.4805 63.4831 30.4544 63.3789 30.4023C63.3008 30.4023 63.2617 30.4349 63.2617 30.5C63.2747 30.5651 63.2357 30.5977 63.1445 30.5977H62.9688C62.7865 30.5977 62.6042 30.6042 62.4219 30.6172C62.2526 30.6302 62.0768 30.6367 61.8945 30.6367C61.6471 30.6367 61.3932 30.6042 61.1328 30.5391C61.0677 30.5781 60.9961 30.5977 60.918 30.5977C60.8659 30.6237 60.8268 30.6693 60.8008 30.7344C60.7747 30.7865 60.7487 30.8385 60.7227 30.8906C60.6966 30.9297 60.6576 30.9688 60.6055 31.0078C60.5664 31.0339 60.5078 31.0404 60.4297 31.0273C60.4036 31.1836 60.3385 31.3073 60.2344 31.3984C60.1302 31.4896 60.0781 31.6263 60.0781 31.8086C59.9349 31.8867 59.8177 31.9844 59.7266 32.1016C59.6354 32.2188 59.5443 32.3424 59.4531 32.4727C59.362 32.6029 59.2643 32.7266 59.1602 32.8438C59.069 32.9609 58.9518 33.0521 58.8086 33.1172C58.7435 33.1953 58.724 33.319 58.75 33.4883C58.6068 33.6055 58.431 33.7096 58.2227 33.8008C58.0143 33.8919 57.819 33.9375 57.6367 33.9375C57.2591 33.9375 56.9987 33.7357 56.8555 33.332C56.8555 33.2018 56.8685 33.0651 56.8945 32.9219C56.9076 32.7656 56.9336 32.6224 56.9727 32.4922C57.0117 32.349 57.0703 32.2253 57.1484 32.1211C57.2266 32.0039 57.3372 31.9193 57.4805 31.8672C57.4805 31.75 57.4414 31.6719 57.3633 31.6328C57.2852 31.5807 57.2526 31.4961 57.2656 31.3789C57.6172 31.2096 57.9232 30.9883 58.1836 30.7148C58.444 30.4414 58.6784 30.1549 58.8867 29.8555C59.1081 29.543 59.3294 29.2305 59.5508 28.918C59.7721 28.6055 60.0195 28.3255 60.293 28.0781V27.668C60.6836 27.2513 60.9375 26.7826 61.0547 26.2617C61.1979 26.2357 61.2891 26.1706 61.3281 26.0664C61.3802 25.9622 61.4062 25.8385 61.4062 25.6953C61.4714 25.6953 61.5104 25.6693 61.5234 25.6172C61.5495 25.5521 61.6081 25.5326 61.6992 25.5586C61.8164 25.2461 61.9466 24.9596 62.0898 24.6992C62.2331 24.4388 62.3763 24.1784 62.5195 23.918C62.6628 23.6445 62.7865 23.3646 62.8906 23.0781C63.0078 22.7917 63.0924 22.4727 63.1445 22.1211C63.3268 22.1081 63.4245 22.0234 63.4375 21.8672C63.4635 21.6979 63.4896 21.5482 63.5156 21.418C63.7109 21.2357 63.8542 21.0208 63.9453 20.7734C64.0495 20.526 64.1406 20.2721 64.2188 20.0117C64.2969 19.7383 64.3815 19.4714 64.4727 19.2109C64.5768 18.9375 64.7201 18.6966 64.9023 18.4883V18.4297C64.9023 18.3646 64.8763 18.3255 64.8242 18.3125C64.7721 18.2865 64.7461 18.2409 64.7461 18.1758C64.7591 18.1628 64.7656 18.1497 64.7656 18.1367C64.9219 18.0716 65.0391 17.9674 65.1172 17.8242C65.1953 17.668 65.3125 17.5573 65.4688 17.4922C65.7422 17.7135 65.9831 17.8503 66.1914 17.9023C66.3997 17.9414 66.6732 17.974 67.0117 18C67.181 18.1823 67.2721 18.4036 67.2852 18.6641C67.3112 18.9115 67.3568 19.1589 67.4219 19.4062C67.526 19.8229 67.6367 20.2331 67.7539 20.6367C67.8841 21.0273 67.9818 21.431 68.0469 21.8477C68.0859 22.0951 68.1576 22.3294 68.2617 22.5508C68.3659 22.7721 68.4375 23 68.4766 23.2344C68.5026 23.4167 68.5026 23.625 68.4766 23.8594C68.4505 24.0807 68.4766 24.276 68.5547 24.4453L68.6914 24.7578C68.7565 24.901 68.8086 25.0508 68.8477 25.207C68.8997 25.3633 68.9453 25.5195 68.9844 25.6758C69.0885 26.0664 69.1797 26.4896 69.2578 26.9453C69.349 27.388 69.4857 27.7917 69.668 28.1562C69.7331 28.2865 69.8307 28.3776 69.9609 28.4297C70.1042 28.4818 70.2604 28.5208 70.4297 28.5469C70.599 28.5599 70.7617 28.5664 70.918 28.5664C71.0872 28.5534 71.2305 28.5469 71.3477 28.5469H71.543C71.6211 28.5469 71.6992 28.5599 71.7773 28.5859C71.8294 28.6901 71.8555 28.7812 71.8555 28.8594C71.8555 29.0156 71.8034 29.1393 71.6992 29.2305C71.5951 29.3216 71.543 29.4258 71.543 29.543C71.543 29.6081 71.569 29.6797 71.6211 29.7578C71.569 29.7448 71.4909 29.7383 71.3867 29.7383C71.0872 29.7383 70.7943 29.7904 70.5078 29.8945C70.612 30.1159 70.7487 30.3047 70.918 30.4609C71.1003 30.6042 71.2891 30.7409 71.4844 30.8711C71.6146 30.7669 71.7513 30.7148 71.8945 30.7148C72.0508 30.7148 72.194 30.7539 72.3242 30.832C72.4674 30.8971 72.6172 30.9297 72.7734 30.9297C72.8906 30.9297 72.9753 30.9102 73.0273 30.8711C73.1315 30.9883 73.2161 31.112 73.2812 31.2422C73.3464 31.3594 73.431 31.4701 73.5352 31.5742ZM67.4219 28.4492C67.3958 28.2279 67.3503 28.0716 67.2852 27.9805C67.2331 27.8763 67.1875 27.7526 67.1484 27.6094C67.0964 27.4271 67.0573 27.2318 67.0312 27.0234C67.0182 26.8151 66.9922 26.6133 66.9531 26.418C66.862 25.9753 66.7578 25.5326 66.6406 25.0898C66.5365 24.6471 66.3997 24.2174 66.2305 23.8008C66.2826 23.7227 66.3086 23.651 66.3086 23.5859V23.5273C66.1914 23.3971 66.1068 23.2409 66.0547 23.0586C66.0026 22.8633 65.9505 22.6745 65.8984 22.4922C65.8594 22.2969 65.8008 22.1211 65.7227 21.9648C65.6576 21.7956 65.5469 21.6589 65.3906 21.5547C65.3516 21.6328 65.332 21.724 65.332 21.8281C65.332 21.9193 65.3385 22.0039 65.3516 22.082C65.3776 22.1602 65.3906 22.2448 65.3906 22.3359C65.2604 22.401 65.1628 22.5052 65.0977 22.6484C65.0456 22.7786 64.9544 22.8828 64.8242 22.9609C64.7201 23.3776 64.5703 23.7747 64.375 24.1523C64.1797 24.5169 63.9714 24.8815 63.75 25.2461C63.5417 25.6107 63.3398 25.9818 63.1445 26.3594C62.9492 26.724 62.793 27.1081 62.6758 27.5117C62.5065 27.6289 62.3893 27.7786 62.3242 27.9609C62.2721 28.1432 62.2461 28.3255 62.2461 28.5078C62.3633 28.5729 62.4935 28.612 62.6367 28.625C62.793 28.625 62.9427 28.625 63.0859 28.625C63.2292 28.625 63.3659 28.638 63.4961 28.6641C63.6263 28.6901 63.7435 28.7552 63.8477 28.8594C64.0169 28.8073 64.1992 28.7747 64.3945 28.7617C64.6029 28.7357 64.7721 28.6771 64.9023 28.5859C65.1628 28.6771 65.4427 28.7227 65.7422 28.7227C65.8984 28.7227 66.0482 28.7096 66.1914 28.6836C66.3477 28.6576 66.4974 28.625 66.6406 28.5859C66.7578 28.612 66.849 28.6576 66.9141 28.7227C66.9792 28.7747 67.0768 28.7943 67.207 28.7812C67.2721 28.7292 67.3112 28.6771 67.3242 28.625C67.3372 28.5599 67.3698 28.5013 67.4219 28.4492ZM77.5977 30.3242C77.5326 30.4284 77.4544 30.526 77.3633 30.6172C77.2721 30.6953 77.1875 30.7799 77.1094 30.8711C77.0182 30.9102 76.9141 30.9297 76.7969 30.9297C76.6927 30.9297 76.5885 30.9297 76.4844 30.9297C76.3932 30.9167 76.3021 30.9167 76.2109 30.9297C76.1328 30.9297 76.0677 30.9557 76.0156 31.0078C75.9115 30.9818 75.8333 30.9362 75.7812 30.8711C75.7292 30.793 75.638 30.7474 75.5078 30.7344C75.4557 30.7214 75.4036 30.7214 75.3516 30.7344C75.1562 30.513 74.974 30.2786 74.8047 30.0312C74.6484 29.7839 74.4987 29.5495 74.3555 29.3281C74.3424 28.8464 74.3034 28.3581 74.2383 27.8633C74.2253 27.7461 74.2057 27.6289 74.1797 27.5117C74.1536 27.3945 74.1341 27.2839 74.1211 27.1797C74.1211 27.0495 74.1276 26.9258 74.1406 26.8086C74.1667 26.6784 74.1862 26.5612 74.1992 26.457C74.2513 26.0794 74.3099 25.7083 74.375 25.3438C74.4401 24.9792 74.4987 24.6081 74.5508 24.2305C74.6029 23.8919 74.6289 23.5404 74.6289 23.1758C74.6289 22.7982 74.5703 22.4466 74.4531 22.1211L74.4336 22.0234C74.4596 21.9193 74.4857 21.8346 74.5117 21.7695C74.5508 21.6914 74.5768 21.6068 74.5898 21.5156C74.6159 21.3724 74.5833 21.2682 74.4922 21.2031C74.5312 21.099 74.5964 21.0339 74.6875 21.0078C74.7786 20.9688 74.8307 20.8906 74.8438 20.7734C74.8568 20.7214 74.8568 20.6693 74.8438 20.6172C74.9479 20.5781 75.0521 20.5456 75.1562 20.5195C75.2734 20.4805 75.3841 20.474 75.4883 20.5C75.6576 20.526 75.8073 20.5846 75.9375 20.6758C76.0677 20.7539 76.1914 20.8451 76.3086 20.9492C76.5169 21.5742 76.6016 22.2383 76.5625 22.9414C76.5234 23.6315 76.4583 24.3281 76.3672 25.0312C76.276 25.7344 76.2174 26.4245 76.1914 27.1016C76.1654 27.7656 76.2695 28.3841 76.5039 28.957L76.543 28.9766C76.6081 28.9896 76.6602 28.9701 76.6992 28.918C76.7383 28.8529 76.7904 28.8268 76.8555 28.8398C76.9076 28.8659 76.9401 28.8789 76.9531 28.8789C77.0052 29.1393 77.0898 29.3867 77.207 29.6211C77.3242 29.8555 77.4544 30.0898 77.5977 30.3242ZM92.3047 20.168C92.2786 20.3242 92.2396 20.4609 92.1875 20.5781C92.1484 20.6823 92.1419 20.8255 92.168 21.0078C92.0378 21.0208 91.9336 21.0664 91.8555 21.1445C91.7904 21.2096 91.7318 21.2878 91.6797 21.3789C91.6406 21.4701 91.5951 21.5677 91.543 21.6719C91.5039 21.763 91.4518 21.8477 91.3867 21.9258C91.4909 22.3945 91.5495 22.8698 91.5625 23.3516C91.5755 23.8333 91.6081 24.3086 91.6602 24.7773C91.7253 25.3763 91.8229 25.9688 91.9531 26.5547C92.0964 27.1276 92.168 27.7135 92.168 28.3125C92.168 28.4948 92.1615 28.6641 92.1484 28.8203C92.1484 28.9766 92.1484 29.1393 92.1484 29.3086C92.1484 29.4128 92.1484 29.5234 92.1484 29.6406C92.1615 29.7448 92.168 29.849 92.168 29.9531C92.168 30.3307 92.1159 30.7083 92.0117 31.0859C91.9206 31.4635 91.849 31.8411 91.7969 32.2188C91.6406 32.362 91.5039 32.5182 91.3867 32.6875C91.2826 32.8568 91.1719 33.013 91.0547 33.1562C90.9375 33.2995 90.8008 33.4232 90.6445 33.5273C90.4883 33.6445 90.293 33.7227 90.0586 33.7617C90.0195 33.8919 89.9414 33.9896 89.8242 34.0547C89.7201 34.1198 89.6289 34.2109 89.5508 34.3281H89.5117C89.1862 34.3281 88.9062 34.2826 88.6719 34.1914C88.4375 34.1003 88.2161 33.9961 88.0078 33.8789C87.8125 33.7617 87.6107 33.638 87.4023 33.5078C87.194 33.3776 86.9531 33.2734 86.6797 33.1953C86.3151 32.8958 85.9831 32.5703 85.6836 32.2188C85.3841 31.8542 85.0456 31.5286 84.668 31.2422C84.5768 30.9818 84.4531 30.7669 84.2969 30.5977C84.1536 30.4284 84.0104 30.2331 83.8672 30.0117C83.8021 29.9206 83.75 29.8359 83.7109 29.7578C83.6849 29.6797 83.6458 29.5885 83.5938 29.4844C83.5547 29.3802 83.4896 29.3086 83.3984 29.2695C83.3203 29.2305 83.2487 29.1849 83.1836 29.1328C83.0794 28.7292 82.9297 28.3581 82.7344 28.0195C82.5391 27.681 82.3112 27.3555 82.0508 27.043C81.9727 27.1862 81.9076 27.3424 81.8555 27.5117C81.8164 27.668 81.7773 27.8307 81.7383 28C81.6992 28.1562 81.6471 28.319 81.582 28.4883C81.5299 28.6445 81.4583 28.7878 81.3672 28.918V28.9766C81.3672 29.0417 81.3932 29.0807 81.4453 29.0938C81.4974 29.1068 81.5234 29.1458 81.5234 29.2109C81.5234 29.224 81.5169 29.237 81.5039 29.25C81.5039 29.263 81.5039 29.276 81.5039 29.2891C81.4388 29.3411 81.3867 29.4062 81.3477 29.4844C81.3216 29.5625 81.2565 29.6081 81.1523 29.6211C81.1654 29.6862 81.1719 29.7513 81.1719 29.8164V29.9922C81.1719 30.3698 81.1263 30.7474 81.0352 31.125C80.957 31.5026 80.918 31.8867 80.918 32.2773V32.5312C80.918 32.6224 80.9245 32.707 80.9375 32.7852C80.9635 32.8633 81.0026 32.9414 81.0547 33.0195C81.1068 33.0977 81.1328 33.1693 81.1328 33.2344C81.1328 33.3255 81.0938 33.4102 81.0156 33.4883C81.1068 33.5534 81.2109 33.625 81.3281 33.7031C81.4453 33.7812 81.5495 33.8659 81.6406 33.957C81.7448 34.0612 81.8294 34.1654 81.8945 34.2695C81.9596 34.3867 81.9922 34.5104 81.9922 34.6406C81.9922 34.862 81.9206 35.0182 81.7773 35.1094C81.6341 35.2005 81.4583 35.2721 81.25 35.3242C81.0547 35.3763 80.8464 35.4219 80.625 35.4609C80.4167 35.513 80.2409 35.5977 80.0977 35.7148H80.0391C79.8828 35.7148 79.7656 35.6693 79.6875 35.5781C79.6094 35.487 79.4922 35.4414 79.3359 35.4414C79.0885 35.0378 78.9193 34.582 78.8281 34.0742C78.737 33.5794 78.6914 33.1042 78.6914 32.6484C78.6914 32.0885 78.7435 31.5286 78.8477 30.9688C78.9388 30.4089 79.056 29.8555 79.1992 29.3086C79.3294 28.7617 79.4727 28.2214 79.6289 27.6875C79.7982 27.1406 79.9544 26.5938 80.0977 26.0469L80.1172 25.9883C80.1172 25.9232 80.0977 25.8776 80.0586 25.8516C80.0326 25.8255 80.0195 25.7865 80.0195 25.7344C80.0195 25.7083 80.026 25.6953 80.0391 25.6953C80.0781 25.5651 80.1172 25.4414 80.1562 25.3242C80.2083 25.207 80.2474 25.0768 80.2734 24.9336C80.3516 24.569 80.4036 24.1979 80.4297 23.8203C80.4688 23.4297 80.4883 23.0456 80.4883 22.668C80.5013 22.2904 80.5143 21.9128 80.5273 21.5352C80.5534 21.1445 80.599 20.7604 80.6641 20.3828C80.7682 20.2786 80.8659 20.168 80.957 20.0508C81.0482 19.9336 81.1654 19.8294 81.3086 19.7383C81.569 19.7513 81.8294 19.7904 82.0898 19.8555C82.3503 19.9206 82.5977 20.0247 82.832 20.168C82.9883 20.7279 83.0924 21.2878 83.1445 21.8477C83.2096 22.4076 83.3138 22.9674 83.457 23.5273V23.5859C83.457 23.651 83.4896 23.6836 83.5547 23.6836C83.6328 23.6706 83.6914 23.6901 83.7305 23.7422C83.7044 23.7812 83.6849 23.8268 83.6719 23.8789C83.6719 23.931 83.6719 23.9831 83.6719 24.0352V24.3672C83.6979 24.4714 83.7305 24.582 83.7695 24.6992C83.8086 24.8164 83.8932 24.888 84.0234 24.9141C84.0885 25.3307 84.1862 25.7148 84.3164 26.0664C84.4466 26.418 84.5964 26.7565 84.7656 27.082C84.9349 27.4076 85.1172 27.7331 85.3125 28.0586C85.5078 28.3711 85.7096 28.7031 85.918 29.0547C86.2435 29.3021 86.5234 29.5885 86.7578 29.9141C86.9922 30.2266 87.2266 30.5326 87.4609 30.832C87.7083 31.1185 87.9818 31.3724 88.2812 31.5938C88.5938 31.8151 88.9974 31.9518 89.4922 32.0039C89.5573 31.9518 89.6029 31.8802 89.6289 31.7891L89.7266 31.5156C89.7656 31.4245 89.8047 31.3464 89.8438 31.2812C89.8958 31.2031 89.9674 31.1445 90.0586 31.1055C90.0846 30.7409 90.1107 30.3698 90.1367 29.9922C90.1758 29.6146 90.2604 29.2565 90.3906 28.918C90.3255 28.8008 90.293 28.6576 90.293 28.4883C90.293 28.3581 90.2995 28.2344 90.3125 28.1172C90.3385 28 90.3516 27.8828 90.3516 27.7656C90.3516 27.5182 90.2995 27.3164 90.1953 27.1602C90.1953 27.069 90.2018 26.9779 90.2148 26.8867C90.2279 26.7826 90.2669 26.6849 90.332 26.5938C90.2279 26.3333 90.1432 26.0599 90.0781 25.7734C90.026 25.487 90 25.194 90 24.8945C90 24.7253 90.0195 24.5495 90.0586 24.3672C89.9805 24.1719 89.9284 23.944 89.9023 23.6836L89.8242 22.8828C89.7982 22.6094 89.7591 22.3555 89.707 22.1211C89.6549 21.8867 89.5573 21.6979 89.4141 21.5547C89.4922 21.4375 89.5312 21.3008 89.5312 21.1445C89.5312 20.8841 89.4922 20.6367 89.4141 20.4023C89.3359 20.168 89.2969 19.9206 89.2969 19.6602C89.2969 19.4779 89.3359 19.2956 89.4141 19.1133C89.7005 19.1263 89.9805 19.1589 90.2539 19.2109C90.5404 19.25 90.8203 19.2695 91.0938 19.2695C91.1719 19.3737 91.263 19.4583 91.3672 19.5234C91.4714 19.5885 91.582 19.6536 91.6992 19.7188C91.8164 19.7708 91.9271 19.8294 92.0312 19.8945C92.1484 19.9596 92.2396 20.0508 92.3047 20.168ZM123.066 38.0586C123.066 38.1758 123.021 38.2799 122.93 38.3711C122.852 38.4622 122.754 38.5339 122.637 38.5859C122.52 38.651 122.396 38.7096 122.266 38.7617C122.148 38.8138 122.044 38.8594 121.953 38.8984C121.81 38.8203 121.66 38.7682 121.504 38.7422C121.361 38.7161 121.23 38.651 121.113 38.5469H120.977C120.768 38.5469 120.605 38.5729 120.488 38.625C120.306 38.5599 120.156 38.4622 120.039 38.332C119.922 38.2148 119.811 38.0846 119.707 37.9414C119.603 37.8112 119.499 37.681 119.395 37.5508C119.29 37.4206 119.16 37.3099 119.004 37.2188C118.77 36.5677 118.561 35.9102 118.379 35.2461C118.197 34.582 118.06 33.9049 117.969 33.2148C117.995 33.1497 118.014 33.0781 118.027 33C118.04 32.9219 118.047 32.8503 118.047 32.7852C118.047 32.7331 118.034 32.681 118.008 32.6289C117.995 32.5638 117.956 32.5247 117.891 32.5117C117.956 32.4076 117.995 32.2904 118.008 32.1602C118.034 32.0169 118.047 31.8867 118.047 31.7695C118.047 31.5091 118.021 31.2943 117.969 31.125C118.047 31.0599 118.079 30.9557 118.066 30.8125C118.053 30.6562 118.086 30.5456 118.164 30.4805C118.099 30.2591 118.066 30.0443 118.066 29.8359C118.066 29.5495 118.099 29.2695 118.164 28.9961C118.242 28.7227 118.281 28.4427 118.281 28.1562C118.281 28.0911 118.275 28.026 118.262 27.9609C118.262 27.8958 118.255 27.8307 118.242 27.7656C118.307 27.5573 118.366 27.349 118.418 27.1406C118.483 26.9193 118.516 26.6979 118.516 26.4766C118.516 26.3203 118.49 26.1901 118.438 26.0859C118.607 25.487 118.724 24.8945 118.789 24.3086C118.867 23.7096 118.939 23.1042 119.004 22.4922C118.991 22.4661 118.978 22.4466 118.965 22.4336C118.952 22.4206 118.945 22.401 118.945 22.375C118.945 22.3099 118.978 22.2578 119.043 22.2188C119.121 22.1797 119.154 22.1081 119.141 22.0039C118.984 22.1602 118.854 22.3424 118.75 22.5508C118.659 22.7591 118.568 22.9674 118.477 23.1758C118.398 23.3841 118.307 23.5924 118.203 23.8008C118.112 23.9961 117.988 24.1719 117.832 24.3281C117.819 24.4714 117.773 24.6081 117.695 24.7383C117.63 24.8685 117.598 25.0117 117.598 25.168C117.585 25.168 117.572 25.168 117.559 25.168C117.546 25.1549 117.526 25.1484 117.5 25.1484C117.448 25.1484 117.409 25.181 117.383 25.2461C117.37 25.3112 117.331 25.3307 117.266 25.3047C116.966 25.8906 116.634 26.4635 116.27 27.0234C115.918 27.5833 115.456 28.0326 114.883 28.3711C114.779 28.332 114.681 28.3125 114.59 28.3125C114.421 28.3125 114.251 28.3646 114.082 28.4688C113.926 28.5599 113.822 28.6055 113.77 28.6055C113.639 28.6055 113.477 28.5404 113.281 28.4102C113.099 28.2669 112.91 28.1888 112.715 28.1758C112.507 28.0326 112.331 27.8893 112.188 27.7461C112.057 27.5898 111.855 27.4987 111.582 27.4727C111.4 27.1992 111.217 26.9388 111.035 26.6914C110.866 26.444 110.697 26.2031 110.527 25.9688C110.371 25.7214 110.228 25.4609 110.098 25.1875C109.98 24.9141 109.889 24.6081 109.824 24.2695C109.837 24.2435 109.844 24.2174 109.844 24.1914C109.844 24.1133 109.805 24.0807 109.727 24.0938C109.661 24.1068 109.629 24.0677 109.629 23.9766V23.8398C109.629 23.7357 109.609 23.6445 109.57 23.5664C109.544 23.4753 109.538 23.3776 109.551 23.2734C109.46 23.1302 109.388 22.9805 109.336 22.8242C109.284 22.668 109.193 22.5312 109.062 22.4141V22.2383C109.062 22.1602 109.056 22.0885 109.043 22.0234C109.043 21.9453 109.023 21.8802 108.984 21.8281C108.958 21.763 108.913 21.724 108.848 21.7109C108.835 21.2422 108.737 20.7669 108.555 20.2852C108.385 19.7904 108.229 19.3151 108.086 18.8594C107.982 19.1979 107.904 19.543 107.852 19.8945C107.799 20.2331 107.773 20.5781 107.773 20.9297V21.2617C107.773 21.3659 107.786 21.4701 107.812 21.5742C107.773 21.6393 107.715 21.6849 107.637 21.7109C107.572 21.737 107.533 21.7891 107.52 21.8672C107.507 21.9323 107.5 21.9974 107.5 22.0625C107.513 22.1276 107.513 22.1927 107.5 22.2578C107.474 22.5703 107.435 22.8698 107.383 23.1562C107.305 23.5859 107.214 24.0221 107.109 24.4648C107.005 24.8945 106.953 25.3372 106.953 25.793C106.953 25.819 106.953 25.8581 106.953 25.9102C106.966 25.9492 106.973 25.9818 106.973 26.0078C106.764 26.1901 106.654 26.418 106.641 26.6914C106.628 26.9648 106.595 27.2253 106.543 27.4727C106.478 27.8372 106.4 28.2018 106.309 28.5664C106.217 28.918 106.139 29.2826 106.074 29.6602C106.035 29.8685 106.003 30.0768 105.977 30.2852C105.951 30.4805 105.924 30.6823 105.898 30.8906C105.885 31.0078 105.84 31.1055 105.762 31.1836C105.697 31.2617 105.651 31.3529 105.625 31.457C105.612 31.5482 105.605 31.6523 105.605 31.7695C105.618 31.8737 105.625 31.9714 105.625 32.0625C105.625 32.2188 105.612 32.3685 105.586 32.5117C105.56 32.6419 105.482 32.7591 105.352 32.8633C105.378 33.2018 105.436 33.4883 105.527 33.7227C105.618 33.9701 105.723 34.2435 105.84 34.543H106.328V34.6211C106.328 34.7513 106.348 34.8685 106.387 34.9727C106.439 35.0768 106.536 35.1224 106.68 35.1094C106.667 35.1615 106.66 35.2266 106.66 35.3047C106.66 35.4219 106.68 35.526 106.719 35.6172C106.771 35.7214 106.81 35.832 106.836 35.9492C106.576 36.3789 106.296 36.6979 105.996 36.9062C105.697 37.1146 105.286 37.2188 104.766 37.2188H104.453C104.388 37.0104 104.31 36.8086 104.219 36.6133C104.128 36.418 104.036 36.2227 103.945 36.0273C103.867 35.832 103.796 35.6302 103.73 35.4219C103.678 35.2266 103.652 35.0182 103.652 34.7969C103.652 34.7448 103.659 34.6927 103.672 34.6406C103.685 34.6016 103.691 34.556 103.691 34.5039C103.691 34.4388 103.665 34.3997 103.613 34.3867C103.561 34.3737 103.535 34.3086 103.535 34.1914C103.535 34.1003 103.529 34.0156 103.516 33.9375C103.516 33.8594 103.516 33.7747 103.516 33.6836C103.516 33.2539 103.548 32.8307 103.613 32.4141C103.678 31.9844 103.724 31.5547 103.75 31.125C103.815 31.0599 103.848 30.9753 103.848 30.8711C103.848 30.7669 103.88 30.6823 103.945 30.6172V30.4805C103.945 30.2461 103.971 30.0117 104.023 29.7773C104.076 29.543 104.134 29.3151 104.199 29.0938C104.264 28.8724 104.323 28.6445 104.375 28.4102C104.427 28.1758 104.453 27.9414 104.453 27.707V27.3945C104.453 27.3034 104.492 27.2643 104.57 27.2773C104.661 27.2773 104.714 27.2253 104.727 27.1211C104.753 26.9388 104.766 26.763 104.766 26.5938C104.779 26.4115 104.798 26.2292 104.824 26.0469C104.889 25.6953 104.961 25.3438 105.039 24.9922C105.117 24.6276 105.156 24.263 105.156 23.8984V23.8398C105.156 23.8008 105.189 23.7227 105.254 23.6055C105.319 23.4753 105.352 23.3516 105.352 23.2344C105.352 23.1432 105.332 23.0586 105.293 22.9805C105.306 22.9935 105.332 23 105.371 23C105.423 23 105.456 22.987 105.469 22.9609C105.495 22.9219 105.527 22.8893 105.566 22.8633C105.527 22.8112 105.508 22.7591 105.508 22.707C105.508 22.6419 105.514 22.5833 105.527 22.5312C105.553 22.4661 105.566 22.401 105.566 22.3359C105.566 22.2448 105.521 22.1797 105.43 22.1406C105.586 21.8542 105.697 21.5482 105.762 21.2227C105.84 20.8971 105.892 20.5651 105.918 20.2266C105.957 19.888 105.99 19.5495 106.016 19.2109C106.042 18.8594 106.1 18.5273 106.191 18.2148C106.165 18.1367 106.146 18.0521 106.133 17.9609C106.133 17.8698 106.133 17.7852 106.133 17.707C106.133 17.6549 106.126 17.6029 106.113 17.5508C106.1 17.4857 106.107 17.4271 106.133 17.375C106.133 17.349 106.139 17.3164 106.152 17.2773L106.191 17.1602C106.217 17.069 106.23 16.9779 106.23 16.8867C106.243 16.7826 106.257 16.6784 106.27 16.5742C106.296 16.2747 106.302 15.9688 106.289 15.6562C106.289 15.3438 106.302 15.0312 106.328 14.7188C106.289 14.6667 106.25 14.6276 106.211 14.6016C106.172 14.5625 106.146 14.5104 106.133 14.4453C106.237 14.263 106.348 14.0938 106.465 13.9375C106.595 13.7682 106.764 13.638 106.973 13.5469C107.012 13.6901 107.116 13.7617 107.285 13.7617C107.363 13.7617 107.461 13.7422 107.578 13.7031C107.695 13.6641 107.773 13.612 107.812 13.5469C108.034 13.625 108.255 13.6641 108.477 13.6641C108.711 13.651 108.926 13.7031 109.121 13.8203C109.16 14.0156 109.212 14.2174 109.277 14.4258C109.342 14.6341 109.434 14.8229 109.551 14.9922C109.577 15.1615 109.603 15.3698 109.629 15.6172C109.655 15.8516 109.681 16.099 109.707 16.3594C109.733 16.6068 109.772 16.8477 109.824 17.082C109.876 17.3034 109.948 17.4792 110.039 17.6094C110.052 17.8438 110.091 18.0781 110.156 18.3125C110.221 18.5469 110.293 18.7747 110.371 18.9961C110.449 19.2044 110.514 19.3997 110.566 19.582C110.632 19.7643 110.664 19.9141 110.664 20.0312C110.664 20.1354 110.645 20.207 110.605 20.2461C110.579 20.2721 110.553 20.3242 110.527 20.4023C110.579 20.5456 110.651 20.6693 110.742 20.7734C110.833 20.8646 110.931 20.9753 111.035 21.1055C111.23 21.8477 111.484 22.5703 111.797 23.2734C112.109 23.9766 112.487 24.6536 112.93 25.3047C113.047 25.3177 113.138 25.3503 113.203 25.4023C113.281 25.4544 113.398 25.4674 113.555 25.4414V25.5781C113.555 25.7083 113.581 25.7995 113.633 25.8516C113.75 25.9297 113.887 25.9688 114.043 25.9688C114.212 25.9688 114.342 25.9232 114.434 25.832C114.538 25.7279 114.635 25.6107 114.727 25.4805C114.818 25.3503 114.909 25.2266 115 25.1094C115.091 24.9922 115.215 24.9141 115.371 24.875V24.8359C115.371 24.7318 115.391 24.6471 115.43 24.582C115.482 24.5039 115.508 24.4193 115.508 24.3281C115.651 24.224 115.762 24.0938 115.84 23.9375C115.918 23.7812 115.99 23.625 116.055 23.4688C116.12 23.2995 116.191 23.1432 116.27 23C116.361 22.8568 116.478 22.7396 116.621 22.6484C116.803 22.0885 117.025 21.5677 117.285 21.0859C117.546 20.6042 117.819 20.1159 118.105 19.6211C118.105 19.582 118.099 19.543 118.086 19.5039C118.073 19.4518 118.066 19.4062 118.066 19.3672C118.066 19.3542 118.079 19.2956 118.105 19.1914C118.171 19.0612 118.229 18.9375 118.281 18.8203C118.333 18.7031 118.379 18.5729 118.418 18.4297C118.548 18.026 118.665 17.6289 118.77 17.2383C118.887 16.8477 119.056 16.4766 119.277 16.125V15.6367C119.512 15.168 119.674 14.6732 119.766 14.1523C119.87 13.6315 119.993 13.1237 120.137 12.6289C120.163 12.4857 120.208 12.3424 120.273 12.1992C120.352 12.043 120.443 11.9323 120.547 11.8672C120.508 11.7891 120.488 11.7109 120.488 11.6328C120.488 11.5286 120.501 11.4375 120.527 11.3594C120.566 11.2682 120.599 11.1771 120.625 11.0859C120.586 10.9948 120.566 10.8776 120.566 10.7344C120.566 10.5521 120.618 10.3828 120.723 10.2266C120.827 10.0573 120.983 9.94661 121.191 9.89453C121.322 9.93359 121.432 9.9987 121.523 10.0898C121.615 10.181 121.699 10.2786 121.777 10.3828C121.868 10.474 121.96 10.5521 122.051 10.6172C122.155 10.6693 122.285 10.6823 122.441 10.6562C122.546 10.8516 122.617 11.0599 122.656 11.2812C122.695 11.4896 122.715 11.7044 122.715 11.9258C122.715 12.2253 122.689 12.5378 122.637 12.8633C122.585 13.1758 122.565 13.4948 122.578 13.8203C122.474 14.0286 122.396 14.2565 122.344 14.5039C122.305 14.7383 122.266 14.9792 122.227 15.2266C122.188 15.474 122.142 15.7148 122.09 15.9492C122.038 16.1836 121.947 16.4049 121.816 16.6133C121.777 17.1992 121.732 17.7721 121.68 18.332C121.641 18.8919 121.576 19.4518 121.484 20.0117L121.309 21.125C121.283 21.2161 121.257 21.3203 121.23 21.4375C121.204 21.5417 121.191 21.6328 121.191 21.7109C121.191 21.7891 121.198 21.8737 121.211 21.9648C121.224 22.043 121.263 22.1016 121.328 22.1406C121.237 22.2708 121.172 22.4271 121.133 22.6094C121.094 22.7917 121.055 22.987 121.016 23.1953L120.918 23.8008C120.892 23.9961 120.84 24.1719 120.762 24.3281V24.543C120.762 25.0638 120.671 25.5977 120.488 26.1445V26.2422C120.488 26.3073 120.482 26.3659 120.469 26.418C120.469 26.457 120.469 26.5091 120.469 26.5742C120.469 26.6654 120.495 26.737 120.547 26.7891C120.443 27.1276 120.345 27.4792 120.254 27.8438C120.163 28.1953 120.098 28.5599 120.059 28.9375C120.02 29.4453 120.013 29.9661 120.039 30.5C120.065 31.0208 120 31.5286 119.844 32.0234C119.922 32.2578 119.974 32.5117 120 32.7852L120.078 33.6055C120.104 33.8789 120.143 34.1393 120.195 34.3867C120.26 34.6471 120.378 34.862 120.547 35.0312C120.56 35.0573 120.566 35.0964 120.566 35.1484C120.566 35.2526 120.54 35.3307 120.488 35.3828C120.514 35.513 120.56 35.6237 120.625 35.7148C120.69 35.806 120.755 35.8906 120.82 35.9688C120.885 36.0599 120.938 36.1576 120.977 36.2617C121.029 36.3659 121.055 36.4961 121.055 36.6523C121.159 36.7956 121.322 36.9062 121.543 36.9844C121.764 37.0625 121.986 37.1406 122.207 37.2188C122.441 37.2969 122.643 37.3945 122.812 37.5117C122.982 37.6419 123.066 37.8242 123.066 38.0586ZM136.484 20.5781V20.6562C136.393 20.6823 136.348 20.7474 136.348 20.8516C136.204 20.9167 136.055 20.9688 135.898 21.0078C135.742 21.0339 135.592 21.0794 135.449 21.1445C135.306 21.1315 135.156 21.125 135 21.125C134.857 21.112 134.714 21.1055 134.57 21.1055C134.18 21.1055 133.789 21.1185 133.398 21.1445C133.008 21.1706 132.617 21.1706 132.227 21.1445C132.044 21.2487 131.842 21.3333 131.621 21.3984C131.413 21.4505 131.211 21.4766 131.016 21.4766C130.859 21.4766 130.723 21.457 130.605 21.418C130.293 21.5742 129.948 21.7044 129.57 21.8086C129.206 21.9128 128.835 22.0169 128.457 22.1211C128.079 22.2122 127.715 22.3229 127.363 22.4531C127.025 22.5703 126.725 22.7396 126.465 22.9609C126.439 23.1432 126.419 23.3255 126.406 23.5078C126.393 23.6771 126.387 23.8464 126.387 24.0156C126.387 24.1979 126.393 24.3672 126.406 24.5234C126.432 24.6797 126.478 24.8359 126.543 24.9922C126.608 25.0182 126.68 25.0378 126.758 25.0508C126.849 25.0638 126.927 25.0703 126.992 25.0703C127.057 25.0703 127.122 25.0638 127.188 25.0508C127.253 25.0247 127.298 24.9792 127.324 24.9141C127.52 24.888 127.715 24.8815 127.91 24.8945C128.105 24.8945 128.301 24.8945 128.496 24.8945C128.691 24.8945 128.88 24.888 129.062 24.875C129.258 24.862 129.447 24.8294 129.629 24.7773C129.837 24.7253 130.039 24.6927 130.234 24.6797C130.443 24.6667 130.645 24.6536 130.84 24.6406C131.035 24.6276 131.237 24.6081 131.445 24.582C131.654 24.543 131.868 24.4714 132.09 24.3672C132.259 24.4323 132.428 24.4648 132.598 24.4648C132.78 24.4648 132.956 24.4779 133.125 24.5039C133.216 24.569 133.288 24.6406 133.34 24.7188C133.405 24.7969 133.438 24.888 133.438 24.9922C133.438 25.1745 133.372 25.3568 133.242 25.5391C133.112 25.7214 133.008 25.8906 132.93 26.0469H132.715C132.402 26.0469 132.096 26.0924 131.797 26.1836C131.51 26.2617 131.217 26.3594 130.918 26.4766C130.632 26.5807 130.339 26.6784 130.039 26.7695C129.753 26.8477 129.453 26.8867 129.141 26.8867C129.089 26.8867 129.056 26.9193 129.043 26.9844C129.043 27.0365 129.03 27.0755 129.004 27.1016C128.939 27.0885 128.841 27.082 128.711 27.082C128.411 27.082 128.125 27.1146 127.852 27.1797C127.578 27.2448 127.298 27.2773 127.012 27.2773C126.934 27.2773 126.855 27.2773 126.777 27.2773C126.699 27.2643 126.621 27.2513 126.543 27.2383C126.478 27.3424 126.393 27.4141 126.289 27.4531C126.185 27.4792 126.087 27.5312 125.996 27.6094C125.957 27.7266 125.931 27.8698 125.918 28.0391C125.918 28.2083 125.911 28.3841 125.898 28.5664C125.898 28.7357 125.885 28.8984 125.859 29.0547C125.833 29.2109 125.781 29.3346 125.703 29.4258C125.716 29.4909 125.768 29.5169 125.859 29.5039C125.951 29.4779 125.996 29.5169 125.996 29.6211C125.996 29.7383 125.983 29.862 125.957 29.9922C125.931 30.1224 125.918 30.2526 125.918 30.3828C125.918 30.6302 125.944 30.9036 125.996 31.2031C126.061 31.4896 126.152 31.7565 126.27 32.0039C126.4 32.2513 126.569 32.4596 126.777 32.6289C126.986 32.7852 127.246 32.8633 127.559 32.8633C127.767 32.8633 127.962 32.8242 128.145 32.7461C128.327 32.668 128.477 32.5378 128.594 32.3555L128.691 32.3359C128.743 32.3359 128.789 32.3424 128.828 32.3555C128.88 32.3685 128.932 32.375 128.984 32.375C129.062 32.375 129.16 32.3294 129.277 32.2383C129.408 32.1341 129.544 32.0169 129.688 31.8867C129.844 31.7565 130 31.6328 130.156 31.5156C130.312 31.3854 130.462 31.2943 130.605 31.2422C130.697 31.0599 130.781 30.8776 130.859 30.6953C130.951 30.513 131.081 30.3698 131.25 30.2656V29.6992C131.38 29.556 131.517 29.4258 131.66 29.3086C131.816 29.1914 131.934 29.0417 132.012 28.8594C132.077 28.8854 132.135 28.9049 132.188 28.918C132.253 28.931 132.318 28.9375 132.383 28.9375C132.448 28.9375 132.513 28.931 132.578 28.918C132.656 28.9049 132.728 28.8854 132.793 28.8594C132.897 29.0026 132.975 29.1654 133.027 29.3477C133.092 29.5169 133.171 29.6797 133.262 29.8359C133.145 30.0703 133.008 30.3503 132.852 30.6758C132.695 31.0013 132.526 31.3268 132.344 31.6523C132.161 31.9779 131.966 32.2904 131.758 32.5898C131.562 32.8763 131.367 33.0977 131.172 33.2539C131.133 33.293 131.048 33.3385 130.918 33.3906C130.775 33.4948 130.645 33.5924 130.527 33.6836C130.41 33.7878 130.299 33.9049 130.195 34.0352C129.818 34.1523 129.453 34.3086 129.102 34.5039C128.763 34.6992 128.424 34.888 128.086 35.0703C127.93 35.0312 127.76 35.0117 127.578 35.0117C127.422 35.0117 127.266 35.0182 127.109 35.0312C126.953 35.0573 126.784 35.0703 126.602 35.0703C126.549 35.0052 126.471 34.9596 126.367 34.9336C126.276 34.9206 126.243 34.8555 126.27 34.7383C125.827 34.7122 125.469 34.5885 125.195 34.3672C124.922 34.1589 124.688 33.8984 124.492 33.5859C124.31 33.2734 124.16 32.9349 124.043 32.5703C123.926 32.2057 123.802 31.8542 123.672 31.5156V31.457C123.672 31.3919 123.698 31.3529 123.75 31.3398C123.802 31.3268 123.828 31.2878 123.828 31.2227C123.828 31.1966 123.822 31.1771 123.809 31.1641C123.77 31.0208 123.737 30.8971 123.711 30.793C123.685 30.6888 123.672 30.5651 123.672 30.4219C123.672 30.2135 123.685 30.0117 123.711 29.8164C123.737 29.6081 123.75 29.3997 123.75 29.1914C123.75 28.9831 123.724 28.8008 123.672 28.6445C123.724 28.5794 123.77 28.4948 123.809 28.3906C123.835 28.2734 123.854 28.1562 123.867 28.0391C123.88 27.9219 123.887 27.8047 123.887 27.6875C123.9 27.5703 123.919 27.4661 123.945 27.375C123.893 27.2318 123.848 27.1081 123.809 27.0039C123.77 26.8867 123.75 26.75 123.75 26.5938V26.457C123.88 26.2357 123.991 26.0078 124.082 25.7734C124.173 25.5391 124.271 25.2982 124.375 25.0508V24.9922C124.375 24.6146 124.362 24.237 124.336 23.8594C124.31 23.4818 124.297 23.1042 124.297 22.7266V22.3555C124.297 22.2253 124.303 22.1016 124.316 21.9844C124.421 21.9323 124.499 21.8607 124.551 21.7695C124.603 21.6784 124.681 21.6068 124.785 21.5547H125.43L125.547 21.3594C125.586 21.2943 125.612 21.2227 125.625 21.1445C125.768 21.1055 125.905 21.0534 126.035 20.9883C126.178 20.9102 126.309 20.832 126.426 20.7539C126.608 20.6497 126.771 20.5586 126.914 20.4805C127.07 20.3893 127.22 20.3177 127.363 20.2656C127.52 20.2005 127.682 20.1484 127.852 20.1094C128.021 20.0703 128.216 20.0378 128.438 20.0117C128.542 20.0117 128.607 19.9922 128.633 19.9531C128.672 19.9141 128.724 19.8685 128.789 19.8164C128.945 19.8424 129.102 19.8685 129.258 19.8945C129.414 19.9076 129.57 19.9141 129.727 19.9141C130.039 19.9141 130.332 19.8555 130.605 19.7383C130.996 19.7383 131.38 19.7318 131.758 19.7188C132.148 19.7057 132.539 19.6992 132.93 19.6992C133.268 19.6992 133.607 19.7122 133.945 19.7383C134.284 19.7643 134.616 19.8099 134.941 19.875C135.059 19.8359 135.189 19.8164 135.332 19.8164C135.488 19.8164 135.645 19.8359 135.801 19.875C135.97 19.901 136.133 19.901 136.289 19.875C136.302 20.0182 136.335 20.1419 136.387 20.2461C136.452 20.3372 136.484 20.4479 136.484 20.5781ZM148.398 20.168C148.372 20.3242 148.333 20.4609 148.281 20.5781C148.242 20.6823 148.236 20.8255 148.262 21.0078C148.132 21.0208 148.027 21.0664 147.949 21.1445C147.884 21.2096 147.826 21.2878 147.773 21.3789C147.734 21.4701 147.689 21.5677 147.637 21.6719C147.598 21.763 147.546 21.8477 147.48 21.9258C147.585 22.3945 147.643 22.8698 147.656 23.3516C147.669 23.8333 147.702 24.3086 147.754 24.7773C147.819 25.3763 147.917 25.9688 148.047 26.5547C148.19 27.1276 148.262 27.7135 148.262 28.3125C148.262 28.4948 148.255 28.6641 148.242 28.8203C148.242 28.9766 148.242 29.1393 148.242 29.3086C148.242 29.4128 148.242 29.5234 148.242 29.6406C148.255 29.7448 148.262 29.849 148.262 29.9531C148.262 30.3307 148.21 30.7083 148.105 31.0859C148.014 31.4635 147.943 31.8411 147.891 32.2188C147.734 32.362 147.598 32.5182 147.48 32.6875C147.376 32.8568 147.266 33.013 147.148 33.1562C147.031 33.2995 146.895 33.4232 146.738 33.5273C146.582 33.6445 146.387 33.7227 146.152 33.7617C146.113 33.8919 146.035 33.9896 145.918 34.0547C145.814 34.1198 145.723 34.2109 145.645 34.3281H145.605C145.28 34.3281 145 34.2826 144.766 34.1914C144.531 34.1003 144.31 33.9961 144.102 33.8789C143.906 33.7617 143.704 33.638 143.496 33.5078C143.288 33.3776 143.047 33.2734 142.773 33.1953C142.409 32.8958 142.077 32.5703 141.777 32.2188C141.478 31.8542 141.139 31.5286 140.762 31.2422C140.671 30.9818 140.547 30.7669 140.391 30.5977C140.247 30.4284 140.104 30.2331 139.961 30.0117C139.896 29.9206 139.844 29.8359 139.805 29.7578C139.779 29.6797 139.74 29.5885 139.688 29.4844C139.648 29.3802 139.583 29.3086 139.492 29.2695C139.414 29.2305 139.342 29.1849 139.277 29.1328C139.173 28.7292 139.023 28.3581 138.828 28.0195C138.633 27.681 138.405 27.3555 138.145 27.043C138.066 27.1862 138.001 27.3424 137.949 27.5117C137.91 27.668 137.871 27.8307 137.832 28C137.793 28.1562 137.741 28.319 137.676 28.4883C137.624 28.6445 137.552 28.7878 137.461 28.918V28.9766C137.461 29.0417 137.487 29.0807 137.539 29.0938C137.591 29.1068 137.617 29.1458 137.617 29.2109C137.617 29.224 137.611 29.237 137.598 29.25C137.598 29.263 137.598 29.276 137.598 29.2891C137.533 29.3411 137.48 29.4062 137.441 29.4844C137.415 29.5625 137.35 29.6081 137.246 29.6211C137.259 29.6862 137.266 29.7513 137.266 29.8164V29.9922C137.266 30.3698 137.22 30.7474 137.129 31.125C137.051 31.5026 137.012 31.8867 137.012 32.2773V32.5312C137.012 32.6224 137.018 32.707 137.031 32.7852C137.057 32.8633 137.096 32.9414 137.148 33.0195C137.201 33.0977 137.227 33.1693 137.227 33.2344C137.227 33.3255 137.188 33.4102 137.109 33.4883C137.201 33.5534 137.305 33.625 137.422 33.7031C137.539 33.7812 137.643 33.8659 137.734 33.957C137.839 34.0612 137.923 34.1654 137.988 34.2695C138.053 34.3867 138.086 34.5104 138.086 34.6406C138.086 34.862 138.014 35.0182 137.871 35.1094C137.728 35.2005 137.552 35.2721 137.344 35.3242C137.148 35.3763 136.94 35.4219 136.719 35.4609C136.51 35.513 136.335 35.5977 136.191 35.7148H136.133C135.977 35.7148 135.859 35.6693 135.781 35.5781C135.703 35.487 135.586 35.4414 135.43 35.4414C135.182 35.0378 135.013 34.582 134.922 34.0742C134.831 33.5794 134.785 33.1042 134.785 32.6484C134.785 32.0885 134.837 31.5286 134.941 30.9688C135.033 30.4089 135.15 29.8555 135.293 29.3086C135.423 28.7617 135.566 28.2214 135.723 27.6875C135.892 27.1406 136.048 26.5938 136.191 26.0469L136.211 25.9883C136.211 25.9232 136.191 25.8776 136.152 25.8516C136.126 25.8255 136.113 25.7865 136.113 25.7344C136.113 25.7083 136.12 25.6953 136.133 25.6953C136.172 25.5651 136.211 25.4414 136.25 25.3242C136.302 25.207 136.341 25.0768 136.367 24.9336C136.445 24.569 136.497 24.1979 136.523 23.8203C136.562 23.4297 136.582 23.0456 136.582 22.668C136.595 22.2904 136.608 21.9128 136.621 21.5352C136.647 21.1445 136.693 20.7604 136.758 20.3828C136.862 20.2786 136.96 20.168 137.051 20.0508C137.142 19.9336 137.259 19.8294 137.402 19.7383C137.663 19.7513 137.923 19.7904 138.184 19.8555C138.444 19.9206 138.691 20.0247 138.926 20.168C139.082 20.7279 139.186 21.2878 139.238 21.8477C139.303 22.4076 139.408 22.9674 139.551 23.5273V23.5859C139.551 23.651 139.583 23.6836 139.648 23.6836C139.727 23.6706 139.785 23.6901 139.824 23.7422C139.798 23.7812 139.779 23.8268 139.766 23.8789C139.766 23.931 139.766 23.9831 139.766 24.0352V24.3672C139.792 24.4714 139.824 24.582 139.863 24.6992C139.902 24.8164 139.987 24.888 140.117 24.9141C140.182 25.3307 140.28 25.7148 140.41 26.0664C140.54 26.418 140.69 26.7565 140.859 27.082C141.029 27.4076 141.211 27.7331 141.406 28.0586C141.602 28.3711 141.803 28.7031 142.012 29.0547C142.337 29.3021 142.617 29.5885 142.852 29.9141C143.086 30.2266 143.32 30.5326 143.555 30.832C143.802 31.1185 144.076 31.3724 144.375 31.5938C144.688 31.8151 145.091 31.9518 145.586 32.0039C145.651 31.9518 145.697 31.8802 145.723 31.7891L145.82 31.5156C145.859 31.4245 145.898 31.3464 145.938 31.2812C145.99 31.2031 146.061 31.1445 146.152 31.1055C146.178 30.7409 146.204 30.3698 146.23 29.9922C146.27 29.6146 146.354 29.2565 146.484 28.918C146.419 28.8008 146.387 28.6576 146.387 28.4883C146.387 28.3581 146.393 28.2344 146.406 28.1172C146.432 28 146.445 27.8828 146.445 27.7656C146.445 27.5182 146.393 27.3164 146.289 27.1602C146.289 27.069 146.296 26.9779 146.309 26.8867C146.322 26.7826 146.361 26.6849 146.426 26.5938C146.322 26.3333 146.237 26.0599 146.172 25.7734C146.12 25.487 146.094 25.194 146.094 24.8945C146.094 24.7253 146.113 24.5495 146.152 24.3672C146.074 24.1719 146.022 23.944 145.996 23.6836L145.918 22.8828C145.892 22.6094 145.853 22.3555 145.801 22.1211C145.749 21.8867 145.651 21.6979 145.508 21.5547C145.586 21.4375 145.625 21.3008 145.625 21.1445C145.625 20.8841 145.586 20.6367 145.508 20.4023C145.43 20.168 145.391 19.9206 145.391 19.6602C145.391 19.4779 145.43 19.2956 145.508 19.1133C145.794 19.1263 146.074 19.1589 146.348 19.2109C146.634 19.25 146.914 19.2695 147.188 19.2695C147.266 19.3737 147.357 19.4583 147.461 19.5234C147.565 19.5885 147.676 19.6536 147.793 19.7188C147.91 19.7708 148.021 19.8294 148.125 19.8945C148.242 19.9596 148.333 20.0508 148.398 20.168ZM162.52 29.8359C162.467 30.0312 162.383 30.194 162.266 30.3242C162.148 30.4544 162.012 30.5716 161.855 30.6758C161.712 30.7799 161.556 30.8776 161.387 30.9688C161.217 31.0469 161.055 31.138 160.898 31.2422H160.645C160.098 31.2422 159.674 31.112 159.375 30.8516C159.089 30.5781 158.867 30.2461 158.711 29.8555C158.555 29.4518 158.438 29.0221 158.359 28.5664C158.294 28.1107 158.21 27.694 158.105 27.3164C157.949 27.4466 157.819 27.6029 157.715 27.7852C157.611 27.9544 157.5 28.1237 157.383 28.293C157.279 28.4622 157.155 28.6185 157.012 28.7617C156.882 28.9049 156.706 29.0026 156.484 29.0547C156.445 29.1458 156.4 29.237 156.348 29.3281C156.309 29.4193 156.283 29.5169 156.27 29.6211C155.983 29.7773 155.723 29.9596 155.488 30.168C155.254 30.3763 155.02 30.5911 154.785 30.8125C154.551 31.0339 154.31 31.2487 154.062 31.457C153.828 31.6523 153.561 31.8151 153.262 31.9453C153.249 31.9323 153.223 31.9258 153.184 31.9258C153.027 31.9258 152.884 31.9648 152.754 32.043C152.624 32.1081 152.48 32.1406 152.324 32.1406C152.22 32.1406 152.122 32.1211 152.031 32.082C151.953 32.043 151.868 31.9974 151.777 31.9453C151.699 31.8932 151.615 31.8542 151.523 31.8281C151.432 31.8021 151.335 31.7956 151.23 31.8086C151.1 31.5742 150.924 31.3594 150.703 31.1641C150.495 30.9557 150.365 30.7214 150.312 30.4609C150.286 30.3438 150.267 30.2266 150.254 30.1094C150.254 29.9792 150.241 29.849 150.215 29.7188C150.176 29.5234 150.124 29.3281 150.059 29.1328C149.993 28.9245 149.941 28.7161 149.902 28.5078C149.967 28.1562 150.033 27.7721 150.098 27.3555C150.15 26.9258 150.215 26.5026 150.293 26.0859C150.384 25.6562 150.501 25.2526 150.645 24.875C150.801 24.4844 150.996 24.1523 151.23 23.8789L151.211 23.7422C151.211 23.5339 151.25 23.3385 151.328 23.1562C151.406 22.974 151.491 22.7982 151.582 22.6289C151.673 22.4596 151.751 22.2904 151.816 22.1211C151.882 21.9518 151.895 21.763 151.855 21.5547C152.012 21.4766 152.174 21.4115 152.344 21.3594C152.513 21.3073 152.689 21.2812 152.871 21.2812C153.04 21.2812 153.197 21.3073 153.34 21.3594C153.314 21.4635 153.359 21.5286 153.477 21.5547V21.6133C153.477 21.8867 153.444 22.1536 153.379 22.4141C153.314 22.6745 153.236 22.9349 153.145 23.1953C153.053 23.4427 152.962 23.6966 152.871 23.957C152.793 24.2044 152.734 24.4583 152.695 24.7188C152.643 24.7318 152.604 24.7578 152.578 24.7969C152.565 24.8359 152.552 24.875 152.539 24.9141C152.526 24.9531 152.507 24.9857 152.48 25.0117C152.454 25.0378 152.415 25.0508 152.363 25.0508C152.285 25.5065 152.201 25.9622 152.109 26.418C152.031 26.8607 151.992 27.3099 151.992 27.7656C151.992 28.0391 152.018 28.319 152.07 28.6055C152.122 28.8919 152.22 29.1654 152.363 29.4258L152.441 29.4062C152.585 29.4062 152.695 29.4388 152.773 29.5039C152.865 29.569 152.982 29.6341 153.125 29.6992C153.229 29.6732 153.327 29.6406 153.418 29.6016C153.509 29.5495 153.548 29.4648 153.535 29.3477C153.704 29.3346 153.848 29.2956 153.965 29.2305C154.082 29.1523 154.186 29.0677 154.277 28.9766L154.57 28.7031C154.674 28.612 154.798 28.5469 154.941 28.5078C154.941 28.4297 154.961 28.3711 155 28.332L155.117 28.2148C155.156 28.1758 155.182 28.1367 155.195 28.0977C155.221 28.0456 155.228 27.974 155.215 27.8828C155.371 27.8698 155.488 27.8307 155.566 27.7656C155.658 27.7005 155.736 27.6289 155.801 27.5508C155.879 27.4596 155.951 27.3685 156.016 27.2773C156.081 27.1862 156.165 27.1081 156.27 27.043C156.361 26.8477 156.484 26.5872 156.641 26.2617C156.81 25.9362 156.973 25.5977 157.129 25.2461C157.298 24.8945 157.441 24.5625 157.559 24.25C157.689 23.9245 157.754 23.6771 157.754 23.5078C157.754 23.4427 157.734 23.3841 157.695 23.332C157.669 23.2799 157.663 23.2214 157.676 23.1562V23.0977C157.78 22.9674 157.871 22.8242 157.949 22.668C158.04 22.5117 158.132 22.362 158.223 22.2188C158.327 22.0755 158.438 21.9453 158.555 21.8281C158.672 21.7109 158.822 21.6198 159.004 21.5547C159.212 21.6198 159.421 21.6654 159.629 21.6914C159.85 21.7174 160.059 21.7695 160.254 21.8477C160.267 22.1732 160.299 22.5508 160.352 22.9805C160.404 23.4102 160.495 23.7747 160.625 24.0742C160.625 24.2435 160.618 24.4062 160.605 24.5625C160.605 24.7188 160.605 24.875 160.605 25.0312C160.605 25.2917 160.612 25.5586 160.625 25.832C160.651 26.1055 160.697 26.3594 160.762 26.5938C160.671 26.7891 160.625 26.9974 160.625 27.2188C160.625 27.5182 160.671 27.8047 160.762 28.0781C160.853 28.3385 160.918 28.6185 160.957 28.918C161.126 29.1523 161.348 29.2695 161.621 29.2695C161.686 29.2695 161.738 29.263 161.777 29.25C161.829 29.237 161.882 29.2174 161.934 29.1914C162.038 29.3086 162.129 29.4258 162.207 29.543C162.298 29.6471 162.402 29.7448 162.52 29.8359Z" fill="white"/>
</g>
<defs>
<filter id="filter0_i" x="0" y="0" width="200" height="53" filterUnits="userSpaceOnUse" color-interpolation-filters="sRGB">
<feFlood flood-opacity="0" result="BackgroundImageFix"/>
<feBlend mode="normal" in="SourceGraphic" in2="BackgroundImageFix" result="shape"/>
<feColorMatrix in="SourceAlpha" type="matrix" values="0 0 0 0 0 0 0 0 0 0 0 0 0 0 0 0 0 0 127 0" result="hardAlpha"/>
<feOffset dy="3"/>
<feGaussianBlur stdDeviation="1.5"/>
<feComposite in2="hardAlpha" operator="arithmetic" k2="-1" k3="1"/>
<feColorMatrix type="matrix" values="0 0 0 0 0 0 0 0 0 0 0 0 0 0 0 0 0 0 0.25 0"/>
<feBlend mode="normal" in2="shape" result="effect1_innerShadow"/>
</filter>
</defs>
</svg>
