<svg width="210" height="54" viewBox="0 0 210 54" fill="none" xmlns="http://www.w3.org/2000/svg">
<g filter="url(#filter0_d)">
<rect x="5" y="6.27612" width="200" height="37.2385" rx="18.6192" fill="#FF5C00"/>
<path d="M86.6895 33.8008C86.6634 34.0612 86.5723 34.263 86.416 34.4062C86.2598 34.5625 86.0579 34.6406 85.8105 34.6406C85.6803 34.6406 85.5566 34.6211 85.4395 34.582C85.1921 34.7773 84.8991 34.9271 84.5605 35.0312C84.222 35.1354 83.903 35.2396 83.6035 35.3438C83.2389 35.3307 82.8809 35.2982 82.5293 35.2461C82.1777 35.194 81.8132 35.181 81.4355 35.207C81.3053 35.1159 81.1686 35.0573 81.0254 35.0312C80.8822 35.0052 80.7324 34.9857 80.5762 34.9727C80.4329 34.9727 80.2897 34.9531 80.1465 34.9141C80.0163 34.875 79.8861 34.7839 79.7559 34.6406H78.7793C78.6882 34.6406 78.5514 34.5951 78.3691 34.5039C78.1999 34.4258 78.0046 34.3411 77.7832 34.25C77.5749 34.1589 77.347 34.0742 77.0996 33.9961C76.8652 33.918 76.6439 33.8789 76.4355 33.8789H76.3184C76.1751 33.7617 76.0059 33.6706 75.8105 33.6055C75.6283 33.5534 75.4395 33.5013 75.2441 33.4492C75.0488 33.4102 74.86 33.3646 74.6777 33.3125C74.4954 33.2604 74.3392 33.1888 74.209 33.0977C74.0788 33.0065 73.929 32.9154 73.7598 32.8242C73.5905 32.7201 73.4147 32.6745 73.2324 32.6875C72.985 32.5443 72.7246 32.4206 72.4512 32.3164C72.1908 32.2122 71.9238 32.1146 71.6504 32.0234L70.8496 31.7305C70.5892 31.6263 70.3288 31.5026 70.0684 31.3594C70.0293 31.3724 69.9837 31.3724 69.9316 31.3594C69.8796 31.3464 69.834 31.3398 69.7949 31.3398C69.7168 31.3398 69.6712 31.3659 69.6582 31.418C69.5671 31.3268 69.4629 31.2487 69.3457 31.1836C69.2415 31.1185 69.1374 31.0404 69.0332 30.9492C68.9811 30.9622 68.929 30.9753 68.877 30.9883C68.8379 30.9883 68.7858 30.9883 68.7207 30.9883C68.6035 30.9883 68.4863 30.9753 68.3691 30.9492C68.265 30.9232 68.1608 30.8906 68.0566 30.8516C67.9395 31.112 67.8613 31.4049 67.8223 31.7305C67.7832 32.056 67.7507 32.3945 67.7246 32.7461C67.7116 33.0846 67.6921 33.4232 67.666 33.7617C67.64 34.1133 67.5814 34.4323 67.4902 34.7188C67.5163 34.8229 67.5293 34.9271 67.5293 35.0312V35.3633C67.5293 35.5846 67.5618 35.7604 67.627 35.8906C67.6009 36.0078 67.5749 36.1185 67.5488 36.2227C67.5358 36.3268 67.5163 36.431 67.4902 36.5352C67.5033 36.6784 67.5098 36.8086 67.5098 36.9258C67.5228 37.056 67.5293 37.1927 67.5293 37.3359V37.668C67.5293 37.7852 67.5163 37.9023 67.4902 38.0195C67.36 38.0977 67.2298 38.1693 67.0996 38.2344C66.9694 38.3125 66.8392 38.4036 66.709 38.5078C66.6178 38.3385 66.4616 38.2409 66.2402 38.2148C66.1882 38.2799 66.1491 38.3646 66.123 38.4688C66.11 38.5859 66.0514 38.6445 65.9473 38.6445C65.765 38.5013 65.6152 38.3841 65.498 38.293C65.3809 38.2018 65.2507 38.0651 65.1074 37.8828C65.0944 37.8568 65.0879 37.8242 65.0879 37.7852C65.0879 37.7201 65.1009 37.6615 65.127 37.6094C65.153 37.5573 65.166 37.5052 65.166 37.4531C65.166 37.2969 65.1465 37.1602 65.1074 37.043C65.0814 36.8737 65.0618 36.7044 65.0488 36.5352C65.0358 36.3789 65.0293 36.2227 65.0293 36.0664C65.0293 35.8451 65.0423 35.6302 65.0684 35.4219C65.1074 35.2135 65.1725 34.9987 65.2637 34.7773C65.4069 34.3997 65.5046 34.0026 65.5566 33.5859C65.6217 33.1693 65.6673 32.7526 65.6934 32.3359C65.7194 31.9062 65.7324 31.4766 65.7324 31.0469C65.7454 30.6172 65.7715 30.207 65.8105 29.8164C65.7194 29.6081 65.6087 29.4453 65.4785 29.3281C65.3613 29.1979 65.3027 28.9961 65.3027 28.7227C65.3027 28.4753 65.3809 28.2865 65.5371 28.1562C65.6934 28.013 65.8301 27.8438 65.9473 27.6484C65.9212 27.5703 65.9408 27.5182 66.0059 27.4922L66.2402 25.4414C66.2533 25.2982 66.2728 25.1419 66.2988 24.9727C66.3379 24.8034 66.3639 24.6471 66.377 24.5039C66.403 24.2044 66.416 23.9115 66.416 23.625C66.416 23.3385 66.429 23.0521 66.4551 22.7656C66.5202 22.1276 66.5788 21.4961 66.6309 20.8711C66.696 20.2461 66.7285 19.6211 66.7285 18.9961C66.7285 18.6966 66.7155 18.3971 66.6895 18.0977C66.6764 17.7982 66.6374 17.4987 66.5723 17.1992C66.3509 17.2643 66.1035 17.3359 65.8301 17.4141C65.5697 17.4792 65.3483 17.5964 65.166 17.7656H65.0098C64.6712 17.7656 64.3522 17.8307 64.0527 17.9609C63.7663 18.0911 63.4733 18.2148 63.1738 18.332C63.0436 18.3971 62.9134 18.4427 62.7832 18.4688C62.653 18.4818 62.5163 18.5078 62.373 18.5469C62.3079 18.5599 62.2363 18.599 62.1582 18.6641C62.0801 18.7292 62.0085 18.7747 61.9434 18.8008L61.6113 18.8789C61.5202 18.9049 61.4811 18.9635 61.4941 19.0547C61.5072 19.1458 61.4746 19.2044 61.3965 19.2305C61.3314 19.2956 61.2402 19.3281 61.123 19.3281C61.0059 19.3151 60.9147 19.3086 60.8496 19.3086H60.7715C60.446 19.543 60.1335 19.7448 59.834 19.9141C59.5215 20.0703 59.1569 20.1745 58.7402 20.2266L58.3105 20.5C58.1673 20.5911 58.0046 20.6367 57.8223 20.6367C57.679 20.6367 57.5618 20.6107 57.4707 20.5586C57.3665 20.4023 57.2884 20.2266 57.2363 20.0312C57.1712 19.8359 57.0671 19.6667 56.9238 19.5234C56.9889 19.4583 57.0345 19.3737 57.0605 19.2695C57.0736 19.1523 57.0931 19.0482 57.1191 18.957C57.5098 18.7878 57.9069 18.625 58.3105 18.4688C58.7012 18.3125 59.0788 18.1237 59.4434 17.9023C59.4824 17.9154 59.541 17.9219 59.6191 17.9219C59.7493 17.9219 59.8665 17.9023 59.9707 17.8633C60.0749 17.8242 60.179 17.7786 60.2832 17.7266C60.3874 17.6745 60.4915 17.6289 60.5957 17.5898C60.6999 17.5508 60.8236 17.5378 60.9668 17.5508C61.4095 17.3034 61.8783 17.1016 62.373 16.9453C62.8678 16.7891 63.3366 16.5742 63.7793 16.3008C63.8444 16.3008 63.8965 16.3138 63.9355 16.3398C63.9876 16.3659 64.0397 16.3789 64.0918 16.3789C64.1439 16.3789 64.1764 16.3724 64.1895 16.3594C64.2676 16.2552 64.3717 16.1836 64.502 16.1445C64.6322 16.0924 64.7624 16.0534 64.8926 16.0273C65.0358 15.9883 65.166 15.9427 65.2832 15.8906C65.4134 15.8255 65.498 15.7279 65.5371 15.5977C65.6022 15.6497 65.6999 15.6758 65.8301 15.6758C66.0514 15.6758 66.2533 15.6302 66.4355 15.5391C66.6309 15.4479 66.8392 15.4023 67.0605 15.4023C67.1126 15.4023 67.1582 15.4154 67.1973 15.4414C67.2493 15.4544 67.3014 15.4609 67.3535 15.4609C67.4577 15.4609 67.5098 15.4284 67.5098 15.3633C67.5228 15.2982 67.5618 15.2396 67.627 15.1875C68.4212 15.0443 69.209 14.9141 69.9902 14.7969C70.7845 14.6797 71.5853 14.6211 72.3926 14.6211C72.5098 14.543 72.64 14.5039 72.7832 14.5039C72.9264 14.5039 73.0566 14.543 73.1738 14.6211C73.3952 14.5951 73.6165 14.5755 73.8379 14.5625C74.0592 14.5495 74.2806 14.543 74.502 14.543C75.0098 14.543 75.5306 14.5755 76.0645 14.6406C76.5983 14.7057 77.1257 14.8099 77.6465 14.9531C78.1803 15.0833 78.6882 15.2656 79.1699 15.5C79.6517 15.7214 80.1009 15.9883 80.5176 16.3008C80.5566 16.418 80.6087 16.5352 80.6738 16.6523C80.7389 16.7695 80.8236 16.8607 80.9277 16.9258C80.9277 16.9518 80.9212 16.9714 80.9082 16.9844C80.9082 16.9974 80.9082 17.0169 80.9082 17.043C80.9082 17.1862 80.9473 17.3229 81.0254 17.4531C81.1165 17.5833 81.1621 17.7396 81.1621 17.9219C81.1621 18.1042 81.1296 18.2865 81.0645 18.4688C81.0124 18.651 80.9928 18.8333 81.0059 19.0156C80.8626 19.224 80.7389 19.4128 80.6348 19.582C80.5436 19.7513 80.485 19.9661 80.459 20.2266C80.2246 20.4609 80.0163 20.7214 79.834 21.0078C79.6517 21.2812 79.4629 21.5547 79.2676 21.8281C79.0853 22.0885 78.877 22.3294 78.6426 22.5508C78.4082 22.7721 78.1283 22.9479 77.8027 23.0781C77.7897 23.2083 77.7376 23.3516 77.6465 23.5078H77.2363C77.1973 23.612 77.1322 23.6901 77.041 23.7422L76.7676 23.8984C76.6764 23.9505 76.5983 24.0156 76.5332 24.0938C76.4811 24.1719 76.4551 24.2826 76.4551 24.4258C76.429 24.4128 76.3965 24.4062 76.3574 24.4062C76.2272 24.4062 76.071 24.4714 75.8887 24.6016C75.7194 24.7318 75.5827 24.8359 75.4785 24.9141C75.2572 25.0703 75.0293 25.2135 74.7949 25.3438C74.5736 25.474 74.3783 25.6562 74.209 25.8906C73.6882 26.112 73.1934 26.3724 72.7246 26.6719C72.2559 26.9583 71.748 27.1862 71.2012 27.3555C70.9928 27.5768 70.7454 27.7526 70.459 27.8828C70.1855 28 69.9186 28.1302 69.6582 28.2734V28.332C69.6582 28.4362 69.6973 28.5404 69.7754 28.6445C69.8535 28.7357 69.9447 28.8203 70.0488 28.8984C70.153 28.9635 70.2637 29.0091 70.3809 29.0352C70.5111 29.0612 70.6217 29.0612 70.7129 29.0352C70.9733 29.2695 71.2728 29.4583 71.6113 29.6016C71.9499 29.7448 72.3014 29.875 72.666 29.9922C73.0306 30.1094 73.3887 30.2331 73.7402 30.3633C74.0918 30.4935 74.4173 30.6562 74.7168 30.8516H75.1855C75.485 31.112 75.8366 31.3073 76.2402 31.4375C76.6569 31.5677 77.054 31.6849 77.4316 31.7891C77.5879 31.9323 77.7832 32.043 78.0176 32.1211C78.265 32.1862 78.4993 32.2188 78.7207 32.2188H78.8379C78.89 32.2188 78.9355 32.2122 78.9746 32.1992V32.2383C78.9746 32.3034 78.9941 32.349 79.0332 32.375C79.0723 32.388 79.1113 32.401 79.1504 32.4141C79.2025 32.4141 79.248 32.4271 79.2871 32.4531C79.3392 32.4661 79.3783 32.4922 79.4043 32.5312H79.5996C79.873 32.5312 80.1335 32.5898 80.3809 32.707C80.6283 32.8112 80.8887 32.8633 81.1621 32.8633C81.2793 32.8633 81.3704 32.8503 81.4355 32.8242C81.5137 32.8503 81.5723 32.9023 81.6113 32.9805C81.6504 33.0586 81.7025 33.1237 81.7676 33.1758C81.8587 33.1628 81.9434 33.1497 82.0215 33.1367C82.0996 33.1367 82.1777 33.1367 82.2559 33.1367C82.5423 33.1367 82.8092 33.1693 83.0566 33.2344C83.304 33.2995 83.5579 33.3971 83.8184 33.5273C84.235 33.3451 84.6452 33.1953 85.0488 33.0781C85.4525 32.9609 85.8822 32.9023 86.3379 32.9023V32.9414C86.3379 33.0977 86.377 33.2409 86.4551 33.3711C86.5462 33.5143 86.6243 33.6576 86.6895 33.8008ZM79.209 18.2148C79.209 18.0586 79.1764 17.9349 79.1113 17.8438C79.0592 17.7526 78.9876 17.6745 78.8965 17.6094C78.8053 17.5312 78.7077 17.4596 78.6035 17.3945C78.5124 17.3294 78.4277 17.2448 78.3496 17.1406C78.0111 17.0365 77.679 16.9193 77.3535 16.7891C77.028 16.6589 76.696 16.5482 76.3574 16.457C76.1882 16.418 76.0189 16.3854 75.8496 16.3594C75.6803 16.3203 75.5111 16.3008 75.3418 16.3008H74.9121C74.834 16.2878 74.7493 16.2747 74.6582 16.2617C74.5801 16.2357 74.502 16.2161 74.4238 16.2031C74.2415 16.1771 74.0592 16.1576 73.877 16.1445C73.7077 16.1315 73.5319 16.125 73.3496 16.125C73.0111 16.125 72.6725 16.138 72.334 16.1641L71.3184 16.2422C71.1751 16.2552 71.0254 16.2617 70.8691 16.2617C70.7129 16.2617 70.5697 16.2747 70.4395 16.3008C70.3743 16.3138 70.2832 16.3464 70.166 16.3984C70.0488 16.4375 69.9251 16.4831 69.7949 16.5352C69.6647 16.5742 69.5345 16.6198 69.4043 16.6719C69.2871 16.724 69.1829 16.763 69.0918 16.7891C69.1048 16.8802 69.1113 16.9714 69.1113 17.0625V17.3164C69.1113 17.5117 69.1048 17.707 69.0918 17.9023C69.0788 18.0977 69.0527 18.293 69.0137 18.4883C69.0007 18.5664 68.9811 18.6445 68.9551 18.7227C68.929 18.8008 68.9095 18.8789 68.8965 18.957C68.8704 19.0742 68.8574 19.2044 68.8574 19.3477V19.7188C68.8314 20.0182 68.8118 20.3112 68.7988 20.5977C68.7858 20.8841 68.7663 21.1771 68.7402 21.4766C68.6621 22.3359 68.5775 23.1888 68.4863 24.0352C68.4082 24.8815 68.3561 25.7344 68.3301 26.5938C68.7598 26.5026 69.1699 26.3659 69.5605 26.1836C69.9512 26.0013 70.3353 25.806 70.7129 25.5977C71.0905 25.3763 71.4681 25.1615 71.8457 24.9531C72.2233 24.7448 72.6204 24.569 73.0371 24.4258C73.1413 24.2826 73.265 24.1654 73.4082 24.0742C73.5645 23.9831 73.6947 23.8659 73.7988 23.7227C73.929 23.7227 74.0267 23.6966 74.0918 23.6445C74.1569 23.5794 74.2415 23.5339 74.3457 23.5078C74.9707 22.9609 75.6087 22.4466 76.2598 21.9648C76.9108 21.4831 77.5358 20.9688 78.1348 20.4219C78.1868 20.2396 78.2715 20.0638 78.3887 19.8945C78.5189 19.7122 78.6426 19.5299 78.7598 19.3477C78.877 19.1654 78.9811 18.9831 79.0723 18.8008C79.1634 18.6185 79.209 18.4232 79.209 18.2148ZM92.9199 20.5781V20.6562C92.8288 20.6823 92.7832 20.7474 92.7832 20.8516C92.64 20.9167 92.4902 20.9688 92.334 21.0078C92.1777 21.0339 92.028 21.0794 91.8848 21.1445C91.7415 21.1315 91.5918 21.125 91.4355 21.125C91.2923 21.112 91.1491 21.1055 91.0059 21.1055C90.6152 21.1055 90.2246 21.1185 89.834 21.1445C89.4434 21.1706 89.0527 21.1706 88.6621 21.1445C88.4798 21.2487 88.278 21.3333 88.0566 21.3984C87.8483 21.4505 87.6465 21.4766 87.4512 21.4766C87.2949 21.4766 87.1582 21.457 87.041 21.418C86.7285 21.5742 86.3835 21.7044 86.0059 21.8086C85.6413 21.9128 85.2702 22.0169 84.8926 22.1211C84.515 22.2122 84.1504 22.3229 83.7988 22.4531C83.4603 22.5703 83.1608 22.7396 82.9004 22.9609C82.8743 23.1432 82.8548 23.3255 82.8418 23.5078C82.8288 23.6771 82.8223 23.8464 82.8223 24.0156C82.8223 24.1979 82.8288 24.3672 82.8418 24.5234C82.8678 24.6797 82.9134 24.8359 82.9785 24.9922C83.0436 25.0182 83.1152 25.0378 83.1934 25.0508C83.2845 25.0638 83.3626 25.0703 83.4277 25.0703C83.4928 25.0703 83.5579 25.0638 83.623 25.0508C83.6882 25.0247 83.7337 24.9792 83.7598 24.9141C83.9551 24.888 84.1504 24.8815 84.3457 24.8945C84.541 24.8945 84.7363 24.8945 84.9316 24.8945C85.127 24.8945 85.3158 24.888 85.498 24.875C85.6934 24.862 85.8822 24.8294 86.0645 24.7773C86.2728 24.7253 86.4746 24.6927 86.6699 24.6797C86.8783 24.6667 87.0801 24.6536 87.2754 24.6406C87.4707 24.6276 87.6725 24.6081 87.8809 24.582C88.0892 24.543 88.304 24.4714 88.5254 24.3672C88.6947 24.4323 88.8639 24.4648 89.0332 24.4648C89.2155 24.4648 89.3913 24.4779 89.5605 24.5039C89.6517 24.569 89.7233 24.6406 89.7754 24.7188C89.8405 24.7969 89.873 24.888 89.873 24.9922C89.873 25.1745 89.8079 25.3568 89.6777 25.5391C89.5475 25.7214 89.4434 25.8906 89.3652 26.0469H89.1504C88.8379 26.0469 88.5319 26.0924 88.2324 26.1836C87.946 26.2617 87.653 26.3594 87.3535 26.4766C87.0671 26.5807 86.7741 26.6784 86.4746 26.7695C86.1882 26.8477 85.8887 26.8867 85.5762 26.8867C85.5241 26.8867 85.4915 26.9193 85.4785 26.9844C85.4785 27.0365 85.4655 27.0755 85.4395 27.1016C85.3743 27.0885 85.2767 27.082 85.1465 27.082C84.847 27.082 84.5605 27.1146 84.2871 27.1797C84.0137 27.2448 83.7337 27.2773 83.4473 27.2773C83.3691 27.2773 83.291 27.2773 83.2129 27.2773C83.1348 27.2643 83.0566 27.2513 82.9785 27.2383C82.9134 27.3424 82.8288 27.4141 82.7246 27.4531C82.6204 27.4792 82.5228 27.5312 82.4316 27.6094C82.3926 27.7266 82.3665 27.8698 82.3535 28.0391C82.3535 28.2083 82.347 28.3841 82.334 28.5664C82.334 28.7357 82.321 28.8984 82.2949 29.0547C82.2689 29.2109 82.2168 29.3346 82.1387 29.4258C82.1517 29.4909 82.2038 29.5169 82.2949 29.5039C82.3861 29.4779 82.4316 29.5169 82.4316 29.6211C82.4316 29.7383 82.4186 29.862 82.3926 29.9922C82.3665 30.1224 82.3535 30.2526 82.3535 30.3828C82.3535 30.6302 82.3796 30.9036 82.4316 31.2031C82.4967 31.4896 82.5879 31.7565 82.7051 32.0039C82.8353 32.2513 83.0046 32.4596 83.2129 32.6289C83.4212 32.7852 83.6816 32.8633 83.9941 32.8633C84.2025 32.8633 84.3978 32.8242 84.5801 32.7461C84.7624 32.668 84.9121 32.5378 85.0293 32.3555L85.127 32.3359C85.179 32.3359 85.2246 32.3424 85.2637 32.3555C85.3158 32.3685 85.3678 32.375 85.4199 32.375C85.498 32.375 85.5957 32.3294 85.7129 32.2383C85.8431 32.1341 85.9798 32.0169 86.123 31.8867C86.2793 31.7565 86.4355 31.6328 86.5918 31.5156C86.748 31.3854 86.8978 31.2943 87.041 31.2422C87.1322 31.0599 87.2168 30.8776 87.2949 30.6953C87.3861 30.513 87.5163 30.3698 87.6855 30.2656V29.6992C87.8158 29.556 87.9525 29.4258 88.0957 29.3086C88.252 29.1914 88.3691 29.0417 88.4473 28.8594C88.5124 28.8854 88.571 28.9049 88.623 28.918C88.6882 28.931 88.7533 28.9375 88.8184 28.9375C88.8835 28.9375 88.9486 28.931 89.0137 28.918C89.0918 28.9049 89.1634 28.8854 89.2285 28.8594C89.3327 29.0026 89.4108 29.1654 89.4629 29.3477C89.528 29.5169 89.6061 29.6797 89.6973 29.8359C89.5801 30.0703 89.4434 30.3503 89.2871 30.6758C89.1309 31.0013 88.9616 31.3268 88.7793 31.6523C88.597 31.9779 88.4017 32.2904 88.1934 32.5898C87.998 32.8763 87.8027 33.0977 87.6074 33.2539C87.5684 33.293 87.4837 33.3385 87.3535 33.3906C87.2103 33.4948 87.0801 33.5924 86.9629 33.6836C86.8457 33.7878 86.735 33.9049 86.6309 34.0352C86.2533 34.1523 85.8887 34.3086 85.5371 34.5039C85.1986 34.6992 84.86 34.888 84.5215 35.0703C84.3652 35.0312 84.196 35.0117 84.0137 35.0117C83.8574 35.0117 83.7012 35.0182 83.5449 35.0312C83.3887 35.0573 83.2194 35.0703 83.0371 35.0703C82.985 35.0052 82.9069 34.9596 82.8027 34.9336C82.7116 34.9206 82.679 34.8555 82.7051 34.7383C82.2624 34.7122 81.9043 34.5885 81.6309 34.3672C81.3574 34.1589 81.123 33.8984 80.9277 33.5859C80.7454 33.2734 80.5957 32.9349 80.4785 32.5703C80.3613 32.2057 80.2376 31.8542 80.1074 31.5156V31.457C80.1074 31.3919 80.1335 31.3529 80.1855 31.3398C80.2376 31.3268 80.2637 31.2878 80.2637 31.2227C80.2637 31.1966 80.2572 31.1771 80.2441 31.1641C80.2051 31.0208 80.1725 30.8971 80.1465 30.793C80.1204 30.6888 80.1074 30.5651 80.1074 30.4219C80.1074 30.2135 80.1204 30.0117 80.1465 29.8164C80.1725 29.6081 80.1855 29.3997 80.1855 29.1914C80.1855 28.9831 80.1595 28.8008 80.1074 28.6445C80.1595 28.5794 80.2051 28.4948 80.2441 28.3906C80.2702 28.2734 80.2897 28.1562 80.3027 28.0391C80.3158 27.9219 80.3223 27.8047 80.3223 27.6875C80.3353 27.5703 80.3548 27.4661 80.3809 27.375C80.3288 27.2318 80.2832 27.1081 80.2441 27.0039C80.2051 26.8867 80.1855 26.75 80.1855 26.5938V26.457C80.3158 26.2357 80.4264 26.0078 80.5176 25.7734C80.6087 25.5391 80.7064 25.2982 80.8105 25.0508V24.9922C80.8105 24.6146 80.7975 24.237 80.7715 23.8594C80.7454 23.4818 80.7324 23.1042 80.7324 22.7266V22.3555C80.7324 22.2253 80.7389 22.1016 80.752 21.9844C80.8561 21.9323 80.9342 21.8607 80.9863 21.7695C81.0384 21.6784 81.1165 21.6068 81.2207 21.5547H81.8652L81.9824 21.3594C82.0215 21.2943 82.0475 21.2227 82.0605 21.1445C82.2038 21.1055 82.3405 21.0534 82.4707 20.9883C82.6139 20.9102 82.7441 20.832 82.8613 20.7539C83.0436 20.6497 83.2064 20.5586 83.3496 20.4805C83.5059 20.3893 83.6556 20.3177 83.7988 20.2656C83.9551 20.2005 84.1178 20.1484 84.2871 20.1094C84.4564 20.0703 84.6517 20.0378 84.873 20.0117C84.9772 20.0117 85.0423 19.9922 85.0684 19.9531C85.1074 19.9141 85.1595 19.8685 85.2246 19.8164C85.3809 19.8424 85.5371 19.8685 85.6934 19.8945C85.8496 19.9076 86.0059 19.9141 86.1621 19.9141C86.4746 19.9141 86.7676 19.8555 87.041 19.7383C87.4316 19.7383 87.8158 19.7318 88.1934 19.7188C88.584 19.7057 88.9746 19.6992 89.3652 19.6992C89.7038 19.6992 90.0423 19.7122 90.3809 19.7383C90.7194 19.7643 91.0514 19.8099 91.377 19.875C91.4941 19.8359 91.6243 19.8164 91.7676 19.8164C91.9238 19.8164 92.0801 19.8359 92.2363 19.875C92.4056 19.901 92.5684 19.901 92.7246 19.875C92.7376 20.0182 92.7702 20.1419 92.8223 20.2461C92.8874 20.3372 92.9199 20.4479 92.9199 20.5781ZM102.314 30.5391C102.314 30.7604 102.256 30.9557 102.139 31.125C102.035 31.2812 101.995 31.4766 102.021 31.7109C101.839 31.8151 101.689 31.9518 101.572 32.1211C101.455 32.2904 101.344 32.4661 101.24 32.6484C100.381 33.2083 99.4564 33.6576 98.4668 33.9961C97.4902 34.3477 96.4811 34.5234 95.4395 34.5234C95.3743 34.5234 95.3158 34.4909 95.2637 34.4258C95.2116 34.3737 95.1595 34.3151 95.1074 34.25C95.0553 34.1849 94.9967 34.1198 94.9316 34.0547C94.8796 34.0026 94.8145 33.9766 94.7363 33.9766C94.6452 33.9766 94.5736 33.9961 94.5215 34.0352C94.5215 34.0091 94.5215 33.9831 94.5215 33.957C94.5345 33.944 94.541 33.9245 94.541 33.8984C94.541 33.7422 94.5215 33.5794 94.4824 33.4102C94.4434 33.2539 94.4238 33.0977 94.4238 32.9414C94.4238 32.7591 94.4564 32.6094 94.5215 32.4922H94.7559C94.8861 32.4922 95.0098 32.4857 95.127 32.4727C95.2572 32.4466 95.3939 32.4336 95.5371 32.4336C95.6803 32.4336 95.8105 32.4727 95.9277 32.5508C96.6439 32.5247 97.321 32.3945 97.959 32.1602C98.61 31.9128 99.2676 31.6719 99.9316 31.4375C100.036 31.2943 100.094 31.138 100.107 30.9688C100.133 30.7865 100.186 30.6172 100.264 30.4609C99.9251 30.1745 99.5801 29.9531 99.2285 29.7969C98.89 29.6276 98.4928 29.569 98.0371 29.6211C97.7637 29.4518 97.4707 29.3542 97.1582 29.3281C96.8587 29.3021 96.5527 29.263 96.2402 29.2109C96.1621 29.1979 96.0775 29.1849 95.9863 29.1719C95.9082 29.1458 95.8236 29.1328 95.7324 29.1328C95.6673 29.1328 95.6022 29.1523 95.5371 29.1914C95.485 29.2174 95.472 29.263 95.498 29.3281C95.4329 29.224 95.3418 29.1654 95.2246 29.1523C95.1204 29.1263 95.0293 29.0742 94.9512 28.9961C94.5345 28.9701 94.1699 28.8984 93.8574 28.7812C93.5449 28.651 93.1999 28.5078 92.8223 28.3516C92.7181 28.3125 92.6139 28.2865 92.5098 28.2734C92.4186 28.2474 92.3275 28.2083 92.2363 28.1562C92.002 28.0391 91.8132 27.8828 91.6699 27.6875C91.5267 27.4922 91.416 27.2773 91.3379 27.043C91.2467 26.7956 91.1816 26.5417 91.1426 26.2812C91.1035 26.0208 91.0645 25.7799 91.0254 25.5586C91.1426 25.3503 91.2533 25.1354 91.3574 24.9141C91.4486 24.6927 91.5267 24.4583 91.5918 24.2109C91.6699 24.1719 91.748 24.1393 91.8262 24.1133C91.9043 24.0872 91.9889 24.0547 92.0801 24.0156C92.0671 23.9896 92.0605 23.957 92.0605 23.918C92.0605 23.8529 92.0801 23.7878 92.1191 23.7227C92.1712 23.6576 92.1842 23.5924 92.1582 23.5273C92.4447 23.2669 92.7181 23 92.9785 22.7266C93.252 22.4401 93.4863 22.1276 93.6816 21.7891C93.877 21.724 94.0332 21.6263 94.1504 21.4961C94.2676 21.3659 94.3848 21.2357 94.502 21.1055C94.6191 20.9622 94.7493 20.8385 94.8926 20.7344C95.0358 20.6172 95.2181 20.5456 95.4395 20.5195C95.4915 20.4284 95.5632 20.3568 95.6543 20.3047C95.7454 20.2396 95.8366 20.181 95.9277 20.1289C96.0189 20.0768 96.1035 20.0182 96.1816 19.9531C96.2598 19.888 96.3184 19.7969 96.3574 19.6797C96.5658 19.6797 96.7546 19.6406 96.9238 19.5625C97.1061 19.4844 97.2819 19.3997 97.4512 19.3086C97.6204 19.2174 97.7897 19.1328 97.959 19.0547C98.1413 18.9766 98.3366 18.9375 98.5449 18.9375C98.597 18.9375 98.6491 18.944 98.7012 18.957C98.7533 18.957 98.8118 18.9635 98.877 18.9766C98.9681 19.0677 99.0267 19.1784 99.0527 19.3086C99.0918 19.4258 99.1178 19.556 99.1309 19.6992C99.1439 19.8424 99.1504 19.9857 99.1504 20.1289C99.1634 20.2721 99.1895 20.4023 99.2285 20.5195C99.1113 20.7409 98.9811 20.9622 98.8379 21.1836C98.7077 21.4049 98.5319 21.5742 98.3105 21.6914H98.2715C98.1803 21.7044 98.0957 21.6849 98.0176 21.6328C97.9395 21.5807 97.8483 21.5547 97.7441 21.5547C97.679 21.5547 97.627 21.5742 97.5879 21.6133L97.4902 21.7109C97.4642 21.737 97.4251 21.763 97.373 21.7891C97.334 21.8151 97.2754 21.8151 97.1973 21.7891C97.015 21.8542 96.9434 21.9648 96.9824 22.1211C96.735 22.1471 96.5267 22.2253 96.3574 22.3555C96.1882 22.4727 96.0319 22.6094 95.8887 22.7656C95.7454 22.9089 95.6022 23.0456 95.459 23.1758C95.3158 23.293 95.1465 23.3581 94.9512 23.3711C94.7298 23.7617 94.4564 24.1068 94.1309 24.4062C93.8184 24.7057 93.5579 25.0443 93.3496 25.4219C93.3887 25.526 93.4147 25.6367 93.4277 25.7539C93.4408 25.8711 93.4603 25.9948 93.4863 26.125C93.6035 26.2812 93.7402 26.418 93.8965 26.5352C94.0658 26.6523 94.2285 26.7695 94.3848 26.8867H94.4434C94.7038 26.8867 94.9447 26.9388 95.166 27.043C95.3874 27.1341 95.6217 27.1797 95.8691 27.1797C95.9993 27.1797 96.11 27.1536 96.2012 27.1016C96.5397 27.1797 96.8717 27.2448 97.1973 27.2969C97.5358 27.349 97.8743 27.388 98.2129 27.4141C98.3822 27.4401 98.5514 27.4531 98.7207 27.4531C98.903 27.4531 99.0723 27.4727 99.2285 27.5117C99.3717 27.5508 99.515 27.6029 99.6582 27.668C99.8014 27.7201 99.9447 27.7786 100.088 27.8438C100.387 27.974 100.667 28.1172 100.928 28.2734C101.201 28.4297 101.442 28.6185 101.65 28.8398C101.859 29.0482 102.021 29.2956 102.139 29.582C102.256 29.8555 102.314 30.1745 102.314 30.5391ZM115.635 29.8359C115.583 30.0312 115.498 30.194 115.381 30.3242C115.264 30.4544 115.127 30.5716 114.971 30.6758C114.827 30.7799 114.671 30.8776 114.502 30.9688C114.333 31.0469 114.17 31.138 114.014 31.2422H113.76C113.213 31.2422 112.79 31.112 112.49 30.8516C112.204 30.5781 111.982 30.2461 111.826 29.8555C111.67 29.4518 111.553 29.0221 111.475 28.5664C111.41 28.1107 111.325 27.694 111.221 27.3164C111.064 27.4466 110.934 27.6029 110.83 27.7852C110.726 27.9544 110.615 28.1237 110.498 28.293C110.394 28.4622 110.27 28.6185 110.127 28.7617C109.997 28.9049 109.821 29.0026 109.6 29.0547C109.561 29.1458 109.515 29.237 109.463 29.3281C109.424 29.4193 109.398 29.5169 109.385 29.6211C109.098 29.7773 108.838 29.9596 108.604 30.168C108.369 30.3763 108.135 30.5911 107.9 30.8125C107.666 31.0339 107.425 31.2487 107.178 31.457C106.943 31.6523 106.676 31.8151 106.377 31.9453C106.364 31.9323 106.338 31.9258 106.299 31.9258C106.143 31.9258 105.999 31.9648 105.869 32.043C105.739 32.1081 105.596 32.1406 105.439 32.1406C105.335 32.1406 105.238 32.1211 105.146 32.082C105.068 32.043 104.984 31.9974 104.893 31.9453C104.814 31.8932 104.73 31.8542 104.639 31.8281C104.548 31.8021 104.45 31.7956 104.346 31.8086C104.215 31.5742 104.04 31.3594 103.818 31.1641C103.61 30.9557 103.48 30.7214 103.428 30.4609C103.402 30.3438 103.382 30.2266 103.369 30.1094C103.369 29.9792 103.356 29.849 103.33 29.7188C103.291 29.5234 103.239 29.3281 103.174 29.1328C103.109 28.9245 103.057 28.7161 103.018 28.5078C103.083 28.1562 103.148 27.7721 103.213 27.3555C103.265 26.9258 103.33 26.5026 103.408 26.0859C103.499 25.6562 103.617 25.2526 103.76 24.875C103.916 24.4844 104.111 24.1523 104.346 23.8789L104.326 23.7422C104.326 23.5339 104.365 23.3385 104.443 23.1562C104.521 22.974 104.606 22.7982 104.697 22.6289C104.788 22.4596 104.867 22.2904 104.932 22.1211C104.997 21.9518 105.01 21.763 104.971 21.5547C105.127 21.4766 105.29 21.4115 105.459 21.3594C105.628 21.3073 105.804 21.2812 105.986 21.2812C106.156 21.2812 106.312 21.3073 106.455 21.3594C106.429 21.4635 106.475 21.5286 106.592 21.5547V21.6133C106.592 21.8867 106.559 22.1536 106.494 22.4141C106.429 22.6745 106.351 22.9349 106.26 23.1953C106.169 23.4427 106.077 23.6966 105.986 23.957C105.908 24.2044 105.85 24.4583 105.811 24.7188C105.758 24.7318 105.719 24.7578 105.693 24.7969C105.68 24.8359 105.667 24.875 105.654 24.9141C105.641 24.9531 105.622 24.9857 105.596 25.0117C105.57 25.0378 105.531 25.0508 105.479 25.0508C105.4 25.5065 105.316 25.9622 105.225 26.418C105.146 26.8607 105.107 27.3099 105.107 27.7656C105.107 28.0391 105.133 28.319 105.186 28.6055C105.238 28.8919 105.335 29.1654 105.479 29.4258L105.557 29.4062C105.7 29.4062 105.811 29.4388 105.889 29.5039C105.98 29.569 106.097 29.6341 106.24 29.6992C106.344 29.6732 106.442 29.6406 106.533 29.6016C106.624 29.5495 106.663 29.4648 106.65 29.3477C106.82 29.3346 106.963 29.2956 107.08 29.2305C107.197 29.1523 107.301 29.0677 107.393 28.9766L107.686 28.7031C107.79 28.612 107.913 28.5469 108.057 28.5078C108.057 28.4297 108.076 28.3711 108.115 28.332L108.232 28.2148C108.271 28.1758 108.298 28.1367 108.311 28.0977C108.337 28.0456 108.343 27.974 108.33 27.8828C108.486 27.8698 108.604 27.8307 108.682 27.7656C108.773 27.7005 108.851 27.6289 108.916 27.5508C108.994 27.4596 109.066 27.3685 109.131 27.2773C109.196 27.1862 109.281 27.1081 109.385 27.043C109.476 26.8477 109.6 26.5872 109.756 26.2617C109.925 25.9362 110.088 25.5977 110.244 25.2461C110.413 24.8945 110.557 24.5625 110.674 24.25C110.804 23.9245 110.869 23.6771 110.869 23.5078C110.869 23.4427 110.85 23.3841 110.811 23.332C110.785 23.2799 110.778 23.2214 110.791 23.1562V23.0977C110.895 22.9674 110.986 22.8242 111.064 22.668C111.156 22.5117 111.247 22.362 111.338 22.2188C111.442 22.0755 111.553 21.9453 111.67 21.8281C111.787 21.7109 111.937 21.6198 112.119 21.5547C112.327 21.6198 112.536 21.6654 112.744 21.6914C112.965 21.7174 113.174 21.7695 113.369 21.8477C113.382 22.1732 113.415 22.5508 113.467 22.9805C113.519 23.4102 113.61 23.7747 113.74 24.0742C113.74 24.2435 113.734 24.4062 113.721 24.5625C113.721 24.7188 113.721 24.875 113.721 25.0312C113.721 25.2917 113.727 25.5586 113.74 25.832C113.766 26.1055 113.812 26.3594 113.877 26.5938C113.786 26.7891 113.74 26.9974 113.74 27.2188C113.74 27.5182 113.786 27.8047 113.877 28.0781C113.968 28.3385 114.033 28.6185 114.072 28.918C114.242 29.1523 114.463 29.2695 114.736 29.2695C114.801 29.2695 114.854 29.263 114.893 29.25C114.945 29.237 114.997 29.2174 115.049 29.1914C115.153 29.3086 115.244 29.4258 115.322 29.543C115.413 29.6471 115.518 29.7448 115.635 29.8359ZM135.068 30.5391C135.003 30.7474 134.984 30.9557 135.01 31.1641C134.971 31.2161 134.925 31.2487 134.873 31.2617C134.821 31.2747 134.769 31.2943 134.717 31.3203C134.665 31.3333 134.619 31.3594 134.58 31.3984C134.554 31.4245 134.554 31.4831 134.58 31.5742C134.15 31.6003 133.74 31.6914 133.35 31.8477C132.959 32.0039 132.575 32.1732 132.197 32.3555C132.002 32.2904 131.833 32.2122 131.689 32.1211C131.546 32.0299 131.364 31.9714 131.143 31.9453C130.921 31.5026 130.713 31.0404 130.518 30.5586C130.335 30.0638 130.244 29.569 130.244 29.0742C130.244 28.7096 130.309 28.3776 130.439 28.0781C130.439 27.6875 130.472 27.3034 130.537 26.9258C130.602 26.5482 130.674 26.1771 130.752 25.8125C130.843 25.4349 130.921 25.0573 130.986 24.6797C131.051 24.3021 131.084 23.918 131.084 23.5273V23.0977C131.058 23.0977 131.025 23.1302 130.986 23.1953C130.947 23.2474 130.908 23.3125 130.869 23.3906C130.843 23.4557 130.817 23.5208 130.791 23.5859C130.765 23.651 130.745 23.6901 130.732 23.7031C130.511 23.8724 130.335 24.0872 130.205 24.3477C130.088 24.5951 129.958 24.8294 129.814 25.0508C129.632 25.3242 129.437 25.5911 129.229 25.8516C129.033 26.112 128.786 26.3138 128.486 26.457V26.4961C128.486 26.5612 128.467 26.6068 128.428 26.6328C128.389 26.6589 128.382 26.724 128.408 26.8281C128.083 26.9323 127.777 27.082 127.49 27.2773C127.217 27.4727 126.989 27.7201 126.807 28.0195C126.546 28.0846 126.299 28.1758 126.064 28.293C125.843 28.3971 125.615 28.5143 125.381 28.6445C125.277 28.6966 125.166 28.7617 125.049 28.8398C124.932 28.918 124.814 28.9701 124.697 28.9961C124.593 29.0352 124.45 29.0612 124.268 29.0742C124.098 29.0872 123.916 29.1003 123.721 29.1133C123.538 29.1263 123.356 29.1328 123.174 29.1328H122.744C122.679 29.1328 122.594 29.1003 122.49 29.0352C122.386 28.9701 122.269 28.8984 122.139 28.8203C122.021 28.7422 121.898 28.6706 121.768 28.6055C121.637 28.5273 121.514 28.4753 121.396 28.4492C121.292 28.1107 121.143 27.8112 120.947 27.5508C120.765 27.2773 120.57 27.0039 120.361 26.7305C120.296 26.418 120.205 26.0924 120.088 25.7539C119.984 25.4154 119.795 25.1354 119.521 24.9141C119.587 24.8229 119.619 24.7188 119.619 24.6016C119.619 24.4583 119.587 24.3216 119.521 24.1914C119.456 24.0612 119.424 23.918 119.424 23.7617C119.424 23.6576 119.43 23.5794 119.443 23.5273C119.3 23.6836 119.196 23.8854 119.131 24.1328C119.079 24.3672 119.053 24.582 119.053 24.7773C119.053 24.9336 119.072 25.0768 119.111 25.207C118.981 25.3893 118.896 25.6172 118.857 25.8906C118.831 26.1641 118.818 26.4049 118.818 26.6133C118.818 26.8737 118.838 27.1276 118.877 27.375C118.669 27.5833 118.564 27.8372 118.564 28.1367C118.564 28.306 118.604 28.4557 118.682 28.5859C118.682 28.638 118.669 28.6771 118.643 28.7031C118.617 28.7292 118.584 28.7487 118.545 28.7617C118.519 28.7747 118.486 28.7943 118.447 28.8203C118.421 28.8333 118.408 28.8659 118.408 28.918C118.408 28.9831 118.408 29.0547 118.408 29.1328C118.421 29.2109 118.428 29.2891 118.428 29.3672C118.428 29.5495 118.421 29.7383 118.408 29.9336C118.395 30.1289 118.389 30.3177 118.389 30.5C118.389 30.8776 118.421 31.151 118.486 31.3203C118.564 31.4766 118.656 31.5938 118.76 31.6719C118.877 31.75 119.001 31.8281 119.131 31.9062C119.261 31.9844 119.391 32.1341 119.521 32.3555C119.482 32.4727 119.411 32.5703 119.307 32.6484C119.215 32.7135 119.124 32.7852 119.033 32.8633C118.955 32.9284 118.883 33.0065 118.818 33.0977C118.753 33.1888 118.727 33.319 118.74 33.4883H118.643C118.473 33.4883 118.311 33.5143 118.154 33.5664C117.998 33.6185 117.835 33.6445 117.666 33.6445C117.627 33.6445 117.588 33.638 117.549 33.625C117.51 33.625 117.471 33.625 117.432 33.625L117.236 33.5078C117.171 33.4688 117.106 33.4492 117.041 33.4492C116.976 33.4492 116.891 33.4622 116.787 33.4883C116.605 32.9023 116.462 32.2969 116.357 31.6719C116.266 31.0469 116.221 30.4349 116.221 29.8359C116.221 29.7708 116.234 29.7057 116.26 29.6406C116.299 29.5625 116.351 29.5365 116.416 29.5625V29.1914C116.416 28.7878 116.449 28.3971 116.514 28.0195C116.592 27.6289 116.631 27.2253 116.631 26.8086C116.631 26.6914 116.624 26.5742 116.611 26.457C116.611 26.3398 116.605 26.2292 116.592 26.125C116.657 25.9036 116.722 25.6823 116.787 25.4609C116.865 25.2266 116.904 24.9857 116.904 24.7383C116.904 24.6341 116.885 24.5104 116.846 24.3672C116.95 24.2891 117.028 24.1914 117.08 24.0742C117.132 23.944 117.171 23.8073 117.197 23.6641C117.223 23.5078 117.243 23.3581 117.256 23.2148C117.269 23.0716 117.282 22.9414 117.295 22.8242C117.425 22.5638 117.497 22.2839 117.51 21.9844C117.523 21.6849 117.588 21.4049 117.705 21.1445C117.692 21.0924 117.686 21.0013 117.686 20.8711C117.686 20.6107 117.725 20.3503 117.803 20.0898C117.894 19.8164 118.07 19.6081 118.33 19.4648C118.564 19.556 118.838 19.6016 119.15 19.6016C119.45 19.6016 119.736 19.556 120.01 19.4648C120.088 19.4909 120.16 19.5234 120.225 19.5625C120.29 19.5885 120.355 19.6211 120.42 19.6602C120.498 19.6862 120.576 19.7122 120.654 19.7383C120.732 19.7513 120.824 19.7513 120.928 19.7383C121.058 20.1159 121.169 20.5 121.26 20.8906C121.364 21.2812 121.442 21.6784 121.494 22.082C121.52 22.2513 121.527 22.4336 121.514 22.6289C121.514 22.8242 121.527 23.0065 121.553 23.1758C121.566 23.2799 121.598 23.3776 121.65 23.4688C121.702 23.5469 121.755 23.638 121.807 23.7422C121.859 23.8464 121.898 23.9635 121.924 24.0938C121.963 24.224 121.976 24.3867 121.963 24.582C122.106 24.9206 122.262 25.2461 122.432 25.5586C122.614 25.8581 122.809 26.1576 123.018 26.457C123.135 26.4961 123.239 26.5482 123.33 26.6133C123.421 26.6654 123.48 26.7565 123.506 26.8867C123.623 26.8867 123.727 26.9062 123.818 26.9453L124.15 27.043C124.645 26.8867 125.101 26.6784 125.518 26.418C125.947 26.1576 126.396 25.9362 126.865 25.7539C127.438 25.194 127.933 24.5755 128.35 23.8984C128.766 23.2083 129.183 22.5247 129.6 21.8477V21.418C129.678 21.3789 129.743 21.3333 129.795 21.2812C129.86 21.2161 129.938 21.1706 130.029 21.1445C130.042 20.9883 130.075 20.8385 130.127 20.6953C130.192 20.5391 130.257 20.3958 130.322 20.2656C130.4 20.1224 130.465 19.9857 130.518 19.8555C130.57 19.7122 130.596 19.5625 130.596 19.4062C130.596 19.3151 130.589 19.237 130.576 19.1719C130.771 18.9766 131.006 18.8789 131.279 18.8789C131.54 18.8789 131.8 18.944 132.061 19.0742C132.334 19.1914 132.588 19.3021 132.822 19.4062C132.965 19.7188 133.07 20.0508 133.135 20.4023C133.213 20.7409 133.265 21.0924 133.291 21.457C133.317 21.8216 133.33 22.1862 133.33 22.5508V23.9375C133.317 24.0417 133.278 24.1198 133.213 24.1719C133.161 24.2109 133.122 24.276 133.096 24.3672V24.5625C133.096 24.6276 133.089 24.6927 133.076 24.7578C133.076 25.0312 133.044 25.3177 132.979 25.6172C132.913 25.9948 132.829 26.3789 132.725 26.7695C132.633 27.1471 132.588 27.5312 132.588 27.9219C132.588 28.0651 132.594 28.2083 132.607 28.3516C132.62 28.4948 132.646 28.638 132.686 28.7812C132.62 28.8984 132.588 29.0482 132.588 29.2305C132.588 29.4388 132.62 29.6341 132.686 29.8164C132.764 29.9857 132.855 30.1549 132.959 30.3242C133.141 30.3242 133.324 30.3177 133.506 30.3047C133.688 30.2917 133.877 30.2852 134.072 30.2852C134.255 30.2852 134.424 30.3047 134.58 30.3438C134.736 30.3698 134.899 30.4349 135.068 30.5391ZM148.076 20.5781V20.6562C147.985 20.6823 147.939 20.7474 147.939 20.8516C147.796 20.9167 147.646 20.9688 147.49 21.0078C147.334 21.0339 147.184 21.0794 147.041 21.1445C146.898 21.1315 146.748 21.125 146.592 21.125C146.449 21.112 146.305 21.1055 146.162 21.1055C145.771 21.1055 145.381 21.1185 144.99 21.1445C144.6 21.1706 144.209 21.1706 143.818 21.1445C143.636 21.2487 143.434 21.3333 143.213 21.3984C143.005 21.4505 142.803 21.4766 142.607 21.4766C142.451 21.4766 142.314 21.457 142.197 21.418C141.885 21.5742 141.54 21.7044 141.162 21.8086C140.798 21.9128 140.426 22.0169 140.049 22.1211C139.671 22.2122 139.307 22.3229 138.955 22.4531C138.617 22.5703 138.317 22.7396 138.057 22.9609C138.031 23.1432 138.011 23.3255 137.998 23.5078C137.985 23.6771 137.979 23.8464 137.979 24.0156C137.979 24.1979 137.985 24.3672 137.998 24.5234C138.024 24.6797 138.07 24.8359 138.135 24.9922C138.2 25.0182 138.271 25.0378 138.35 25.0508C138.441 25.0638 138.519 25.0703 138.584 25.0703C138.649 25.0703 138.714 25.0638 138.779 25.0508C138.844 25.0247 138.89 24.9792 138.916 24.9141C139.111 24.888 139.307 24.8815 139.502 24.8945C139.697 24.8945 139.893 24.8945 140.088 24.8945C140.283 24.8945 140.472 24.888 140.654 24.875C140.85 24.862 141.038 24.8294 141.221 24.7773C141.429 24.7253 141.631 24.6927 141.826 24.6797C142.035 24.6667 142.236 24.6536 142.432 24.6406C142.627 24.6276 142.829 24.6081 143.037 24.582C143.245 24.543 143.46 24.4714 143.682 24.3672C143.851 24.4323 144.02 24.4648 144.189 24.4648C144.372 24.4648 144.548 24.4779 144.717 24.5039C144.808 24.569 144.88 24.6406 144.932 24.7188C144.997 24.7969 145.029 24.888 145.029 24.9922C145.029 25.1745 144.964 25.3568 144.834 25.5391C144.704 25.7214 144.6 25.8906 144.521 26.0469H144.307C143.994 26.0469 143.688 26.0924 143.389 26.1836C143.102 26.2617 142.809 26.3594 142.51 26.4766C142.223 26.5807 141.93 26.6784 141.631 26.7695C141.344 26.8477 141.045 26.8867 140.732 26.8867C140.68 26.8867 140.648 26.9193 140.635 26.9844C140.635 27.0365 140.622 27.0755 140.596 27.1016C140.531 27.0885 140.433 27.082 140.303 27.082C140.003 27.082 139.717 27.1146 139.443 27.1797C139.17 27.2448 138.89 27.2773 138.604 27.2773C138.525 27.2773 138.447 27.2773 138.369 27.2773C138.291 27.2643 138.213 27.2513 138.135 27.2383C138.07 27.3424 137.985 27.4141 137.881 27.4531C137.777 27.4792 137.679 27.5312 137.588 27.6094C137.549 27.7266 137.523 27.8698 137.51 28.0391C137.51 28.2083 137.503 28.3841 137.49 28.5664C137.49 28.7357 137.477 28.8984 137.451 29.0547C137.425 29.2109 137.373 29.3346 137.295 29.4258C137.308 29.4909 137.36 29.5169 137.451 29.5039C137.542 29.4779 137.588 29.5169 137.588 29.6211C137.588 29.7383 137.575 29.862 137.549 29.9922C137.523 30.1224 137.51 30.2526 137.51 30.3828C137.51 30.6302 137.536 30.9036 137.588 31.2031C137.653 31.4896 137.744 31.7565 137.861 32.0039C137.992 32.2513 138.161 32.4596 138.369 32.6289C138.577 32.7852 138.838 32.8633 139.15 32.8633C139.359 32.8633 139.554 32.8242 139.736 32.7461C139.919 32.668 140.068 32.5378 140.186 32.3555L140.283 32.3359C140.335 32.3359 140.381 32.3424 140.42 32.3555C140.472 32.3685 140.524 32.375 140.576 32.375C140.654 32.375 140.752 32.3294 140.869 32.2383C140.999 32.1341 141.136 32.0169 141.279 31.8867C141.436 31.7565 141.592 31.6328 141.748 31.5156C141.904 31.3854 142.054 31.2943 142.197 31.2422C142.288 31.0599 142.373 30.8776 142.451 30.6953C142.542 30.513 142.673 30.3698 142.842 30.2656V29.6992C142.972 29.556 143.109 29.4258 143.252 29.3086C143.408 29.1914 143.525 29.0417 143.604 28.8594C143.669 28.8854 143.727 28.9049 143.779 28.918C143.844 28.931 143.91 28.9375 143.975 28.9375C144.04 28.9375 144.105 28.931 144.17 28.918C144.248 28.9049 144.32 28.8854 144.385 28.8594C144.489 29.0026 144.567 29.1654 144.619 29.3477C144.684 29.5169 144.762 29.6797 144.854 29.8359C144.736 30.0703 144.6 30.3503 144.443 30.6758C144.287 31.0013 144.118 31.3268 143.936 31.6523C143.753 31.9779 143.558 32.2904 143.35 32.5898C143.154 32.8763 142.959 33.0977 142.764 33.2539C142.725 33.293 142.64 33.3385 142.51 33.3906C142.367 33.4948 142.236 33.5924 142.119 33.6836C142.002 33.7878 141.891 33.9049 141.787 34.0352C141.41 34.1523 141.045 34.3086 140.693 34.5039C140.355 34.6992 140.016 34.888 139.678 35.0703C139.521 35.0312 139.352 35.0117 139.17 35.0117C139.014 35.0117 138.857 35.0182 138.701 35.0312C138.545 35.0573 138.376 35.0703 138.193 35.0703C138.141 35.0052 138.063 34.9596 137.959 34.9336C137.868 34.9206 137.835 34.8555 137.861 34.7383C137.419 34.7122 137.061 34.5885 136.787 34.3672C136.514 34.1589 136.279 33.8984 136.084 33.5859C135.902 33.2734 135.752 32.9349 135.635 32.5703C135.518 32.2057 135.394 31.8542 135.264 31.5156V31.457C135.264 31.3919 135.29 31.3529 135.342 31.3398C135.394 31.3268 135.42 31.2878 135.42 31.2227C135.42 31.1966 135.413 31.1771 135.4 31.1641C135.361 31.0208 135.329 30.8971 135.303 30.793C135.277 30.6888 135.264 30.5651 135.264 30.4219C135.264 30.2135 135.277 30.0117 135.303 29.8164C135.329 29.6081 135.342 29.3997 135.342 29.1914C135.342 28.9831 135.316 28.8008 135.264 28.6445C135.316 28.5794 135.361 28.4948 135.4 28.3906C135.426 28.2734 135.446 28.1562 135.459 28.0391C135.472 27.9219 135.479 27.8047 135.479 27.6875C135.492 27.5703 135.511 27.4661 135.537 27.375C135.485 27.2318 135.439 27.1081 135.4 27.0039C135.361 26.8867 135.342 26.75 135.342 26.5938V26.457C135.472 26.2357 135.583 26.0078 135.674 25.7734C135.765 25.5391 135.863 25.2982 135.967 25.0508V24.9922C135.967 24.6146 135.954 24.237 135.928 23.8594C135.902 23.4818 135.889 23.1042 135.889 22.7266V22.3555C135.889 22.2253 135.895 22.1016 135.908 21.9844C136.012 21.9323 136.09 21.8607 136.143 21.7695C136.195 21.6784 136.273 21.6068 136.377 21.5547H137.021L137.139 21.3594C137.178 21.2943 137.204 21.2227 137.217 21.1445C137.36 21.1055 137.497 21.0534 137.627 20.9883C137.77 20.9102 137.9 20.832 138.018 20.7539C138.2 20.6497 138.363 20.5586 138.506 20.4805C138.662 20.3893 138.812 20.3177 138.955 20.2656C139.111 20.2005 139.274 20.1484 139.443 20.1094C139.613 20.0703 139.808 20.0378 140.029 20.0117C140.133 20.0117 140.199 19.9922 140.225 19.9531C140.264 19.9141 140.316 19.8685 140.381 19.8164C140.537 19.8424 140.693 19.8685 140.85 19.8945C141.006 19.9076 141.162 19.9141 141.318 19.9141C141.631 19.9141 141.924 19.8555 142.197 19.7383C142.588 19.7383 142.972 19.7318 143.35 19.7188C143.74 19.7057 144.131 19.6992 144.521 19.6992C144.86 19.6992 145.199 19.7122 145.537 19.7383C145.876 19.7643 146.208 19.8099 146.533 19.875C146.65 19.8359 146.781 19.8164 146.924 19.8164C147.08 19.8164 147.236 19.8359 147.393 19.875C147.562 19.901 147.725 19.901 147.881 19.875C147.894 20.0182 147.926 20.1419 147.979 20.2461C148.044 20.3372 148.076 20.4479 148.076 20.5781Z" fill="white"/>
</g>
<defs>
<filter id="filter0_d" x="0" y="0" width="210" height="60" filterUnits="userSpaceOnUse" color-interpolation-filters="sRGB">
<feFlood flood-opacity="0" result="BackgroundImageFix"/>
<feColorMatrix in="SourceAlpha" type="matrix" values="0 0 0 0 0 0 0 0 0 0 0 0 0 0 0 0 0 0 127 0"/>
<feOffset dy="5"/>
<feGaussianBlur stdDeviation="2.5"/>
<feColorMatrix type="matrix" values="0 0 0 0 0 0 0 0 0 0 0 0 0 0 0 0 0 0 0.25 0"/>
<feBlend mode="normal" in2="BackgroundImageFix" result="effect1_dropShadow"/>
<feBlend mode="normal" in="SourceGraphic" in2="effect1_dropShadow" result="shape"/>
</filter>
</defs>
</svg>
