<svg width="210" height="54" viewBox="0 0 210 54" fill="none" xmlns="http://www.w3.org/2000/svg">
<g filter="url(#filter0_d)">
<rect x="5" y="6.27612" width="200" height="37.2385" rx="18.6192" fill="#FF5C00"/>
<path d="M95.6924 29.6797C95.6924 29.849 95.6469 30.0052 95.5557 30.1484C95.4646 30.2786 95.4385 30.4349 95.4776 30.6172C95.4255 30.7083 95.3539 30.7799 95.2627 30.832C95.1846 30.8841 95.1586 30.9818 95.1846 31.125C94.9112 31.2682 94.6573 31.4505 94.4229 31.6719C94.2016 31.8802 93.9607 32.082 93.7002 32.2773C93.544 32.3945 93.4073 32.4792 93.2901 32.5312C93.1859 32.5703 93.0557 32.6354 92.8995 32.7266L92.4112 33.0391C92.1898 33.1562 91.962 33.2734 91.7276 33.3906C91.5062 33.5078 91.3044 33.6576 91.1221 33.8398C90.8487 33.8529 90.5687 33.9245 90.2823 34.0547C89.9958 34.1979 89.7224 34.3216 89.462 34.4258C89.3578 34.4648 89.2536 34.4909 89.1495 34.5039C89.0453 34.5299 88.9411 34.569 88.837 34.6211L88.5245 34.7578C88.3422 34.849 88.1273 34.9401 87.8799 35.0312C87.6325 35.1354 87.4112 35.1875 87.2159 35.1875C87.0987 35.2396 87.001 35.3307 86.9229 35.4609C86.4932 35.6042 86.0505 35.7148 85.5948 35.793C85.1391 35.8711 84.6963 35.9948 84.2667 36.1641C84.1234 36.2292 83.9737 36.3138 83.8174 36.418C83.6742 36.5352 83.518 36.5872 83.3487 36.5742C83.3096 36.6393 83.2836 36.7174 83.2706 36.8086C83.2575 36.8997 83.238 36.9909 83.212 37.082H83.1534C83.1013 37.082 83.0752 37.056 83.0752 37.0039C83.0883 36.9518 83.0687 36.9258 83.0167 36.9258C82.9776 36.9258 82.9516 36.9323 82.9385 36.9453C82.7693 36.9844 82.6065 37.0169 82.4502 37.043C82.307 37.069 82.1443 37.082 81.962 37.082C81.8578 37.082 81.6885 37.069 81.4542 37.043C81.2328 37.0169 81.07 36.9844 80.9659 36.9453C80.8877 36.9062 80.8226 36.8346 80.7706 36.7305C80.7185 36.6263 80.6664 36.5156 80.6143 36.3984C80.5752 36.2812 80.5362 36.1576 80.4971 36.0273C80.4711 35.9102 80.445 35.8125 80.419 35.7344C80.4581 35.5911 80.5232 35.474 80.6143 35.3828C80.7055 35.2917 80.7771 35.1745 80.8292 35.0312C80.9463 35.0182 81.0635 34.9987 81.1807 34.9727C81.2979 34.9466 81.4151 34.9401 81.5323 34.9531C81.9359 34.8359 82.3396 34.7188 82.7432 34.6016C83.1599 34.4974 83.57 34.3867 83.9737 34.2695C84.3773 34.1523 84.7745 34.0221 85.1651 33.8789C85.5557 33.7357 85.9333 33.5599 86.2979 33.3516H86.7081C86.9424 33.2214 87.2029 33.1107 87.4893 33.0195C87.7758 32.9284 88.0101 32.7786 88.1924 32.5703C88.6221 32.4792 89.0713 32.3555 89.5401 32.1992C90.0088 32.043 90.3995 31.7956 90.712 31.457C90.9073 31.431 91.0766 31.3854 91.2198 31.3203C91.363 31.2422 91.4997 31.1641 91.6299 31.0859L92.0206 30.832C92.1508 30.7409 92.3005 30.6693 92.4698 30.6172C92.5739 30.513 92.6716 30.4023 92.7627 30.2852C92.8539 30.168 92.9646 30.0703 93.0948 29.9922C93.0557 29.7839 92.9516 29.6276 92.7823 29.5234C92.613 29.4193 92.4633 29.2956 92.3331 29.1523H91.9034C91.5648 28.944 91.2002 28.7878 90.8096 28.6836C90.432 28.5664 90.0544 28.4427 89.6768 28.3125C89.6508 28.2995 89.6182 28.293 89.5792 28.293C89.488 28.293 89.4294 28.3255 89.4034 28.3906C89.3904 28.4557 89.3383 28.4818 89.2471 28.4688C89.1299 28.3906 89.0062 28.3451 88.876 28.332C88.7458 28.306 88.6091 28.293 88.4659 28.293C88.2836 28.293 88.1013 28.306 87.919 28.332C87.7497 28.3451 87.5739 28.3516 87.3917 28.3516C87.3005 28.3516 87.2094 28.3451 87.1182 28.332C87.0271 28.319 86.9359 28.2865 86.8448 28.2344H86.5909C86.3174 28.2344 86.044 28.2474 85.7706 28.2734C85.5101 28.2865 85.2497 28.293 84.9893 28.293C84.8461 28.293 84.7094 28.293 84.5792 28.293C84.4489 28.2799 84.3187 28.2604 84.1885 28.2344C83.9151 28.3646 83.6221 28.4557 83.3096 28.5078C82.9971 28.5599 82.6716 28.599 82.3331 28.625C82.0075 28.651 81.682 28.6771 81.3565 28.7031C81.031 28.7161 80.7185 28.7487 80.419 28.8008C80.3409 28.7878 80.2627 28.7812 80.1846 28.7812C80.1195 28.7682 80.0544 28.7617 79.9893 28.7617C79.9242 28.7617 79.8526 28.7682 79.7745 28.7812C79.7094 28.7812 79.6443 28.7878 79.5792 28.8008C79.4099 28.6185 79.2016 28.4883 78.9542 28.4102C78.7198 28.319 78.4854 28.2604 78.251 28.2344C78.0687 28.013 77.932 27.7917 77.8409 27.5703C77.7627 27.3359 77.7107 27.0755 77.6846 26.7891H77.7627C77.8539 26.7891 77.893 26.7435 77.8799 26.6523C77.8799 26.5612 77.9125 26.4831 77.9776 26.418C78.0427 26.3398 78.1273 26.2878 78.2315 26.2617C78.3487 26.2227 78.4594 26.1836 78.5635 26.1445C78.6677 26.1055 78.7654 26.0599 78.8565 26.0078C78.9607 25.9427 79.0388 25.8451 79.0909 25.7148H79.3448C79.3969 25.7148 79.4489 25.7214 79.501 25.7344C79.5661 25.7344 79.6182 25.7539 79.6573 25.793C79.7094 25.7409 79.7745 25.6953 79.8526 25.6562C79.9307 25.6172 80.0023 25.5781 80.0674 25.5391C80.1456 25.5 80.2107 25.4544 80.2627 25.4023C80.3148 25.3503 80.3474 25.2721 80.3604 25.168C80.3734 25.207 80.406 25.2266 80.4581 25.2266C80.5101 25.2266 80.5557 25.2135 80.5948 25.1875C80.6469 25.1615 80.7055 25.1549 80.7706 25.168C80.8357 24.9857 80.9463 24.888 81.1026 24.875C81.2588 24.862 81.4021 24.8164 81.5323 24.7383C81.6234 24.6862 81.7081 24.6276 81.7862 24.5625C81.8643 24.4844 81.9489 24.4128 82.0401 24.3477L83.212 23.4492L85.0088 22.082C85.6078 21.6263 86.2198 21.2031 86.8448 20.8125C86.8708 20.7344 86.9099 20.6758 86.962 20.6367C87.0141 20.5977 87.0661 20.5586 87.1182 20.5195C87.1703 20.4674 87.2094 20.4154 87.2354 20.3633C87.2745 20.3112 87.2875 20.2331 87.2745 20.1289C87.4568 20.0898 87.5935 20.0182 87.6846 19.9141C87.7888 19.8099 87.8799 19.6992 87.9581 19.582C88.0362 19.4518 88.1143 19.3281 88.1924 19.2109C88.2836 19.0807 88.4008 18.9831 88.544 18.918C88.531 18.8789 88.5245 18.8203 88.5245 18.7422C88.5245 18.638 88.531 18.5339 88.544 18.4297C88.57 18.3255 88.6221 18.2344 88.7002 18.1562C88.5831 17.8828 88.3812 17.6875 88.0948 17.5703C87.8083 17.4401 87.5349 17.3294 87.2745 17.2383H87.2159C87.1508 17.2383 87.1117 17.2708 87.0987 17.3359C87.0987 17.388 87.0661 17.4271 87.001 17.4531C86.7927 17.401 86.5583 17.375 86.2979 17.375C86.0375 17.375 85.7771 17.3945 85.5167 17.4336C85.2693 17.4727 85.0154 17.4792 84.7549 17.4531C84.7159 17.5052 84.6703 17.5573 84.6182 17.6094C84.5792 17.6615 84.5271 17.707 84.462 17.7461C84.1885 17.7591 83.9151 17.7982 83.6417 17.8633L82.8213 18.0586L82.3721 18.1562C82.307 18.1823 82.2614 18.2279 82.2354 18.293C82.2094 18.3581 82.1898 18.4297 82.1768 18.5078C82.0987 18.4948 82.0466 18.4622 82.0206 18.4102C82.0075 18.3581 81.962 18.319 81.8838 18.293C81.5844 18.4753 81.2588 18.625 80.9073 18.7422C80.5687 18.8594 80.2627 19.0417 79.9893 19.2891C79.8982 19.1849 79.768 19.1328 79.5987 19.1328C79.4555 19.1328 79.2992 19.1784 79.1299 19.2695C78.9607 19.3607 78.8565 19.4779 78.8174 19.6211C78.6872 19.5951 78.5896 19.582 78.5245 19.582C78.3812 19.582 78.2575 19.6211 78.1534 19.6992C78.0622 19.7773 77.9711 19.8685 77.8799 19.9727C77.7888 20.0638 77.6911 20.1549 77.587 20.2461C77.4828 20.3372 77.3526 20.3893 77.1963 20.4023C77.1963 20.4674 77.1963 20.5391 77.1963 20.6172C77.2094 20.6823 77.2159 20.7539 77.2159 20.832C77.2159 21.418 77.1833 22.0039 77.1182 22.5898C77.0531 23.1628 77.0206 23.7422 77.0206 24.3281C77.0206 24.4583 77.0271 24.5885 77.0401 24.7188C77.0531 24.8359 77.0596 24.9661 77.0596 25.1094C77.0596 25.1484 77.0271 25.2331 76.962 25.3633C76.9099 25.4935 76.8708 25.5911 76.8448 25.6562C76.8969 25.7995 76.9164 25.9427 76.9034 26.0859C76.9034 26.2292 76.9359 26.3659 77.001 26.4961C76.8838 26.6003 76.8252 26.7435 76.8252 26.9258C76.8252 27.0039 76.8252 27.082 76.8252 27.1602C76.8383 27.2383 76.8448 27.3164 76.8448 27.3945V27.6289C76.8057 27.8893 76.7797 28.1562 76.7667 28.4297C76.7536 28.6901 76.7471 28.9505 76.7471 29.2109C76.7471 29.3281 76.7471 29.5299 76.7471 29.8164C76.7601 30.0898 76.7797 30.4023 76.8057 30.7539C76.8318 31.0924 76.8708 31.444 76.9229 31.8086C76.975 32.1732 77.0401 32.5117 77.1182 32.8242C77.2094 33.1237 77.32 33.3711 77.4502 33.5664C77.5805 33.7617 77.7367 33.8594 77.919 33.8594C77.9581 33.8594 78.0036 33.8529 78.0557 33.8398C78.1208 33.8268 78.1534 33.7943 78.1534 33.7422C78.1534 33.6901 78.1404 33.6445 78.1143 33.6055C78.1013 33.5664 78.0948 33.5208 78.0948 33.4688L78.1143 33.4297C78.2185 33.4818 78.3292 33.5143 78.4463 33.5273C78.5766 33.5404 78.7068 33.5534 78.837 33.5664C78.9672 33.5794 79.0909 33.599 79.2081 33.625C79.3252 33.6641 79.4294 33.7357 79.5206 33.8398C79.4685 33.944 79.4424 34.0547 79.4424 34.1719C79.4424 34.3281 79.4815 34.4714 79.5596 34.6016C79.6377 34.7448 79.6898 34.888 79.7159 35.0312C79.4685 35.1094 79.2406 35.194 79.0323 35.2852C78.837 35.3893 78.6417 35.4805 78.4463 35.5586C78.251 35.6497 78.0427 35.7279 77.8213 35.793C77.6 35.8711 77.3461 35.9232 77.0596 35.9492C76.8773 35.832 76.7211 35.7279 76.5909 35.6367C76.4607 35.5456 76.2849 35.487 76.0635 35.4609C75.725 35.0052 75.445 34.4909 75.2237 33.918C75.0023 33.3581 74.8266 32.7721 74.6963 32.1602C74.5792 31.5482 74.4945 30.9362 74.4424 30.3242C74.4034 29.6992 74.3838 29.1133 74.3838 28.5664C74.3838 27.9674 74.4034 27.375 74.4424 26.7891C74.4945 26.1901 74.5596 25.5911 74.6377 24.9922C74.6638 24.8099 74.6898 24.6276 74.7159 24.4453C74.7419 24.25 74.768 24.0612 74.794 23.8789C74.82 23.8138 74.8396 23.7422 74.8526 23.6641C74.8786 23.5729 74.8917 23.4948 74.8917 23.4297C74.8917 23.2083 74.8851 22.987 74.8721 22.7656C74.8591 22.5443 74.8526 22.3294 74.8526 22.1211C74.8526 21.7956 74.8721 21.4635 74.9112 21.125C74.9242 21.0599 74.9437 20.9753 74.9698 20.8711C75.0088 20.7669 75.0284 20.6758 75.0284 20.5977C75.0284 20.4935 75.0023 20.4219 74.9502 20.3828C74.8982 20.3438 74.8526 20.2786 74.8135 20.1875C74.8526 20.0573 74.8851 19.9336 74.9112 19.8164C74.9372 19.6862 74.9502 19.556 74.9502 19.4258C74.9502 19.1784 74.9047 18.9635 74.8135 18.7812C74.8786 18.4427 74.9763 18.1107 75.1065 17.7852C75.2367 17.4596 75.4646 17.2122 75.7901 17.043C76.0505 17.056 76.3109 17.082 76.5713 17.1211C76.8448 17.1602 77.0792 17.2708 77.2745 17.4531C77.3656 17.401 77.4698 17.3685 77.587 17.3555L77.9581 17.3164C78.0883 17.3034 78.2055 17.2839 78.3096 17.2578C78.4138 17.2188 78.5049 17.1471 78.5831 17.043C78.8435 16.9909 79.1234 16.9193 79.4229 16.8281C79.7224 16.724 79.9828 16.6068 80.2042 16.4766H80.6338C80.725 16.4115 80.8292 16.3659 80.9463 16.3398L81.3174 16.2422C81.4476 16.2031 81.5648 16.1641 81.669 16.125C81.7862 16.0859 81.8773 16.0208 81.9424 15.9297H82.0206C82.32 15.9297 82.613 15.8646 82.8995 15.7344C83.1859 15.6042 83.4659 15.487 83.7393 15.3828C83.8044 15.3568 83.9021 15.3112 84.0323 15.2461C84.1755 15.181 84.2732 15.1484 84.3252 15.1484C84.5075 15.1224 84.6898 15.1094 84.8721 15.1094C85.0544 15.0964 85.2367 15.0703 85.419 15.0312C85.8357 14.9661 86.2458 14.8945 86.6495 14.8164C87.0661 14.7253 87.4828 14.6797 87.8995 14.6797C88.0427 14.6797 88.1729 14.6862 88.2901 14.6992C88.4203 14.6992 88.557 14.7057 88.7002 14.7188C88.7133 14.7708 88.7458 14.8164 88.7979 14.8555C88.85 14.8815 88.8956 14.9076 88.9346 14.9336C88.9867 14.9596 89.0323 14.9987 89.0713 15.0508C89.1104 15.0898 89.1234 15.1484 89.1104 15.2266C89.1364 15.2526 89.1625 15.2656 89.1885 15.2656C89.2276 15.2656 89.2601 15.2461 89.2862 15.207C89.3252 15.168 89.3773 15.1484 89.4424 15.1484H89.5401C89.7094 15.3307 89.8721 15.5065 90.0284 15.6758C90.1976 15.832 90.406 15.9622 90.6534 16.0664C90.7575 16.457 90.8812 16.8411 91.0245 17.2188C91.1677 17.5964 91.2393 18 91.2393 18.4297C91.2393 18.6901 91.2002 18.944 91.1221 19.1914C90.9398 19.2826 90.8096 19.4258 90.7315 19.6211C90.6534 19.8164 90.5818 20.0052 90.5167 20.1875C90.1521 20.3698 89.8461 20.6107 89.5987 20.9102C89.3513 21.2096 89.0974 21.5091 88.837 21.8086H88.5245C88.4724 21.8086 88.4333 21.8281 88.4073 21.8672L88.2315 22.0625C88.1143 22.1667 87.9841 22.2708 87.8409 22.375C87.7107 22.4792 87.613 22.6159 87.5479 22.7852C87.1443 23.0065 86.7536 23.2539 86.376 23.5273C86.0114 23.8008 85.6599 24.0872 85.3213 24.3867C85.1781 24.5039 85.0349 24.6406 84.8917 24.7969C84.7484 24.9401 84.6052 25.0638 84.462 25.168C84.3838 25.2331 84.2927 25.2917 84.1885 25.3438C84.0974 25.3828 84.0127 25.4349 83.9346 25.5C83.7654 25.6302 83.6091 25.7669 83.4659 25.9102C83.3226 26.0404 83.1729 26.1641 83.0167 26.2812C83.6026 26.2552 84.195 26.2422 84.794 26.2422C85.393 26.2292 85.9854 26.2161 86.5713 26.2031C86.8708 26.2031 87.1638 26.1966 87.4502 26.1836C87.7367 26.1576 88.0297 26.1445 88.3292 26.1445C88.3812 26.1445 88.4268 26.1576 88.4659 26.1836C88.5049 26.1966 88.5505 26.2096 88.6026 26.2227C88.8239 26.2617 89.0193 26.3073 89.1885 26.3594C89.8135 26.4766 90.4385 26.5807 91.0635 26.6719C91.6885 26.763 92.3005 26.9128 92.8995 27.1211C93.0687 27.1862 93.1924 27.2578 93.2706 27.3359C93.3617 27.4141 93.518 27.4336 93.7393 27.3945C93.9216 27.5768 94.1169 27.7201 94.3252 27.8242C94.5466 27.9284 94.768 28.0195 94.9893 28.0977C95.1586 28.3581 95.3148 28.6055 95.4581 28.8398C95.6143 29.0742 95.6924 29.3542 95.6924 29.6797ZM111.278 31.5742C111.239 31.7565 111.155 31.9062 111.024 32.0234C110.907 32.1276 110.764 32.2122 110.595 32.2773C110.426 32.3424 110.25 32.388 110.067 32.4141C109.898 32.4271 109.742 32.4336 109.599 32.4336C109.534 32.4336 109.468 32.4336 109.403 32.4336C109.351 32.4206 109.293 32.4141 109.228 32.4141C109.162 32.4141 109.13 32.4466 109.13 32.5117C109.13 32.5768 109.097 32.6224 109.032 32.6484C108.967 32.6224 108.902 32.6029 108.837 32.5898C108.772 32.5768 108.707 32.5703 108.642 32.5703C108.551 32.5703 108.459 32.5768 108.368 32.5898C108.29 32.6029 108.212 32.6094 108.134 32.6094C108.03 32.6094 107.952 32.5964 107.899 32.5703C107.86 32.5443 107.821 32.5182 107.782 32.4922C107.756 32.4531 107.724 32.4141 107.685 32.375C107.659 32.3359 107.613 32.3034 107.548 32.2773C107.457 32.2383 107.379 32.2318 107.314 32.2578C107.261 32.2839 107.177 32.2448 107.06 32.1406C106.903 32.0104 106.767 31.8542 106.649 31.6719C106.545 31.4766 106.441 31.2747 106.337 31.0664C106.233 30.8581 106.122 30.6497 106.005 30.4414C105.888 30.2331 105.751 30.0508 105.595 29.8945H105.439C105.204 29.8945 105.041 29.9922 104.95 30.1875C104.885 30.1484 104.82 30.1029 104.755 30.0508C104.69 29.9857 104.618 29.9336 104.54 29.8945C104.241 29.9857 103.928 30.0638 103.603 30.1289C103.277 30.194 102.952 30.2266 102.626 30.2266H102.353C102.274 30.2266 102.19 30.2135 102.099 30.1875C101.968 30.2396 101.851 30.3047 101.747 30.3828C101.643 30.4479 101.526 30.4805 101.396 30.4805C101.317 30.4805 101.226 30.4544 101.122 30.4023C101.044 30.4023 101.005 30.4349 101.005 30.5C101.018 30.5651 100.979 30.5977 100.888 30.5977H100.712C100.53 30.5977 100.347 30.6042 100.165 30.6172C99.9958 30.6302 99.82 30.6367 99.6377 30.6367C99.3904 30.6367 99.1364 30.6042 98.876 30.5391C98.8109 30.5781 98.7393 30.5977 98.6612 30.5977C98.6091 30.6237 98.57 30.6693 98.544 30.7344C98.518 30.7865 98.4919 30.8385 98.4659 30.8906C98.4398 30.9297 98.4008 30.9688 98.3487 31.0078C98.3096 31.0339 98.251 31.0404 98.1729 31.0273C98.1469 31.1836 98.0818 31.3073 97.9776 31.3984C97.8734 31.4896 97.8213 31.6263 97.8213 31.8086C97.6781 31.8867 97.5609 31.9844 97.4698 32.1016C97.3786 32.2188 97.2875 32.3424 97.1963 32.4727C97.1052 32.6029 97.0075 32.7266 96.9034 32.8438C96.8122 32.9609 96.695 33.0521 96.5518 33.1172C96.4867 33.1953 96.4672 33.319 96.4932 33.4883C96.35 33.6055 96.1742 33.7096 95.9659 33.8008C95.7575 33.8919 95.5622 33.9375 95.3799 33.9375C95.0023 33.9375 94.7419 33.7357 94.5987 33.332C94.5987 33.2018 94.6117 33.0651 94.6377 32.9219C94.6508 32.7656 94.6768 32.6224 94.7159 32.4922C94.7549 32.349 94.8135 32.2253 94.8917 32.1211C94.9698 32.0039 95.0805 31.9193 95.2237 31.8672C95.2237 31.75 95.1846 31.6719 95.1065 31.6328C95.0284 31.5807 94.9958 31.4961 95.0088 31.3789C95.3604 31.2096 95.6664 30.9883 95.9268 30.7148C96.1872 30.4414 96.4216 30.1549 96.6299 29.8555C96.8513 29.543 97.0726 29.2305 97.294 28.918C97.5154 28.6055 97.7627 28.3255 98.0362 28.0781V27.668C98.4268 27.2513 98.6807 26.7826 98.7979 26.2617C98.9411 26.2357 99.0323 26.1706 99.0713 26.0664C99.1234 25.9622 99.1495 25.8385 99.1495 25.6953C99.2146 25.6953 99.2536 25.6693 99.2667 25.6172C99.2927 25.5521 99.3513 25.5326 99.4424 25.5586C99.5596 25.2461 99.6898 24.9596 99.8331 24.6992C99.9763 24.4388 100.12 24.1784 100.263 23.918C100.406 23.6445 100.53 23.3646 100.634 23.0781C100.751 22.7917 100.836 22.4727 100.888 22.1211C101.07 22.1081 101.168 22.0234 101.181 21.8672C101.207 21.6979 101.233 21.5482 101.259 21.418C101.454 21.2357 101.597 21.0208 101.689 20.7734C101.793 20.526 101.884 20.2721 101.962 20.0117C102.04 19.7383 102.125 19.4714 102.216 19.2109C102.32 18.9375 102.463 18.6966 102.646 18.4883V18.4297C102.646 18.3646 102.62 18.3255 102.567 18.3125C102.515 18.2865 102.489 18.2409 102.489 18.1758C102.502 18.1628 102.509 18.1497 102.509 18.1367C102.665 18.0716 102.782 17.9674 102.86 17.8242C102.939 17.668 103.056 17.5573 103.212 17.4922C103.485 17.7135 103.726 17.8503 103.935 17.9023C104.143 17.9414 104.416 17.974 104.755 18C104.924 18.1823 105.015 18.4036 105.028 18.6641C105.054 18.9115 105.1 19.1589 105.165 19.4062C105.269 19.8229 105.38 20.2331 105.497 20.6367C105.627 21.0273 105.725 21.431 105.79 21.8477C105.829 22.0951 105.901 22.3294 106.005 22.5508C106.109 22.7721 106.181 23 106.22 23.2344C106.246 23.4167 106.246 23.625 106.22 23.8594C106.194 24.0807 106.22 24.276 106.298 24.4453L106.435 24.7578C106.5 24.901 106.552 25.0508 106.591 25.207C106.643 25.3633 106.689 25.5195 106.728 25.6758C106.832 26.0664 106.923 26.4896 107.001 26.9453C107.092 27.388 107.229 27.7917 107.411 28.1562C107.476 28.2865 107.574 28.3776 107.704 28.4297C107.847 28.4818 108.004 28.5208 108.173 28.5469C108.342 28.5599 108.505 28.5664 108.661 28.5664C108.83 28.5534 108.974 28.5469 109.091 28.5469H109.286C109.364 28.5469 109.442 28.5599 109.521 28.5859C109.573 28.6901 109.599 28.7812 109.599 28.8594C109.599 29.0156 109.547 29.1393 109.442 29.2305C109.338 29.3216 109.286 29.4258 109.286 29.543C109.286 29.6081 109.312 29.6797 109.364 29.7578C109.312 29.7448 109.234 29.7383 109.13 29.7383C108.83 29.7383 108.537 29.7904 108.251 29.8945C108.355 30.1159 108.492 30.3047 108.661 30.4609C108.843 30.6042 109.032 30.7409 109.228 30.8711C109.358 30.7669 109.495 30.7148 109.638 30.7148C109.794 30.7148 109.937 30.7539 110.067 30.832C110.211 30.8971 110.36 30.9297 110.517 30.9297C110.634 30.9297 110.718 30.9102 110.771 30.8711C110.875 30.9883 110.959 31.112 111.024 31.2422C111.09 31.3594 111.174 31.4701 111.278 31.5742ZM105.165 28.4492C105.139 28.2279 105.093 28.0716 105.028 27.9805C104.976 27.8763 104.931 27.7526 104.892 27.6094C104.84 27.4271 104.801 27.2318 104.774 27.0234C104.761 26.8151 104.735 26.6133 104.696 26.418C104.605 25.9753 104.501 25.5326 104.384 25.0898C104.28 24.6471 104.143 24.2174 103.974 23.8008C104.026 23.7227 104.052 23.651 104.052 23.5859V23.5273C103.935 23.3971 103.85 23.2409 103.798 23.0586C103.746 22.8633 103.694 22.6745 103.642 22.4922C103.603 22.2969 103.544 22.1211 103.466 21.9648C103.401 21.7956 103.29 21.6589 103.134 21.5547C103.095 21.6328 103.075 21.724 103.075 21.8281C103.075 21.9193 103.082 22.0039 103.095 22.082C103.121 22.1602 103.134 22.2448 103.134 22.3359C103.004 22.401 102.906 22.5052 102.841 22.6484C102.789 22.7786 102.698 22.8828 102.567 22.9609C102.463 23.3776 102.314 23.7747 102.118 24.1523C101.923 24.5169 101.715 24.8815 101.493 25.2461C101.285 25.6107 101.083 25.9818 100.888 26.3594C100.692 26.724 100.536 27.1081 100.419 27.5117C100.25 27.6289 100.133 27.7786 100.067 27.9609C100.015 28.1432 99.9893 28.3255 99.9893 28.5078C100.106 28.5729 100.237 28.612 100.38 28.625C100.536 28.625 100.686 28.625 100.829 28.625C100.972 28.625 101.109 28.638 101.239 28.6641C101.37 28.6901 101.487 28.7552 101.591 28.8594C101.76 28.8073 101.942 28.7747 102.138 28.7617C102.346 28.7357 102.515 28.6771 102.646 28.5859C102.906 28.6771 103.186 28.7227 103.485 28.7227C103.642 28.7227 103.791 28.7096 103.935 28.6836C104.091 28.6576 104.241 28.625 104.384 28.5859C104.501 28.612 104.592 28.6576 104.657 28.7227C104.722 28.7747 104.82 28.7943 104.95 28.7812C105.015 28.7292 105.054 28.6771 105.067 28.625C105.08 28.5599 105.113 28.5013 105.165 28.4492ZM125.771 29.4844C125.771 29.6146 125.731 29.7253 125.653 29.8164C125.588 29.8945 125.504 29.9661 125.399 30.0312C125.308 30.0964 125.211 30.1549 125.106 30.207C125.015 30.2591 124.931 30.3242 124.853 30.4023C124.801 30.4544 124.761 30.5195 124.735 30.5977C124.722 30.6628 124.69 30.7083 124.638 30.7344C124.56 30.7995 124.475 30.8385 124.384 30.8516C124.293 30.8646 124.195 30.8841 124.091 30.9102C124 30.9232 123.909 30.9492 123.817 30.9883C123.726 31.0143 123.648 31.0729 123.583 31.1641C122.971 31.2292 122.366 31.3138 121.767 31.418C121.181 31.5221 120.575 31.5742 119.95 31.5742C119.833 31.5742 119.703 31.5872 119.56 31.6133C119.429 31.6263 119.306 31.6393 119.189 31.6523C118.915 31.6784 118.642 31.6979 118.368 31.7109C118.108 31.724 117.841 31.7305 117.567 31.7305C117.19 31.7305 116.812 31.7174 116.435 31.6914C116.057 31.6523 115.686 31.5938 115.321 31.5156C115.23 31.4505 115.126 31.3984 115.009 31.3594C114.892 31.3203 114.768 31.2812 114.638 31.2422C114.521 31.2031 114.41 31.1576 114.306 31.1055C114.202 31.0534 114.123 30.9753 114.071 30.8711C113.876 30.8581 113.7 30.819 113.544 30.7539C113.401 30.6888 113.264 30.6172 113.134 30.5391C113.017 30.4479 112.893 30.3568 112.763 30.2656C112.633 30.1745 112.483 30.0964 112.314 30.0312C112.183 29.849 112.047 29.6732 111.903 29.5039C111.773 29.3216 111.61 29.1719 111.415 29.0547C111.376 28.8073 111.311 28.5599 111.22 28.3125C111.142 28.0651 111.057 27.8242 110.966 27.5898C110.888 27.3424 110.823 27.0951 110.771 26.8477C110.705 26.6003 110.673 26.3464 110.673 26.0859C110.673 25.9036 110.699 25.6823 110.751 25.4219C110.803 25.1615 110.868 24.901 110.946 24.6406C111.037 24.3672 111.142 24.1133 111.259 23.8789C111.376 23.6445 111.493 23.4557 111.61 23.3125C111.649 23.2734 111.695 23.2409 111.747 23.2148C111.799 23.1888 111.845 23.1497 111.884 23.0977C112.001 22.9674 112.125 22.8633 112.255 22.7852C112.385 22.694 112.522 22.5898 112.665 22.4727C112.717 22.4206 112.756 22.362 112.782 22.2969C112.821 22.2318 112.873 22.1732 112.939 22.1211C112.978 22.0951 113.03 22.0885 113.095 22.1016C113.173 22.1146 113.238 22.1016 113.29 22.0625C113.342 22.0234 113.368 21.9779 113.368 21.9258C113.368 21.8737 113.388 21.8281 113.427 21.7891C113.44 21.776 113.479 21.776 113.544 21.7891C113.609 21.7891 113.648 21.7891 113.661 21.7891C113.752 21.7891 113.856 21.7305 113.974 21.6133C114.091 21.4831 114.189 21.3984 114.267 21.3594C114.358 21.3073 114.449 21.2747 114.54 21.2617C114.631 21.2357 114.729 21.1966 114.833 21.1445C114.976 21.0664 115.113 21.0078 115.243 20.9688C115.386 20.9167 115.53 20.8581 115.673 20.793C115.751 20.7669 115.823 20.7214 115.888 20.6562C115.953 20.5911 116.018 20.5456 116.083 20.5195C116.2 20.4805 116.324 20.4544 116.454 20.4414C116.597 20.4154 116.728 20.3958 116.845 20.3828C116.975 20.3568 117.099 20.3307 117.216 20.3047C117.346 20.2656 117.463 20.2005 117.567 20.1094H117.724C117.958 20.1094 118.186 20.0768 118.407 20.0117C118.629 19.9466 118.856 19.9141 119.091 19.9141C119.156 19.9141 119.254 19.9271 119.384 19.9531C119.488 19.888 119.605 19.8555 119.735 19.8555C119.957 19.8555 120.178 19.9141 120.399 20.0312C120.621 20.1354 120.849 20.1875 121.083 20.1875H121.2C121.252 20.1875 121.304 20.181 121.356 20.168C121.5 20.3112 121.669 20.3893 121.864 20.4023C122.073 20.4154 122.248 20.474 122.392 20.5781C122.483 20.6562 122.554 20.7474 122.606 20.8516C122.672 20.9557 122.724 21.0664 122.763 21.1836L122.88 21.5352C122.919 21.6523 122.971 21.7565 123.036 21.8477C122.971 22.3164 122.776 22.694 122.45 22.9805C122.138 23.2539 121.741 23.3906 121.259 23.3906C121.077 23.3906 120.92 23.3711 120.79 23.332C120.673 23.2799 120.562 23.2279 120.458 23.1758C120.367 23.1237 120.269 23.0716 120.165 23.0195C120.061 22.9674 119.944 22.9284 119.814 22.9023C119.957 22.6419 120.048 22.362 120.087 22.0625C119.944 21.9974 119.801 21.9518 119.657 21.9258C119.514 21.8997 119.377 21.8542 119.247 21.7891C118.896 21.8802 118.551 21.9453 118.212 21.9844C117.886 22.0104 117.58 22.1471 117.294 22.3945C117.229 22.3815 117.157 22.3685 117.079 22.3555C117.014 22.3424 116.949 22.3359 116.884 22.3359C116.806 22.3359 116.649 22.3945 116.415 22.5117C116.181 22.6159 115.927 22.7396 115.653 22.8828C115.393 23.026 115.139 23.1693 114.892 23.3125C114.657 23.4557 114.495 23.5534 114.403 23.6055C114.299 23.6706 114.208 23.7487 114.13 23.8398C114.052 23.931 113.974 24.0286 113.896 24.1328C113.817 24.224 113.739 24.3151 113.661 24.4062C113.583 24.4844 113.485 24.543 113.368 24.582C113.342 24.7253 113.297 24.849 113.231 24.9531C113.166 25.0573 113.095 25.168 113.017 25.2852C113.004 25.5195 112.978 25.7539 112.939 25.9883C112.912 26.2227 112.899 26.457 112.899 26.6914V26.9453C112.899 27.0234 112.912 27.0951 112.939 27.1602C113.069 27.3294 113.173 27.5182 113.251 27.7266C113.342 27.9349 113.492 28.0781 113.7 28.1562C113.713 28.2083 113.707 28.2409 113.681 28.2539C113.668 28.2669 113.655 28.2995 113.642 28.3516C113.72 28.4948 113.817 28.612 113.935 28.7031C114.065 28.7812 114.195 28.8659 114.325 28.957C114.455 29.0352 114.579 29.1198 114.696 29.2109C114.814 29.3021 114.905 29.4193 114.97 29.5625C115.165 29.5625 115.347 29.5951 115.517 29.6602C115.699 29.7253 115.868 29.7969 116.024 29.875C116.194 29.9531 116.35 30.0247 116.493 30.0898C116.649 30.1549 116.806 30.1875 116.962 30.1875C117.105 30.1875 117.235 30.168 117.353 30.1289C117.691 30.2331 118.03 30.3112 118.368 30.3633C118.72 30.4023 119.071 30.4219 119.423 30.4219C119.853 30.4219 120.282 30.3958 120.712 30.3438C121.142 30.2917 121.571 30.2461 122.001 30.207C122.157 30.181 122.307 30.168 122.45 30.168C122.593 30.168 122.737 30.1549 122.88 30.1289C123.062 30.1029 123.231 30.0182 123.388 29.875C123.557 29.7318 123.72 29.6276 123.876 29.5625C124.019 29.6536 124.189 29.6992 124.384 29.6992C124.605 29.6992 124.82 29.6667 125.028 29.6016C125.237 29.5234 125.452 29.4844 125.673 29.4844H125.771ZM141.064 32.0039C141.064 32.1081 141.018 32.1927 140.927 32.2578C140.836 32.3229 140.731 32.388 140.614 32.4531L140.263 32.6289C140.146 32.681 140.067 32.7526 140.028 32.8438C139.885 32.8047 139.742 32.7786 139.599 32.7656C139.468 32.7526 139.338 32.7461 139.208 32.7461C139.039 32.7461 138.863 32.7656 138.681 32.8047C138.498 32.8307 138.355 32.9154 138.251 33.0586C138.186 33.0326 138.127 33.0195 138.075 33.0195H137.919C137.724 33.0195 137.522 33.0326 137.314 33.0586C137.118 33.0977 136.923 33.1172 136.728 33.1172C136.623 33.1172 136.519 33.1107 136.415 33.0977C136.324 33.0846 136.239 33.0456 136.161 32.9805C136.044 33.0195 135.92 33.0391 135.79 33.0391C135.621 33.0391 135.458 33.013 135.302 32.9609C135.146 32.9089 134.989 32.8503 134.833 32.7852C134.69 32.707 134.54 32.6354 134.384 32.5703C134.228 32.5052 134.071 32.4531 133.915 32.4141L133.778 32.1406C133.57 32.1016 133.375 32.043 133.192 31.9648C133.023 31.8737 132.854 31.776 132.685 31.6719C132.515 31.5677 132.346 31.4701 132.177 31.3789C132.021 31.2747 131.858 31.2031 131.689 31.1641C131.623 31.112 131.565 31.0664 131.513 31.0273C131.461 30.9753 131.422 30.9036 131.396 30.8125C131.226 30.7734 131.07 30.7214 130.927 30.6562L130.517 30.4414C130.386 30.3633 130.237 30.2982 130.067 30.2461C129.911 30.181 129.722 30.1419 129.501 30.1289C129.423 30.0117 129.312 29.901 129.169 29.7969C129.026 29.6927 128.883 29.6406 128.739 29.6406C128.648 29.6406 128.577 29.6602 128.524 29.6992V29.7969C128.524 29.9531 128.57 30.1094 128.661 30.2656C128.752 30.4219 128.87 30.5326 129.013 30.5977C129 30.6237 128.993 30.6628 128.993 30.7148C128.993 30.793 129.006 30.8711 129.032 30.9492C129.071 31.0273 129.136 31.0794 129.228 31.1055C129.176 31.2487 129.11 31.3984 129.032 31.5547C128.954 31.6979 128.856 31.8346 128.739 31.9648C128.622 32.0951 128.492 32.2057 128.349 32.2969C128.218 32.375 128.069 32.4141 127.899 32.4141C127.847 32.4401 127.808 32.4792 127.782 32.5312C127.769 32.5833 127.756 32.6419 127.743 32.707C127.743 32.7591 127.73 32.8112 127.704 32.8633C127.691 32.9154 127.665 32.9544 127.626 32.9805C127.574 32.9935 127.502 33 127.411 33C127.281 33 127.17 32.9805 127.079 32.9414C126.988 32.9023 126.89 32.8503 126.786 32.7852V32.707C126.786 32.5508 126.754 32.4271 126.689 32.3359C126.636 32.2448 126.571 32.1602 126.493 32.082C126.428 31.9909 126.363 31.8997 126.298 31.8086C126.246 31.7174 126.22 31.5938 126.22 31.4375C126.181 31.4635 126.135 31.4831 126.083 31.4961C126.044 31.5091 126.018 31.5352 126.005 31.5742C125.979 31.444 125.966 31.3333 125.966 31.2422C125.966 30.9818 126.005 30.7344 126.083 30.5C126.174 30.2656 126.22 30.0182 126.22 29.7578V29.4648C126.22 29.1654 126.213 28.8724 126.2 28.5859C126.187 28.2995 126.181 28.013 126.181 27.7266C126.181 27.4792 126.187 27.2383 126.2 27.0039C126.213 26.7565 126.239 26.5091 126.278 26.2617C126.422 25.4023 126.539 24.5495 126.63 23.7031C126.734 22.8438 126.897 21.9909 127.118 21.1445C127.105 21.0794 127.086 21.0143 127.06 20.9492C127.047 20.8841 127.04 20.819 127.04 20.7539C127.04 20.7018 127.047 20.6693 127.06 20.6562C127.112 20.3958 127.229 20.181 127.411 20.0117C127.593 19.8294 127.828 19.7383 128.114 19.7383H128.173C128.329 19.8034 128.446 19.901 128.524 20.0312C128.616 20.1484 128.752 20.194 128.935 20.168C128.935 20.194 128.928 20.2201 128.915 20.2461C128.915 20.2721 128.915 20.2982 128.915 20.3242C128.915 20.4674 128.954 20.5716 129.032 20.6367C129.11 20.7018 129.202 20.7734 129.306 20.8516C129.241 20.9818 129.195 21.1315 129.169 21.3008C129.156 21.4701 129.143 21.6393 129.13 21.8086C129.117 21.9779 129.091 22.1406 129.052 22.2969C129.026 22.4531 128.967 22.5833 128.876 22.6875C128.928 22.8177 128.961 22.9479 128.974 23.0781C128.987 23.2083 128.993 23.3451 128.993 23.4883C128.993 23.6315 128.987 23.7812 128.974 23.9375C128.961 24.0807 128.954 24.2305 128.954 24.3867C128.954 24.5299 128.974 24.6602 129.013 24.7773C129.299 24.7773 129.462 24.6406 129.501 24.3672C129.84 24.276 130.139 24.1523 130.399 23.9961C130.673 23.8268 130.933 23.651 131.181 23.4688C131.428 23.2865 131.669 23.0977 131.903 22.9023C132.151 22.707 132.424 22.5378 132.724 22.3945V22.3555C132.724 22.2904 132.743 22.2513 132.782 22.2383C132.821 22.2122 132.828 22.1536 132.802 22.0625C132.997 21.9974 133.16 21.9128 133.29 21.8086C133.433 21.6914 133.564 21.5677 133.681 21.4375L134.052 21.0273C134.182 20.8841 134.325 20.7604 134.481 20.6562C134.586 20.4349 134.677 20.2005 134.755 19.9531C134.846 19.7057 134.963 19.4779 135.106 19.2695C135.354 19.2695 135.621 19.2891 135.907 19.3281C136.207 19.3672 136.461 19.4583 136.669 19.6016C136.643 19.7057 136.689 19.7773 136.806 19.8164C136.662 20.3633 136.448 20.8581 136.161 21.3008C135.875 21.7305 135.504 22.0951 135.048 22.3945C134.983 22.5378 134.898 22.6615 134.794 22.7656C134.69 22.8698 134.586 22.974 134.481 23.0781C134.377 23.1693 134.273 23.2669 134.169 23.3711C134.065 23.4753 133.98 23.599 133.915 23.7422C133.759 23.7682 133.622 23.8138 133.505 23.8789C133.401 23.944 133.297 24.0221 133.192 24.1133C133.101 24.1914 132.997 24.2695 132.88 24.3477C132.776 24.4128 132.659 24.4648 132.528 24.5039C132.424 24.6341 132.301 24.7448 132.157 24.8359C132.027 24.9271 131.89 25.0182 131.747 25.1094C131.617 25.1875 131.493 25.2786 131.376 25.3828C131.259 25.474 131.174 25.5977 131.122 25.7539H130.614C130.471 26.0013 130.282 26.2096 130.048 26.3789C129.827 26.5352 129.599 26.6849 129.364 26.8281C129.403 26.9844 129.475 27.1146 129.579 27.2188C129.683 27.3099 129.794 27.3945 129.911 27.4727C130.041 27.5508 130.165 27.6354 130.282 27.7266C130.412 27.8047 130.523 27.9023 130.614 28.0195C131.161 28.2279 131.689 28.4688 132.196 28.7422C132.704 29.0026 133.186 29.3216 133.642 29.6992C133.668 29.6862 133.7 29.6797 133.739 29.6797C133.843 29.6797 133.928 29.7122 133.993 29.7773C134.058 29.8294 134.149 29.849 134.267 29.8359C134.319 29.9661 134.39 30.0573 134.481 30.1094C134.573 30.1484 134.664 30.181 134.755 30.207C134.859 30.2331 134.957 30.2721 135.048 30.3242C135.139 30.3763 135.204 30.4674 135.243 30.5977C135.439 30.6107 135.614 30.6497 135.771 30.7148C135.94 30.7799 136.09 30.8841 136.22 31.0273H136.454C136.871 31.0273 137.274 31.0664 137.665 31.1445C138.056 31.2227 138.453 31.2617 138.856 31.2617C139.065 31.2617 139.267 31.2487 139.462 31.2227C139.657 31.1836 139.846 31.1185 140.028 31.0273C140.093 31.0664 140.165 31.1055 140.243 31.1445C140.321 31.1836 140.406 31.2031 140.497 31.2031C140.562 31.2031 140.66 31.1901 140.79 31.1641C140.803 31.3073 140.849 31.444 140.927 31.5742C141.018 31.7044 141.064 31.8477 141.064 32.0039Z" fill="white"/>
</g>
<defs>
<filter id="filter0_d" x="0" y="0" width="210" height="60" filterUnits="userSpaceOnUse" color-interpolation-filters="sRGB">
<feFlood flood-opacity="0" result="BackgroundImageFix"/>
<feColorMatrix in="SourceAlpha" type="matrix" values="0 0 0 0 0 0 0 0 0 0 0 0 0 0 0 0 0 0 127 0"/>
<feOffset dy="5"/>
<feGaussianBlur stdDeviation="2.5"/>
<feColorMatrix type="matrix" values="0 0 0 0 0 0 0 0 0 0 0 0 0 0 0 0 0 0 0.25 0"/>
<feBlend mode="normal" in2="BackgroundImageFix" result="effect1_dropShadow"/>
<feBlend mode="normal" in="SourceGraphic" in2="effect1_dropShadow" result="shape"/>
</filter>
</defs>
</svg>
