<svg width="200" height="50" viewBox="0 0 200 50" fill="none" xmlns="http://www.w3.org/2000/svg">
<g filter="url(#filter0_i)">
<rect y="6.27612" width="200" height="37.2385" rx="18.6192" fill="#FF5C00"/>
<path d="M90.6927 29.6797C90.6927 29.849 90.6471 30.0052 90.556 30.1484C90.4648 30.2786 90.4388 30.4349 90.4778 30.6172C90.4258 30.7083 90.3541 30.7799 90.263 30.832C90.1849 30.8841 90.1588 30.9818 90.1849 31.125C89.9114 31.2682 89.6575 31.4505 89.4231 31.6719C89.2018 31.8802 88.9609 32.082 88.7005 32.2773C88.5442 32.3945 88.4075 32.4792 88.2903 32.5312C88.1862 32.5703 88.056 32.6354 87.8997 32.7266L87.4114 33.0391C87.1901 33.1562 86.9622 33.2734 86.7278 33.3906C86.5065 33.5078 86.3047 33.6576 86.1224 33.8398C85.8489 33.8529 85.569 33.9245 85.2825 34.0547C84.9961 34.1979 84.7226 34.3216 84.4622 34.4258C84.358 34.4648 84.2539 34.4909 84.1497 34.5039C84.0455 34.5299 83.9414 34.569 83.8372 34.6211L83.5247 34.7578C83.3424 34.849 83.1276 34.9401 82.8802 35.0312C82.6328 35.1354 82.4114 35.1875 82.2161 35.1875C82.0989 35.2396 82.0013 35.3307 81.9231 35.4609C81.4935 35.6042 81.0508 35.7148 80.595 35.793C80.1393 35.8711 79.6966 35.9948 79.2669 36.1641C79.1237 36.2292 78.9739 36.3138 78.8177 36.418C78.6745 36.5352 78.5182 36.5872 78.3489 36.5742C78.3099 36.6393 78.2838 36.7174 78.2708 36.8086C78.2578 36.8997 78.2383 36.9909 78.2122 37.082H78.1536C78.1015 37.082 78.0755 37.056 78.0755 37.0039C78.0885 36.9518 78.069 36.9258 78.0169 36.9258C77.9778 36.9258 77.9518 36.9323 77.9388 36.9453C77.7695 36.9844 77.6067 37.0169 77.4505 37.043C77.3073 37.069 77.1445 37.082 76.9622 37.082C76.858 37.082 76.6888 37.069 76.4544 37.043C76.233 37.0169 76.0703 36.9844 75.9661 36.9453C75.888 36.9062 75.8229 36.8346 75.7708 36.7305C75.7187 36.6263 75.6666 36.5156 75.6146 36.3984C75.5755 36.2812 75.5364 36.1576 75.4974 36.0273C75.4713 35.9102 75.4453 35.8125 75.4192 35.7344C75.4583 35.5911 75.5234 35.474 75.6146 35.3828C75.7057 35.2917 75.7773 35.1745 75.8294 35.0312C75.9466 35.0182 76.0638 34.9987 76.181 34.9727C76.2981 34.9466 76.4153 34.9401 76.5325 34.9531C76.9362 34.8359 77.3398 34.7188 77.7435 34.6016C78.1601 34.4974 78.5703 34.3867 78.9739 34.2695C79.3776 34.1523 79.7747 34.0221 80.1653 33.8789C80.556 33.7357 80.9336 33.5599 81.2981 33.3516H81.7083C81.9427 33.2214 82.2031 33.1107 82.4896 33.0195C82.776 32.9284 83.0104 32.7786 83.1927 32.5703C83.6224 32.4792 84.0716 32.3555 84.5403 32.1992C85.0091 32.043 85.3997 31.7956 85.7122 31.457C85.9075 31.431 86.0768 31.3854 86.22 31.3203C86.3633 31.2422 86.5 31.1641 86.6302 31.0859L87.0208 30.832C87.151 30.7409 87.3008 30.6693 87.47 30.6172C87.5742 30.513 87.6718 30.4023 87.763 30.2852C87.8541 30.168 87.9648 30.0703 88.095 29.9922C88.056 29.7839 87.9518 29.6276 87.7825 29.5234C87.6133 29.4193 87.4635 29.2956 87.3333 29.1523H86.9036C86.5651 28.944 86.2005 28.7878 85.8099 28.6836C85.4323 28.5664 85.0547 28.4427 84.6771 28.3125C84.651 28.2995 84.6185 28.293 84.5794 28.293C84.4883 28.293 84.4297 28.3255 84.4036 28.3906C84.3906 28.4557 84.3385 28.4818 84.2474 28.4688C84.1302 28.3906 84.0065 28.3451 83.8763 28.332C83.7461 28.306 83.6093 28.293 83.4661 28.293C83.2838 28.293 83.1015 28.306 82.9192 28.332C82.75 28.3451 82.5742 28.3516 82.3919 28.3516C82.3008 28.3516 82.2096 28.3451 82.1185 28.332C82.0273 28.319 81.9362 28.2865 81.845 28.2344H81.5911C81.3177 28.2344 81.0442 28.2474 80.7708 28.2734C80.5104 28.2865 80.25 28.293 79.9896 28.293C79.8463 28.293 79.7096 28.293 79.5794 28.293C79.4492 28.2799 79.319 28.2604 79.1888 28.2344C78.9153 28.3646 78.6224 28.4557 78.3099 28.5078C77.9974 28.5599 77.6718 28.599 77.3333 28.625C77.0078 28.651 76.6823 28.6771 76.3567 28.7031C76.0312 28.7161 75.7187 28.7487 75.4192 28.8008C75.3411 28.7878 75.263 28.7812 75.1849 28.7812C75.1198 28.7682 75.0547 28.7617 74.9896 28.7617C74.9245 28.7617 74.8528 28.7682 74.7747 28.7812C74.7096 28.7812 74.6445 28.7878 74.5794 28.8008C74.4101 28.6185 74.2018 28.4883 73.9544 28.4102C73.72 28.319 73.4856 28.2604 73.2513 28.2344C73.069 28.013 72.9323 27.7917 72.8411 27.5703C72.763 27.3359 72.7109 27.0755 72.6849 26.7891H72.763C72.8541 26.7891 72.8932 26.7435 72.8802 26.6523C72.8802 26.5612 72.9127 26.4831 72.9778 26.418C73.0429 26.3398 73.1276 26.2878 73.2317 26.2617C73.3489 26.2227 73.4596 26.1836 73.5638 26.1445C73.6679 26.1055 73.7656 26.0599 73.8567 26.0078C73.9609 25.9427 74.039 25.8451 74.0911 25.7148H74.345C74.3971 25.7148 74.4492 25.7214 74.5013 25.7344C74.5664 25.7344 74.6185 25.7539 74.6575 25.793C74.7096 25.7409 74.7747 25.6953 74.8528 25.6562C74.931 25.6172 75.0026 25.5781 75.0677 25.5391C75.1458 25.5 75.2109 25.4544 75.263 25.4023C75.3151 25.3503 75.3476 25.2721 75.3606 25.168C75.3737 25.207 75.4062 25.2266 75.4583 25.2266C75.5104 25.2266 75.556 25.2135 75.595 25.1875C75.6471 25.1615 75.7057 25.1549 75.7708 25.168C75.8359 24.9857 75.9466 24.888 76.1028 24.875C76.2591 24.862 76.4023 24.8164 76.5325 24.7383C76.6237 24.6862 76.7083 24.6276 76.7864 24.5625C76.8646 24.4844 76.9492 24.4128 77.0403 24.3477L78.2122 23.4492L80.0091 22.082C80.608 21.6263 81.22 21.2031 81.845 20.8125C81.8711 20.7344 81.9101 20.6758 81.9622 20.6367C82.0143 20.5977 82.0664 20.5586 82.1185 20.5195C82.1705 20.4674 82.2096 20.4154 82.2356 20.3633C82.2747 20.3112 82.2877 20.2331 82.2747 20.1289C82.457 20.0898 82.5937 20.0182 82.6849 19.9141C82.789 19.8099 82.8802 19.6992 82.9583 19.582C83.0364 19.4518 83.1146 19.3281 83.1927 19.2109C83.2838 19.0807 83.401 18.9831 83.5442 18.918C83.5312 18.8789 83.5247 18.8203 83.5247 18.7422C83.5247 18.638 83.5312 18.5339 83.5442 18.4297C83.5703 18.3255 83.6224 18.2344 83.7005 18.1562C83.5833 17.8828 83.3815 17.6875 83.095 17.5703C82.8086 17.4401 82.5351 17.3294 82.2747 17.2383H82.2161C82.151 17.2383 82.112 17.2708 82.0989 17.3359C82.0989 17.388 82.0664 17.4271 82.0013 17.4531C81.7929 17.401 81.5586 17.375 81.2981 17.375C81.0377 17.375 80.7773 17.3945 80.5169 17.4336C80.2695 17.4727 80.0156 17.4792 79.7552 17.4531C79.7161 17.5052 79.6705 17.5573 79.6185 17.6094C79.5794 17.6615 79.5273 17.707 79.4622 17.7461C79.1888 17.7591 78.9153 17.7982 78.6419 17.8633L77.8216 18.0586L77.3724 18.1562C77.3073 18.1823 77.2617 18.2279 77.2356 18.293C77.2096 18.3581 77.1901 18.4297 77.1771 18.5078C77.0989 18.4948 77.0468 18.4622 77.0208 18.4102C77.0078 18.3581 76.9622 18.319 76.8841 18.293C76.5846 18.4753 76.2591 18.625 75.9075 18.7422C75.569 18.8594 75.263 19.0417 74.9896 19.2891C74.8984 19.1849 74.7682 19.1328 74.5989 19.1328C74.4557 19.1328 74.2995 19.1784 74.1302 19.2695C73.9609 19.3607 73.8567 19.4779 73.8177 19.6211C73.6875 19.5951 73.5898 19.582 73.5247 19.582C73.3815 19.582 73.2578 19.6211 73.1536 19.6992C73.0625 19.7773 72.9713 19.8685 72.8802 19.9727C72.789 20.0638 72.6914 20.1549 72.5872 20.2461C72.483 20.3372 72.3528 20.3893 72.1966 20.4023C72.1966 20.4674 72.1966 20.5391 72.1966 20.6172C72.2096 20.6823 72.2161 20.7539 72.2161 20.832C72.2161 21.418 72.1836 22.0039 72.1185 22.5898C72.0534 23.1628 72.0208 23.7422 72.0208 24.3281C72.0208 24.4583 72.0273 24.5885 72.0403 24.7188C72.0534 24.8359 72.0599 24.9661 72.0599 25.1094C72.0599 25.1484 72.0273 25.2331 71.9622 25.3633C71.9101 25.4935 71.8711 25.5911 71.845 25.6562C71.8971 25.7995 71.9166 25.9427 71.9036 26.0859C71.9036 26.2292 71.9362 26.3659 72.0013 26.4961C71.8841 26.6003 71.8255 26.7435 71.8255 26.9258C71.8255 27.0039 71.8255 27.082 71.8255 27.1602C71.8385 27.2383 71.845 27.3164 71.845 27.3945V27.6289C71.806 27.8893 71.7799 28.1562 71.7669 28.4297C71.7539 28.6901 71.7474 28.9505 71.7474 29.2109C71.7474 29.3281 71.7474 29.5299 71.7474 29.8164C71.7604 30.0898 71.7799 30.4023 71.806 30.7539C71.832 31.0924 71.8711 31.444 71.9231 31.8086C71.9752 32.1732 72.0403 32.5117 72.1185 32.8242C72.2096 33.1237 72.3203 33.3711 72.4505 33.5664C72.5807 33.7617 72.737 33.8594 72.9192 33.8594C72.9583 33.8594 73.0039 33.8529 73.056 33.8398C73.1211 33.8268 73.1536 33.7943 73.1536 33.7422C73.1536 33.6901 73.1406 33.6445 73.1146 33.6055C73.1015 33.5664 73.095 33.5208 73.095 33.4688L73.1146 33.4297C73.2187 33.4818 73.3294 33.5143 73.4466 33.5273C73.5768 33.5404 73.707 33.5534 73.8372 33.5664C73.9674 33.5794 74.0911 33.599 74.2083 33.625C74.3255 33.6641 74.4297 33.7357 74.5208 33.8398C74.4687 33.944 74.4427 34.0547 74.4427 34.1719C74.4427 34.3281 74.4817 34.4714 74.5599 34.6016C74.638 34.7448 74.6901 34.888 74.7161 35.0312C74.4687 35.1094 74.2409 35.194 74.0325 35.2852C73.8372 35.3893 73.6419 35.4805 73.4466 35.5586C73.2513 35.6497 73.0429 35.7279 72.8216 35.793C72.6002 35.8711 72.3463 35.9232 72.0599 35.9492C71.8776 35.832 71.7213 35.7279 71.5911 35.6367C71.4609 35.5456 71.2851 35.487 71.0638 35.4609C70.7252 35.0052 70.4453 34.4909 70.2239 33.918C70.0026 33.3581 69.8268 32.7721 69.6966 32.1602C69.5794 31.5482 69.4948 30.9362 69.4427 30.3242C69.4036 29.6992 69.3841 29.1133 69.3841 28.5664C69.3841 27.9674 69.4036 27.375 69.4427 26.7891C69.4948 26.1901 69.5599 25.5911 69.638 24.9922C69.664 24.8099 69.6901 24.6276 69.7161 24.4453C69.7422 24.25 69.7682 24.0612 69.7942 23.8789C69.8203 23.8138 69.8398 23.7422 69.8528 23.6641C69.8789 23.5729 69.8919 23.4948 69.8919 23.4297C69.8919 23.2083 69.8854 22.987 69.8724 22.7656C69.8593 22.5443 69.8528 22.3294 69.8528 22.1211C69.8528 21.7956 69.8724 21.4635 69.9114 21.125C69.9245 21.0599 69.944 20.9753 69.97 20.8711C70.0091 20.7669 70.0286 20.6758 70.0286 20.5977C70.0286 20.4935 70.0026 20.4219 69.9505 20.3828C69.8984 20.3438 69.8528 20.2786 69.8138 20.1875C69.8528 20.0573 69.8854 19.9336 69.9114 19.8164C69.9375 19.6862 69.9505 19.556 69.9505 19.4258C69.9505 19.1784 69.9049 18.9635 69.8138 18.7812C69.8789 18.4427 69.9765 18.1107 70.1067 17.7852C70.237 17.4596 70.4648 17.2122 70.7903 17.043C71.0508 17.056 71.3112 17.082 71.5716 17.1211C71.845 17.1602 72.0794 17.2708 72.2747 17.4531C72.3659 17.401 72.47 17.3685 72.5872 17.3555L72.9583 17.3164C73.0885 17.3034 73.2057 17.2839 73.3099 17.2578C73.414 17.2188 73.5052 17.1471 73.5833 17.043C73.8437 16.9909 74.1237 16.9193 74.4231 16.8281C74.7226 16.724 74.983 16.6068 75.2044 16.4766H75.6341C75.7252 16.4115 75.8294 16.3659 75.9466 16.3398L76.3177 16.2422C76.4479 16.2031 76.5651 16.1641 76.6692 16.125C76.7864 16.0859 76.8776 16.0208 76.9427 15.9297H77.0208C77.3203 15.9297 77.6133 15.8646 77.8997 15.7344C78.1862 15.6042 78.4661 15.487 78.7396 15.3828C78.8047 15.3568 78.9023 15.3112 79.0325 15.2461C79.1758 15.181 79.2734 15.1484 79.3255 15.1484C79.5078 15.1224 79.6901 15.1094 79.8724 15.1094C80.0547 15.0964 80.237 15.0703 80.4192 15.0312C80.8359 14.9661 81.2461 14.8945 81.6497 14.8164C82.0664 14.7253 82.483 14.6797 82.8997 14.6797C83.0429 14.6797 83.1731 14.6862 83.2903 14.6992C83.4205 14.6992 83.5573 14.7057 83.7005 14.7188C83.7135 14.7708 83.7461 14.8164 83.7981 14.8555C83.8502 14.8815 83.8958 14.9076 83.9349 14.9336C83.987 14.9596 84.0325 14.9987 84.0716 15.0508C84.1106 15.0898 84.1237 15.1484 84.1106 15.2266C84.1367 15.2526 84.1627 15.2656 84.1888 15.2656C84.2278 15.2656 84.2604 15.2461 84.2864 15.207C84.3255 15.168 84.3776 15.1484 84.4427 15.1484H84.5403C84.7096 15.3307 84.8724 15.5065 85.0286 15.6758C85.1979 15.832 85.4062 15.9622 85.6536 16.0664C85.7578 16.457 85.8815 16.8411 86.0247 17.2188C86.1679 17.5964 86.2396 18 86.2396 18.4297C86.2396 18.6901 86.2005 18.944 86.1224 19.1914C85.9401 19.2826 85.8099 19.4258 85.7317 19.6211C85.6536 19.8164 85.582 20.0052 85.5169 20.1875C85.1523 20.3698 84.8463 20.6107 84.5989 20.9102C84.3515 21.2096 84.0976 21.5091 83.8372 21.8086H83.5247C83.4726 21.8086 83.4336 21.8281 83.4075 21.8672L83.2317 22.0625C83.1146 22.1667 82.9843 22.2708 82.8411 22.375C82.7109 22.4792 82.6133 22.6159 82.5481 22.7852C82.1445 23.0065 81.7539 23.2539 81.3763 23.5273C81.0117 23.8008 80.6601 24.0872 80.3216 24.3867C80.1784 24.5039 80.0351 24.6406 79.8919 24.7969C79.7487 24.9401 79.6054 25.0638 79.4622 25.168C79.3841 25.2331 79.2929 25.2917 79.1888 25.3438C79.0976 25.3828 79.013 25.4349 78.9349 25.5C78.7656 25.6302 78.6093 25.7669 78.4661 25.9102C78.3229 26.0404 78.1731 26.1641 78.0169 26.2812C78.6028 26.2552 79.1953 26.2422 79.7942 26.2422C80.3932 26.2292 80.9856 26.2161 81.5716 26.2031C81.8711 26.2031 82.164 26.1966 82.4505 26.1836C82.737 26.1576 83.0299 26.1445 83.3294 26.1445C83.3815 26.1445 83.4271 26.1576 83.4661 26.1836C83.5052 26.1966 83.5508 26.2096 83.6028 26.2227C83.8242 26.2617 84.0195 26.3073 84.1888 26.3594C84.8138 26.4766 85.4388 26.5807 86.0638 26.6719C86.6888 26.763 87.3008 26.9128 87.8997 27.1211C88.069 27.1862 88.1927 27.2578 88.2708 27.3359C88.362 27.4141 88.5182 27.4336 88.7396 27.3945C88.9218 27.5768 89.1172 27.7201 89.3255 27.8242C89.5468 27.9284 89.7682 28.0195 89.9896 28.0977C90.1588 28.3581 90.3151 28.6055 90.4583 28.8398C90.6146 29.0742 90.6927 29.3542 90.6927 29.6797ZM106.279 31.5742C106.24 31.7565 106.155 31.9062 106.025 32.0234C105.908 32.1276 105.764 32.2122 105.595 32.2773C105.426 32.3424 105.25 32.388 105.068 32.4141C104.898 32.4271 104.742 32.4336 104.599 32.4336C104.534 32.4336 104.469 32.4336 104.404 32.4336C104.352 32.4206 104.293 32.4141 104.228 32.4141C104.163 32.4141 104.13 32.4466 104.13 32.5117C104.13 32.5768 104.098 32.6224 104.033 32.6484C103.967 32.6224 103.902 32.6029 103.837 32.5898C103.772 32.5768 103.707 32.5703 103.642 32.5703C103.551 32.5703 103.46 32.5768 103.368 32.5898C103.29 32.6029 103.212 32.6094 103.134 32.6094C103.03 32.6094 102.952 32.5964 102.9 32.5703C102.861 32.5443 102.822 32.5182 102.783 32.4922C102.756 32.4531 102.724 32.4141 102.685 32.375C102.659 32.3359 102.613 32.3034 102.548 32.2773C102.457 32.2383 102.379 32.2318 102.314 32.2578C102.262 32.2839 102.177 32.2448 102.06 32.1406C101.904 32.0104 101.767 31.8542 101.65 31.6719C101.546 31.4766 101.441 31.2747 101.337 31.0664C101.233 30.8581 101.122 30.6497 101.005 30.4414C100.888 30.2331 100.751 30.0508 100.595 29.8945H100.439C100.204 29.8945 100.042 29.9922 99.9505 30.1875C99.8854 30.1484 99.8203 30.1029 99.7552 30.0508C99.6901 29.9857 99.6185 29.9336 99.5403 29.8945C99.2409 29.9857 98.9284 30.0638 98.6028 30.1289C98.2773 30.194 97.9518 30.2266 97.6263 30.2266H97.3528C97.2747 30.2266 97.1901 30.2135 97.0989 30.1875C96.9687 30.2396 96.8515 30.3047 96.7474 30.3828C96.6432 30.4479 96.526 30.4805 96.3958 30.4805C96.3177 30.4805 96.2265 30.4544 96.1224 30.4023C96.0442 30.4023 96.0052 30.4349 96.0052 30.5C96.0182 30.5651 95.9791 30.5977 95.888 30.5977H95.7122C95.5299 30.5977 95.3476 30.6042 95.1653 30.6172C94.9961 30.6302 94.8203 30.6367 94.638 30.6367C94.3906 30.6367 94.1367 30.6042 93.8763 30.5391C93.8112 30.5781 93.7396 30.5977 93.6614 30.5977C93.6093 30.6237 93.5703 30.6693 93.5442 30.7344C93.5182 30.7865 93.4922 30.8385 93.4661 30.8906C93.4401 30.9297 93.401 30.9688 93.3489 31.0078C93.3099 31.0339 93.2513 31.0404 93.1731 31.0273C93.1471 31.1836 93.082 31.3073 92.9778 31.3984C92.8737 31.4896 92.8216 31.6263 92.8216 31.8086C92.6784 31.8867 92.5612 31.9844 92.47 32.1016C92.3789 32.2188 92.2877 32.3424 92.1966 32.4727C92.1054 32.6029 92.0078 32.7266 91.9036 32.8438C91.8125 32.9609 91.6953 33.0521 91.5521 33.1172C91.487 33.1953 91.4674 33.319 91.4935 33.4883C91.3502 33.6055 91.1745 33.7096 90.9661 33.8008C90.7578 33.8919 90.5625 33.9375 90.3802 33.9375C90.0026 33.9375 89.7422 33.7357 89.5989 33.332C89.5989 33.2018 89.612 33.0651 89.638 32.9219C89.651 32.7656 89.6771 32.6224 89.7161 32.4922C89.7552 32.349 89.8138 32.2253 89.8919 32.1211C89.97 32.0039 90.0807 31.9193 90.2239 31.8672C90.2239 31.75 90.1849 31.6719 90.1067 31.6328C90.0286 31.5807 89.9961 31.4961 90.0091 31.3789C90.3606 31.2096 90.6666 30.9883 90.9271 30.7148C91.1875 30.4414 91.4218 30.1549 91.6302 29.8555C91.8515 29.543 92.0729 29.2305 92.2942 28.918C92.5156 28.6055 92.763 28.3255 93.0364 28.0781V27.668C93.4271 27.2513 93.681 26.7826 93.7981 26.2617C93.9414 26.2357 94.0325 26.1706 94.0716 26.0664C94.1237 25.9622 94.1497 25.8385 94.1497 25.6953C94.2148 25.6953 94.2539 25.6693 94.2669 25.6172C94.2929 25.5521 94.3515 25.5326 94.4427 25.5586C94.5599 25.2461 94.6901 24.9596 94.8333 24.6992C94.9765 24.4388 95.1198 24.1784 95.263 23.918C95.4062 23.6445 95.5299 23.3646 95.6341 23.0781C95.7513 22.7917 95.8359 22.4727 95.888 22.1211C96.0703 22.1081 96.1679 22.0234 96.181 21.8672C96.207 21.6979 96.233 21.5482 96.2591 21.418C96.4544 21.2357 96.5976 21.0208 96.6888 20.7734C96.7929 20.526 96.8841 20.2721 96.9622 20.0117C97.0403 19.7383 97.125 19.4714 97.2161 19.2109C97.3203 18.9375 97.4635 18.6966 97.6458 18.4883V18.4297C97.6458 18.3646 97.6198 18.3255 97.5677 18.3125C97.5156 18.2865 97.4896 18.2409 97.4896 18.1758C97.5026 18.1628 97.5091 18.1497 97.5091 18.1367C97.6653 18.0716 97.7825 17.9674 97.8606 17.8242C97.9388 17.668 98.056 17.5573 98.2122 17.4922C98.4856 17.7135 98.7265 17.8503 98.9349 17.9023C99.1432 17.9414 99.4166 17.974 99.7552 18C99.9245 18.1823 100.016 18.4036 100.029 18.6641C100.055 18.9115 100.1 19.1589 100.165 19.4062C100.27 19.8229 100.38 20.2331 100.497 20.6367C100.628 21.0273 100.725 21.431 100.79 21.8477C100.829 22.0951 100.901 22.3294 101.005 22.5508C101.109 22.7721 101.181 23 101.22 23.2344C101.246 23.4167 101.246 23.625 101.22 23.8594C101.194 24.0807 101.22 24.276 101.298 24.4453L101.435 24.7578C101.5 24.901 101.552 25.0508 101.591 25.207C101.643 25.3633 101.689 25.5195 101.728 25.6758C101.832 26.0664 101.923 26.4896 102.001 26.9453C102.092 27.388 102.229 27.7917 102.411 28.1562C102.477 28.2865 102.574 28.3776 102.704 28.4297C102.848 28.4818 103.004 28.5208 103.173 28.5469C103.342 28.5599 103.505 28.5664 103.661 28.5664C103.831 28.5534 103.974 28.5469 104.091 28.5469H104.286C104.365 28.5469 104.443 28.5599 104.521 28.5859C104.573 28.6901 104.599 28.7812 104.599 28.8594C104.599 29.0156 104.547 29.1393 104.443 29.2305C104.339 29.3216 104.286 29.4258 104.286 29.543C104.286 29.6081 104.312 29.6797 104.365 29.7578C104.312 29.7448 104.234 29.7383 104.13 29.7383C103.831 29.7383 103.538 29.7904 103.251 29.8945C103.355 30.1159 103.492 30.3047 103.661 30.4609C103.844 30.6042 104.033 30.7409 104.228 30.8711C104.358 30.7669 104.495 30.7148 104.638 30.7148C104.794 30.7148 104.937 30.7539 105.068 30.832C105.211 30.8971 105.361 30.9297 105.517 30.9297C105.634 30.9297 105.719 30.9102 105.771 30.8711C105.875 30.9883 105.96 31.112 106.025 31.2422C106.09 31.3594 106.174 31.4701 106.279 31.5742ZM100.165 28.4492C100.139 28.2279 100.094 28.0716 100.029 27.9805C99.9765 27.8763 99.931 27.7526 99.8919 27.6094C99.8398 27.4271 99.8008 27.2318 99.7747 27.0234C99.7617 26.8151 99.7356 26.6133 99.6966 26.418C99.6054 25.9753 99.5013 25.5326 99.3841 25.0898C99.2799 24.6471 99.1432 24.2174 98.9739 23.8008C99.026 23.7227 99.0521 23.651 99.0521 23.5859V23.5273C98.9349 23.3971 98.8502 23.2409 98.7981 23.0586C98.7461 22.8633 98.694 22.6745 98.6419 22.4922C98.6028 22.2969 98.5442 22.1211 98.4661 21.9648C98.401 21.7956 98.2903 21.6589 98.1341 21.5547C98.095 21.6328 98.0755 21.724 98.0755 21.8281C98.0755 21.9193 98.082 22.0039 98.095 22.082C98.1211 22.1602 98.1341 22.2448 98.1341 22.3359C98.0039 22.401 97.9062 22.5052 97.8411 22.6484C97.789 22.7786 97.6979 22.8828 97.5677 22.9609C97.4635 23.3776 97.3138 23.7747 97.1185 24.1523C96.9231 24.5169 96.7148 24.8815 96.4935 25.2461C96.2851 25.6107 96.0833 25.9818 95.888 26.3594C95.6927 26.724 95.5364 27.1081 95.4192 27.5117C95.25 27.6289 95.1328 27.7786 95.0677 27.9609C95.0156 28.1432 94.9896 28.3255 94.9896 28.5078C95.1067 28.5729 95.237 28.612 95.3802 28.625C95.5364 28.625 95.6862 28.625 95.8294 28.625C95.9726 28.625 96.1093 28.638 96.2396 28.6641C96.3698 28.6901 96.487 28.7552 96.5911 28.8594C96.7604 28.8073 96.9427 28.7747 97.138 28.7617C97.3463 28.7357 97.5156 28.6771 97.6458 28.5859C97.9062 28.6771 98.1862 28.7227 98.4856 28.7227C98.6419 28.7227 98.7916 28.7096 98.9349 28.6836C99.0911 28.6576 99.2409 28.625 99.3841 28.5859C99.5013 28.612 99.5924 28.6576 99.6575 28.7227C99.7226 28.7747 99.8203 28.7943 99.9505 28.7812C100.016 28.7292 100.055 28.6771 100.068 28.625C100.081 28.5599 100.113 28.5013 100.165 28.4492ZM120.771 29.4844C120.771 29.6146 120.732 29.7253 120.654 29.8164C120.589 29.8945 120.504 29.9661 120.4 30.0312C120.309 30.0964 120.211 30.1549 120.107 30.207C120.016 30.2591 119.931 30.3242 119.853 30.4023C119.801 30.4544 119.762 30.5195 119.736 30.5977C119.723 30.6628 119.69 30.7083 119.638 30.7344C119.56 30.7995 119.475 30.8385 119.384 30.8516C119.293 30.8646 119.195 30.8841 119.091 30.9102C119 30.9232 118.909 30.9492 118.818 30.9883C118.727 31.0143 118.648 31.0729 118.583 31.1641C117.971 31.2292 117.366 31.3138 116.767 31.418C116.181 31.5221 115.575 31.5742 114.95 31.5742C114.833 31.5742 114.703 31.5872 114.56 31.6133C114.43 31.6263 114.306 31.6393 114.189 31.6523C113.915 31.6784 113.642 31.6979 113.368 31.7109C113.108 31.724 112.841 31.7305 112.568 31.7305C112.19 31.7305 111.812 31.7174 111.435 31.6914C111.057 31.6523 110.686 31.5938 110.322 31.5156C110.23 31.4505 110.126 31.3984 110.009 31.3594C109.892 31.3203 109.768 31.2812 109.638 31.2422C109.521 31.2031 109.41 31.1576 109.306 31.1055C109.202 31.0534 109.124 30.9753 109.072 30.8711C108.876 30.8581 108.7 30.819 108.544 30.7539C108.401 30.6888 108.264 30.6172 108.134 30.5391C108.017 30.4479 107.893 30.3568 107.763 30.2656C107.633 30.1745 107.483 30.0964 107.314 30.0312C107.184 29.849 107.047 29.6732 106.904 29.5039C106.773 29.3216 106.611 29.1719 106.415 29.0547C106.376 28.8073 106.311 28.5599 106.22 28.3125C106.142 28.0651 106.057 27.8242 105.966 27.5898C105.888 27.3424 105.823 27.0951 105.771 26.8477C105.706 26.6003 105.673 26.3464 105.673 26.0859C105.673 25.9036 105.699 25.6823 105.751 25.4219C105.803 25.1615 105.868 24.901 105.947 24.6406C106.038 24.3672 106.142 24.1133 106.259 23.8789C106.376 23.6445 106.493 23.4557 106.611 23.3125C106.65 23.2734 106.695 23.2409 106.747 23.2148C106.799 23.1888 106.845 23.1497 106.884 23.0977C107.001 22.9674 107.125 22.8633 107.255 22.7852C107.385 22.694 107.522 22.5898 107.665 22.4727C107.717 22.4206 107.756 22.362 107.783 22.2969C107.822 22.2318 107.874 22.1732 107.939 22.1211C107.978 22.0951 108.03 22.0885 108.095 22.1016C108.173 22.1146 108.238 22.1016 108.29 22.0625C108.342 22.0234 108.368 21.9779 108.368 21.9258C108.368 21.8737 108.388 21.8281 108.427 21.7891C108.44 21.776 108.479 21.776 108.544 21.7891C108.609 21.7891 108.648 21.7891 108.661 21.7891C108.753 21.7891 108.857 21.7305 108.974 21.6133C109.091 21.4831 109.189 21.3984 109.267 21.3594C109.358 21.3073 109.449 21.2747 109.54 21.2617C109.631 21.2357 109.729 21.1966 109.833 21.1445C109.977 21.0664 110.113 21.0078 110.243 20.9688C110.387 20.9167 110.53 20.8581 110.673 20.793C110.751 20.7669 110.823 20.7214 110.888 20.6562C110.953 20.5911 111.018 20.5456 111.083 20.5195C111.2 20.4805 111.324 20.4544 111.454 20.4414C111.598 20.4154 111.728 20.3958 111.845 20.3828C111.975 20.3568 112.099 20.3307 112.216 20.3047C112.346 20.2656 112.464 20.2005 112.568 20.1094H112.724C112.958 20.1094 113.186 20.0768 113.408 20.0117C113.629 19.9466 113.857 19.9141 114.091 19.9141C114.156 19.9141 114.254 19.9271 114.384 19.9531C114.488 19.888 114.605 19.8555 114.736 19.8555C114.957 19.8555 115.178 19.9141 115.4 20.0312C115.621 20.1354 115.849 20.1875 116.083 20.1875H116.2C116.253 20.1875 116.305 20.181 116.357 20.168C116.5 20.3112 116.669 20.3893 116.865 20.4023C117.073 20.4154 117.249 20.474 117.392 20.5781C117.483 20.6562 117.555 20.7474 117.607 20.8516C117.672 20.9557 117.724 21.0664 117.763 21.1836L117.88 21.5352C117.919 21.6523 117.971 21.7565 118.036 21.8477C117.971 22.3164 117.776 22.694 117.45 22.9805C117.138 23.2539 116.741 23.3906 116.259 23.3906C116.077 23.3906 115.921 23.3711 115.79 23.332C115.673 23.2799 115.562 23.2279 115.458 23.1758C115.367 23.1237 115.27 23.0716 115.165 23.0195C115.061 22.9674 114.944 22.9284 114.814 22.9023C114.957 22.6419 115.048 22.362 115.087 22.0625C114.944 21.9974 114.801 21.9518 114.658 21.9258C114.514 21.8997 114.378 21.8542 114.247 21.7891C113.896 21.8802 113.551 21.9453 113.212 21.9844C112.887 22.0104 112.581 22.1471 112.294 22.3945C112.229 22.3815 112.158 22.3685 112.079 22.3555C112.014 22.3424 111.949 22.3359 111.884 22.3359C111.806 22.3359 111.65 22.3945 111.415 22.5117C111.181 22.6159 110.927 22.7396 110.654 22.8828C110.393 23.026 110.139 23.1693 109.892 23.3125C109.658 23.4557 109.495 23.5534 109.404 23.6055C109.299 23.6706 109.208 23.7487 109.13 23.8398C109.052 23.931 108.974 24.0286 108.896 24.1328C108.818 24.224 108.74 24.3151 108.661 24.4062C108.583 24.4844 108.486 24.543 108.368 24.582C108.342 24.7253 108.297 24.849 108.232 24.9531C108.167 25.0573 108.095 25.168 108.017 25.2852C108.004 25.5195 107.978 25.7539 107.939 25.9883C107.913 26.2227 107.9 26.457 107.9 26.6914V26.9453C107.9 27.0234 107.913 27.0951 107.939 27.1602C108.069 27.3294 108.173 27.5182 108.251 27.7266C108.342 27.9349 108.492 28.0781 108.7 28.1562C108.714 28.2083 108.707 28.2409 108.681 28.2539C108.668 28.2669 108.655 28.2995 108.642 28.3516C108.72 28.4948 108.818 28.612 108.935 28.7031C109.065 28.7812 109.195 28.8659 109.325 28.957C109.456 29.0352 109.579 29.1198 109.697 29.2109C109.814 29.3021 109.905 29.4193 109.97 29.5625C110.165 29.5625 110.348 29.5951 110.517 29.6602C110.699 29.7253 110.868 29.7969 111.025 29.875C111.194 29.9531 111.35 30.0247 111.493 30.0898C111.65 30.1549 111.806 30.1875 111.962 30.1875C112.105 30.1875 112.236 30.168 112.353 30.1289C112.691 30.2331 113.03 30.3112 113.368 30.3633C113.72 30.4023 114.072 30.4219 114.423 30.4219C114.853 30.4219 115.283 30.3958 115.712 30.3438C116.142 30.2917 116.572 30.2461 117.001 30.207C117.158 30.181 117.307 30.168 117.45 30.168C117.594 30.168 117.737 30.1549 117.88 30.1289C118.062 30.1029 118.232 30.0182 118.388 29.875C118.557 29.7318 118.72 29.6276 118.876 29.5625C119.02 29.6536 119.189 29.6992 119.384 29.6992C119.605 29.6992 119.82 29.6667 120.029 29.6016C120.237 29.5234 120.452 29.4844 120.673 29.4844H120.771ZM136.064 32.0039C136.064 32.1081 136.018 32.1927 135.927 32.2578C135.836 32.3229 135.732 32.388 135.615 32.4531L135.263 32.6289C135.146 32.681 135.068 32.7526 135.029 32.8438C134.885 32.8047 134.742 32.7786 134.599 32.7656C134.469 32.7526 134.339 32.7461 134.208 32.7461C134.039 32.7461 133.863 32.7656 133.681 32.8047C133.499 32.8307 133.355 32.9154 133.251 33.0586C133.186 33.0326 133.128 33.0195 133.075 33.0195H132.919C132.724 33.0195 132.522 33.0326 132.314 33.0586C132.118 33.0977 131.923 33.1172 131.728 33.1172C131.624 33.1172 131.52 33.1107 131.415 33.0977C131.324 33.0846 131.24 33.0456 131.161 32.9805C131.044 33.0195 130.921 33.0391 130.79 33.0391C130.621 33.0391 130.458 33.013 130.302 32.9609C130.146 32.9089 129.99 32.8503 129.833 32.7852C129.69 32.707 129.54 32.6354 129.384 32.5703C129.228 32.5052 129.072 32.4531 128.915 32.4141L128.779 32.1406C128.57 32.1016 128.375 32.043 128.193 31.9648C128.023 31.8737 127.854 31.776 127.685 31.6719C127.516 31.5677 127.346 31.4701 127.177 31.3789C127.021 31.2747 126.858 31.2031 126.689 31.1641C126.624 31.112 126.565 31.0664 126.513 31.0273C126.461 30.9753 126.422 30.9036 126.396 30.8125C126.227 30.7734 126.07 30.7214 125.927 30.6562L125.517 30.4414C125.387 30.3633 125.237 30.2982 125.068 30.2461C124.911 30.181 124.723 30.1419 124.501 30.1289C124.423 30.0117 124.312 29.901 124.169 29.7969C124.026 29.6927 123.883 29.6406 123.74 29.6406C123.648 29.6406 123.577 29.6602 123.525 29.6992V29.7969C123.525 29.9531 123.57 30.1094 123.661 30.2656C123.753 30.4219 123.87 30.5326 124.013 30.5977C124 30.6237 123.993 30.6628 123.993 30.7148C123.993 30.793 124.006 30.8711 124.033 30.9492C124.072 31.0273 124.137 31.0794 124.228 31.1055C124.176 31.2487 124.111 31.3984 124.033 31.5547C123.954 31.6979 123.857 31.8346 123.74 31.9648C123.622 32.0951 123.492 32.2057 123.349 32.2969C123.219 32.375 123.069 32.4141 122.9 32.4141C122.848 32.4401 122.809 32.4792 122.783 32.5312C122.77 32.5833 122.756 32.6419 122.743 32.707C122.743 32.7591 122.73 32.8112 122.704 32.8633C122.691 32.9154 122.665 32.9544 122.626 32.9805C122.574 32.9935 122.503 33 122.411 33C122.281 33 122.171 32.9805 122.079 32.9414C121.988 32.9023 121.891 32.8503 121.786 32.7852V32.707C121.786 32.5508 121.754 32.4271 121.689 32.3359C121.637 32.2448 121.572 32.1602 121.493 32.082C121.428 31.9909 121.363 31.8997 121.298 31.8086C121.246 31.7174 121.22 31.5938 121.22 31.4375C121.181 31.4635 121.135 31.4831 121.083 31.4961C121.044 31.5091 121.018 31.5352 121.005 31.5742C120.979 31.444 120.966 31.3333 120.966 31.2422C120.966 30.9818 121.005 30.7344 121.083 30.5C121.174 30.2656 121.22 30.0182 121.22 29.7578V29.4648C121.22 29.1654 121.214 28.8724 121.2 28.5859C121.187 28.2995 121.181 28.013 121.181 27.7266C121.181 27.4792 121.187 27.2383 121.2 27.0039C121.214 26.7565 121.24 26.5091 121.279 26.2617C121.422 25.4023 121.539 24.5495 121.63 23.7031C121.734 22.8438 121.897 21.9909 122.118 21.1445C122.105 21.0794 122.086 21.0143 122.06 20.9492C122.047 20.8841 122.04 20.819 122.04 20.7539C122.04 20.7018 122.047 20.6693 122.06 20.6562C122.112 20.3958 122.229 20.181 122.411 20.0117C122.594 19.8294 122.828 19.7383 123.115 19.7383H123.173C123.329 19.8034 123.447 19.901 123.525 20.0312C123.616 20.1484 123.753 20.194 123.935 20.168C123.935 20.194 123.928 20.2201 123.915 20.2461C123.915 20.2721 123.915 20.2982 123.915 20.3242C123.915 20.4674 123.954 20.5716 124.033 20.6367C124.111 20.7018 124.202 20.7734 124.306 20.8516C124.241 20.9818 124.195 21.1315 124.169 21.3008C124.156 21.4701 124.143 21.6393 124.13 21.8086C124.117 21.9779 124.091 22.1406 124.052 22.2969C124.026 22.4531 123.967 22.5833 123.876 22.6875C123.928 22.8177 123.961 22.9479 123.974 23.0781C123.987 23.2083 123.993 23.3451 123.993 23.4883C123.993 23.6315 123.987 23.7812 123.974 23.9375C123.961 24.0807 123.954 24.2305 123.954 24.3867C123.954 24.5299 123.974 24.6602 124.013 24.7773C124.299 24.7773 124.462 24.6406 124.501 24.3672C124.84 24.276 125.139 24.1523 125.4 23.9961C125.673 23.8268 125.934 23.651 126.181 23.4688C126.428 23.2865 126.669 23.0977 126.904 22.9023C127.151 22.707 127.424 22.5378 127.724 22.3945V22.3555C127.724 22.2904 127.743 22.2513 127.783 22.2383C127.822 22.2122 127.828 22.1536 127.802 22.0625C127.997 21.9974 128.16 21.9128 128.29 21.8086C128.434 21.6914 128.564 21.5677 128.681 21.4375L129.052 21.0273C129.182 20.8841 129.325 20.7604 129.482 20.6562C129.586 20.4349 129.677 20.2005 129.755 19.9531C129.846 19.7057 129.964 19.4779 130.107 19.2695C130.354 19.2695 130.621 19.2891 130.908 19.3281C131.207 19.3672 131.461 19.4583 131.669 19.6016C131.643 19.7057 131.689 19.7773 131.806 19.8164C131.663 20.3633 131.448 20.8581 131.161 21.3008C130.875 21.7305 130.504 22.0951 130.048 22.3945C129.983 22.5378 129.898 22.6615 129.794 22.7656C129.69 22.8698 129.586 22.974 129.482 23.0781C129.378 23.1693 129.273 23.2669 129.169 23.3711C129.065 23.4753 128.98 23.599 128.915 23.7422C128.759 23.7682 128.622 23.8138 128.505 23.8789C128.401 23.944 128.297 24.0221 128.193 24.1133C128.102 24.1914 127.997 24.2695 127.88 24.3477C127.776 24.4128 127.659 24.4648 127.529 24.5039C127.424 24.6341 127.301 24.7448 127.158 24.8359C127.027 24.9271 126.891 25.0182 126.747 25.1094C126.617 25.1875 126.493 25.2786 126.376 25.3828C126.259 25.474 126.174 25.5977 126.122 25.7539H125.615C125.471 26.0013 125.283 26.2096 125.048 26.3789C124.827 26.5352 124.599 26.6849 124.365 26.8281C124.404 26.9844 124.475 27.1146 124.579 27.2188C124.684 27.3099 124.794 27.3945 124.911 27.4727C125.042 27.5508 125.165 27.6354 125.283 27.7266C125.413 27.8047 125.523 27.9023 125.615 28.0195C126.161 28.2279 126.689 28.4688 127.197 28.7422C127.704 29.0026 128.186 29.3216 128.642 29.6992C128.668 29.6862 128.7 29.6797 128.74 29.6797C128.844 29.6797 128.928 29.7122 128.993 29.7773C129.059 29.8294 129.15 29.849 129.267 29.8359C129.319 29.9661 129.391 30.0573 129.482 30.1094C129.573 30.1484 129.664 30.181 129.755 30.207C129.859 30.2331 129.957 30.2721 130.048 30.3242C130.139 30.3763 130.204 30.4674 130.243 30.5977C130.439 30.6107 130.615 30.6497 130.771 30.7148C130.94 30.7799 131.09 30.8841 131.22 31.0273H131.454C131.871 31.0273 132.275 31.0664 132.665 31.1445C133.056 31.2227 133.453 31.2617 133.857 31.2617C134.065 31.2617 134.267 31.2487 134.462 31.2227C134.658 31.1836 134.846 31.1185 135.029 31.0273C135.094 31.0664 135.165 31.1055 135.243 31.1445C135.322 31.1836 135.406 31.2031 135.497 31.2031C135.562 31.2031 135.66 31.1901 135.79 31.1641C135.803 31.3073 135.849 31.444 135.927 31.5742C136.018 31.7044 136.064 31.8477 136.064 32.0039Z" fill="white"/>
</g>
<defs>
<filter id="filter0_i" x="0" y="0" width="200" height="53" filterUnits="userSpaceOnUse" color-interpolation-filters="sRGB">
<feFlood flood-opacity="0" result="BackgroundImageFix"/>
<feBlend mode="normal" in="SourceGraphic" in2="BackgroundImageFix" result="shape"/>
<feColorMatrix in="SourceAlpha" type="matrix" values="0 0 0 0 0 0 0 0 0 0 0 0 0 0 0 0 0 0 127 0" result="hardAlpha"/>
<feOffset dy="3"/>
<feGaussianBlur stdDeviation="1.5"/>
<feComposite in2="hardAlpha" operator="arithmetic" k2="-1" k3="1"/>
<feColorMatrix type="matrix" values="0 0 0 0 0 0 0 0 0 0 0 0 0 0 0 0 0 0 0.25 0"/>
<feBlend mode="normal" in2="shape" result="effect1_innerShadow"/>
</filter>
</defs>
</svg>
