<svg width="210" height="54" viewBox="0 0 210 54" fill="none" xmlns="http://www.w3.org/2000/svg">
<g filter="url(#filter0_d)">
<rect x="5" y="6.27612" width="200" height="37.2385" rx="18.6192" fill="#FF5C00"/>
<path d="M97.7725 15.3242C97.7725 15.7799 97.6879 16.2227 97.5186 16.6523C97.3493 17.069 97.2256 17.4987 97.1475 17.9414C96.8611 18.319 96.5941 18.7096 96.3467 19.1133C96.0993 19.5169 95.8454 19.9206 95.585 20.3242C95.3246 20.7279 95.0512 21.1185 94.7647 21.4961C94.4782 21.8607 94.1527 22.1927 93.7881 22.4922C93.8012 22.5052 93.8077 22.5312 93.8077 22.5703C93.8077 22.6484 93.7686 22.7135 93.6905 22.7656C93.6254 22.8047 93.6058 22.8568 93.6319 22.9219C93.3064 23.2604 92.9874 23.5924 92.6749 23.918C92.3624 24.2435 92.0759 24.6081 91.8155 25.0117C91.529 25.1549 91.2946 25.3893 91.1124 25.7148C91.0342 25.7148 90.9756 25.7344 90.9366 25.7734C90.8975 25.7995 90.8454 25.8255 90.7803 25.8516C90.3637 26.3594 89.9275 26.8411 89.4717 27.2969C89.016 27.7526 88.5277 28.1693 88.0069 28.5469C87.8116 28.6901 87.6163 28.8203 87.421 28.9375C87.2256 29.0547 87.0368 29.1784 86.8545 29.3086C86.7374 29.3867 86.6202 29.4779 86.503 29.582C86.3988 29.6862 86.2881 29.7839 86.171 29.875C85.7933 30.2005 85.4223 30.474 85.0577 30.6953C84.6931 30.9036 84.2634 31.0469 83.7686 31.125C83.7295 31.2682 83.71 31.4245 83.71 31.5938V32.0625C83.71 32.2188 83.7035 32.3815 83.6905 32.5508C83.6775 32.707 83.6319 32.8568 83.5538 33V33.0586C83.5538 33.1888 83.5863 33.3125 83.6514 33.4297C83.7165 33.5599 83.7491 33.6901 83.7491 33.8203C83.7491 33.9115 83.7035 33.9896 83.6124 34.0547H84.1202C84.1202 34.237 84.1723 34.3932 84.2764 34.5234C84.3936 34.6536 84.4522 34.7513 84.4522 34.8164C84.4522 35.0378 84.4262 35.2786 84.3741 35.5391C84.335 35.8125 84.2048 35.9948 83.9835 36.0859V36.2031C83.9835 36.3333 83.9704 36.457 83.9444 36.5742C83.9183 36.7044 83.8598 36.8281 83.7686 36.9453C83.6905 36.9453 83.6124 36.9453 83.5342 36.9453C83.4691 36.9583 83.404 36.9648 83.3389 36.9648C82.792 36.9648 82.3038 36.8346 81.8741 36.5742C81.7308 36.2357 81.6332 35.8841 81.5811 35.5195C81.542 35.168 81.5225 34.8099 81.5225 34.4453C81.5225 33.7292 81.5746 33.0195 81.6788 32.3164C81.7829 31.6133 81.8676 30.9102 81.9327 30.207L82.2256 29.6406C82.2517 29.276 82.2973 28.9115 82.3624 28.5469C82.4275 28.1693 82.4926 27.7982 82.5577 27.4336C82.6228 27.069 82.6749 26.7044 82.7139 26.3398C82.766 25.9753 82.7855 25.6107 82.7725 25.2461C82.8767 25.0247 82.9483 24.7904 82.9874 24.543C83.0394 24.2956 83.0655 24.0547 83.0655 23.8203C83.0655 23.6901 83.059 23.5599 83.046 23.4297C83.0329 23.2995 82.9939 23.1758 82.9288 23.0586C83.0069 23.0065 83.059 22.9414 83.085 22.8633C83.1111 22.7852 83.1501 22.7135 83.2022 22.6484C83.2413 22.1406 83.2738 21.6393 83.2999 21.1445C83.3259 20.6367 83.3389 20.1354 83.3389 19.6406C83.3389 19.3672 83.3324 19.1003 83.3194 18.8398C83.3064 18.5664 83.2868 18.293 83.2608 18.0195C83.2478 17.9154 83.2217 17.7917 83.1827 17.6484C83.1566 17.5052 83.1436 17.3945 83.1436 17.3164C83.1436 17.2122 83.1501 17.1081 83.1631 17.0039C83.1762 16.8867 83.1827 16.7695 83.1827 16.6523C83.1827 16.5221 83.1696 16.3984 83.1436 16.2812C83.1176 16.151 83.072 16.0339 83.0069 15.9297C82.3819 16.112 81.822 16.3594 81.3272 16.6719C80.8324 16.9714 80.3311 17.3099 79.8233 17.6875C79.615 17.8307 79.3871 18 79.1397 18.1953C78.8923 18.3906 78.6579 18.5404 78.4366 18.6445C78.3975 18.6706 78.3519 18.6901 78.2999 18.7031C78.2348 18.7031 78.1827 18.7031 78.1436 18.7031C78.0004 18.7031 77.8702 18.6966 77.753 18.6836C77.6358 18.6576 77.5186 18.6445 77.4014 18.6445C77.2191 18.4622 77.0043 18.319 76.7569 18.2148C76.7178 18.0586 76.6983 17.8893 76.6983 17.707C76.6983 17.5247 76.7178 17.349 76.7569 17.1797C76.7829 17.0104 76.8285 16.8411 76.8936 16.6719C77.0499 16.6198 77.2191 16.5612 77.4014 16.4961C77.5707 16.431 77.74 16.3594 77.9092 16.2812C78.0655 16.1901 78.2087 16.0924 78.3389 15.9883C78.4691 15.8711 78.5733 15.7279 78.6514 15.5586C78.7295 15.5977 78.8012 15.6172 78.8663 15.6172C78.9314 15.6172 78.99 15.6107 79.042 15.5977C79.0941 15.5846 79.1527 15.5716 79.2178 15.5586C79.4522 15.4154 79.6866 15.2656 79.921 15.1094C80.1683 14.9531 80.4223 14.8229 80.6827 14.7188C80.7608 14.6927 80.8064 14.6602 80.8194 14.6211C80.8324 14.582 80.8324 14.5234 80.8194 14.4453C81.1189 14.3542 81.4314 14.25 81.7569 14.1328C82.0824 14.0026 82.3558 13.8268 82.5772 13.6055H82.9288C83.1241 13.4622 83.3324 13.3451 83.5538 13.2539C83.7751 13.1628 83.9965 13.0781 84.2178 13C84.4522 12.9089 84.6801 12.8177 84.9014 12.7266C85.1228 12.6224 85.3311 12.4922 85.5264 12.3359C85.6045 12.3099 85.6696 12.2969 85.7217 12.2969C85.7868 12.2969 85.8585 12.3099 85.9366 12.3359C86.0668 12.2708 86.1775 12.1927 86.2686 12.1016L86.5811 11.7891C86.7894 11.7891 86.9782 11.7695 87.1475 11.7305C87.3168 11.6914 87.4795 11.6393 87.6358 11.5742C87.792 11.5091 87.9418 11.4375 88.085 11.3594C88.2413 11.2682 88.4105 11.1771 88.5928 11.0859C88.671 11.112 88.7295 11.1445 88.7686 11.1836C88.8077 11.2096 88.8728 11.2227 88.9639 11.2227C89.0941 11.1315 89.2308 11.0664 89.3741 11.0273C89.5303 10.9753 89.6866 10.9362 89.8428 10.9102C89.9991 10.8841 90.1488 10.8516 90.292 10.8125C90.4483 10.7734 90.585 10.7018 90.7022 10.5977C91.1189 10.5977 91.5355 10.5911 91.9522 10.5781C92.3819 10.5521 92.8051 10.5391 93.2217 10.5391C93.8207 10.5391 94.4262 10.5846 95.0381 10.6758C95.6631 10.7669 96.223 10.9948 96.7178 11.3594C96.9131 11.8281 97.1931 12.2253 97.5577 12.5508C97.5837 12.694 97.6098 12.8307 97.6358 12.9609C97.6749 13.0781 97.7204 13.1953 97.7725 13.3125C97.6814 13.5078 97.6358 13.7227 97.6358 13.957C97.6358 14.1914 97.6553 14.4258 97.6944 14.6602C97.7465 14.8815 97.7725 15.1029 97.7725 15.3242ZM95.9561 14.8555C95.891 14.7383 95.8454 14.6081 95.8194 14.4648C95.8064 14.3086 95.8064 14.1589 95.8194 14.0156C95.6501 13.8854 95.5199 13.7161 95.4288 13.5078C95.3376 13.2995 95.2074 13.1432 95.0381 13.0391C94.921 12.974 94.7517 12.9349 94.5303 12.9219C94.322 12.9089 94.1462 12.8828 94.003 12.8438C93.8337 12.7917 93.7165 12.7396 93.6514 12.6875C93.5993 12.6354 93.4821 12.6094 93.2999 12.6094C93.1436 12.6094 92.9874 12.6289 92.8311 12.668C92.6749 12.694 92.5186 12.707 92.3624 12.707C92.2321 12.707 92.1085 12.681 91.9913 12.6289C91.8741 12.5768 91.7504 12.5508 91.6202 12.5508C91.4769 12.5508 91.3402 12.5964 91.21 12.6875C91.0928 12.7786 90.9496 12.8047 90.7803 12.7656C90.7022 12.8307 90.6566 12.8828 90.6436 12.9219C90.6436 12.9609 90.6371 12.9935 90.6241 13.0195C90.6111 13.0326 90.5785 13.0391 90.5264 13.0391H90.253C89.9795 13.0391 89.6996 13.0781 89.4131 13.1562C89.1397 13.2344 88.8923 13.3646 88.671 13.5469C88.6319 13.5339 88.5928 13.5273 88.5538 13.5273C88.5277 13.5143 88.4952 13.5078 88.4561 13.5078C88.2348 13.5078 88.0199 13.5729 87.8116 13.7031C87.6163 13.8203 87.3949 13.8789 87.1475 13.8789C86.9913 14.0352 86.8025 14.1589 86.5811 14.25C86.3598 14.3411 86.1319 14.4323 85.8975 14.5234C85.6762 14.6016 85.4678 14.6992 85.2725 14.8164C85.0772 14.9206 84.9275 15.0768 84.8233 15.2852C84.8103 15.3893 84.8428 15.4544 84.921 15.4805C84.9991 15.5065 85.0381 15.5716 85.0381 15.6758C85.0381 15.7669 85.0186 15.8776 84.9795 16.0078C84.9535 16.138 84.9405 16.2682 84.9405 16.3984C84.9405 16.6979 84.973 16.9909 85.0381 17.2773C85.1032 17.5638 85.1683 17.8568 85.2335 18.1562C85.1683 18.1953 85.1228 18.2539 85.0967 18.332C85.0707 18.4102 85.0251 18.4688 84.96 18.5078C85.1423 19.0547 85.2335 19.6146 85.2335 20.1875C85.2335 20.6432 85.1814 21.0924 85.0772 21.5352C84.9861 21.9648 84.921 22.4076 84.8819 22.8633V22.8828C84.8819 22.9609 84.9079 23.013 84.96 23.0391C85.0121 23.0651 85.0381 23.1107 85.0381 23.1758C85.0381 23.2148 85.0316 23.2474 85.0186 23.2734C84.8754 24.1589 84.7321 25.0443 84.5889 25.9297C84.4587 26.8151 84.348 27.707 84.2569 28.6055H84.4131C84.7517 28.6055 85.0512 28.5078 85.3116 28.3125C85.585 28.1042 85.8129 27.8763 85.9952 27.6289H86.3077C87.2452 26.8086 88.1436 25.9622 89.003 25.0898C89.8754 24.2174 90.7022 23.2799 91.4835 22.2773C91.5876 22.2773 91.6592 22.2513 91.6983 22.1992C91.7374 22.1471 91.8025 22.1081 91.8936 22.082C92.167 21.7044 92.4535 21.3333 92.753 20.9688C93.0525 20.5911 93.378 20.2331 93.7295 19.8945C93.7426 19.7643 93.7751 19.6471 93.8272 19.543C93.8923 19.4388 93.9574 19.3411 94.0225 19.25C94.0876 19.1589 94.1462 19.0612 94.1983 18.957C94.2504 18.8529 94.2764 18.7292 94.2764 18.5859C94.3415 18.5599 94.4131 18.5339 94.4913 18.5078C94.5694 18.4688 94.641 18.4167 94.7061 18.3516C94.7321 18.2214 94.7777 18.1042 94.8428 18C94.9079 17.8958 94.9405 17.7786 94.9405 17.6484C94.9405 17.5964 94.9275 17.5312 94.9014 17.4531C95.1098 17.362 95.2725 17.2122 95.3897 17.0039C95.5069 16.7956 95.598 16.5677 95.6631 16.3203C95.7282 16.0599 95.7738 15.7995 95.7999 15.5391C95.8389 15.2786 95.891 15.0508 95.9561 14.8555ZM107.284 27.9805C107.284 28.1237 107.232 28.2344 107.128 28.3125C107.024 28.3776 106.972 28.4688 106.972 28.5859C106.972 28.638 106.998 28.7031 107.05 28.7812C106.868 28.7812 106.744 28.8398 106.679 28.957C106.614 29.0742 106.549 29.2044 106.483 29.3477H106.23C106.164 29.3477 106.112 29.3607 106.073 29.3867C106.034 29.4128 105.995 29.4518 105.956 29.5039C105.93 29.543 105.891 29.6081 105.839 29.6992C105.592 29.7513 105.351 29.8359 105.116 29.9531C104.895 30.0573 104.674 30.1745 104.452 30.3047C104.244 30.4219 104.029 30.5456 103.808 30.6758C103.586 30.793 103.358 30.8906 103.124 30.9688C103.007 31.1641 102.838 31.3203 102.616 31.4375H102.558C102.493 31.4505 102.434 31.444 102.382 31.418C102.343 31.3789 102.291 31.3594 102.226 31.3594C102.187 31.3594 102.161 31.3659 102.148 31.3789C101.757 31.6393 101.321 31.7695 100.839 31.7695C100.709 31.7695 100.585 31.763 100.468 31.75C100.351 31.724 100.227 31.7109 100.097 31.7109C100.058 31.7109 100.032 31.724 100.019 31.75L99.9795 31.8281C99.9665 31.8542 99.947 31.8802 99.921 31.9062C99.9079 31.9323 99.8624 31.9453 99.7842 31.9453C99.641 31.9453 99.4978 31.9258 99.3545 31.8867C99.2113 31.8477 99.0616 31.8411 98.9053 31.8672C98.6058 31.6979 98.3715 31.5352 98.2022 31.3789C98.0329 31.2227 97.8767 30.9883 97.7335 30.6758C97.6683 30.5326 97.5772 30.3958 97.46 30.2656C97.3558 30.1354 97.2777 29.9922 97.2256 29.8359C97.2126 29.7839 97.1931 29.6927 97.167 29.5625C97.141 29.4193 97.115 29.2695 97.0889 29.1133C97.0629 28.957 97.0368 28.8073 97.0108 28.6641C96.9978 28.5208 96.9913 28.4232 96.9913 28.3711C96.9913 28.2148 96.9978 28.0651 97.0108 27.9219C97.0368 27.7656 97.0629 27.6094 97.0889 27.4531C97.167 26.9583 97.2191 26.4635 97.2452 25.9688C97.2842 25.4609 97.3949 24.9727 97.5772 24.5039C97.5512 24.3607 97.5381 24.224 97.5381 24.0938V23.6641C97.5381 23.4167 97.5056 23.2083 97.4405 23.0391C97.5446 22.8698 97.5967 22.681 97.5967 22.4727C97.5967 22.2383 97.4991 22.1016 97.3038 22.0625V22.0039C97.3038 21.7305 97.2126 21.5156 97.0303 21.3594C97.0303 20.9036 97.141 20.5651 97.3624 20.3438C97.5967 20.1094 97.9027 19.9076 98.2803 19.7383C98.3324 19.6602 98.3519 19.5951 98.3389 19.543C98.4301 19.569 98.5147 19.5951 98.5928 19.6211C98.671 19.6471 98.7491 19.6602 98.8272 19.6602C98.9574 19.6602 99.0746 19.6406 99.1788 19.6016C99.2178 19.7578 99.3155 19.8555 99.4717 19.8945C99.641 19.9206 99.7777 19.9596 99.8819 20.0117V20.2656C99.8819 20.6693 99.9795 21.0534 100.175 21.418C100.123 21.5221 100.09 21.6328 100.077 21.75C100.064 21.8672 100.058 21.9779 100.058 22.082C100.058 22.2383 100.064 22.3945 100.077 22.5508C100.09 22.707 100.097 22.8568 100.097 23C100.097 23.1562 100.077 23.3125 100.038 23.4688C100.012 23.625 99.9405 23.7617 99.8233 23.8789C99.8103 24.0482 99.7973 24.2435 99.7842 24.4648C99.7842 24.6732 99.7712 24.888 99.7452 25.1094C99.7321 25.3307 99.6996 25.5456 99.6475 25.7539C99.5954 25.9622 99.5173 26.1315 99.4131 26.2617C99.4001 26.457 99.3871 26.6589 99.3741 26.8672C99.3741 27.0625 99.3741 27.2513 99.3741 27.4336C99.3741 27.7201 99.3871 28.0586 99.4131 28.4492C99.4522 28.8398 99.5433 29.1654 99.6866 29.4258C99.7517 29.5299 99.8754 29.6081 100.058 29.6602C100.253 29.7122 100.409 29.7383 100.526 29.7383C100.67 29.7383 100.813 29.7188 100.956 29.6797C101.112 29.6276 101.223 29.543 101.288 29.4258C101.366 29.4388 101.418 29.4779 101.444 29.543C101.47 29.6081 101.516 29.6602 101.581 29.6992C102.323 29.3867 103.065 29.0872 103.808 28.8008C104.55 28.5143 105.279 28.1823 105.995 27.8047C106.099 27.8568 106.21 27.8828 106.327 27.8828C106.457 27.8828 106.588 27.8698 106.718 27.8438C106.848 27.8177 106.978 27.8047 107.108 27.8047H107.245C107.271 27.8828 107.284 27.9414 107.284 27.9805ZM121.679 31.5742C121.64 31.7565 121.555 31.9062 121.425 32.0234C121.308 32.1276 121.164 32.2122 120.995 32.2773C120.826 32.3424 120.65 32.388 120.468 32.4141C120.299 32.4271 120.142 32.4336 119.999 32.4336C119.934 32.4336 119.869 32.4336 119.804 32.4336C119.752 32.4206 119.693 32.4141 119.628 32.4141C119.563 32.4141 119.53 32.4466 119.53 32.5117C119.53 32.5768 119.498 32.6224 119.433 32.6484C119.368 32.6224 119.302 32.6029 119.237 32.5898C119.172 32.5768 119.107 32.5703 119.042 32.5703C118.951 32.5703 118.86 32.5768 118.769 32.5898C118.69 32.6029 118.612 32.6094 118.534 32.6094C118.43 32.6094 118.352 32.5964 118.3 32.5703C118.261 32.5443 118.222 32.5182 118.183 32.4922C118.157 32.4531 118.124 32.4141 118.085 32.375C118.059 32.3359 118.013 32.3034 117.948 32.2773C117.857 32.2383 117.779 32.2318 117.714 32.2578C117.662 32.2839 117.577 32.2448 117.46 32.1406C117.304 32.0104 117.167 31.8542 117.05 31.6719C116.946 31.4766 116.842 31.2747 116.737 31.0664C116.633 30.8581 116.523 30.6497 116.405 30.4414C116.288 30.2331 116.151 30.0508 115.995 29.8945H115.839C115.605 29.8945 115.442 29.9922 115.351 30.1875C115.286 30.1484 115.22 30.1029 115.155 30.0508C115.09 29.9857 115.019 29.9336 114.94 29.8945C114.641 29.9857 114.329 30.0638 114.003 30.1289C113.677 30.194 113.352 30.2266 113.026 30.2266H112.753C112.675 30.2266 112.59 30.2135 112.499 30.1875C112.369 30.2396 112.252 30.3047 112.148 30.3828C112.043 30.4479 111.926 30.4805 111.796 30.4805C111.718 30.4805 111.627 30.4544 111.523 30.4023C111.444 30.4023 111.405 30.4349 111.405 30.5C111.418 30.5651 111.379 30.5977 111.288 30.5977H111.112C110.93 30.5977 110.748 30.6042 110.565 30.6172C110.396 30.6302 110.22 30.6367 110.038 30.6367C109.791 30.6367 109.537 30.6042 109.276 30.5391C109.211 30.5781 109.14 30.5977 109.062 30.5977C109.009 30.6237 108.97 30.6693 108.944 30.7344C108.918 30.7865 108.892 30.8385 108.866 30.8906C108.84 30.9297 108.801 30.9688 108.749 31.0078C108.71 31.0339 108.651 31.0404 108.573 31.0273C108.547 31.1836 108.482 31.3073 108.378 31.3984C108.274 31.4896 108.222 31.6263 108.222 31.8086C108.079 31.8867 107.961 31.9844 107.87 32.1016C107.779 32.2188 107.688 32.3424 107.597 32.4727C107.506 32.6029 107.408 32.7266 107.304 32.8438C107.213 32.9609 107.095 33.0521 106.952 33.1172C106.887 33.1953 106.868 33.319 106.894 33.4883C106.75 33.6055 106.575 33.7096 106.366 33.8008C106.158 33.8919 105.963 33.9375 105.78 33.9375C105.403 33.9375 105.142 33.7357 104.999 33.332C104.999 33.2018 105.012 33.0651 105.038 32.9219C105.051 32.7656 105.077 32.6224 105.116 32.4922C105.155 32.349 105.214 32.2253 105.292 32.1211C105.37 32.0039 105.481 31.9193 105.624 31.8672C105.624 31.75 105.585 31.6719 105.507 31.6328C105.429 31.5807 105.396 31.4961 105.409 31.3789C105.761 31.2096 106.067 30.9883 106.327 30.7148C106.588 30.4414 106.822 30.1549 107.03 29.8555C107.252 29.543 107.473 29.2305 107.694 28.918C107.916 28.6055 108.163 28.3255 108.437 28.0781V27.668C108.827 27.2513 109.081 26.7826 109.198 26.2617C109.342 26.2357 109.433 26.1706 109.472 26.0664C109.524 25.9622 109.55 25.8385 109.55 25.6953C109.615 25.6953 109.654 25.6693 109.667 25.6172C109.693 25.5521 109.752 25.5326 109.843 25.5586C109.96 25.2461 110.09 24.9596 110.233 24.6992C110.377 24.4388 110.52 24.1784 110.663 23.918C110.806 23.6445 110.93 23.3646 111.034 23.0781C111.151 22.7917 111.236 22.4727 111.288 22.1211C111.47 22.1081 111.568 22.0234 111.581 21.8672C111.607 21.6979 111.633 21.5482 111.659 21.418C111.855 21.2357 111.998 21.0208 112.089 20.7734C112.193 20.526 112.284 20.2721 112.362 20.0117C112.44 19.7383 112.525 19.4714 112.616 19.2109C112.72 18.9375 112.864 18.6966 113.046 18.4883V18.4297C113.046 18.3646 113.02 18.3255 112.968 18.3125C112.916 18.2865 112.89 18.2409 112.89 18.1758C112.903 18.1628 112.909 18.1497 112.909 18.1367C113.065 18.0716 113.183 17.9674 113.261 17.8242C113.339 17.668 113.456 17.5573 113.612 17.4922C113.886 17.7135 114.127 17.8503 114.335 17.9023C114.543 17.9414 114.817 17.974 115.155 18C115.325 18.1823 115.416 18.4036 115.429 18.6641C115.455 18.9115 115.5 19.1589 115.565 19.4062C115.67 19.8229 115.78 20.2331 115.898 20.6367C116.028 21.0273 116.125 21.431 116.19 21.8477C116.23 22.0951 116.301 22.3294 116.405 22.5508C116.509 22.7721 116.581 23 116.62 23.2344C116.646 23.4167 116.646 23.625 116.62 23.8594C116.594 24.0807 116.62 24.276 116.698 24.4453L116.835 24.7578C116.9 24.901 116.952 25.0508 116.991 25.207C117.043 25.3633 117.089 25.5195 117.128 25.6758C117.232 26.0664 117.323 26.4896 117.401 26.9453C117.493 27.388 117.629 27.7917 117.812 28.1562C117.877 28.2865 117.974 28.3776 118.105 28.4297C118.248 28.4818 118.404 28.5208 118.573 28.5469C118.743 28.5599 118.905 28.5664 119.062 28.5664C119.231 28.5534 119.374 28.5469 119.491 28.5469H119.687C119.765 28.5469 119.843 28.5599 119.921 28.5859C119.973 28.6901 119.999 28.7812 119.999 28.8594C119.999 29.0156 119.947 29.1393 119.843 29.2305C119.739 29.3216 119.687 29.4258 119.687 29.543C119.687 29.6081 119.713 29.6797 119.765 29.7578C119.713 29.7448 119.634 29.7383 119.53 29.7383C119.231 29.7383 118.938 29.7904 118.651 29.8945C118.756 30.1159 118.892 30.3047 119.062 30.4609C119.244 30.6042 119.433 30.7409 119.628 30.8711C119.758 30.7669 119.895 30.7148 120.038 30.7148C120.194 30.7148 120.338 30.7539 120.468 30.832C120.611 30.8971 120.761 30.9297 120.917 30.9297C121.034 30.9297 121.119 30.9102 121.171 30.8711C121.275 30.9883 121.36 31.112 121.425 31.2422C121.49 31.3594 121.575 31.4701 121.679 31.5742ZM115.565 28.4492C115.539 28.2279 115.494 28.0716 115.429 27.9805C115.377 27.8763 115.331 27.7526 115.292 27.6094C115.24 27.4271 115.201 27.2318 115.175 27.0234C115.162 26.8151 115.136 26.6133 115.097 26.418C115.006 25.9753 114.901 25.5326 114.784 25.0898C114.68 24.6471 114.543 24.2174 114.374 23.8008C114.426 23.7227 114.452 23.651 114.452 23.5859V23.5273C114.335 23.3971 114.25 23.2409 114.198 23.0586C114.146 22.8633 114.094 22.6745 114.042 22.4922C114.003 22.2969 113.944 22.1211 113.866 21.9648C113.801 21.7956 113.69 21.6589 113.534 21.5547C113.495 21.6328 113.476 21.724 113.476 21.8281C113.476 21.9193 113.482 22.0039 113.495 22.082C113.521 22.1602 113.534 22.2448 113.534 22.3359C113.404 22.401 113.306 22.5052 113.241 22.6484C113.189 22.7786 113.098 22.8828 112.968 22.9609C112.864 23.3776 112.714 23.7747 112.519 24.1523C112.323 24.5169 112.115 24.8815 111.894 25.2461C111.685 25.6107 111.483 25.9818 111.288 26.3594C111.093 26.724 110.937 27.1081 110.819 27.5117C110.65 27.6289 110.533 27.7786 110.468 27.9609C110.416 28.1432 110.39 28.3255 110.39 28.5078C110.507 28.5729 110.637 28.612 110.78 28.625C110.937 28.625 111.086 28.625 111.23 28.625C111.373 28.625 111.509 28.638 111.64 28.6641C111.77 28.6901 111.887 28.7552 111.991 28.8594C112.161 28.8073 112.343 28.7747 112.538 28.7617C112.746 28.7357 112.916 28.6771 113.046 28.5859C113.306 28.6771 113.586 28.7227 113.886 28.7227C114.042 28.7227 114.192 28.7096 114.335 28.6836C114.491 28.6576 114.641 28.625 114.784 28.5859C114.901 28.612 114.993 28.6576 115.058 28.7227C115.123 28.7747 115.22 28.7943 115.351 28.7812C115.416 28.7292 115.455 28.6771 115.468 28.625C115.481 28.5599 115.513 28.5013 115.565 28.4492ZM131.855 19.5625C131.855 19.6797 131.802 19.7773 131.698 19.8555C131.607 19.9336 131.562 19.9922 131.562 20.0312C131.562 20.1094 131.575 20.168 131.601 20.207C131.627 20.2331 131.64 20.2656 131.64 20.3047V20.4023C131.509 20.5326 131.412 20.6758 131.347 20.832C131.282 20.9753 131.23 21.1315 131.19 21.3008C131.151 21.457 131.112 21.6198 131.073 21.7891C131.047 21.9583 131.008 22.1211 130.956 22.2773C130.891 22.4336 130.806 22.5703 130.702 22.6875C130.598 22.7917 130.513 22.9154 130.448 23.0586C130.344 23.293 130.266 23.5339 130.214 23.7812C130.162 24.0286 130.051 24.2565 129.882 24.4648V24.5625C129.869 24.6536 129.895 24.7318 129.96 24.7969C129.713 25.1224 129.517 25.513 129.374 25.9688C129.231 26.4115 129.114 26.8802 129.023 27.375C128.931 27.8568 128.853 28.3451 128.788 28.8398C128.723 29.3216 128.645 29.7578 128.554 30.1484C128.619 30.4349 128.717 30.7083 128.847 30.9688C128.99 31.2161 129.127 31.4766 129.257 31.75C129.517 31.8151 129.765 31.9062 129.999 32.0234C130.246 32.1406 130.422 32.3294 130.526 32.5898C130.5 32.8503 130.416 33.0521 130.273 33.1953C130.129 33.3385 129.954 33.4883 129.745 33.6445C129.602 33.5924 129.485 33.5469 129.394 33.5078C129.302 33.4818 129.166 33.4818 128.983 33.5078C128.736 33.3125 128.502 33.1562 128.28 33.0391C128.072 32.9219 127.883 32.7201 127.714 32.4336C127.688 32.3945 127.649 32.375 127.597 32.375H127.421C127.356 32.2188 127.278 32.056 127.187 31.8867C127.095 31.7044 127.004 31.5221 126.913 31.3398C126.822 31.1445 126.744 30.9557 126.679 30.7734C126.614 30.5781 126.581 30.4023 126.581 30.2461C126.581 29.582 126.64 28.9245 126.757 28.2734C126.887 27.6094 126.952 26.9388 126.952 26.2617V26.0664C126.692 26.1315 126.431 26.2227 126.171 26.3398C125.924 26.457 125.67 26.5482 125.409 26.6133C125.318 26.6393 125.266 26.6849 125.253 26.75C125.24 26.8151 125.201 26.8672 125.136 26.9062C125.006 26.9193 124.882 26.9323 124.765 26.9453C124.648 26.9453 124.537 26.9453 124.433 26.9453C124.211 26.9453 123.977 26.9388 123.73 26.9258C123.495 26.8997 123.261 26.8542 123.026 26.7891C122.792 26.724 122.571 26.6328 122.362 26.5156C122.167 26.3984 121.991 26.2487 121.835 26.0664C121.809 26.0794 121.776 26.0924 121.737 26.1055C121.698 26.1185 121.659 26.125 121.62 26.125C121.581 26.125 121.542 26.1185 121.503 26.1055C121.464 26.0924 121.431 26.0794 121.405 26.0664C121.301 25.9232 121.217 25.7669 121.151 25.5977L120.956 25.0898C120.891 24.9206 120.819 24.7578 120.741 24.6016C120.663 24.4453 120.559 24.3021 120.429 24.1719C120.39 23.9375 120.37 23.7096 120.37 23.4883C120.37 23.2539 120.39 23.026 120.429 22.8047C120.455 22.5833 120.5 22.362 120.565 22.1406C120.513 21.9844 120.481 21.8216 120.468 21.6523C120.442 21.4831 120.429 21.3138 120.429 21.1445C120.429 20.9492 120.448 20.7474 120.487 20.5391C120.526 20.3307 120.592 20.1419 120.683 19.9727C120.774 19.7904 120.904 19.6406 121.073 19.5234C121.23 19.4062 121.425 19.3477 121.659 19.3477C121.92 19.3477 122.161 19.4193 122.382 19.5625C122.603 19.6927 122.818 19.8294 123.026 19.9727C123.052 20.1289 123.072 20.2852 123.085 20.4414C123.098 20.5846 123.105 20.7409 123.105 20.9102C123.105 21.2227 123.085 21.5417 123.046 21.8672C123.02 22.1797 123.007 22.4987 123.007 22.8242C123.007 23.1628 123.046 23.4818 123.124 23.7812C123.215 24.0677 123.371 24.3411 123.593 24.6016H123.671C123.775 24.5885 123.866 24.6081 123.944 24.6602C124.023 24.7122 124.114 24.7383 124.218 24.7383C124.309 24.7383 124.381 24.7057 124.433 24.6406C124.485 24.5625 124.55 24.5234 124.628 24.5234C124.706 24.5234 124.765 24.5365 124.804 24.5625C124.843 24.5885 124.875 24.6016 124.901 24.6016C125.045 24.6016 125.207 24.5495 125.39 24.4453C125.572 24.3411 125.689 24.224 125.741 24.0938C125.793 24.1328 125.858 24.1523 125.937 24.1523C126.041 24.1523 126.138 24.1198 126.23 24.0547C126.321 23.9896 126.438 23.957 126.581 23.957C126.659 23.957 126.685 23.9115 126.659 23.8203C126.646 23.7161 126.672 23.651 126.737 23.625C126.894 23.5599 127.063 23.4688 127.245 23.3516C127.44 23.2214 127.597 23.1432 127.714 23.1172C127.779 22.9479 127.857 22.7917 127.948 22.6484C128.052 22.4922 128.157 22.349 128.261 22.2188C128.3 21.9193 128.378 21.6328 128.495 21.3594C128.612 21.0859 128.736 20.8125 128.866 20.5391C128.996 20.2656 129.12 19.9922 129.237 19.7188C129.355 19.4453 129.433 19.1589 129.472 18.8594C129.615 18.7161 129.726 18.5599 129.804 18.3906C129.895 18.2214 129.973 18.0521 130.038 17.8828C130.168 17.8438 130.331 17.8242 130.526 17.8242C130.722 17.8112 130.891 17.8047 131.034 17.8047H131.366C131.405 17.8828 131.457 17.9544 131.523 18.0195L131.718 18.2148C131.601 18.3971 131.542 18.5794 131.542 18.7617C131.542 18.9049 131.575 19.0482 131.64 19.1914C131.705 19.3216 131.776 19.4453 131.855 19.5625Z" fill="white"/>
</g>
<defs>
<filter id="filter0_d" x="0" y="0" width="210" height="60" filterUnits="userSpaceOnUse" color-interpolation-filters="sRGB">
<feFlood flood-opacity="0" result="BackgroundImageFix"/>
<feColorMatrix in="SourceAlpha" type="matrix" values="0 0 0 0 0 0 0 0 0 0 0 0 0 0 0 0 0 0 127 0"/>
<feOffset dy="5"/>
<feGaussianBlur stdDeviation="2.5"/>
<feColorMatrix type="matrix" values="0 0 0 0 0 0 0 0 0 0 0 0 0 0 0 0 0 0 0.25 0"/>
<feBlend mode="normal" in2="BackgroundImageFix" result="effect1_dropShadow"/>
<feBlend mode="normal" in="SourceGraphic" in2="effect1_dropShadow" result="shape"/>
</filter>
</defs>
</svg>
